<?xml version="1.0" standalone="no"?>
<!DOCTYPE svg PUBLIC "-//W3C//DTD SVG 1.1//EN" "http://www.w3.org/Graphics/SVG/1.1/DTD/svg11.dtd">
<svg version="1.1" xmlns="http://www.w3.org/2000/svg" xmlns:xlink="http://www.w3.org/1999/xlink"><metadata>This SVG WebFont was generated by YouWorkForThem.
</metadata><defs><font horiz-adv-x="477" id="ywftsvg"><font-face ascent="800" bbox="-102 -400 1710 2495" cap-height="2000" descent="-200" font-family="" font-stretch="normal" font-weight="300" panose-1="0 0 0 0 0 0 0 0 0 0" underline-position="0" underline-thickness="0" unicode-range="U+0020-A78C" units-per-em="1000" x-height="2000"/><missing-glyph d="M1025 2200v-2500h-792v2500h792zM418 -127h415v82h-255l175 118h80v82h-415v-82h175l-175 -118v-82zM418 213h415v282h-415v-282zM418 645h415v283h-250v-140h85v57h82v-117h-250v200h-82v-283zM418 983h415v250h-83v-165h-332v-85zM418 1125h250v175h165v83h-415v-83 h165v-92h-165v-83zM418 1450h415v85h-165v175h-250v-260zM418 1775h415v83h-165v92h165v83h-413v-83h163v-92h-165v-83zM500 295v118h250v-118h-250zM500 1535v90h83v-90h-83z" horiz-adv-x="1250"/><glyph d="M632 -16q-129 0 -215.5 86.5t-86.5 215.5v806h-183v-1092h-117v1808q0 88 60 148t148 60q89 0 149 -59.5t60 -148.5v-1522q0 -93 70 -147v1861h208q89 0 148.5 -59.5t59.5 -148.5v-492q0 -106 -73 -150q73 -44 73 -150v-714q0 -129 -86.5 -215.5t-214.5 -86.5zM147 1208 h183v600q0 40 -26 65.5t-66 25.5t-65.5 -25.5t-25.5 -65.5v-600zM633 101q79 0 131.5 53t52.5 132v714q0 40 -26 66t-66 26h-92v-991zM633 1208h92q40 0 66 26t26 66v492q0 40 -26 65.5t-66 25.5h-92v-675z" glyph-name="A_B.liga" horiz-adv-x="963" unicode="AB"/><glyph d="M630 -16q-126 0 -211.5 86.5t-85.5 214.5v807h-183v-1092h-120v1808q0 89 60.5 148.5t151.5 59.5q88 0 148 -60t60 -148v-1523q0 -84 60 -138v1661q0 88 60 148t148 60q89 0 149 -59.5t60 -148.5v-517h-117v517q0 40 -26 65.5t-66 25.5t-65.5 -25.5t-25.5 -65.5v-1704h3 q77 0 128.5 51.5t51.5 129.5v424h117v-424q0 -128 -85.5 -214.5t-211.5 -86.5zM150 1208h183v600q0 40 -25.5 65.5t-65.5 25.5t-66 -25.5t-26 -65.5v-600z" glyph-name="A_C.liga" horiz-adv-x="947" unicode="AC"/><glyph d="M30 1808q0 88 60 148t148 60q89 0 149 -59.5t60 -148.5v-1600q0 -40 25.5 -65.5t65.5 -25.5h187q40 0 66 25.5t26 65.5v1584q0 40 -26 65.5t-66 25.5h-92v-1691h-116v1808h208q89 0 148.5 -59.5t59.5 -148.5v-1584q0 -89 -59.5 -148.5t-148.5 -59.5h-187q-88 0 -148 60 t-60 148v884h-183v-1092h-117v1808zM147 1208h183v600q0 40 -26 65.5t-66 25.5t-65.5 -25.5t-25.5 -65.5v-600z" glyph-name="A_D.liga" horiz-adv-x="963" unicode="AD"/><glyph d="M30 1808q0 88 60 148t148 60q89 0 149 -59.5t60 -148.5v-600h70v792h393v-117h-277v-675h237v-116h-237v-884h-116v884h-70v-884q0 -40 25.5 -65.5t65.5 -25.5h372v-117h-372q-88 0 -148 60t-60 148v884h-183v-1092h-117v1808zM147 1208h183v600q0 40 -26 65.5t-66 25.5 t-65.5 -25.5t-25.5 -65.5v-600z" glyph-name="A_E.liga" horiz-adv-x="930" unicode="AE"/><glyph d="M30 1808q0 88 60 148t148 60q89 0 149 -59.5t60 -148.5v-600h70v792h393v-117h-277v-675h237v-116h-237v-1092h-116q-80 2 -133.5 57t-53.5 135v900h-183v-1092h-117v1808zM147 1208h183v600q0 40 -26 65.5t-66 25.5t-65.5 -25.5t-25.5 -65.5v-600zM447 190 q0 -30 19.5 -51t50.5 -22v975h-70v-902z" glyph-name="A_F.liga" horiz-adv-x="920" unicode="AF"/><glyph d="M630 -16q-128 0 -214 86t-86 214v308h-183v-592h-117v1808q0 88 60 148t148 60q89 0 149 -59.5t60 -148.5v-1099h65v1099q0 89 59.5 148.5t148.5 59.5t148.5 -59.5t59.5 -148.5v-517h-116v517q0 40 -26 65.5t-66 25.5t-66 -25.5t-26 -65.5v-1099h300v-425 q0 -128 -85.5 -214t-212.5 -86zM147 709h183v1099q0 40 -26 65.5t-66 25.5t-65.5 -25.5t-25.5 -65.5v-1099zM447 284q0 -89 65 -143v451h-65v-308zM628 101h2q78 0 130 52t52 131v308h-184v-491z" glyph-name="A_G.liga" horiz-adv-x="948" unicode="AG"/><glyph d="M632 -16q-129 0 -215.5 86.5t-86.5 215.5v806h-183v-1092h-117v1808q0 88 60 148t148 60q89 0 149 -59.5t60 -148.5v-600h70v792h116v-792h184v792h116v-1714q0 -129 -86.5 -215.5t-214.5 -86.5zM147 1208h183v600q0 40 -26 65.5t-66 25.5t-65.5 -25.5t-25.5 -65.5v-600z M447 286q0 -80 52.5 -132.5t132.5 -52.5t132.5 52.5t52.5 132.5v806h-184v-806h-116v806h-70v-806z" glyph-name="A_H.liga" horiz-adv-x="973" unicode="AH"/><glyph d="M330 136v956h-183v-1092h-117v1808q0 88 60 148t148 60q89 0 149 -59.5t60 -148.5v-1672q0 -16 9.5 -25.5t25.5 -9.5q15 0 25 9.5t10 25.5v1864h116v-1864q0 -64 -43.5 -108t-107.5 -44t-108 44t-44 108zM147 1208h183v600q0 40 -26 65.5t-66 25.5t-65.5 -25.5 t-25.5 -65.5v-600z" glyph-name="A_I.liga" horiz-adv-x="673" unicode="AI"/><glyph d="M522 -16q-82 0 -137 55t-55 137h117q0 -32 21.5 -53.5t53.5 -21.5t53.5 21.5t21.5 53.5v1824h116v-1824q0 -82 -55 -137t-136 -55zM30 0v1808q0 88 60 148t148 60q89 0 149 -59.5t60 -148.5v-1562h-117v846h-183v-1092h-117zM147 1208h183v600q0 40 -26 65.5t-66 25.5 t-65.5 -25.5t-25.5 -65.5v-600z" glyph-name="A_J.liga" horiz-adv-x="743" unicode="AJ"/><glyph d="M30 1808q0 88 60 148t148 60q89 0 149 -59.5t60 -148.5v-600h70v792h116v-792h92q40 0 66 26t26 66v700h116v-700q0 -107 -77 -150q77 -43 77 -150v-1000h-116v1000q0 40 -26 66t-66 26h-92v-956q0 -64 -43.5 -108t-107.5 -44t-108 44t-44 108v956h-183v-1092h-117v1808z M147 1208h183v600q0 40 -26 65.5t-66 25.5t-65.5 -25.5t-25.5 -65.5v-600zM447 136q0 -16 9.5 -25.5t25.5 -9.5q15 0 25 9.5t10 25.5v956h-70v-956z" glyph-name="A_K.liga" horiz-adv-x="973" unicode="AK"/><glyph d="M30 1808q0 88 60 148t148 60q89 0 149 -59.5t60 -148.5v-1620q0 -30 20 -50t50 -21v1883h116v-1883h260v-117h-375q-80 0 -134 54t-54 134v904h-183v-1092h-117v1808zM147 1208h183v600q0 40 -26 65.5t-66 25.5t-65.5 -25.5t-25.5 -65.5v-600z" glyph-name="A_L.liga" horiz-adv-x="903" unicode="AL"/><glyph d="M30 1808q0 88 60 148t148 60q89 0 149 -59.5t60 -148.5v-1620q0 -30 20 -50t50 -21v1883h116v-1883h447v-117h-570q-77 2 -128.5 56t-51.5 132v904h-183v-1092h-117v1808zM147 1208h183v600q0 40 -26 65.5t-66 25.5t-65.5 -25.5t-25.5 -65.5v-600zM703 187v1813h117 v-1697h260v-116h-377z" glyph-name="A_L_L.liga" horiz-adv-x="1090" unicode="ALL"/><glyph d="M30 1808q0 88 60 148t148 60q89 0 149 -59.5t60 -148.5v-1600q0 -40 25.5 -65.5t65.5 -25.5h492v-117h-492q-88 0 -148 60t-60 148v884h-183v-1092h-117v1808zM147 1208h183v600q0 40 -26 65.5t-66 25.5t-65.5 -25.5t-25.5 -65.5v-600zM517 208v1792h116l242 -825 l242 825h116v-2000h-116v1583l-184 -616h-116l-184 616v-1375h-116z" glyph-name="A_M.liga" horiz-adv-x="1273" unicode="AM"/><glyph d="M30 1808q0 88 60 148t148 60q89 0 149 -59.5t60 -148.5v-1600q0 -40 25.5 -65.5t65.5 -25.5h210v-117h-210q-88 0 -148 60t-60 148v884h-183v-1092h-117v1808zM147 1208h183v600q0 40 -26 65.5t-66 25.5t-65.5 -25.5t-25.5 -65.5v-600zM517 225v1775h116l184 -250v250 h116v-2000h-116v1560l-184 250v-1585h-116z" glyph-name="A_N.liga" horiz-adv-x="973" unicode="AN"/><glyph d="M30 1808q0 88 60 148t148 60q89 0 149 -59.5t60 -148.5v-1600q0 -40 25.5 -65.5t65.5 -25.5h465v1883h209q88 0 148 -60t60 -148v-1584q0 -88 -60 -148t-148 -60h-674q-88 0 -148 60t-60 148v884h-183v-1092h-117v1808zM147 1208h183v600q0 40 -26 65.5t-66 25.5 t-65.5 -25.5t-25.5 -65.5v-600zM517 203v1797h116l184 -250v250h116v-1797h-116v1357l-184 250v-1607h-116zM1120 117h92q40 0 65.5 25.5t25.5 65.5v1584q0 40 -25.5 65.5t-65.5 25.5h-92v-1766z" glyph-name="A_N_D.liga" horiz-adv-x="1450" unicode="AND"/><glyph d="M30 1808q0 88 60 148t148 60q89 0 149 -59.5t60 -148.5v-1600q0 -40 25.5 -65.5t65.5 -25.5h379q102 0 169 67t67 169v635q-67 16 -108.5 69t-41.5 126v817h117v-817q0 -38 26 -63t66 -25t65.5 25t25.5 63v817h117v-817q0 -73 -41.5 -126t-108.5 -69v-635 q0 -151 -101 -252t-252 -101h-379q-88 0 -148 60t-60 148v884h-183v-1092h-117v1808zM147 1208h183v600q0 40 -26 65.5t-66 25.5t-65.5 -25.5t-25.5 -65.5v-600zM517 203v1797h116l184 -250v250h116v-1797h-116v1357l-184 250v-1607h-116z" glyph-name="A_N_Y.liga" horiz-adv-x="1430" unicode="ANY"/><glyph d="M627 -16q-127 0 -212 85t-85 212v811h-183v-1092h-117v1808q0 88 60 148t148 60q89 0 149 -59.5t60 -148.5v-1527q0 -83 60 -137v1664q0 89 59.5 148.5t148.5 59.5t148.5 -59.5t59.5 -148.5v-1527q0 -127 -85 -212t-211 -85zM147 1208h183v600q0 40 -26 65.5t-66 25.5 t-65.5 -25.5t-25.5 -65.5v-600zM623 101h4q77 0 128.5 51.5t51.5 128.5v1527q0 40 -26 65.5t-66 25.5t-66 -25.5t-26 -65.5v-1707z" glyph-name="A_O.liga" horiz-adv-x="953" unicode="AO"/><glyph d="M482 -16q-64 0 -108 44t-44 108v956h-183v-1092h-117v1808q0 88 60 148t148 60q89 0 149 -59.5t60 -148.5v-1672q0 -16 9.5 -25.5t25.5 -9.5q15 0 25 9.5t10 25.5v1864h208q89 0 148.5 -59.5t59.5 -148.5v-492q0 -89 -59.5 -148.5t-148.5 -59.5h-92v-956 q0 -64 -43.5 -108t-107.5 -44zM147 1208h183v600q0 40 -26 65.5t-66 25.5t-65.5 -25.5t-25.5 -65.5v-600zM633 1208h92q40 0 66 26t26 66v492q0 40 -26 65.5t-66 25.5h-92v-675z" glyph-name="A_P.liga" horiz-adv-x="943" unicode="AP"/><glyph d="M30 0v1808q0 88 60 148t148 60q89 0 149 -59.5t60 -148.5v-1527q0 -83 60 -137v1664q0 89 59.5 148.5t148.5 59.5t148.5 -59.5t59.5 -148.5v-1527q0 -85 -40.5 -154t-109.5 -107v-220h-116v185q-10 -1 -30 -1q-127 0 -212 85t-85 212v811h-183v-1092h-117zM147 1208h183 v600q0 40 -26 65.5t-66 25.5t-65.5 -25.5t-25.5 -65.5v-600zM623 101h4q77 0 128.5 51.5t51.5 128.5v1527q0 40 -26 65.5t-66 25.5t-66 -25.5t-26 -65.5v-1707z" glyph-name="A_Q.liga" horiz-adv-x="953" unicode="AQ"/><glyph d="M30 0v1808q0 88 60 148t148 60q89 0 149 -59.5t60 -148.5v-1522q0 -80 52.5 -132.5t132.5 -52.5t132.5 52.5t52.5 132.5v714q0 40 -26 66t-66 26h-92v-806h-116v1714h208q89 0 148.5 -59.5t59.5 -148.5v-492q0 -91 -61 -150q61 -59 61 -150v-714q0 -129 -86.5 -215.5 t-214.5 -86.5q-129 0 -215.5 86.5t-86.5 215.5v806h-183v-1092h-117zM147 1208h183v600q0 40 -26 65.5t-66 25.5t-65.5 -25.5t-25.5 -65.5v-600zM633 1208h92q40 0 66 26t26 66v492q0 40 -26 65.5t-66 25.5h-92v-675z" glyph-name="A_R.liga" horiz-adv-x="963" unicode="AR"/><glyph d="M632 -16q-129 0 -215.5 86.5t-86.5 215.5v806h-183v-1092h-117v1808q0 88 60 148t148 60q89 0 149 -59.5t60 -148.5v-1522q0 -80 52.5 -132.5t132.5 -52.5t132.5 52.5t52.5 132.5v714q0 40 -26 66t-66 26h-92v-806h-116v1714h208q89 0 148.5 -59.5t59.5 -148.5v-492 q0 -91 -61 -150q61 -59 61 -150v-698q0 -93 70 -147v1845h209q88 0 148 -60t60 -148v-1584q0 -88 -60 -148t-148 -60h-94q-72 0 -134 29.5t-103 82.5q-41 -60 -106 -94t-143 -34zM147 1208h183v600q0 40 -26 65.5t-66 25.5t-65.5 -25.5t-25.5 -65.5v-600zM633 1208h92 q40 0 66 26t26 66v492q0 40 -26 65.5t-66 25.5h-92v-675zM1120 117h92q40 0 65.5 25.5t25.5 65.5v1584q0 40 -25.5 65.5t-65.5 25.5h-92v-1766z" glyph-name="A_R_D.liga" horiz-adv-x="1450" unicode="ARD"/><glyph d="M30 0v1808q0 88 60 148t148 60q89 0 149 -59.5t60 -148.5v-1522q0 -80 52.5 -132.5t132.5 -52.5t132.5 52.5t52.5 132.5v714q0 40 -26 66t-66 26h-92v-806h-116v1714h208q89 0 148.5 -59.5t59.5 -148.5v-492q0 -91 -61 -150q61 -59 61 -150v-715q0 -72 48.5 -120 t120.5 -48h278v-117h-278q-141 0 -225 107q-41 -58 -105 -90.5t-140 -32.5q-129 0 -215.5 86.5t-86.5 215.5v806h-183v-1092h-117zM147 1208h183v600q0 40 -26 65.5t-66 25.5t-65.5 -25.5t-25.5 -65.5v-600zM633 1208h92q40 0 66 26t26 66v492q0 40 -26 65.5t-66 25.5h-92 v-675zM1003 203v1797h377v-117h-260v-675h220v-116h-220v-772h260v-117h-377z" glyph-name="A_R_E.liga" horiz-adv-x="1400" unicode="ARE"/><glyph d="M30 0v1808q0 88 60 148t148 60q89 0 149 -59.5t60 -148.5v-1029h-117v313h-183v-1092h-117zM147 1208h183v600q0 40 -26 65.5t-66 25.5t-65.5 -25.5t-25.5 -65.5v-600zM330 281v428h117v-428q0 -77 51.5 -128.5t128.5 -51.5t128.5 51.5t51.5 128.5v569q0 40 -26 66 t-66 26q-89 0 -148.5 59.5t-59.5 148.5v658q0 89 59.5 148.5t148.5 59.5t148.5 -59.5t59.5 -148.5v-517h-116v517q0 40 -26 65.5t-66 25.5t-66 -25.5t-26 -65.5v-658q0 -40 26 -66t66 -26q89 0 148.5 -59.5t59.5 -148.5v-569q0 -127 -85 -212t-211 -85q-127 0 -212 85 t-85 212z" glyph-name="A_S.liga" horiz-adv-x="953" unicode="AS"/><glyph d="M30 0v1808q0 88 60 148t148 60q89 0 149 -59.5t60 -148.5v-1612q0 -40 27.5 -67.5t67.5 -27.5t67.5 27.5t27.5 67.5v1687h-150v117h416v-117h-150v-1687q0 -90 -61 -151t-150 -61q-90 0 -151 61t-61 151v896h-183v-1092h-117zM147 1208h183v600q0 40 -26 65.5t-66 25.5 t-65.5 -25.5t-25.5 -65.5v-600z" glyph-name="A_T.liga" horiz-adv-x="913" unicode="AT"/><glyph d="M30 0v1808q0 88 60 148t148 60q89 0 149 -59.5t60 -148.5v-1600q0 -40 25.5 -65.5t65.5 -25.5h395v-117h-395q-88 0 -148 60t-60 148v884h-183v-1092h-117zM147 1208h183v600q0 40 -26 65.5t-66 25.5t-65.5 -25.5t-25.5 -65.5v-600zM517 389v1611h116v-1611q0 -40 26 -66 t66 -26t66 26t26 66v1611h116v-1611q0 -89 -59.5 -148.5t-148.5 -59.5t-148.5 59.5t-59.5 148.5z" glyph-name="A_U.liga" horiz-adv-x="963" unicode="AU"/><glyph d="M610 225l-117 1775h117l92 -1394l91 1394h117l-117 -1775h-183zM30 1808q0 88 60 148t148 60q89 0 149 -59.5t60 -148.5v-1600q0 -40 25.5 -65.5t65.5 -25.5h372v-117h-372q-88 0 -148 60t-60 148v884h-183v-1092h-117v1808zM147 1208h183v600q0 40 -26 65.5t-66 25.5 t-65.5 -25.5t-25.5 -65.5v-600z" glyph-name="A_V.liga" horiz-adv-x="920" unicode="AV"/><glyph d="M930 192v1808h117v-1808q0 -89 -60 -148.5t-149 -59.5t-150 61q-59 -61 -150 -61q-88 0 -148 60t-60 148v508h117v-508q0 -40 25.5 -65.5t65.5 -25.5t66 25.5t26 65.5v1808h117v-1808q0 -40 25.5 -65.5t65.5 -25.5t66 25.5t26 65.5zM30 0v1808q0 88 60 148t148 60 q89 0 149 -59.5t60 -148.5v-1008h-117v292h-183v-1092h-117zM147 1208h183v600q0 40 -26 65.5t-66 25.5t-65.5 -25.5t-25.5 -65.5v-600z" glyph-name="A_W.liga" horiz-adv-x="1077" unicode="AW"/><glyph d="M30 0v1808q0 88 60 148t148 60q89 0 149 -59.5t60 -148.5v-1676q0 -13 9 -22t22 -9t22.5 9t9.5 22v698q0 56 25.5 103t69.5 74q-44 27 -69.5 73.5t-25.5 102.5v817h117v-817q0 -40 25.5 -65.5t65.5 -25.5t66 25.5t26 65.5v817h117v-817q0 -56 -25.5 -102.5t-69.5 -73.5 q44 -27 69.5 -74t25.5 -103v-830h-117v830q0 40 -26 66t-66 26t-65.5 -26t-25.5 -66v-698q0 -62 -43 -105t-106 -43q-62 0 -105 43t-43 105v960h-183v-1092h-117zM147 1208h183v600q0 40 -26 65.5t-66 25.5t-65.5 -25.5t-25.5 -65.5v-600z" glyph-name="A_X.liga" horiz-adv-x="957" unicode="AX"/><glyph d="M30 0v1808q0 88 60 148t148 60q89 0 149 -59.5t60 -148.5v-1527q0 -77 51.5 -128.5t129.5 -51.5t130 51.5t52 128.5v549q0 40 -26 66t-66 26t-65.5 -26t-25.5 -66v-549h-117v549q0 56 25.5 103t69.5 74q-44 27 -69.5 73.5t-25.5 102.5v817h117v-817q0 -40 25.5 -65.5 t65.5 -25.5t66 25.5t26 65.5v817h117v-817q0 -56 -25.5 -102.5t-69.5 -73.5q44 -27 69.5 -74t25.5 -103v-549q0 -127 -85.5 -212t-213.5 -85q-127 0 -212.5 85t-85.5 212v811h-183v-1092h-117zM147 1208h183v600q0 40 -26 65.5t-66 25.5t-65.5 -25.5t-25.5 -65.5v-600z" glyph-name="A_X_one.liga" horiz-adv-x="957" unicode="AX1"/><glyph d="M30 0v1808q0 88 60 148t148 60q89 0 149 -59.5t60 -148.5v-1607q0 -43 28.5 -71.5t71.5 -28.5t71.5 28.5t28.5 71.5v782q-67 18 -108.5 72.5t-41.5 127.5v817h116v-817q0 -40 26 -65.5t66 -25.5t66 25.5t26 65.5v817h116v-817q0 -73 -41.5 -127.5t-108.5 -72.5v-782 q0 -92 -62 -154.5t-154 -62.5t-154.5 62.5t-62.5 154.5v891h-183v-1092h-117zM147 1208h183v600q0 40 -26 65.5t-66 25.5t-65.5 -25.5t-25.5 -65.5v-600z" glyph-name="A_Y.liga" horiz-adv-x="923" unicode="AY"/><glyph d="M538 0q-88 0 -148 60t-60 148v884h-183v-1092h-117v1808q0 88 60 148t148 60q89 0 149 -59.5t60 -148.5v-1600q0 -38 23.5 -63t60.5 -28l264 1766h-282v117h417l-282 -1883h282v-117h-392zM147 1208h183v600q0 40 -26 65.5t-66 25.5t-65.5 -25.5t-25.5 -65.5v-600z" glyph-name="A_Z.liga" horiz-adv-x="950" unicode="AZ"/><glyph d="M40 0v2000h208q89 0 149 -59.5t60 -148.5v-492q0 -91 -61 -150q61 -59 61 -150v-792v-1q0 -46 25.5 -76t65.5 -30t66 25.5t26 65.5v1808h117v-1808q0 -89 -60 -148.5t-149 -59.5q-95 0 -156 71q-60 -55 -144 -55h-208zM157 117h91q40 0 66 25.5t26 65.5v792q0 40 -26 66 t-66 26h-91v-975zM157 1208h91q40 0 66 26t26 66v492q0 40 -26 65.5t-66 25.5h-91v-675z" glyph-name="B_J.liga" horiz-adv-x="787" unicode="BJ"/><glyph d="M527 0v1883h-487v117h770v-117h-167v-1883h-116zM40 0v1813h208q89 0 149 -59.5t60 -148.5v-408q0 -91 -61 -150q61 -61 61 -150v-689q0 -89 -60 -148.5t-149 -59.5h-208zM157 117h91q40 0 66 25.5t26 65.5v689q0 40 -26 65.5t-66 25.5h-91v-871zM157 1105h91q40 0 66 26 t26 66v408q0 40 -26 66t-66 26h-91v-592z" glyph-name="B_T.liga" horiz-adv-x="820" unicode="BT"/><glyph d="M1013 0v1883h-973v117h1257v-117h-167v-1883h-117zM40 0v1813h208q89 0 149 -59.5t60 -148.5v-398q0 -91 -61 -150q61 -61 61 -150v-699q0 -89 -60 -148.5t-149 -59.5h-208zM157 117h91q40 0 66 25.5t26 65.5v699q0 40 -26 65.5t-66 25.5h-91v-881zM157 1115h91 q40 0 66 26t26 66v398q0 40 -26 66t-66 26h-91v-582zM527 192v1621h116v-1621q0 -40 26 -65.5t66 -25.5t66 25.5t26 65.5v1621h116v-1621q0 -89 -59.5 -148.5t-148.5 -59.5t-148.5 59.5t-59.5 148.5z" glyph-name="B_U_T.liga" horiz-adv-x="1307" unicode="BUT"/><glyph d="M797 0v1092h-184v-313h-116v1029q0 89 59.5 148.5t148.5 59.5t148.5 -59.5t59.5 -148.5v-1808h-116zM30 276v1532q0 88 60 148t148 60q89 0 149 -59.5t60 -148.5v-517h-117v517q0 40 -26 65.5t-66 25.5t-65.5 -25.5t-25.5 -65.5v-1532q0 -76 49.5 -125.5t125.5 -49.5 q75 0 125 49.5t50 125.5v433h116v-433q0 -124 -83.5 -208t-207.5 -84t-208 84t-84 208zM613 1208h184v600q0 40 -26 65.5t-66 25.5t-66 -25.5t-26 -65.5v-600z" glyph-name="C_A.liga" horiz-adv-x="943" unicode="CA"/><glyph d="M30 281v1527q0 88 60 148t148 60q89 0 149 -59.5t60 -148.5v-517h-117v517q0 40 -26 65.5t-66 25.5t-65.5 -25.5t-25.5 -65.5v-1527q0 -77 51.5 -128.5t128.5 -51.5t128.5 51.5t51.5 128.5v428h116v-428q0 -127 -85 -212t-211 -85q-127 0 -212 85t-85 212zM507 779v1221 h208q89 0 148.5 -59.5t59.5 -148.5v-492q0 -91 -61 -150q61 -59 61 -150v-792q0 -89 -59.5 -148.5t-148.5 -59.5h-50v117h50q40 0 66 25.5t26 65.5v792q0 40 -26 66t-66 26h-92v-313h-116zM623 1208h92q40 0 66 26t26 66v492q0 40 -26 65.5t-66 25.5h-92v-675z" glyph-name="C_B.liga" horiz-adv-x="953" unicode="CB"/><glyph d="M30 192v1616q0 88 60 148t148 60q89 0 149 -59.5t60 -148.5v-117h-117v117q0 40 -26 65.5t-66 25.5t-65.5 -25.5t-25.5 -65.5v-1616q0 -40 25.5 -65.5t65.5 -25.5t66 25.5t26 65.5v117h117v-117q0 -89 -60 -148.5t-149 -59.5q-88 0 -148 60t-60 148zM227 592v816 q0 89 59.5 148.5t148.5 59.5t148.5 -59.5t59.5 -148.5v-217h-116v217q0 40 -26 65.5t-66 25.5t-66 -25.5t-26 -65.5v-816q0 -40 26 -65.5t66 -25.5t66 25.5t26 65.5v217h116v-217q0 -89 -59.5 -148.5t-148.5 -59.5t-148.5 59.5t-59.5 148.5z" glyph-name="C_C.liga" horiz-adv-x="653" unicode="CC"/><glyph d="M30 192v1616q0 88 60 148t148 60q89 0 149 -59.5t60 -148.5v-117h-117v117q0 40 -26 65.5t-66 25.5t-65.5 -25.5t-25.5 -65.5v-1616q0 -40 25.5 -65.5t65.5 -25.5t66 25.5t26 65.5v117h117v-117q0 -89 -60 -148.5t-149 -59.5q-88 0 -148 60t-60 148zM227 400v1200h208 q89 0 148.5 -59.5t59.5 -148.5v-784q0 -89 -59.5 -148.5t-148.5 -59.5h-208zM343 517h92q40 0 66 25.5t26 65.5v784q0 40 -26 65.5t-66 25.5h-92v-966z" glyph-name="C_D.liga" horiz-adv-x="653" unicode="CD"/><glyph d="M30 281v1527q0 88 60 148t148 60q89 0 149 -59.5t60 -148.5v-517h-117v517q0 40 -26 65.5t-66 25.5t-65.5 -25.5t-25.5 -65.5v-1527q0 -78 51 -129t129 -51q77 0 128.5 51t51.5 129v228h116v-228q0 -73 50.5 -118.5t130.5 -45.5h96v-117h-96q-149 0 -235 105 q-40 -57 -103.5 -89t-138.5 -32q-127 0 -212 85t-85 212zM507 579v1421h393v-117h-277v-675h237v-116h-237v-513h-116z" glyph-name="C_E.liga" horiz-adv-x="920" unicode="CE"/><glyph d="M30 281v1527q0 88 60 148t148 60q89 0 149 -59.5t60 -148.5v-517h-117v517q0 40 -26 65.5t-66 25.5t-65.5 -25.5t-25.5 -65.5v-1527q0 -78 51 -129t129 -51q77 0 128.5 51t51.5 129v228h116v-228q0 -127 -85 -212t-211 -85q-127 0 -212 85t-85 212zM507 579v1421h393 v-117h-277v-675h237v-116h-237v-513h-116z" glyph-name="C_F.liga" horiz-adv-x="910" unicode="CF"/><glyph d="M30 192v1616q0 88 60 148t148 60q89 0 149 -59.5t60 -148.5v-517h-117v517q0 40 -26 65.5t-66 25.5t-65.5 -25.5t-25.5 -65.5v-1616q0 -40 25.5 -65.5t65.5 -25.5t66 25.5t26 65.5v517h177v1099q0 89 59.5 148.5t148.5 59.5t148.5 -59.5t59.5 -148.5v-517h-116v517 q0 40 -26 65.5t-66 25.5t-66 -25.5t-26 -65.5v-1099h300v-517q0 -89 -59.5 -148.5t-148.5 -59.5t-148.5 59.5t-59.5 148.5v400h-60v-400q0 -89 -60 -148.5t-149 -59.5q-88 0 -148 60t-60 148zM623 192q0 -40 26 -65.5t66 -25.5t66 25.5t26 65.5v400h-184v-400z" glyph-name="C_G.liga" horiz-adv-x="943" unicode="CG"/><glyph d="M630 0v1092h-183v-713h-117v1242h117v-413h183v792h117v-2000h-117zM30 192v1616q0 88 60 148t148 60q89 0 149 -59.5t60 -148.5v-117h-117v117q0 40 -26 65.5t-66 25.5t-65.5 -25.5t-25.5 -65.5v-1616q0 -40 25.5 -65.5t65.5 -25.5t66 25.5t26 65.5v117h117v-117 q0 -89 -60 -148.5t-149 -59.5q-88 0 -148 60t-60 148z" glyph-name="C_H.liga" horiz-adv-x="787" unicode="CH"/><glyph d="M30 281v1527q0 88 60 148t148 60q89 0 149 -59.5t60 -148.5v-517h-117v517q0 40 -26 65.5t-66 25.5t-65.5 -25.5t-25.5 -65.5v-1527q0 -78 51 -129t129 -51q77 0 128.5 51t51.5 129v228h116v-228q0 -127 -85 -212t-211 -85q-127 0 -212 85t-85 212zM507 579v1421h116 v-1421h-116z" glyph-name="C_I.liga" horiz-adv-x="663" unicode="CI"/><glyph d="M425 -16q-168 0 -281.5 118t-113.5 294v1412q0 88 60 148t148 60q89 0 149 -59.5t60 -148.5v-517h-117v517q0 40 -26 65.5t-66 25.5t-65.5 -25.5t-25.5 -65.5v-1412q0 -127 79.5 -211t198.5 -84t198.5 84t79.5 211v313h117v-313q0 -176 -113.5 -294t-281.5 -118zM217 379 h116q0 -40 26 -66t66 -26t66 26t26 66v1621h116v-1621q0 -89 -59.5 -148.5t-148.5 -59.5t-148.5 59.5t-59.5 148.5z" glyph-name="C_J.liga" horiz-adv-x="830" unicode="CJ"/><glyph d="M30 192v1616q0 88 60 148t148 60q89 0 149 -59.5t60 -148.5v-117h-117v117q0 40 -26 65.5t-66 25.5t-65.5 -25.5t-25.5 -65.5v-1616q0 -40 25.5 -65.5t65.5 -25.5t66 25.5t26 65.5v117h117v-117q0 -89 -60 -148.5t-149 -59.5q-88 0 -148 60t-60 148zM330 379v1242h117 v-413h91q40 0 66 26t26 66v700h117v-700q0 -91 -61 -150q61 -59 61 -150v-1000h-117v1000q0 40 -26 66t-66 26h-91v-713h-117z" glyph-name="C_K.liga" horiz-adv-x="787" unicode="CK"/><glyph d="M422 -16q-168 0 -280 112t-112 280v1378q0 112 75 187t187 75q111 0 186 -75t75 -187v-463h-116v463q0 62 -41.5 103.5t-103.5 41.5t-103.5 -41.5t-41.5 -103.5v-1378q0 -118 78.5 -196.5t196.5 -78.5t196.5 78.5t78.5 196.5v333h116v-333q0 -168 -112 -280t-279 -112z M233 277v1522h117v-1406h260v-116h-377z" glyph-name="C_L.liga" horiz-adv-x="823" unicode="CL"/><glyph d="M807 900l-184 675v-996h-116v1421h116l242 -887l242 887h116v-2000h-116v1575l-184 -675h-116zM30 281v1527q0 88 60 148t148 60q89 0 149 -59.5t60 -148.5v-517h-117v517q0 40 -26 65.5t-66 25.5t-65.5 -25.5t-25.5 -65.5v-1527q0 -78 51 -129t129 -51q77 0 128.5 51 t51.5 129v228h116v-228q0 -127 -85 -212t-211 -85q-127 0 -212 85t-85 212z" glyph-name="C_M.liga" horiz-adv-x="1263" unicode="CM"/><glyph d="M807 0v1500l-184 307v-1228h-116v1421h116l184 -307v307h116v-2000h-116zM30 281v1527q0 88 60 148t148 60q89 0 149 -59.5t60 -148.5v-517h-117v517q0 40 -26 65.5t-66 25.5t-65.5 -25.5t-25.5 -65.5v-1527q0 -78 51 -129t129 -51q77 0 128.5 51t51.5 129v228h116v-228 q0 -127 -85 -212t-211 -85q-127 0 -212 85t-85 212z" glyph-name="C_N.liga" horiz-adv-x="963" unicode="CN"/><glyph d="M30 192v1616q0 88 60 148t148 60q89 0 149 -59.5t60 -148.5v-117h-117v117q0 40 -26 65.5t-66 25.5t-65.5 -25.5t-25.5 -65.5v-1616q0 -40 25.5 -65.5t65.5 -25.5t66 25.5t26 65.5v117h117v-117q0 -89 -60 -148.5t-149 -59.5q-88 0 -148 60t-60 148zM227 592v816 q0 89 59.5 148.5t148.5 59.5t148.5 -59.5t59.5 -148.5v-816q0 -89 -59.5 -148.5t-148.5 -59.5t-148.5 59.5t-59.5 148.5zM343 592q0 -40 26 -65.5t66 -25.5t66 25.5t26 65.5v816q0 40 -26 65.5t-66 25.5t-66 -25.5t-26 -65.5v-816z" glyph-name="C_O.liga" horiz-adv-x="653" unicode="CO"/><glyph d="M30 281v1527q0 88 60 148t148 60q89 0 149 -59.5t60 -148.5v-517h-117v517q0 40 -26 65.5t-66 25.5t-65.5 -25.5t-25.5 -65.5v-1527q0 -78 51 -129t129 -51q77 0 128.5 51t51.5 129v228h116v-228q0 -127 -85 -212t-211 -85q-127 0 -212 85t-85 212zM507 579v1421h208 q89 0 148.5 -59.5t59.5 -148.5v-509q0 -89 -59.5 -148.5t-148.5 -59.5h-92v-496h-116zM623 1192h92q40 0 66 25.5t26 65.5v509q0 40 -26 65.5t-66 25.5h-92v-691z" glyph-name="C_P.liga" horiz-adv-x="933" unicode="CP"/><glyph d="M30 281v1527q0 88 60 148t148 60q89 0 149 -59.5t60 -148.5v-517h-117v517q0 40 -26 65.5t-66 25.5t-65.5 -25.5t-25.5 -65.5v-1527q0 -78 51 -129t129 -51q77 0 128.5 51t51.5 129v228h116v-228q0 -127 -85 -212t-211 -85q-127 0 -212 85t-85 212zM507 579v1421h208 q89 0 148.5 -59.5t59.5 -148.5v-492q0 -91 -61 -150q61 -59 61 -150v-1000h-116v1000q0 40 -26 66t-66 26h-92v-513h-116zM623 1208h92q40 0 66 26t26 66v492q0 40 -26 65.5t-66 25.5h-92v-675z" glyph-name="C_R.liga" horiz-adv-x="953" unicode="CR"/><glyph d="M30 1621q0 168 113.5 281.5t281.5 113.5t281.5 -113.5t113.5 -281.5v-330h-117v330q0 119 -79.5 198.5t-198.5 79.5t-198.5 -79.5t-79.5 -198.5v-1242q0 -119 79.5 -198.5t198.5 -79.5t198.5 79.5t79.5 198.5v330h117v-330q0 -168 -113.5 -281.5t-281.5 -113.5 t-281.5 113.5t-113.5 281.5v1242zM217 379v330h116v-330q0 -40 26 -66t66 -26t66 26t26 66v471q0 40 -26 66t-66 26q-89 0 -148.5 59.5t-59.5 148.5v471q0 89 59.5 148.5t148.5 59.5t148.5 -59.5t59.5 -148.5v-330h-116v330q0 40 -26 66t-66 26t-66 -26t-26 -66v-471 q0 -40 26 -66t66 -26q89 0 148.5 -59.5t59.5 -148.5v-471q0 -89 -59.5 -148.5t-148.5 -59.5t-148.5 59.5t-59.5 148.5z" glyph-name="C_S.liga" horiz-adv-x="840" unicode="CS"/><glyph d="M517 0v1883h-487v117h770v-117h-167v-1883h-116zM30 192v1413q0 89 59.5 148.5t148.5 59.5t149 -59.5t60 -148.5v-550h-117v550q0 40 -26 66t-66 26t-65.5 -26t-25.5 -66v-1413q0 -40 25.5 -65.5t65.5 -25.5t66 25.5t26 65.5v517h117v-517q0 -89 -60 -148.5t-149 -59.5 q-88 0 -148 60t-60 148z" glyph-name="C_T.liga" horiz-adv-x="810" unicode="CT"/><glyph d="M387 -16q-152 0 -254.5 102.5t-102.5 254.5v1463q0 91 59.5 151.5t148.5 60.5t149 -60.5t60 -151.5v-513h-117v513q0 41 -26 68t-66 27t-65.5 -27t-25.5 -68v-1463q0 -103 68.5 -171.5t171.5 -68.5t171.5 68.5t68.5 171.5v168h116v-168q0 -152 -102 -254.5t-254 -102.5z M473 1883v117h420v-117h-150v-1304h-116v1304h-154z" glyph-name="C_T_one.liga" horiz-adv-x="903" unicode="CT1"/><glyph d="M30 1621q0 168 113.5 281.5t281.5 113.5t281.5 -113.5t113.5 -281.5v-330h-117v330q0 119 -79.5 198.5t-198.5 79.5t-198.5 -79.5t-79.5 -198.5v-1242q0 -119 79.5 -198.5t198.5 -79.5t198.5 79.5t79.5 198.5v330h117v-330q0 -168 -113.5 -281.5t-281.5 -113.5 t-281.5 113.5t-113.5 281.5v1242zM217 379v1354h116v-1354q0 -40 26 -66t66 -26t66 26t26 66v1354h116v-1354q0 -89 -59.5 -148.5t-148.5 -59.5t-148.5 59.5t-59.5 148.5z" glyph-name="C_U.liga" horiz-adv-x="840" unicode="CU"/><glyph d="M1097 192v1808h116v-1808q0 -89 -59.5 -148.5t-148.5 -59.5q-91 0 -150 61q-59 -61 -150 -61q-89 0 -148.5 59.5t-59.5 148.5v1229h116v-1229q0 -40 26 -65.5t66 -25.5t66 25.5t26 65.5v1808h116v-1808q0 -40 26 -65.5t66 -25.5t66 25.5t26 65.5zM30 192v1532 q0 124 84 208t208 84t207.5 -84t83.5 -208v-233h-116v233q0 76 -50 125.5t-125 49.5q-76 0 -125.5 -49.5t-49.5 -125.5v-1532q0 -40 25.5 -65.5t65.5 -25.5t66 25.5t26 65.5v517h117v-517q0 -89 -60 -148.5t-149 -59.5q-88 0 -148 60t-60 148z" glyph-name="C_W.liga" horiz-adv-x="1243" unicode="CW"/><glyph d="M30 192v1616q0 88 60 148t148 60q89 0 149 -59.5t60 -148.5v-117h-117v117q0 40 -26 65.5t-66 25.5t-65.5 -25.5t-25.5 -65.5v-1616q0 -40 25.5 -65.5t65.5 -25.5t66 25.5t26 65.5v117h117v-117q0 -89 -60 -148.5t-149 -59.5q-88 0 -148 60t-60 148zM330 379v468 q0 112 90 173q-90 61 -90 173v428h117v-428q0 -40 25.5 -65.5t65.5 -25.5t66 25.5t26 65.5v807h117v-807q0 -112 -90 -173q90 -61 90 -173v-847h-117v847q0 40 -26 65.5t-66 25.5t-65.5 -25.5t-25.5 -65.5v-468h-117z" glyph-name="C_X.liga" horiz-adv-x="777" unicode="CX"/><glyph d="M30 276v1532q0 88 60 148t148 60q89 0 149 -59.5t60 -148.5v-517h-117v517q0 40 -26 65.5t-66 25.5t-65.5 -25.5t-25.5 -65.5v-1532q0 -76 49.5 -125.5t125.5 -49.5q75 0 125 49.5t50 125.5v233h116v-233q0 -124 -83.5 -208t-207.5 -84t-208 84t-84 208zM497 579v268 q0 112 89 173q-89 61 -89 173v807h116v-807q0 -40 26 -65.5t66 -25.5t66 25.5t26 65.5v807h116v-807q0 -112 -89 -173q89 -61 89 -173v-847h-116v847q0 40 -26 65.5t-66 25.5t-66 -25.5t-26 -65.5v-268h-116z" glyph-name="C_X_one.liga" horiz-adv-x="943" unicode="CX1"/><glyph d="M30 267v1541q0 88 60 148t148 60q89 0 149 -59.5t60 -148.5v-217h-117v217q0 40 -26 65.5t-66 25.5t-65.5 -25.5t-25.5 -65.5v-1541q0 -72 47 -119t119 -47q73 0 120 47t47 119v142h117v-142q0 -121 -81 -202t-203 -81q-121 0 -202 81t-81 202zM330 1183v338h117v-338 q0 -40 25.5 -65.5t65.5 -25.5t66 25.5t26 65.5v817h117v-817q0 -73 -41.5 -127.5t-108.5 -72.5v-504h-117v504q-67 18 -108.5 72.5t-41.5 127.5z" glyph-name="C_Y.liga" horiz-adv-x="757" unicode="CY"/><glyph d="M390 -16q-154 0 -257 103t-103 257v1464q0 88 60 148t148 60q89 0 149 -59.5t60 -148.5v-517h-117v517q0 40 -26 65.5t-66 25.5t-65.5 -25.5t-25.5 -65.5v-1464q0 -104 69.5 -173.5t173.5 -69.5t173.5 69.5t69.5 173.5v639q-67 18 -108.5 72.5t-41.5 127.5v817h117v-817 q0 -40 26 -65.5t66 -25.5t65.5 25.5t25.5 65.5v817h117v-817q0 -73 -41.5 -127.5t-108.5 -72.5v-639q0 -154 -103 -257t-257 -103z" glyph-name="C_Y_one.liga" horiz-adv-x="910" unicode="CY1"/><glyph d="M797 0v1092h-184v-313h-116v1029q0 89 59.5 148.5t148.5 59.5t148.5 -59.5t59.5 -148.5v-1808h-116zM30 276v1532q0 88 60 148t148 60q89 0 149 -59.5t60 -148.5v-517h-117v517q0 40 -26 65.5t-66 25.5t-65.5 -25.5t-25.5 -65.5v-1532q0 -76 49.5 -125.5t125.5 -49.5 q75 0 125 49.5t50 125.5v433h116v-433q0 -124 -83.5 -208t-207.5 -84t-208 84t-84 208zM613 1208h184v600q0 40 -26 65.5t-66 25.5t-66 -25.5t-26 -65.5v-600z" glyph-name="C_a.liga" horiz-adv-x="943" unicode="Ca"/><glyph d="M30 281v1527q0 88 60 148t148 60q89 0 149 -59.5t60 -148.5v-517h-117v517q0 40 -26 65.5t-66 25.5t-65.5 -25.5t-25.5 -65.5v-1527q0 -77 51.5 -128.5t128.5 -51.5t128.5 51.5t51.5 128.5v428h116v-428q0 -127 -85 -212t-211 -85q-127 0 -212 85t-85 212zM507 779v1221 h208q89 0 148.5 -59.5t59.5 -148.5v-92q0 -91 -61 -150q61 -59 61 -150v-1175q0 -97 -59.5 -161t-148.5 -64h-50v117h50q40 0 66 30.5t26 77.5v1175q0 40 -26 66t-66 26h-92v-713h-116zM623 1608h92q40 0 66 26t26 66v92q0 40 -26 65.5t-66 25.5h-92v-275z" glyph-name="C_b.liga" horiz-adv-x="953" unicode="Cb"/><glyph d="M30 281v1527q0 88 60 148t148 60q89 0 149 -59.5t60 -148.5v-517h-117v517q0 40 -26 65.5t-66 25.5t-65.5 -25.5t-25.5 -65.5v-1527q0 -78 51 -129t129 -51q77 0 128.5 51t51.5 129v228h116v-228q0 -73 50.5 -118.5t130.5 -45.5h79v-117h-79q-149 0 -235 105 q-40 -57 -103.5 -89t-138.5 -32q-127 0 -212 85t-85 212zM507 579v1421h376v-117h-260v-275h220v-116h-220v-913h-116z" glyph-name="C_e.liga" horiz-adv-x="903" unicode="Ce"/><glyph d="M30 281v1527q0 88 60 148t148 60q89 0 149 -59.5t60 -148.5v-517h-117v517q0 40 -26 65.5t-66 25.5t-65.5 -25.5t-25.5 -65.5v-1527q0 -78 51 -129t129 -51q77 0 128.5 51t51.5 129v228h116v-228q0 -127 -85 -212t-211 -85q-127 0 -212 85t-85 212zM507 579v1421h376 v-117h-260v-275h220v-116h-220v-913h-116z" glyph-name="C_f.liga" horiz-adv-x="893" unicode="Cf"/><glyph d="M30 281v1527q0 88 60 148t148 60q89 0 149 -59.5t60 -148.5v-517h-117v517q0 40 -26 65.5t-66 25.5t-65.5 -25.5t-25.5 -65.5v-1527q0 -78 51 -129t129 -51q77 0 128.5 51t51.5 129v228h116v-228q0 -127 -85 -212t-211 -85q-127 0 -212 85t-85 212zM507 579v1171h116 v-1171h-116zM507 1850v150h116v-150h-116z" glyph-name="C_i.liga" horiz-adv-x="663" unicode="Ci"/><glyph d="M425 -16q-168 0 -281.5 113.5t-113.5 281.5v1429q0 88 60 148t148 60q89 0 149 -59.5t60 -148.5v-517h-117v517q0 40 -26 65.5t-66 25.5t-65.5 -25.5t-25.5 -65.5v-1429q0 -119 79.5 -198.5t198.5 -79.5t198.5 79.5t79.5 198.5v330h117v-330q0 -168 -113.5 -281.5 t-281.5 -113.5zM217 379h116q0 -40 26 -66t66 -26t66 26t26 66v1371h116v-1371q0 -89 -59.5 -148.5t-148.5 -59.5t-148.5 59.5t-59.5 148.5zM517 1850v150h116v-150h-116z" glyph-name="C_j.liga" horiz-adv-x="830" unicode="Cj"/><glyph d="M30 192v1616q0 88 60 148t148 60q89 0 149 -59.5t60 -148.5v-117h-117v117q0 40 -26 65.5t-66 25.5t-65.5 -25.5t-25.5 -65.5v-1616q0 -40 25.5 -65.5t65.5 -25.5t66 25.5t26 65.5v117h117v-117q0 -89 -60 -148.5t-149 -59.5q-88 0 -148 60t-60 148zM330 379v1242h117 v-113h91q40 0 66 26t26 66v400h117v-400q0 -91 -61 -150q61 -59 61 -150v-1300h-117v1300q0 40 -26 66t-66 26h-91v-1013h-117z" glyph-name="C_k.liga" horiz-adv-x="787" unicode="Ck"/><glyph d="M1107 0v1808q0 40 -26 65.5t-66 25.5t-66 -25.5t-26 -65.5v-1808h-116v1808q0 40 -26 65.5t-66 25.5t-66 -25.5t-26 -65.5v-1228h-116v1228q0 89 59.5 148.5t148.5 59.5q91 0 150 -61q59 61 150 61q89 0 148.5 -59.5t59.5 -148.5v-1808h-116zM30 281v1527q0 88 60 148 t148 60q89 0 149 -59.5t60 -148.5v-517h-117v517q0 40 -26 65.5t-66 25.5t-65.5 -25.5t-25.5 -65.5v-1527q0 -78 51 -129t129 -51q77 0 128.5 51t51.5 129v228h116v-228q0 -127 -85 -212t-211 -85q-127 0 -212 85t-85 212z" glyph-name="C_m.liga" horiz-adv-x="1253" unicode="Cm"/><glyph d="M807 0v1808q0 40 -26 65.5t-66 25.5t-66 -25.5t-26 -65.5v-1228h-116v1228q0 89 59.5 148.5t148.5 59.5t148.5 -59.5t59.5 -148.5v-1808h-116zM30 281v1527q0 88 60 148t148 60q89 0 149 -59.5t60 -148.5v-517h-117v517q0 40 -26 65.5t-66 25.5t-65.5 -25.5t-25.5 -65.5 v-1527q0 -78 51 -129t129 -51q77 0 128.5 51t51.5 129v228h116v-228q0 -127 -85 -212t-211 -85q-127 0 -212 85t-85 212z" glyph-name="C_n.liga" horiz-adv-x="963" unicode="Cn"/><glyph d="M30 281v1527q0 88 60 148t148 60q89 0 149 -59.5t60 -148.5v-517h-117v517q0 40 -26 65.5t-66 25.5t-65.5 -25.5t-25.5 -65.5v-1527q0 -78 51 -129t129 -51q77 0 128.5 51t51.5 129v228h116v-228q0 -127 -85 -212t-211 -85q-127 0 -212 85t-85 212zM507 579v1421h208 q89 0 148.5 -59.5t59.5 -148.5v-109q0 -89 -59.5 -148.5t-148.5 -59.5h-92v-896h-116zM623 1592h92q40 0 66 25.5t26 65.5v109q0 40 -26 65.5t-66 25.5h-92v-291z" glyph-name="C_p.liga" horiz-adv-x="933" unicode="Cp"/><glyph d="M30 281v1527q0 88 60 148t148 60q89 0 149 -59.5t60 -148.5v-517h-117v517q0 40 -26 65.5t-66 25.5t-65.5 -25.5t-25.5 -65.5v-1527q0 -78 51 -129t129 -51q77 0 128.5 51t51.5 129v228h116v-228q0 -127 -85 -212t-211 -85q-127 0 -212 85t-85 212zM507 579v1421h208 q89 0 148.5 -59.5t59.5 -148.5v-92q0 -91 -61 -150q61 -59 61 -150v-1400h-116v1400q0 40 -26 66t-66 26h-92v-913h-116zM623 1608h92q40 0 66 26t26 66v92q0 40 -26 65.5t-66 25.5h-92v-275z" glyph-name="C_r.liga" horiz-adv-x="953" unicode="Cr"/><glyph d="M30 192v1616q0 88 60 148t148 60q89 0 149 -59.5t60 -148.5v-117h-117v117q0 40 -26 65.5t-66 25.5t-65.5 -25.5t-25.5 -65.5v-1616q0 -40 25.5 -65.5t65.5 -25.5t66 25.5t26 65.5v117h117v-117q0 -89 -60 -148.5t-149 -59.5q-88 0 -148 60t-60 148zM330 379v868 q0 112 90 173q-90 61 -90 173v28h117v-28q0 -40 25.5 -65.5t65.5 -25.5t66 25.5t26 65.5v407h117v-407q0 -112 -90 -173q90 -61 90 -173v-1247h-117v1247q0 40 -26 65.5t-66 25.5t-65.5 -25.5t-25.5 -65.5v-868h-117z" glyph-name="C_x.liga" horiz-adv-x="777" unicode="Cx"/><glyph d="M30 276v1532q0 88 60 148t148 60q89 0 149 -59.5t60 -148.5v-517h-117v517q0 40 -26 65.5t-66 25.5t-65.5 -25.5t-25.5 -65.5v-1532q0 -76 49.5 -125.5t125.5 -49.5q75 0 125 49.5t50 125.5v233h116v-233q0 -124 -83.5 -208t-207.5 -84t-208 84t-84 208zM497 579v668 q0 112 89 173q-89 61 -89 173v407h116v-407q0 -40 26 -65.5t66 -25.5t66 25.5t26 65.5v407h116v-407q0 -112 -89 -173q89 -61 89 -173v-1247h-116v1247q0 40 -26 65.5t-66 25.5t-66 -25.5t-26 -65.5v-668h-116z" glyph-name="C_x_one.liga" horiz-adv-x="943" unicode="Cx1"/><glyph d="M390 -16q-154 0 -257 103t-103 257v1464q0 88 60 148t148 60q89 0 149 -59.5t60 -148.5v-517h-117v517q0 40 -26 65.5t-66 25.5t-65.5 -25.5t-25.5 -65.5v-1464q0 -104 69.5 -173.5t173.5 -69.5t173.5 69.5t69.5 173.5v1039q-67 18 -108.5 72.5t-41.5 127.5v417h117v-417 q0 -40 26 -65.5t66 -25.5t65.5 25.5t25.5 65.5v417h117v-417q0 -73 -41.5 -127.5t-108.5 -72.5v-1039q0 -154 -103 -257t-257 -103z" glyph-name="C_y_one.liga" horiz-adv-x="910" unicode="Cy1"/><glyph d="M527 192v1808h116v-1808q0 -89 -59.5 -148.5t-148.5 -59.5t-148.5 59.5t-59.5 148.5h116q0 -40 26 -65.5t66 -25.5t66 25.5t26 65.5zM40 262v1738h208q89 0 149 -59.5t60 -148.5v-1321q0 -89 -60 -149t-149 -60h-208zM157 379h91q40 0 66 26t26 66v1321q0 40 -26 65.5 t-66 25.5h-91v-1504z" glyph-name="D_J.liga" horiz-adv-x="673" unicode="DJ"/><glyph d="M527 0v1883h-487v117h753v-117h-150v-1883h-116zM40 0v1813h208q89 0 149 -59.5t60 -148.5v-1397q0 -89 -60 -148.5t-149 -59.5h-208zM157 117h91q40 0 66 25.5t26 65.5v1397q0 40 -26 66t-66 26h-91v-1580z" glyph-name="D_T.liga" horiz-adv-x="803" unicode="DT"/><glyph d="M40 0v2000h377v-117h-260v-675h220v-116h-220v-975h426v-117h-543zM467 187v1621q0 89 59.5 148.5t148.5 59.5t148.5 -59.5t59.5 -148.5v-1808h-116v1092h-184v-905h-116zM583 1208h184v600q0 40 -26 65.5t-66 25.5t-66 -25.5t-26 -65.5v-600z" glyph-name="E_A.liga" horiz-adv-x="913" unicode="EA"/><glyph d="M40 0v2000h843v-117h-726v-675h220v-116h-220v-975h260v-117h-377zM467 0v1621q0 89 59.5 148.5t148.5 59.5t148.5 -59.5t59.5 -148.5v-1621h-116v1092h-184v-1092h-116zM583 1208h184v413q0 40 -26 66t-66 26t-66 -26t-26 -66v-413z" glyph-name="E_A_one.liga" horiz-adv-x="913" unicode="EA1"/><glyph d="M40 0v2000h843v-117h-726v-675h220v-116h-220v-975h726v-117h-843zM467 187v1434q0 89 59.5 148.5t148.5 59.5t148.5 -59.5t59.5 -148.5v-1434h-116v905h-184v-905h-116zM583 1208h184v413q0 40 -26 66t-66 26t-66 -26t-26 -66v-413z" glyph-name="E_A_two.liga" horiz-adv-x="913" unicode="EA2"/><glyph d="M40 0v2000h377v-117h-260v-675h220v-116h-220v-975h736v-117h-853zM477 220v1780h208q89 0 148.5 -59.5t59.5 -148.5v-492q0 -91 -61 -150q61 -59 61 -150v-572q0 -89 -59.5 -148.5t-148.5 -59.5h-208zM593 337h92q40 0 66 25.5t26 65.5v572q0 40 -26 66t-66 26h-92v-755 zM593 1208h92q40 0 66 26t26 66v492q0 40 -26 65.5t-66 25.5h-92v-675z" glyph-name="E_B.liga" horiz-adv-x="923" unicode="EB"/><glyph d="M40 0v2000h853v-117h-736v-675h220v-116h-220v-975h260v-117h-377zM477 0v1813h208q89 0 148.5 -59.5t59.5 -148.5v-305q0 -91 -61 -150q61 -59 61 -150v-792q0 -89 -59.5 -148.5t-148.5 -59.5h-208zM593 117h92q40 0 66 25.5t26 65.5v792q0 40 -26 66t-66 26h-92v-975z M593 1208h92q40 0 66 26t26 66v305q0 40 -26 66t-66 26h-92v-489z" glyph-name="E_B_one.liga" horiz-adv-x="923" unicode="EB1"/><glyph d="M40 0v2000h853v-117h-736v-675h220v-116h-220v-975h736v-117h-853zM477 187v1626h208q89 0 148.5 -59.5t59.5 -148.5v-305q0 -91 -61 -150q61 -59 61 -150v-605q0 -89 -59.5 -148.5t-148.5 -59.5h-208zM593 303h92q40 0 66 26t26 66v605q0 40 -26 66t-66 26h-92v-789z M593 1208h92q40 0 66 26t26 66v305q0 40 -26 66t-66 26h-92v-489z" glyph-name="E_B_two.liga" horiz-adv-x="923" unicode="EB2"/><glyph d="M40 0v2000h377v-117h-260v-675h220v-116h-220v-975h726v-117h-843zM467 379v1429q0 89 59.5 148.5t148.5 59.5t148.5 -59.5t59.5 -148.5v-417h-116v417q0 40 -26 65.5t-66 25.5t-66 -25.5t-26 -65.5v-1429q0 -40 26 -66t66 -26t66 26t26 66v450h116v-450 q0 -89 -59.5 -148.5t-148.5 -59.5t-148.5 59.5t-59.5 148.5z" glyph-name="E_C.liga" horiz-adv-x="903" unicode="EC"/><glyph d="M40 0v2000h843v-117h-726v-675h220v-116h-220v-975h260v-117h-377zM467 192v1429q0 89 59.5 148.5t148.5 59.5t148.5 -59.5t59.5 -148.5v-450h-116v450q0 40 -26 66t-66 26t-66 -26t-26 -66v-1429q0 -40 26 -65.5t66 -25.5t66 25.5t26 65.5v417h116v-417 q0 -89 -59.5 -148.5t-148.5 -59.5t-148.5 59.5t-59.5 148.5z" glyph-name="E_C_one.liga" horiz-adv-x="903" unicode="EC1"/><glyph d="M40 0v2000h843v-117h-726v-675h220v-116h-220v-975h726v-117h-843zM467 379v1242q0 89 59.5 148.5t148.5 59.5t148.5 -59.5t59.5 -148.5v-450h-116v450q0 40 -26 66t-66 26t-66 -26t-26 -66v-1242q0 -40 26 -66t66 -26t66 26t26 66v450h116v-450q0 -89 -59.5 -148.5 t-148.5 -59.5t-148.5 59.5t-59.5 148.5z" glyph-name="E_C_two.liga" horiz-adv-x="903" unicode="EC2"/><glyph d="M40 0v2000h377v-117h-260v-675h220v-116h-220v-975h736v-117h-853zM477 187v1813h208q89 0 148.5 -59.5t59.5 -148.5v-1397q0 -89 -59.5 -148.5t-148.5 -59.5h-208zM593 303h92q40 0 66 26t26 66v1397q0 40 -26 65.5t-66 25.5h-92v-1580z" glyph-name="E_D.liga" horiz-adv-x="923" unicode="ED"/><glyph d="M40 0v2000h853v-117h-736v-675h220v-116h-220v-975h260v-117h-377zM477 0v1813h208q89 0 148.5 -59.5t59.5 -148.5v-1397q0 -89 -59.5 -148.5t-148.5 -59.5h-208zM593 117h92q40 0 66 25.5t26 65.5v1397q0 40 -26 66t-66 26h-92v-1580z" glyph-name="E_D_one.liga" horiz-adv-x="923" unicode="ED1"/><glyph d="M40 0v2000h853v-117h-736v-675h220v-116h-220v-975h736v-117h-853zM477 187v1626h208q89 0 148.5 -59.5t59.5 -148.5v-1210q0 -89 -59.5 -148.5t-148.5 -59.5h-208zM593 303h92q40 0 66 26t26 66v1210q0 40 -26 66t-66 26h-92v-1394z" glyph-name="E_D_two.liga" horiz-adv-x="923" unicode="ED2"/><glyph d="M40 0v1813h863v-116h-746v-489h220v-116h-220v-975h505q134 0 222.5 88.5t88.5 222.5v1455h-933v117h1200v-117h-150v-1455q0 -184 -122 -306t-306 -122h-622zM487 220v1407h208q89 0 148.5 -60t59.5 -149v-990q0 -89 -59.5 -148.5t-148.5 -59.5h-208zM603 337h92 q40 0 66 25.5t26 65.5v990q0 40 -26 66t-66 26h-92v-1173z" glyph-name="E_D_T.liga" horiz-adv-x="1250" unicode="EDT"/><glyph d="M40 0v2000h377v-117h-260v-675h220v-116h-220v-975h696v-117h-813zM477 187v1813h376v-117h-260v-675h220v-116h-220v-789h260v-116h-376z" glyph-name="E_E.liga" horiz-adv-x="873" unicode="EE"/><glyph d="M40 0v2000h813v-117h-696v-675h220v-116h-220v-975h260v-117h-377zM477 0v1813h376v-116h-260v-489h220v-116h-220v-975h260v-117h-376z" glyph-name="E_E_one.liga" horiz-adv-x="873" unicode="EE1"/><glyph d="M40 0v2000h813v-117h-696v-675h220v-116h-220v-975h696v-117h-813zM477 187v1626h376v-116h-260v-489h220v-116h-220v-789h260v-116h-376z" glyph-name="E_E_two.liga" horiz-adv-x="873" unicode="EE2"/><glyph d="M40 0v2000h377v-117h-260v-675h320v792h393v-117h-276v-675h236v-116h-236v-975h276v-117h-393v1092h-320v-975h260v-117h-377z" glyph-name="E_E_three.liga" horiz-adv-x="890" unicode="EE3"/><glyph d="M40 0v2000h377v-117h-260v-675h220v-116h-220v-975h436v-117h-553zM477 187v1813h376v-117h-260v-675h220v-116h-220v-905h-116z" glyph-name="E_F.liga" horiz-adv-x="863" unicode="EF"/><glyph d="M40 0v2000h813v-117h-696v-675h220v-116h-220v-975h260v-117h-377zM477 0v1813h376v-116h-260v-489h220v-116h-220v-1092h-116z" glyph-name="E_F_one.liga" horiz-adv-x="863" unicode="EF1"/><glyph d="M40 0v2000h813v-117h-696v-675h220v-116h-220v-975h436v-117h-553zM477 187v1626h376v-116h-260v-489h220v-116h-220v-905h-116z" glyph-name="E_F_two.liga" horiz-adv-x="863" unicode="EF2"/><glyph d="M40 0v2000h377v-117h-260v-675h320v792h393v-117h-276v-675h236v-116h-236v-1092h-117v1092h-320v-975h260v-117h-377z" glyph-name="E_F_three.liga" horiz-adv-x="880" unicode="EF3"/><glyph d="M40 0v2000h377v-117h-260v-675h220v-116h-220v-975h733v-117h-850zM474 389v1419q0 89 59.5 148.5t148.5 59.5t148.5 -59.5t59.5 -148.5v-417h-116v417q0 40 -26 65.5t-66 25.5t-66 -25.5t-26 -65.5v-1419q0 -40 26 -66t66 -26t66 26t26 66v333h-92v117h208v-450 q0 -89 -59.5 -148.5t-148.5 -59.5t-148.5 59.5t-59.5 148.5z" glyph-name="E_G.liga" horiz-adv-x="910" unicode="EG"/><glyph d="M40 0v2000h850v-117h-733v-675h220v-116h-220v-975h260v-117h-377zM474 192v1419q0 89 59.5 148.5t148.5 59.5t148.5 -59.5t59.5 -148.5v-450h-116v450q0 40 -26 66t-66 26t-66 -26t-26 -66v-1419q0 -40 26 -65.5t66 -25.5t66 25.5t26 65.5v300h-92v117h208v-417 q0 -89 -59.5 -148.5t-148.5 -59.5t-148.5 59.5t-59.5 148.5z" glyph-name="E_G_one.liga" horiz-adv-x="910" unicode="EG1"/><glyph d="M40 0v2000h850v-117h-733v-675h220v-116h-220v-975h733v-117h-850zM474 389v1222q0 89 59.5 148.5t148.5 59.5t148.5 -59.5t59.5 -148.5v-450h-116v450q0 40 -26 66t-66 26t-66 -26t-26 -66v-1222q0 -40 26 -66t66 -26t66 26t26 66v333h-92v117h208v-450 q0 -89 -59.5 -148.5t-148.5 -59.5t-148.5 59.5t-59.5 148.5z" glyph-name="E_G_two.liga" horiz-adv-x="910" unicode="EG2"/><glyph d="M777 0v1092h-184v-905h-116v1813h116v-792h184v792h116v-2000h-116zM40 0v2000h377v-117h-260v-675h220v-116h-220v-975h436v-117h-553z" glyph-name="E_H.liga" horiz-adv-x="933" unicode="EH"/><glyph d="M777 0v1092h-184v-1092h-116v1813h116v-605h184v792h116v-2000h-116zM40 0v2000h553v-117h-436v-675h220v-116h-220v-975h260v-117h-377z" glyph-name="E_H_one.liga" horiz-adv-x="933" unicode="EH1"/><glyph d="M777 0v1092h-184v-905h-116v1626h116v-605h184v792h116v-2000h-116zM40 0v2000h553v-117h-436v-675h220v-116h-220v-975h436v-117h-553z" glyph-name="E_H_two.liga" horiz-adv-x="933" unicode="EH2"/><glyph d="M40 0v2000h377v-117h-260v-675h220v-116h-220v-975h436v-117h-553zM477 187v1813h116v-1813h-116z" glyph-name="E_I.liga" horiz-adv-x="633" unicode="EI"/><glyph d="M40 0v2000h553v-117h-436v-675h220v-116h-220v-975h260v-117h-377zM477 0v1813h116v-1813h-116z" glyph-name="E_I_one.liga" horiz-adv-x="633" unicode="EI1"/><glyph d="M40 0v2000h553v-117h-436v-675h220v-116h-220v-975h436v-117h-553zM477 187v1626h116v-1626h-116z" glyph-name="E_I_two.liga" horiz-adv-x="633" unicode="EI2"/><glyph d="M40 0v2000h377v-117h-260v-675h220v-116h-220v-975h490v-117h-607zM227 389h116q0 -40 26 -66t66 -26t66 26t26 66v1611h116v-1611q0 -89 -59.5 -148.5t-148.5 -59.5t-148.5 59.5t-59.5 148.5z" glyph-name="E_J.liga" horiz-adv-x="677" unicode="EJ"/><glyph d="M40 0v2000h563v-117h-446v-675h220v-116h-220v-975h260v-117h-377zM187 -70h116q0 -40 26 -66t66 -26t66 26t26 66v1883h116v-1883q0 -89 -59.5 -148.5t-148.5 -59.5t-148.5 59.5t-59.5 148.5z" glyph-name="E_J_one.liga" horiz-adv-x="633" unicode="EJ1"/><glyph d="M40 0v2000h607v-117h-490v-675h220v-116h-220v-975h490v-117h-607zM227 389h116q0 -40 26 -66t66 -26t66 26t26 66v1424h116v-1424q0 -89 -59.5 -148.5t-148.5 -59.5t-148.5 59.5t-59.5 148.5z" glyph-name="E_J_two.liga" horiz-adv-x="677" unicode="EJ2"/><glyph d="M40 0v2000h377v-117h-260v-675h220v-116h-220v-975h436v-117h-553zM477 187v1813h116v-792h92q40 0 66 26t26 66v700h116v-700q0 -91 -61 -150q61 -59 61 -150v-1000h-116v1000q0 40 -26 66t-66 26h-92v-905h-116z" glyph-name="E_K.liga" horiz-adv-x="933" unicode="EK"/><glyph d="M40 0v2000h553v-117h-436v-675h220v-116h-220v-975h260v-117h-377zM477 0v1813h116v-605h92q40 0 66 26t26 66v700h116v-700q0 -91 -61 -150q61 -59 61 -150v-1000h-116v1000q0 40 -26 66t-66 26h-92v-1092h-116z" glyph-name="E_K_one.liga" horiz-adv-x="933" unicode="EK1"/><glyph d="M40 0v2000h553v-117h-436v-675h220v-116h-220v-975h436v-117h-553zM477 187v1626h116v-605h92q40 0 66 26t26 66v700h116v-700q0 -91 -61 -150q61 -59 61 -150v-1000h-116v1000q0 40 -26 66t-66 26h-92v-905h-116z" glyph-name="E_K_two.liga" horiz-adv-x="933" unicode="EK2"/><glyph d="M40 0v2000h377v-117h-260v-675h220v-116h-220v-975h696v-117h-813zM477 187v1813h116v-1697h260v-116h-376z" glyph-name="E_L.liga" horiz-adv-x="863" unicode="EL"/><glyph d="M40 0v2000h553v-117h-436v-675h220v-116h-220v-975h260v-117h-377zM477 0v1813h116v-1696h260v-117h-376z" glyph-name="E_L_one.liga" horiz-adv-x="863" unicode="EL1"/><glyph d="M40 0v2000h553v-117h-436v-675h220v-116h-220v-975h696v-117h-813zM477 187v1626h116v-1510h260v-116h-376z" glyph-name="E_L_two.liga" horiz-adv-x="863" unicode="EL2"/><glyph d="M777 900l-184 675v-1388h-116v1813h116l242 -887l242 887h116v-2000h-116v1575l-184 -675h-116zM40 0v2000h377v-117h-260v-675h220v-116h-220v-975h816v-117h-933z" glyph-name="E_M.liga" horiz-adv-x="1233" unicode="EM"/><glyph d="M777 900l-184 560v-1460h-116v1813h116l237 -720l247 907h116v-2000h-116v1575l-184 -675h-116zM40 0v2000h553v-117h-436v-675h220v-116h-220v-975h260v-117h-377z" glyph-name="E_M_one.liga" horiz-adv-x="1233" unicode="EM1"/><glyph d="M777 900l-184 560v-1273h-116v1626h116l237 -720l247 907h116v-2000h-116v1575l-184 -675h-116zM40 0v2000h553v-117h-436v-675h220v-116h-220v-975h816v-117h-933z" glyph-name="E_M_two.liga" horiz-adv-x="1233" unicode="EM2"/><glyph d="M777 0v1500l-184 307v-1620h-116v1813h116l184 -307v307h116v-2000h-116zM40 0v2000h377v-117h-260v-675h220v-116h-220v-975h436v-117h-553z" glyph-name="E_N.liga" horiz-adv-x="933" unicode="EN"/><glyph d="M40 0v2000h853v-117h-736v-675h220v-116h-220v-975h260v-117h-377zM477 0v1813h116l184 -307v307h116v-1813h-116v1313l-184 307v-1620h-116z" glyph-name="E_N_one.liga" horiz-adv-x="933" unicode="EN1"/><glyph d="M40 0v2000h853v-117h-736v-675h220v-116h-220v-975h436v-117h-553zM477 187v1626h116l184 -307v307h116v-1813h-116v1313l-184 307v-1433h-116z" glyph-name="E_N_two.liga" horiz-adv-x="933" unicode="EN2"/><glyph d="M40 0v1813h853v-116h-736v-489h220v-116h-220v-975h538q119 0 198.5 79.5t79.5 198.5v1488h-933v117h1200v-117h-150v-1488q0 -168 -113.5 -281.5t-281.5 -113.5h-655zM477 187v1440h116l184 -307v307h116v-1340h-116v840l-184 307v-1247h-116z" glyph-name="E_N_T.liga" horiz-adv-x="1250" unicode="ENT"/><glyph d="M40 0v2000h377v-117h-260v-675h220v-116h-220v-975h726v-117h-843zM467 389v1419q0 89 59.5 148.5t148.5 59.5t148.5 -59.5t59.5 -148.5v-1419q0 -89 -59.5 -148.5t-148.5 -59.5t-148.5 59.5t-59.5 148.5zM583 389q0 -40 26 -66t66 -26t66 26t26 66v1419q0 40 -26 65.5 t-66 25.5t-66 -25.5t-26 -65.5v-1419z" glyph-name="E_O.liga" horiz-adv-x="913" unicode="EO"/><glyph d="M40 0v2000h843v-117h-726v-675h220v-116h-220v-975h260v-117h-377zM467 192v1419q0 89 59.5 148.5t148.5 59.5t148.5 -59.5t59.5 -148.5v-1419q0 -89 -59.5 -148.5t-148.5 -59.5t-148.5 59.5t-59.5 148.5zM583 192q0 -40 26 -65.5t66 -25.5t66 25.5t26 65.5v1419 q0 40 -26 66t-66 26t-66 -26t-26 -66v-1419z" glyph-name="E_O_one.liga" horiz-adv-x="913" unicode="EO1"/><glyph d="M40 0v2000h843v-117h-726v-675h220v-116h-220v-975h726v-117h-843zM467 389v1222q0 89 59.5 148.5t148.5 59.5t148.5 -59.5t59.5 -148.5v-1222q0 -89 -59.5 -148.5t-148.5 -59.5t-148.5 59.5t-59.5 148.5zM583 389q0 -40 26 -66t66 -26t66 26t26 66v1222q0 40 -26 66 t-66 26t-66 -26t-26 -66v-1222z" glyph-name="E_O_two.liga" horiz-adv-x="913" unicode="EO2"/><glyph d="M40 0v2000h377v-117h-260v-675h220v-116h-220v-975h436v-117h-553zM477 187v1813h208q89 0 148.5 -59.5t59.5 -148.5v-492q0 -89 -59.5 -148.5t-148.5 -59.5h-92v-905h-116zM593 1208h92q40 0 66 26t26 66v492q0 40 -26 65.5t-66 25.5h-92v-675z" glyph-name="E_P.liga" horiz-adv-x="903" unicode="EP"/><glyph d="M40 0v2000h853v-117h-736v-675h220v-116h-220v-975h260v-117h-377zM477 0v1813h208q89 0 148.5 -59.5t59.5 -148.5v-305q0 -89 -59.5 -148.5t-148.5 -59.5h-92v-1092h-116zM593 1208h92q40 0 66 26t26 66v305q0 40 -26 66t-66 26h-92v-489z" glyph-name="E_P_one.liga" horiz-adv-x="903" unicode="EP1"/><glyph d="M40 0v2000h853v-117h-736v-675h220v-116h-220v-975h434v-117h-551zM477 187v1626h208q89 0 148.5 -59.5t59.5 -148.5v-305q0 -89 -59.5 -148.5t-148.5 -59.5h-92v-905h-116zM593 1208h92q40 0 66 26t26 66v305q0 40 -26 66t-66 26h-92v-489z" glyph-name="E_P_two.liga" horiz-adv-x="903" unicode="EP2"/><glyph d="M40 0v2000h377v-117h-260v-675h220v-116h-220v-975h460v171q-67 18 -108.5 72.5t-41.5 128.5v1319q0 89 59.5 148.5t148.5 59.5t148.5 -59.5t59.5 -148.5v-1319q0 -74 -41.5 -128.5t-108.5 -72.5v-171h150v-117h-843zM583 489q0 -40 26 -66t66 -26t66 26t26 66v1319 q0 40 -26 65.5t-66 25.5t-66 -25.5t-26 -65.5v-1319z" glyph-name="E_Q.liga" horiz-adv-x="913" unicode="EQ"/><glyph d="M40 0v2000h843v-117h-726v-675h220v-116h-220v-975h260v-117h-377zM467 192v1419q0 89 59.5 148.5t148.5 59.5t148.5 -59.5t59.5 -148.5v-1419q0 -73 -41.5 -127.5t-108.5 -72.5v-192h-116v192q-67 18 -108.5 72.5t-41.5 127.5zM583 192q0 -40 26 -65.5t66 -25.5t66 25.5 t26 65.5v1419q0 40 -26 66t-66 26t-66 -26t-26 -66v-1419z" glyph-name="E_Q_one.liga" horiz-adv-x="913" unicode="EQ1"/><glyph d="M40 0v2000h843v-117h-726v-675h220v-116h-220v-975h460v171q-67 18 -108.5 72.5t-41.5 128.5v1122q0 89 59.5 148.5t148.5 59.5t148.5 -59.5t59.5 -148.5v-1122q0 -74 -41.5 -128.5t-108.5 -72.5v-171h150v-117h-843zM583 489q0 -40 26 -66t66 -26t66 26t26 66v1122 q0 40 -26 66t-66 26t-66 -26t-26 -66v-1122z" glyph-name="E_Q_two.liga" horiz-adv-x="913" unicode="EQ2"/><glyph d="M40 0v2000h377v-117h-260v-675h220v-116h-220v-975h436v-117h-553zM477 187v1813h208q89 0 148.5 -59.5t59.5 -148.5v-492q0 -91 -61 -150q61 -59 61 -150v-1000h-116v1000q0 40 -26 66t-66 26h-92v-905h-116zM593 1208h92q40 0 66 26t26 66v492q0 40 -26 65.5t-66 25.5 h-92v-675z" glyph-name="E_R.liga" horiz-adv-x="923" unicode="ER"/><glyph d="M40 0v2000h863v-117h-746v-675h220v-116h-220v-975h446v-117h-563zM487 187v1626h208q89 0 148.5 -59.5t59.5 -148.5v-305q0 -91 -61 -150q61 -59 61 -150v-808q0 -31 20 -52t50 -23v1883h377v-117h-260v-675h220v-116h-220v-975h260v-117h-348v2l-24 1v-3q-81 0 -136 55 t-55 137v808q0 40 -26 66t-66 26h-92v-905h-116zM603 1208h92q40 0 66 26t26 66v305q0 40 -26 66t-66 26h-92v-489z" glyph-name="E_R_E.liga" horiz-adv-x="1370" unicode="ERE"/><glyph d="M40 0v2000h853v-117h-736v-675h220v-116h-220v-975h436v-117h-553zM477 187v1626h208q89 0 148.5 -64t59.5 -161v-288q0 -91 -61 -150q61 -59 61 -150v-864q0 -15 10.5 -25t24.5 -10q15 0 25 10t10 25v1864h117v-1864q0 -64 -44 -108t-108 -44t-107.5 44t-43.5 108v864 q0 40 -26 66t-66 26h-92v-905h-116zM593 1208h92q40 0 66 26t26 66v288q0 48 -26 78.5t-66 30.5h-92v-489z" glyph-name="E_R_I.liga" horiz-adv-x="1120" unicode="ERI"/><glyph d="M40 0v2000h853v-117h-736v-675h220v-116h-220v-975h260v-117h-377zM477 0v1803h208q89 0 148.5 -59.5t59.5 -148.5v-295q0 -91 -61 -150q61 -59 61 -150v-1000h-116v1000q0 40 -26 66t-66 26h-92v-1092h-116zM593 1208h92q40 0 66 26t26 66v295q0 40 -26 66t-66 26h-92 v-479z" glyph-name="E_R_one.liga" horiz-adv-x="923" unicode="ER1"/><glyph d="M40 0v2000h853v-117h-736v-675h220v-116h-220v-975h436v-117h-553zM477 187v1616h208q89 0 148.5 -59.5t59.5 -148.5v-295q0 -91 -61 -150q61 -59 61 -150v-1000h-116v1000q0 40 -26 66t-66 26h-92v-905h-116zM593 1208h92q40 0 66 26t26 66v295q0 40 -26 66t-66 26h-92 v-479z" glyph-name="E_R_two.liga" horiz-adv-x="923" unicode="ER2"/><glyph d="M40 0v2000h377v-117h-260v-675h220v-116h-220v-975h726v-117h-843zM467 389v430h116v-430q0 -40 26 -66t66 -26t66 26t26 66v571q0 40 -26 66t-66 26q-89 0 -148.5 59.5t-59.5 148.5v548q0 89 59.5 148.5t148.5 59.5t148.5 -59.5t59.5 -148.5v-407h-116v407 q0 40 -26 65.5t-66 25.5t-66 -25.5t-26 -65.5v-548q0 -40 26 -66t66 -26q89 0 148.5 -59.5t59.5 -148.5v-571q0 -89 -59.5 -148.5t-148.5 -59.5t-148.5 59.5t-59.5 148.5z" glyph-name="E_S.liga" horiz-adv-x="913" unicode="ES"/><glyph d="M40 0v2000h843v-117h-726v-675h220v-116h-220v-975h260v-117h-377zM467 192v407h116v-407q0 -40 26 -65.5t66 -25.5t66 25.5t26 65.5v548q0 40 -26 66t-66 26q-89 0 -148.5 59.5t-59.5 148.5v571q0 89 59.5 148.5t148.5 59.5t148.5 -59.5t59.5 -148.5v-430h-116v430 q0 40 -26 66t-66 26t-66 -26t-26 -66v-571q0 -40 26 -66t66 -26q89 0 148.5 -59.5t59.5 -148.5v-548q0 -89 -59.5 -148.5t-148.5 -59.5t-148.5 59.5t-59.5 148.5z" glyph-name="E_S_one.liga" horiz-adv-x="913" unicode="ES1"/><glyph d="M43 0v2000h844v-117h-727v-675h220v-116h-220v-975h727v-117h-844zM470 389v330h117v-330q0 -40 25.5 -66t65.5 -26t66 26t26 66v471q0 40 -26 66t-66 26q-89 0 -148.5 59.5t-59.5 148.5v451q0 89 59.5 148.5t148.5 59.5t149 -59.5t60 -148.5v-310h-117v310q0 40 -26 66 t-66 26t-65.5 -26t-25.5 -66v-451q0 -40 25.5 -66t65.5 -26q89 0 149 -59.5t60 -148.5v-471q0 -89 -60 -148.5t-149 -59.5t-148.5 59.5t-59.5 148.5z" glyph-name="E_S_two.liga" horiz-adv-x="917" unicode="ES2"/><glyph d="M953 0v1883h-913v117h1180v-117h-150v-1883h-117zM40 0v1803h377v-116h-260v-479h220v-116h-220v-975h726v-117h-843zM467 389v320h116v-320q0 -40 26 -66t66 -26t66 26t26 66v461q0 40 -26 66t-66 26q-89 0 -148.5 59.5t-59.5 148.5v461q0 89 59.5 148.5t148.5 59.5 t148.5 -59.5t59.5 -148.5v-320h-116v320q0 40 -26 66t-66 26t-66 -26t-26 -66v-461q0 -40 26 -66t66 -26q89 0 148.5 -59.5t59.5 -148.5v-461q0 -89 -59.5 -148.5t-148.5 -59.5t-148.5 59.5t-59.5 148.5z" glyph-name="E_S_T.liga" horiz-adv-x="1230" unicode="EST"/><glyph d="M40 0v2000h377v-117h-260v-675h220v-116h-220v-975h556v-117h-673zM447 1883v117h416v-117h-150v-1696h-116v1696h-150z" glyph-name="E_T.liga" horiz-adv-x="873" unicode="ET"/><glyph d="M40 0v2000h713v-117h-596v-675h220v-116h-220v-975h260v-117h-377zM337 1697v116h416v-116h-150v-1697h-116v1697h-150z" glyph-name="E_T_one.liga" horiz-adv-x="763" unicode="ET1"/><glyph d="M40 0v2000h713v-117h-596v-675h220v-116h-220v-975h446v-117h-563zM337 1697v116h416v-116h-150v-1510h-116v1510h-150z" glyph-name="E_T_two.liga" horiz-adv-x="763" unicode="ET2"/><glyph d="M40 0v2000h377v-117h-260v-675h220v-116h-220v-975h726v-117h-843zM467 389v1611h116v-1611q0 -40 26 -66t66 -26t66 26t26 66v1611h116v-1611q0 -89 -59.5 -148.5t-148.5 -59.5t-148.5 59.5t-59.5 148.5z" glyph-name="E_U.liga" horiz-adv-x="913" unicode="EU"/><glyph d="M40 0v2000h843v-117h-726v-675h220v-116h-220v-975h260v-117h-377zM467 192v1621h116v-1621q0 -40 26 -65.5t66 -25.5t66 25.5t26 65.5v1621h116v-1621q0 -89 -59.5 -148.5t-148.5 -59.5t-148.5 59.5t-59.5 148.5z" glyph-name="E_U_one.liga" horiz-adv-x="913" unicode="EU1"/><glyph d="M40 0v2000h843v-117h-726v-675h220v-116h-220v-975h726v-117h-843zM467 389v1424h116v-1424q0 -40 26 -66t66 -26t66 26t26 66v1424h116v-1424q0 -89 -59.5 -148.5t-148.5 -59.5t-148.5 59.5t-59.5 148.5z" glyph-name="E_U_two.liga" horiz-adv-x="913" unicode="EU2"/><glyph d="M563 187l-116 1813h116l92 -1426l92 1426h116l-116 -1813h-184zM40 0v2000h377v-117h-260v-675h220v-116h-220v-975h606v-117h-723z" glyph-name="E_V.liga" horiz-adv-x="873" unicode="EV"/><glyph d="M560 0l-117 1813h117l79 -1225l7 -389h11l4 389l82 1412h117l-117 -2000h-183zM40 0v2000h520v-117h-403v-675h216v-116h-216v-975h256v-117h-373z" glyph-name="E_V_one.liga" horiz-adv-x="870" unicode="EV1"/><glyph d="M563 197l-116 1583h116l90 -1223l94 1443h116l-116 -1803h-184zM40 0v2000h523v-117h-406v-675h220v-116h-220v-975h590v-117h-707z" glyph-name="E_V_two.liga" horiz-adv-x="873" unicode="EV2"/><glyph d="M40 0v2000h377v-117h-260v-675h220v-116h-220v-975h1026v-117h-1143zM467 389v1611h116v-1611q0 -40 26 -66t66 -26t66 26t26 66v1611h116v-1611q0 -40 26 -66t66 -26t66 26t26 66v1611h116v-1611q0 -89 -59.5 -148.5t-148.5 -59.5q-91 0 -150 61q-59 -61 -150 -61 q-89 0 -148.5 59.5t-59.5 148.5z" glyph-name="E_W.liga" horiz-adv-x="1213" unicode="EW"/><glyph d="M40 0v2000h543v-117h-426v-675h220v-116h-220v-975h260v-117h-377zM467 192v1621h116v-1621q0 -40 26 -65.5t66 -25.5t66 25.5t26 65.5v1808h116v-1808q0 -40 26 -65.5t66 -25.5t66 25.5t26 65.5v1808h116v-1808q0 -89 -59.5 -148.5t-148.5 -59.5q-91 0 -150 61 q-59 -61 -150 -61q-89 0 -148.5 59.5t-59.5 148.5z" glyph-name="E_W_one.liga" horiz-adv-x="1213" unicode="EW1"/><glyph d="M40 0v2000h543v-117h-426v-675h220v-116h-220v-975h1026v-117h-1143zM467 389v1424h116v-1424q0 -40 26 -66t66 -26t66 26t26 66v1611h116v-1611q0 -40 26 -66t66 -26t66 26t26 66v1611h116v-1611q0 -89 -59.5 -148.5t-148.5 -59.5q-91 0 -150 61q-59 -61 -150 -61 q-89 0 -148.5 59.5t-59.5 148.5z" glyph-name="E_W_two.liga" horiz-adv-x="1213" unicode="EW2"/><glyph d="M40 0v2000h377v-117h-260v-675h220v-116h-220v-975h426v-117h-543zM467 187v660q0 112 89 173q-89 61 -89 173v807h116v-807q0 -40 26 -65.5t66 -25.5t66 25.5t26 65.5v807h116v-807q0 -112 -89 -173q89 -61 89 -173v-847h-116v847q0 40 -26 65.5t-66 25.5t-66 -25.5 t-26 -65.5v-660h-116z" glyph-name="E_X.liga" horiz-adv-x="913" unicode="EX"/><glyph d="M40 0v2000h543v-117h-426v-675h220v-116h-220v-975h260v-117h-377zM467 0v847q0 112 89 173q-89 61 -89 173v620h116v-620q0 -40 26 -65.5t66 -25.5t66 25.5t26 65.5v807h116v-807q0 -112 -89 -173q89 -61 89 -173v-847h-116v847q0 40 -26 65.5t-66 25.5t-66 -25.5 t-26 -65.5v-847h-116z" glyph-name="E_X_one.liga" horiz-adv-x="913" unicode="EX1"/><glyph d="M40 0v2000h543v-117h-426v-675h220v-116h-220v-975h426v-117h-543zM467 187v660q0 112 89 173q-89 61 -89 173v620h116v-620q0 -40 26 -65.5t66 -25.5t66 25.5t26 65.5v807h116v-807q0 -112 -89 -173q89 -61 89 -173v-847h-116v847q0 40 -26 65.5t-66 25.5t-66 -25.5 t-26 -65.5v-660h-116z" glyph-name="E_X_two.liga" horiz-adv-x="913" unicode="EX2"/><glyph d="M40 0v2000h377v-117h-260v-675h220v-116h-220v-975h570v-117h-687zM460 1183v817h117v-817q0 -40 25.5 -65.5t65.5 -25.5t66 25.5t26 65.5v817h117v-817q0 -73 -41.5 -127.5t-108.5 -72.5v-796h-117v796q-67 18 -108.5 72.5t-41.5 127.5z" glyph-name="E_Y.liga" horiz-adv-x="887" unicode="EY"/><glyph d="M40 0v2000h523v-117h-406v-675h220v-116h-220v-975h260v-117h-377zM447 1183v630h116v-630q0 -40 26 -65.5t66 -25.5t66 25.5t26 65.5v817h116v-817q0 -73 -41.5 -127.5t-108.5 -72.5v-983h-116v983q-67 18 -108.5 72.5t-41.5 127.5z" glyph-name="E_Y_one.liga" horiz-adv-x="873" unicode="EY1"/><glyph d="M40 0v2000h523v-117h-406v-675h220v-116h-220v-975h556v-117h-673zM447 1183v630h116v-630q0 -40 26 -65.5t66 -25.5t66 25.5t26 65.5v817h116v-817q0 -73 -41.5 -127.5t-108.5 -72.5v-786h-116v786q-67 18 -108.5 72.5t-41.5 127.5z" glyph-name="E_Y_two.liga" horiz-adv-x="873" unicode="EY2"/><glyph d="M457 187l281 1696h-281v117h416l-281 -1697h281v-116h-416zM40 0v2000h377v-117h-260v-675h220v-116h-220v-975h716v-117h-833z" glyph-name="E_Z.liga" horiz-adv-x="893" unicode="EZ"/><glyph d="M457 0l281 1697h-281v116h416l-281 -1696h281v-117h-416zM40 0v2000h833v-117h-716v-675h220v-116h-220v-975h260v-117h-377z" glyph-name="E_Z_one.liga" horiz-adv-x="893" unicode="EZ1"/><glyph d="M457 187l279 1510h-296v116h433l-279 -1510h279v-116h-416zM40 0v2000h833v-117h-716v-675h220v-116h-220v-975h716v-117h-833z" glyph-name="E_Z_two.liga" horiz-adv-x="893" unicode="EZ2"/><glyph d="M40 0v2000h833v-117h-716v-675h220v-116h-220v-1092h-117zM457 0v1611q0 89 59.5 148.5t148.5 59.5t148.5 -59.5t59.5 -148.5v-1611h-116v1092h-184v-1092h-116zM573 1208h184v403q0 40 -26 66t-66 26t-66 -26t-26 -66v-403z" glyph-name="F_A.liga" horiz-adv-x="903" unicode="FA"/><glyph d="M40 0v2000h843v-117h-726v-675h220v-116h-220v-1092h-117zM467 0v1803h208q89 0 148.5 -59.5t59.5 -148.5v-295q0 -91 -61 -150q61 -59 61 -150v-792q0 -89 -59.5 -148.5t-148.5 -59.5h-208zM583 117h92q40 0 66 25.5t26 65.5v792q0 40 -26 66t-66 26h-92v-975zM583 1208 h92q40 0 66 26t26 66v295q0 40 -26 66t-66 26h-92v-479z" glyph-name="F_B.liga" horiz-adv-x="913" unicode="FB"/><glyph d="M40 0v2000h833v-117h-716v-675h220v-116h-220v-1092h-117zM457 192v1419q0 89 59.5 148.5t148.5 59.5t148.5 -59.5t59.5 -148.5v-350h-116v350q0 40 -26 66t-66 26t-66 -26t-26 -66v-1419q0 -40 26 -65.5t66 -25.5t66 25.5t26 65.5v317h116v-317q0 -89 -59.5 -148.5 t-148.5 -59.5t-148.5 59.5t-59.5 148.5z" glyph-name="F_C.liga" horiz-adv-x="893" unicode="FC"/><glyph d="M40 0v2000h843v-117h-726v-675h220v-116h-220v-1092h-117zM467 0v1803h208q89 0 148.5 -59.5t59.5 -148.5v-1387q0 -89 -59.5 -148.5t-148.5 -59.5h-208zM583 117h92q40 0 66 25.5t26 65.5v1387q0 40 -26 66t-66 26h-92v-1570z" glyph-name="F_D.liga" horiz-adv-x="913" unicode="FD"/><glyph d="M40 0v2000h803v-117h-686v-675h220v-116h-220v-1092h-117zM467 0v1813h376v-116h-260v-489h220v-116h-220v-975h260v-117h-376z" glyph-name="F_E.liga" horiz-adv-x="863" unicode="FE"/><glyph d="M40 0v2000h803v-117h-686v-675h220v-116h-220v-1092h-117zM467 0v1813h376v-116h-260v-489h220v-116h-220v-1092h-116z" glyph-name="F_F.liga" horiz-adv-x="853" unicode="FF"/><glyph d="M40 0v2000h843v-117h-726v-675h220v-116h-220v-1092h-117zM467 192v1419q0 89 59.5 148.5t148.5 59.5t148.5 -59.5t59.5 -148.5v-350h-116v350q0 40 -26 66t-66 26t-66 -26t-26 -66v-1419q0 -40 26 -65.5t66 -25.5t66 25.5t26 65.5v200h-92v117h208v-317 q0 -89 -59.5 -148.5t-148.5 -59.5t-148.5 59.5t-59.5 148.5z" glyph-name="F_G.liga" horiz-adv-x="903" unicode="FG"/><glyph d="M747 0v1092h-184v-1092h-116v1803h116v-595h184v792h116v-2000h-116zM40 0v2000h523v-117h-406v-675h220v-116h-220v-1092h-117z" glyph-name="F_H.liga" horiz-adv-x="903" unicode="FH"/><glyph d="M40 0v2000h523v-117h-406v-675h220v-116h-220v-1092h-117zM447 0v1813h116v-1813h-116z" glyph-name="F_I.liga" horiz-adv-x="603" unicode="FI"/><glyph d="M40 0v2000h608v-117h-491v-675h220v-116h-220v-1092h-117zM232 192h116q0 -40 26 -65.5t66 -25.5t66 25.5t26 65.5v1621h116v-1621q0 -89 -59.5 -148.5t-148.5 -59.5t-148.5 59.5t-59.5 148.5z" glyph-name="F_J.liga" horiz-adv-x="678" unicode="FJ"/><glyph d="M40 0v2000h543v-117h-426v-675h220v-116h-220v-1092h-117zM467 0v1813h116v-605h92q40 0 66 26t26 66v700h116v-700q0 -91 -61 -150q61 -59 61 -150v-1000h-116v1000q0 40 -26 66t-66 26h-92v-1092h-116z" glyph-name="F_K.liga" horiz-adv-x="923" unicode="FK"/><glyph d="M40 0v2000h523v-117h-406v-675h220v-116h-220v-1092h-117zM447 0v1813h116v-1696h260v-117h-376z" glyph-name="F_L.liga" horiz-adv-x="833" unicode="FL"/><glyph d="M767 900l-184 560v-1460h-116v1813h116l237 -720l247 907h116v-2000h-116v1575l-184 -675h-116zM40 0v2000h543v-117h-426v-675h220v-116h-220v-1092h-117z" glyph-name="F_M.liga" horiz-adv-x="1223" unicode="FM"/><glyph d="M40 0v2000h823v-117h-706v-675h220v-116h-220v-1092h-117zM447 0v1813h116l184 -307v307h116v-1813h-116v1313l-184 307v-1620h-116z" glyph-name="F_N.liga" horiz-adv-x="903" unicode="FN"/><glyph d="M40 0v2000h823v-117h-706v-675h220v-116h-220v-1092h-117zM447 192v1419q0 89 59.5 148.5t148.5 59.5t148.5 -59.5t59.5 -148.5v-1419q0 -89 -59.5 -148.5t-148.5 -59.5t-148.5 59.5t-59.5 148.5zM563 192q0 -40 26 -65.5t66 -25.5t66 25.5t26 65.5v1419q0 40 -26 66 t-66 26t-66 -26t-26 -66v-1419z" glyph-name="F_O.liga" horiz-adv-x="893" unicode="FO"/><glyph d="M933 0v1092h-70v-900q0 -89 -59.5 -148.5t-148.5 -59.5t-148.5 59.5t-59.5 148.5v900h-290v-1092h-117v2000h823v-117h-706v-675h290v403q0 89 59.5 148.5t148.5 59.5t148.5 -59.5t59.5 -148.5v-403h70v792h209q88 0 148 -60t60 -148v-492q0 -91 -61 -150q61 -59 61 -150 v-1000h-117v1000q0 40 -25.5 66t-65.5 26h-92v-1092h-117zM563 192q0 -40 26 -65.5t66 -25.5t66 25.5t26 65.5v900h-184v-900zM563 1208h184v403q0 40 -26 66t-66 26t-66 -26t-26 -66v-403zM1050 1208h92q40 0 65.5 26t25.5 66v492q0 40 -25.5 65.5t-65.5 25.5h-92v-675z " glyph-name="F_O_R.liga" horiz-adv-x="1380" unicode="FOR"/><glyph d="M40 0v2000h823v-117h-706v-675h220v-116h-220v-1092h-117zM447 0v1813h208q89 0 148.5 -59.5t59.5 -148.5v-305q0 -89 -59.5 -148.5t-148.5 -59.5h-92v-1092h-116zM563 1208h92q40 0 66 26t26 66v305q0 40 -26 66t-66 26h-92v-489z" glyph-name="F_P.liga" horiz-adv-x="873" unicode="FP"/><glyph d="M40 0v2000h823v-117h-706v-675h220v-116h-220v-1092h-117zM447 192v1419q0 89 59.5 148.5t148.5 59.5t148.5 -59.5t59.5 -148.5v-1419q0 -73 -41.5 -127.5t-108.5 -72.5v-192h-116v192q-67 18 -108.5 72.5t-41.5 127.5zM563 192q0 -40 26 -65.5t66 -25.5t66 25.5t26 65.5 v1419q0 40 -26 66t-66 26t-66 -26t-26 -66v-1419z" glyph-name="F_Q.liga" horiz-adv-x="893" unicode="FQ"/><glyph d="M40 0v2000h823v-117h-706v-675h220v-116h-220v-1092h-117zM447 0v1813h208q89 0 148.5 -59.5t59.5 -148.5v-305q0 -91 -61 -150q61 -59 61 -150v-1000h-116v1000q0 40 -26 66t-66 26h-92v-1092h-116zM563 1208h92q40 0 66 26t26 66v305q0 40 -26 66t-66 26h-92v-489z" glyph-name="F_R.liga" horiz-adv-x="893" unicode="FR"/><glyph d="M40 0v2000h823v-117h-706v-675h220v-116h-220v-1092h-117zM447 192v247h116v-247q0 -40 26 -65.5t66 -25.5t66 25.5t26 65.5v588q0 40 -26 66t-66 26q-89 0 -148.5 59.5t-59.5 148.5v531q0 89 59.5 148.5t148.5 59.5t148.5 -59.5t59.5 -148.5v-320h-116v320q0 40 -26 66 t-66 26t-66 -26t-26 -66v-531q0 -40 26 -66t66 -26q89 0 148.5 -59.5t59.5 -148.5v-588q0 -89 -59.5 -148.5t-148.5 -59.5t-148.5 59.5t-59.5 148.5z" glyph-name="F_S.liga" horiz-adv-x="893" unicode="FS"/><glyph d="M40 0v2000h673v-117h-556v-675h220v-116h-220v-1092h-117zM297 1697v116h416v-116h-150v-1697h-116v1697h-150z" glyph-name="F_T.liga" horiz-adv-x="723" unicode="FT"/><glyph d="M40 0v2000h523v-117h-406v-675h220v-116h-220v-1092h-117zM447 192v1621h116v-1621q0 -40 26 -65.5t66 -25.5t66 25.5t26 65.5v1808h116v-1808q0 -89 -59.5 -148.5t-148.5 -59.5t-148.5 59.5t-59.5 148.5z" glyph-name="F_U.liga" horiz-adv-x="893" unicode="FU"/><glyph d="M553 0l-116 1813h116l91 -1407l93 1594h116l-116 -2000h-184zM40 0v2000h513v-117h-396v-675h220v-116h-220v-1092h-117z" glyph-name="F_V.liga" horiz-adv-x="863" unicode="FV"/><glyph d="M40 0v2000h523v-117h-406v-675h220v-116h-220v-1092h-117zM447 192v1621h116v-1621q0 -40 26 -65.5t66 -25.5t66 25.5t26 65.5v1808h116v-1808q0 -40 26 -65.5t66 -25.5t66 25.5t26 65.5v1808h116v-1808q0 -89 -59.5 -148.5t-148.5 -59.5q-91 0 -150 61q-59 -61 -150 -61 q-89 0 -148.5 59.5t-59.5 148.5z" glyph-name="F_W.liga" horiz-adv-x="1193" unicode="FW"/><glyph d="M40 0v2000h523v-117h-406v-675h220v-116h-220v-1092h-117zM447 0v847q0 112 89 173q-89 61 -89 173v620h116v-620q0 -40 26 -65.5t66 -25.5t66 25.5t26 65.5v807h116v-807q0 -112 -89 -173q89 -61 89 -173v-847h-116v847q0 40 -26 65.5t-66 25.5t-66 -25.5t-26 -65.5 v-847h-116z" glyph-name="F_X.liga" horiz-adv-x="893" unicode="FX"/><glyph d="M40 0v2000h513v-117h-396v-675h220v-116h-220v-1092h-117zM437 1183v630h116v-630q0 -40 26 -65.5t66 -25.5t66 25.5t26 65.5v817h116v-817q0 -73 -41.5 -127.5t-108.5 -72.5v-983h-116v983q-67 18 -108.5 72.5t-41.5 127.5z" glyph-name="F_Y.liga" horiz-adv-x="863" unicode="FY"/><glyph d="M267 0l281 1687h-281v116h416l-281 -1686h281v-117h-416zM40 0v2000h643v-117h-526v-675h220v-116h-220v-1092h-117z" glyph-name="F_Z.liga" horiz-adv-x="703" unicode="FZ"/><glyph d="M40 1525q0 210 140.5 350.5t350.5 140.5q209 0 349.5 -140.5t140.5 -350.5v-234h-116v234q0 161 -106.5 267.5t-267.5 106.5t-267.5 -106.5t-106.5 -267.5v-1333q0 -40 25.5 -65.5t65.5 -25.5t66 25.5t26 65.5v400h-92v117h209v-517q0 -89 -60 -148.5t-149 -59.5 q-88 0 -148 60t-60 148v1333zM340 779v805q0 89 59.5 149t148.5 60t149 -60t60 -149v-1584h-117v1092h-183v-313h-117zM457 1208h183v376q0 40 -26 66t-66 26t-65.5 -26t-25.5 -66v-376z" glyph-name="G_A.liga" horiz-adv-x="1031" unicode="GA"/><glyph d="M520 0v1093q-78 7 -129 63t-51 136v516q0 40 -26 65.5t-66 25.5t-65.5 -25.5t-25.5 -65.5v-1616q0 -40 25.5 -65.5t65.5 -25.5t66 25.5t26 65.5v400h-92v117h209v-517q0 -89 -60 -148.5t-149 -59.5q-88 0 -148 60t-60 148v1616q0 88 60 148t148 60q89 0 149 -59.5 t60 -148.5v-516q0 -30 17.5 -52.5t45.5 -29.5v790h208q89 0 149 -59.5t60 -148.5v-492q0 -91 -61 -150q61 -59 61 -150v-792q0 -89 -60 -148.5t-149 -59.5h-208zM637 117h91q40 0 66 25.5t26 65.5v792q0 40 -26 66t-66 26h-91v-975zM637 1208h91q40 0 66 26t26 66v492 q0 40 -26 65.5t-66 25.5h-91v-675z" glyph-name="G_B.liga" horiz-adv-x="967" unicode="GB"/><glyph d="M513 192v801q-79 35 -126 109.5t-47 168.5v537q0 40 -26 65.5t-66 25.5t-65.5 -25.5t-25.5 -65.5v-1616q0 -40 25.5 -65.5t65.5 -25.5t66 25.5t26 65.5v400h-92v117h209v-517q0 -89 -60 -148.5t-149 -59.5q-88 0 -148 60t-60 148v1616q0 88 60 148t148 60q89 0 149 -59.5 t60 -148.5v-536q0 -86 56 -140v676q0 89 60 148.5t149 59.5q88 0 148 -60t60 -148v-536v-1q0 -130 -84.5 -217t-210.5 -87h-5v-775q0 -40 26 -65.5t66 -25.5t65.5 25.5t25.5 65.5v517h117v-517q0 -88 -60 -148t-148 -60q-89 0 -149 59.5t-60 148.5zM630 1084h5 q77 0 127.5 53.5t50.5 134.5v536q0 40 -25.5 65.5t-65.5 25.5t-66 -25.5t-26 -65.5v-724z" glyph-name="G_C.liga" horiz-adv-x="950" unicode="GC"/><glyph d="M40 1459q0 238 155 397.5t385 159.5t385 -159.5t155 -397.5v-168h-117v168q0 189 -120.5 314.5t-302.5 125.5t-302.5 -125.5t-120.5 -314.5v-1267q0 -40 25.5 -65.5t65.5 -25.5t66 25.5t26 65.5v400h-92v117h209v-517q0 -89 -60 -148.5t-149 -59.5q-88 0 -148 60t-60 148 v1267zM517 0v1700h208q89 0 148.5 -59.5t59.5 -148.5v-1284q0 -89 -59.5 -148.5t-148.5 -59.5h-208zM633 117h92q40 0 66 25.5t26 65.5v1284q0 40 -26 65.5t-66 25.5h-92v-1466z" glyph-name="G_D.liga" horiz-adv-x="1130" unicode="GD"/><glyph d="M40 192v1616q0 88 60 148t148 60q89 0 149 -59.5t60 -148.5v-525q0 -28 17 -48.5t43 -25.5v791h393v-117h-276v-675h236v-116h-236v-975h276v-117h-393v1093q-77 5 -127 59t-50 131v525q0 40 -26 65.5t-66 25.5t-65.5 -25.5t-25.5 -65.5v-1616q0 -40 25.5 -65.5 t65.5 -25.5t66 25.5t26 65.5v400h-92v117h209v-517q0 -89 -60 -148.5t-149 -59.5q-88 0 -148 60t-60 148z" glyph-name="G_E.liga" horiz-adv-x="930" unicode="GE"/><glyph d="M40 192v1616q0 88 60 148t148 60q89 0 149 -59.5t60 -148.5v-525q0 -28 17 -48.5t43 -25.5v791h393v-117h-276v-675h236v-116h-236v-1092h-117v1093q-77 5 -127 59t-50 131v525q0 40 -26 65.5t-66 25.5t-65.5 -25.5t-25.5 -65.5v-1616q0 -40 25.5 -65.5t65.5 -25.5 t66 25.5t26 65.5v400h-92v117h209v-517q0 -89 -60 -148.5t-149 -59.5q-88 0 -148 60t-60 148z" glyph-name="G_F.liga" horiz-adv-x="920" unicode="GF"/><glyph d="M517 192v793q-81 33 -129 106.5t-48 166.5v550q0 40 -26 65.5t-66 25.5t-65.5 -25.5t-25.5 -65.5v-1616q0 -40 25.5 -65.5t65.5 -25.5t66 25.5t26 65.5v400h-92v117h209v-517q0 -89 -60 -148.5t-149 -59.5q-88 0 -148 60t-60 148v1616q0 88 60 148t148 60q89 0 149 -59.5 t60 -148.5v-550q0 -83 60 -137v687q0 89 59.5 148.5t148.5 59.5t148.5 -59.5t59.5 -148.5v-550q0 -127 -85 -212t-211 -85h-4v-769q0 -40 26 -65.5t66 -25.5t66 25.5t26 65.5v400h-92v117h208v-517q0 -89 -59.5 -148.5t-148.5 -59.5t-148.5 59.5t-59.5 148.5zM633 1078h4 q77 0 128.5 51.5t51.5 128.5v550q0 40 -26 65.5t-66 25.5t-66 -25.5t-26 -65.5v-730z" glyph-name="G_G.liga" horiz-adv-x="953" unicode="GG"/><glyph d="M40 192v1616q0 88 60 148t148 60q89 0 149 -59.5t60 -148.5v-525q0 -28 17 -48.5t43 -25.5v791h117v-792h183v792h117v-2000h-117v1092h-183v-1092h-117v1093q-77 5 -127 59t-50 131v525q0 40 -26 65.5t-66 25.5t-65.5 -25.5t-25.5 -65.5v-1616q0 -40 25.5 -65.5 t65.5 -25.5t66 25.5t26 65.5v400h-92v117h209v-517q0 -89 -60 -148.5t-149 -59.5q-88 0 -148 60t-60 148z" glyph-name="G_H.liga" horiz-adv-x="973" unicode="GH"/><glyph d="M517 0v1521h116v-1521h-116zM40 192v1527q0 127 85 212t212 85q126 0 211 -85t85 -212v-128h-116v128q0 77 -51.5 128.5t-128.5 51.5t-128.5 -51.5t-51.5 -128.5v-1527q0 -40 25.5 -65.5t65.5 -25.5t66 25.5t26 65.5v400h-92v117h209v-517q0 -89 -60 -148.5t-149 -59.5 q-88 0 -148 60t-60 148z" glyph-name="G_I.liga" horiz-adv-x="673" unicode="GI"/><glyph d="M517 -86v1607h116v-1607q0 -89 -59.5 -148.5t-148.5 -59.5t-148.5 59.5t-59.5 148.5h116q0 -40 26 -66t66 -26t66 26t26 66zM40 192v1527q0 127 85 212t212 85q126 0 211 -85t85 -212v-128h-116v128q0 77 -51.5 128.5t-128.5 51.5t-128.5 -51.5t-51.5 -128.5v-1527 q0 -40 25.5 -65.5t65.5 -25.5t66 25.5t26 65.5v400h-92v117h209v-517q0 -89 -60 -148.5t-149 -59.5q-88 0 -148 60t-60 148z" glyph-name="G_J.liga" horiz-adv-x="663" unicode="GJ"/><glyph d="M40 192v1616q0 88 60 148t148 60q89 0 149 -59.5t60 -148.5v-525q0 -28 17 -48.5t43 -25.5v791h117v-792h91q40 0 66 26t26 66v700h117v-700q0 -91 -61 -150q61 -59 61 -150v-1000h-117v1000q0 40 -26 66t-66 26h-91v-1092h-117v1093q-77 5 -127 59t-50 131v525 q0 40 -26 65.5t-66 25.5t-65.5 -25.5t-25.5 -65.5v-1616q0 -40 25.5 -65.5t65.5 -25.5t66 25.5t26 65.5v400h-92v117h209v-517q0 -89 -60 -148.5t-149 -59.5q-88 0 -148 60t-60 148z" glyph-name="G_K.liga" horiz-adv-x="973" unicode="GK"/><glyph d="M517 0v1521h116v-1404h260v-117h-376zM40 192v1527q0 127 85 212t212 85q126 0 211 -85t85 -212v-128h-116v128q0 77 -51.5 128.5t-128.5 51.5t-128.5 -51.5t-51.5 -128.5v-1527q0 -40 25.5 -65.5t65.5 -25.5t66 25.5t26 65.5v400h-92v117h209v-517q0 -89 -60 -148.5 t-149 -59.5q-88 0 -148 60t-60 148z" glyph-name="G_L.liga" horiz-adv-x="903" unicode="GL"/><glyph d="M817 900l-184 401v-1301h-116v1554h116l227 -495l257 941h116v-2000h-116v1575l-184 -675h-116zM40 192v1527q0 127 85 212t212 85q126 0 211 -85t85 -212v-95h-116v95q0 77 -51.5 128.5t-128.5 51.5t-128.5 -51.5t-51.5 -128.5v-1527q0 -40 25.5 -65.5t65.5 -25.5 t66 25.5t26 65.5v400h-92v117h209v-517q0 -89 -60 -148.5t-149 -59.5q-88 0 -148 60t-60 148z" glyph-name="G_M.liga" horiz-adv-x="1273" unicode="GM"/><glyph d="M817 0v1054l-184 307v-1361h-116v1554h116l184 -307v753h116v-2000h-116zM40 192v1527q0 127 85 212t212 85q126 0 211 -85t85 -212v-95h-116v95q0 77 -51.5 128.5t-128.5 51.5t-128.5 -51.5t-51.5 -128.5v-1527q0 -40 25.5 -65.5t65.5 -25.5t66 25.5t26 65.5v400h-92 v117h209v-517q0 -89 -60 -148.5t-149 -59.5q-88 0 -148 60t-60 148z" glyph-name="G_N.liga" horiz-adv-x="973" unicode="GN"/><glyph d="M40 1481q0 228 153.5 381.5t381.5 153.5t381.5 -153.5t153.5 -381.5v-151h-116v151q0 179 -119.5 298.5t-299.5 119.5t-299 -119.5t-119 -298.5v-1289q0 -40 25.5 -65.5t65.5 -25.5t66 25.5t26 65.5v400h-92v117h209v-517q0 -89 -60 -148.5t-149 -59.5q-88 0 -148 60 t-60 148v1289zM507 192v1339q0 89 59.5 148.5t148.5 59.5t148.5 -59.5t59.5 -148.5v-1339q0 -89 -59.5 -148.5t-148.5 -59.5t-148.5 59.5t-59.5 148.5zM623 192q0 -40 26 -65.5t66 -25.5t66 25.5t26 65.5v1339q0 40 -26 66t-66 26t-66 -26t-26 -66v-1339z" glyph-name="G_O.liga" horiz-adv-x="1120" unicode="GO"/><glyph d="M40 192v1616q0 88 60 148t148 60q89 0 149 -59.5t60 -148.5v-541q0 -28 16.5 -48.5t43.5 -25.5v807h208q89 0 149 -59.5t60 -148.5v-509q0 -89 -60 -148.5t-149 -59.5h-91v-1075h-117v1076q-77 5 -127 59t-50 132v541q0 40 -26 65.5t-66 25.5t-65.5 -25.5t-25.5 -65.5 v-1616q0 -40 25.5 -65.5t65.5 -25.5t66 25.5t26 65.5v400h-92v117h209v-517q0 -89 -60 -148.5t-149 -59.5q-88 0 -148 60t-60 148zM634 1192h91q40 0 66 25.5t26 65.5v509q0 40 -26 65.5t-66 25.5h-91v-691z" glyph-name="G_P.liga" horiz-adv-x="943" unicode="GP"/><glyph d="M40 1481q0 228 153.5 381.5t381.5 153.5t381.5 -153.5t153.5 -381.5v-184h-116v184q0 179 -119.5 298.5t-299.5 119.5t-299 -119.5t-119 -298.5v-1289q0 -40 25.5 -65.5t65.5 -25.5t66 25.5t26 65.5v400h-92v117h209v-517q0 -89 -60 -148.5t-149 -59.5q-88 0 -148 60 t-60 148v1289zM507 192v1349q0 89 59.5 148.5t148.5 59.5t148.5 -59.5t59.5 -148.5v-1349q0 -73 -41.5 -127.5t-108.5 -72.5v-192h-116v192q-67 18 -108.5 72.5t-41.5 127.5zM623 192q0 -40 26 -65.5t66 -25.5t66 25.5t26 65.5v1349q0 40 -26 66t-66 26t-66 -26t-26 -66 v-1349z" glyph-name="G_Q.liga" horiz-adv-x="1120" unicode="GQ"/><glyph d="M40 192v1616q0 88 60 148t148 60q89 0 149 -59.5t60 -148.5v-525q0 -28 17 -48.5t43 -25.5v791h208q89 0 149 -59.5t60 -148.5v-492q0 -91 -61 -150q61 -59 61 -150v-1000h-117v1000q0 40 -26 66t-66 26h-91v-1092h-117v1093q-77 5 -127 59t-50 131v525q0 40 -26 65.5 t-66 25.5t-65.5 -25.5t-25.5 -65.5v-1616q0 -40 25.5 -65.5t65.5 -25.5t66 25.5t26 65.5v400h-92v117h209v-517q0 -89 -60 -148.5t-149 -59.5q-88 0 -148 60t-60 148zM634 1208h91q40 0 66 26t26 66v492q0 40 -26 65.5t-66 25.5h-91v-675z" glyph-name="G_R.liga" horiz-adv-x="963" unicode="GR"/><glyph d="M40 1546q0 200 135 335t335 135t335 -135t135 -335v-255h-117v255q0 152 -100.5 252.5t-252.5 100.5t-252.5 -100.5t-100.5 -252.5v-1354q0 -40 25.5 -65.5t65.5 -25.5t66 25.5t26 65.5v400h-92v117h209v-517q0 -89 -60 -148.5t-149 -59.5q-88 0 -148 60t-60 148v1354z M227 1533v117h566v-117h-150v-1533h-116v1533h-300z" glyph-name="G_T.liga" horiz-adv-x="990" unicode="GT"/><glyph d="M807 192v1808h116v-1808q0 -89 -59.5 -148.5t-148.5 -59.5t-148.5 59.5t-59.5 148.5v1329h116v-1329q0 -40 26 -65.5t66 -25.5t66 25.5t26 65.5zM40 192v1532q0 124 84 208t208 84t207.5 -84t83.5 -208v-133h-116v133q0 76 -50 125.5t-125 49.5q-76 0 -125.5 -49.5 t-49.5 -125.5v-1532q0 -40 25.5 -65.5t65.5 -25.5t66 25.5t26 65.5v400h-92v117h209v-517q0 -89 -60 -148.5t-149 -59.5q-88 0 -148 60t-60 148z" glyph-name="G_U.liga" horiz-adv-x="953" unicode="GU"/><glyph d="M1107 192v1808h116v-1808q0 -89 -59.5 -148.5t-148.5 -59.5q-91 0 -150 61q-59 -61 -150 -61q-89 0 -148.5 59.5t-59.5 148.5v1329h116v-1329q0 -40 26 -65.5t66 -25.5t66 25.5t26 65.5v1808h116v-1808q0 -40 26 -65.5t66 -25.5t66 25.5t26 65.5zM40 192v1532 q0 124 84 208t208 84t207.5 -84t83.5 -208v-133h-116v133q0 76 -50 125.5t-125 49.5q-76 0 -125.5 -49.5t-49.5 -125.5v-1532q0 -40 25.5 -65.5t65.5 -25.5t66 25.5t26 65.5v400h-92v117h209v-517q0 -89 -60 -148.5t-149 -59.5q-88 0 -148 60t-60 148z" glyph-name="G_W.liga" horiz-adv-x="1253" unicode="GW"/><glyph d="M40 192v1532q0 124 84 208t208 84t207.5 -84t83.5 -208v-133h-116v133q0 76 -50 125.5t-125 49.5q-76 0 -125.5 -49.5t-49.5 -125.5v-1532q0 -40 25.5 -65.5t65.5 -25.5t66 25.5t26 65.5v400h-92v117h209v-517q0 -89 -60 -148.5t-149 -59.5q-88 0 -148 60t-60 148zM507 0 v847q0 112 89 173q-89 61 -89 173v328h116v-328q0 -40 26 -65.5t66 -25.5t66 25.5t26 65.5v807h116v-807q0 -112 -89 -173q89 -61 89 -173v-847h-116v847q0 40 -26 65.5t-66 25.5t-66 -25.5t-26 -65.5v-847h-116z" glyph-name="G_X.liga" horiz-adv-x="953" unicode="GX"/><glyph d="M40 192v1581q0 104 69.5 173.5t173.5 69.5t174 -69.5t70 -173.5v-182h-117v182q0 55 -36 90.5t-91 35.5t-90.5 -35.5t-35.5 -90.5v-1581q0 -40 25.5 -65.5t65.5 -25.5t66 25.5t26 65.5v384h-92v133h209v-517q0 -89 -60 -148.5t-149 -59.5q-88 0 -148 60t-60 148z M410 1183v338h117v-338q0 -40 25.5 -65.5t65.5 -25.5t66 25.5t26 65.5v817h117v-817q0 -73 -41.5 -127.5t-108.5 -72.5v-983h-117v983q-67 18 -108.5 72.5t-41.5 127.5z" glyph-name="G_Y.liga" horiz-adv-x="837" unicode="GY"/><glyph d="M497 0l271 1104h-428v117h573l-271 -1104h271v-117h-416zM40 192v1616q0 88 60 148t148 60q89 0 149 -59.5t60 -148.5v-517h-117v517q0 40 -26 65.5t-66 25.5t-65.5 -25.5t-25.5 -65.5v-1616q0 -40 25.5 -65.5t65.5 -25.5t66 25.5t26 65.5v400h-92v117h209v-517 q0 -89 -60 -148.5t-149 -59.5q-88 0 -148 60t-60 148z" glyph-name="G_Z.liga" horiz-adv-x="933" unicode="GZ"/><glyph d="M40 0v2000h117v-792h183v792h117v-1864q0 -15 10 -25t25 -10t25 10t10 25v1672q0 89 59.5 148.5t148.5 59.5t148.5 -59.5t59.5 -148.5v-1808h-116v1092h-184v-956q0 -64 -43.5 -108t-107.5 -44t-108 44t-44 108v956h-183v-1092h-117zM643 1208h184v600q0 40 -26 65.5 t-66 25.5t-66 -25.5t-26 -65.5v-600z" glyph-name="H_A.liga" horiz-adv-x="973" unicode="HA"/><glyph d="M1013 0q-80 2 -133 57t-53 135v900h-184v-956q0 -64 -43.5 -108t-107.5 -44t-108 44t-44 108v956h-183v-1092h-117v2000h117v-792h183v792h117v-1864q0 -16 9.5 -25.5t25.5 -9.5q15 0 25 9.5t10 25.5v1672q0 89 59.5 148.5t148.5 59.5t148.5 -59.5t59.5 -148.5v-1616 q0 -31 20 -52t50 -23v1883h209q88 0 148 -60t60 -148v-1584q0 -88 -60 -148t-148 -60h-204h-5zM643 1208h184v600q0 40 -26 65.5t-66 25.5t-66 -25.5t-26 -65.5v-600zM1130 117h92q40 0 65.5 25.5t25.5 65.5v1584q0 40 -25.5 65.5t-65.5 25.5h-92v-1766z" glyph-name="H_A_D.liga" horiz-adv-x="1460" unicode="HAD"/><glyph d="M40 0v2000h117v-792h183v792h117v-1864q0 -16 9.5 -25.5t25.5 -9.5q15 0 25 9.5t10 25.5v1672q0 89 59.5 148.5t148.5 59.5t148.5 -59.5t59.5 -148.5v-1029h-116v313h-184v-956q0 -64 -43.5 -108t-107.5 -44t-108 44t-44 108v956h-183v-1092h-117zM643 1208h184v600 q0 40 -26 65.5t-66 25.5t-66 -25.5t-26 -65.5v-600zM827 281v428h116v-428q0 -77 51.5 -128.5t128.5 -51.5t128.5 51.5t51.5 128.5v569q0 40 -25.5 66t-65.5 26q-89 0 -149 59.5t-60 148.5v658q0 89 60 148.5t149 59.5q88 0 148 -60t60 -148v-517h-117v517q0 40 -25.5 65.5 t-65.5 25.5t-66 -25.5t-26 -65.5v-658q0 -40 26 -66t66 -26q89 0 148.5 -59.5t59.5 -148.5v-569q0 -127 -85 -212t-212 -85q-126 0 -211 85t-85 212z" glyph-name="H_A_S.liga" horiz-adv-x="1450" unicode="HAS"/><glyph d="M340 0v1092h-183v-1092h-117v2000h117v-792h183v792h117v-792h80v792h208q89 0 149 -64t60 -161v-475q0 -91 -61 -150q61 -59 61 -150v-775q0 -97 -60 -161t-149 -64h-208v1092h-80v-1092h-117zM654 117h91q40 0 66 30.5t26 77.5v775q0 40 -26 66t-66 26h-91v-975z M654 1208h91q40 0 66 26t26 66v475q0 47 -26 77.5t-66 30.5h-91v-675z" glyph-name="H_B.liga" horiz-adv-x="983" unicode="HB"/><glyph d="M537 0v2000h208q89 0 148.5 -59.5t59.5 -148.5v-1584q0 -89 -59.5 -148.5t-148.5 -59.5h-208zM40 0v2000h117v-792h183v792h117v-1808q0 -32 21.5 -53.5t53.5 -21.5v-117q-82 0 -137 55t-55 137v900h-183v-1092h-117zM653 117h92q40 0 66 25.5t26 65.5v1584 q0 40 -26 65.5t-66 25.5h-92v-1766z" glyph-name="H_D.liga" horiz-adv-x="983" unicode="HD"/><glyph d="M537 0v1092h-80v-1092h-117v1092h-183v-1092h-117v2000h117v-792h183v792h117v-792h80v792h393v-117h-277v-675h237v-116h-237v-975h277v-117h-393z" glyph-name="H_E.liga" horiz-adv-x="950" unicode="HE"/><glyph d="M537 0v1092h-80v-1092h-117v1092h-183v-1092h-117v2000h117v-792h183v792h117v-792h80v792h393v-117h-277v-675h237v-116h-237v-1092h-116z" glyph-name="H_F.liga" horiz-adv-x="940" unicode="HF"/><glyph d="M340 0v592h-183v-592h-117v2000h117v-1291h183v1291h117v-1291h73v1099q0 88 60 148t148 60q89 0 149 -59.5t60 -148.5v-517h-117v517q0 40 -26 65.5t-66 25.5t-65.5 -25.5t-25.5 -65.5v-1099h300v-517q0 -89 -60 -148.5t-149 -59.5q-88 0 -148 60t-60 148v400h-73v-592 h-117zM647 192q0 -40 25.5 -65.5t65.5 -25.5t66 25.5t26 65.5v400h-183v-400z" glyph-name="H_G.liga" horiz-adv-x="966" unicode="HG"/><glyph d="M340 0v1093l-183 -1v-1092h-117v2000h117v-792l183 1v791h117v-791l80 1v790h117v-790h21v-2h70q40 0 66 26t26 66v700h117v-700q0 -91 -61 -150q61 -59 61 -150v-1000h-117v1000q0 40 -26 66t-66 26h-91v-1092h-117v1094l-80 -1v-1093h-117z" glyph-name="H_K.liga" horiz-adv-x="993" unicode="HK"/><glyph d="M640 900l-183 671v-171h-117v600h117l242 -885l241 885h117v-2000h-117v1571l-183 -671h-117zM40 0v2000h117v-792h183v122h117v-1330h-117v1092h-183v-1092h-117z" glyph-name="H_M.liga" horiz-adv-x="1097" unicode="HM"/><glyph d="M640 0v1500l-183 305v-305h-117v500h117l183 -305v305h117v-2000h-117zM40 0v2000h117v-792h183v222h117v-1430h-117v1092h-183v-1092h-117z" glyph-name="H_N.liga" horiz-adv-x="797" unicode="HN"/><glyph d="M340 0v1075h-183v-1075h-117v2000h117v-808h183v808h117v-808h80v808h208q89 0 149 -59.5t60 -148.5v-509q0 -89 -60 -148.5t-149 -59.5h-91v-1075h-117v1075h-80v-1075h-117zM654 1192h91q40 0 66 25.5t26 65.5v509q0 40 -26 65.5t-66 25.5h-91v-691z" glyph-name="H_P.liga" horiz-adv-x="963" unicode="HP"/><glyph d="M340 0v1092h-183v-1092h-117v2000h117v-792h183v792h117v-792h80v792h208q89 0 149 -59.5t60 -148.5v-492q0 -91 -61 -150q61 -59 61 -150v-1000h-117v1000q0 40 -26 66t-66 26h-91v-1092h-117v1092h-80v-1092h-117zM654 1208h91q40 0 66 26t26 66v492q0 40 -26 65.5 t-66 25.5h-91v-675z" glyph-name="H_R.liga" horiz-adv-x="983" unicode="HR"/><glyph d="M40 0v2000h117v-792h183v792h117v-1521h-117v613h-183v-1092h-117zM340 281v128h117v-128q0 -77 51.5 -128.5t128.5 -51.5t128.5 51.5t51.5 128.5v569q0 40 -26 66t-66 26q-89 0 -148.5 59.5t-59.5 148.5v658q0 89 59.5 148.5t148.5 59.5t148.5 -59.5t59.5 -148.5v-517 h-116v517q0 40 -26 65.5t-66 25.5t-66 -25.5t-26 -65.5v-658q0 -40 26 -66t66 -26q89 0 148.5 -59.5t59.5 -148.5v-569q0 -127 -85 -212t-211 -85q-127 0 -212 85t-85 212z" glyph-name="H_S.liga" horiz-adv-x="963" unicode="HS"/><glyph d="M527 0v1883h-187v117h453v-117h-150v-1883h-116zM40 0v2000h117v-792h183v605h117v-1813h-117v1092h-183v-1092h-117z" glyph-name="H_T.liga" horiz-adv-x="803" unicode="HT"/><glyph d="M40 0v2000h117v-792h183v656q0 64 44 108t108 44t107.5 -44t43.5 -108v-1672q0 -40 26 -65.5t66 -25.5t66 25.5t26 65.5v1808h116v-1808q0 -89 -59.5 -148.5t-148.5 -59.5t-148.5 59.5t-59.5 148.5v1672q0 15 -10 25t-25 10t-25 -10t-10 -25v-1864h-117v1092h-183v-1092 h-117z" glyph-name="H_U.liga" horiz-adv-x="973" unicode="HU"/><glyph d="M40 0v2000h117v-792h183v656q0 64 44 108t108 44t107.5 -44t43.5 -108v-1672q0 -40 26 -65.5t66 -25.5t66 25.5t26 65.5v1808h116v-1808q0 -40 26 -65.5t66 -25.5t66 25.5t26 65.5v1808h116v-1808q0 -89 -59.5 -148.5t-148.5 -59.5q-91 0 -150 61q-59 -61 -150 -61 q-89 0 -148.5 59.5t-59.5 148.5v1672q0 15 -10 25t-25 10t-25 -10t-10 -25v-1864h-117v1092h-183v-1092h-117z" glyph-name="H_W.liga" horiz-adv-x="1273" unicode="HW"/><glyph d="M40 0v2000h117v-792h183v656q0 64 44 108t108 44t107.5 -44t43.5 -108v-671q0 -40 26 -65.5t66 -25.5t66 25.5t26 65.5v807h116v-807q0 -112 -89 -173q89 -61 89 -173v-847h-116v847q0 40 -26 65.5t-66 25.5t-66 -25.5t-26 -65.5v-847h-116v847q0 112 89 173 q-89 61 -89 173v671q0 15 -10 25t-25 10t-25 -10t-10 -25v-1864h-117v1092h-183v-1092h-117z" glyph-name="H_X.liga" horiz-adv-x="973" unicode="HX"/><glyph d="M40 0v2000h117v-792h183v666q0 60 41 101t101 41t100.5 -41t40.5 -101v-691q0 -40 26 -65.5t66 -25.5t66 25.5t26 65.5v817h116v-817q0 -73 -41.5 -127.5t-108.5 -72.5v-983h-116v983q-67 18 -108.5 72.5t-41.5 127.5v691q0 11 -7 18t-18 7q-25 0 -25 -25v-1874h-117 v1092h-183v-1092h-117z" glyph-name="H_Y.liga" horiz-adv-x="933" unicode="HY"/><glyph d="M40 0v1813h117v-1813h-117zM40 1883v117h987v-117h-167v-1883h-117v1883h-703zM237 0v1813h116l184 -296v296h116v-1813h-116v1330l-184 296v-1626h-116z" glyph-name="I_N_T.liga" horiz-adv-x="1037" unicode="INT"/><glyph d="M713 0v1883h-673v117h940v-117h-150v-1883h-117zM40 286v1517h117v-1517q0 -80 52.5 -132.5t132.5 -52.5q79 0 132 53t53 132v564q0 40 -26 66t-66 26q-89 0 -148.5 59.5t-59.5 148.5v461q0 89 59.5 148.5t148.5 59.5t148.5 -59.5t59.5 -148.5v-320h-116v320q0 40 -26 66 t-66 26t-66 -26t-26 -66v-461q0 -40 26 -66t66 -26q89 0 148.5 -59.5t59.5 -148.5v-564q0 -129 -86.5 -215.5t-214.5 -86.5q-129 0 -215.5 86.5t-86.5 215.5z" glyph-name="I_S_T.liga" horiz-adv-x="990" unicode="IST"/><glyph d="M547 0v1883h-507v117h773v-117h-150v-1883h-116zM40 0v1627h117v-1627h-117zM40 1697v116h437v-116h-134v-1697h-116v1697h-187z" glyph-name="I_T_T.liga" horiz-adv-x="823" unicode="ITT"/><glyph d="M40 0v2000h117v-792h91q40 0 66 26t26 66v700h117v-700q0 -91 -61 -150q61 -59 61 -150v-864q0 -15 10 -25t25 -10t25 10t10 25v1672q0 89 59.5 148.5t148.5 59.5t148.5 -59.5t59.5 -148.5v-1808h-116v1092h-184v-956q0 -64 -43.5 -108t-107.5 -44t-108 44t-44 108v864 q0 40 -26 66t-66 26h-91v-1092h-117zM643 1208h184v600q0 40 -26 65.5t-66 25.5t-66 -25.5t-26 -65.5v-600z" glyph-name="K_A.liga" horiz-adv-x="973" unicode="KA"/><glyph d="M532 0q-82 0 -137 55t-55 137v808q0 40 -26 66t-66 26h-91v-1092h-117v2000h117v-792h91q40 0 66 26t26 66v700h117v-700q0 -91 -61 -150q61 -59 61 -150v-808q0 -32 21.5 -53.5t53.5 -21.5h2v1883h208q89 0 148.5 -59.5t59.5 -148.5v-492q0 -91 -61 -150q61 -59 61 -150 v-792q0 -89 -59.5 -148.5t-148.5 -59.5h-210zM650 117h92q40 0 66 25.5t26 65.5v792q0 40 -26 66t-66 26h-92v-975zM650 1208h92q40 0 66 26t26 66v492q0 40 -26 65.5t-66 25.5h-92v-675z" glyph-name="K_B.liga" horiz-adv-x="980" unicode="KB"/><glyph d="M735 -16q-168 0 -281.5 113.5t-113.5 281.5v621q0 40 -26 66t-66 26h-91v-1092h-117v2000h117v-792h91q40 0 66 26t26 66v700h117v-700q0 -91 -61 -150q61 -59 61 -150v-621q0 -119 79.5 -198.5t198.5 -79.5t198.5 79.5t79.5 198.5v330h117v-330q0 -168 -113.5 -281.5 t-281.5 -113.5zM527 379v1429q0 89 59.5 148.5t148.5 59.5t148.5 -59.5t59.5 -148.5v-417h-116v417q0 40 -26 65.5t-66 25.5t-66 -25.5t-26 -65.5v-1429q0 -40 26 -66t66 -26t66 26t26 66v450h116v-450q0 -89 -59.5 -148.5t-148.5 -59.5t-148.5 59.5t-59.5 148.5z" glyph-name="K_C.liga" horiz-adv-x="1150" unicode="KC"/><glyph d="M40 0v2000h117v-792h91q40 0 66 26t26 66v700h117v-700q0 -91 -61 -150q61 -59 61 -150v-808q0 -32 21.5 -53.5t53.5 -21.5h2v1883h208q89 0 149 -59.5t60 -148.5v-1584q0 -89 -60 -148.5t-149 -59.5h-210q-82 0 -137 55t-55 137v808q0 40 -26 66t-66 26h-91v-1092h-117z M651 117h91q40 0 66 25.5t26 65.5v1584q0 40 -26 65.5t-66 25.5h-91v-1766z" glyph-name="K_D.liga" horiz-adv-x="980" unicode="KD"/><glyph d="M40 0v2000h117v-792h91q40 0 66 26t26 66v700h117v-700q0 -91 -61 -150q61 -59 61 -150v-808q0 -32 21.5 -53.5t53.5 -21.5h378v-117h-378q-82 0 -137 55t-55 137v808q0 40 -26 66t-66 26h-91v-1092h-117zM534 187v1813h376v-117h-260v-675h220v-116h-220v-789h260v-116 h-376z" glyph-name="K_E.liga" horiz-adv-x="930" unicode="KE"/><glyph d="M40 0v2000h117v-792h91q40 0 66 26t26 66v700h117v-700q0 -91 -61 -150q61 -59 61 -150v-771q0 -55 36.5 -91.5t91.5 -36.5t91.5 36.5t36.5 91.5v480h117v-480q0 -103 -71 -174t-174 -71t-174 71t-71 174v771q0 40 -26 66t-66 26h-91v-1092h-117zM527 187v1813h376v-117 h-260v-675h220v-116h-220v-905h-116z" glyph-name="K_F.liga" horiz-adv-x="913" unicode="KF"/><glyph d="M735 -16q-168 0 -281.5 113.5t-113.5 281.5v621q0 40 -26 66t-66 26h-91v-1092h-117v2000h117v-792h91q40 0 66 26t26 66v700h117v-700q0 -91 -61 -150q61 -59 61 -150v-621q0 -119 79.5 -198.5t198.5 -79.5t198.5 79.5t79.5 198.5v330h117v-330q0 -168 -113.5 -281.5 t-281.5 -113.5zM527 379v1429q0 89 59.5 148.5t148.5 59.5t148.5 -59.5t59.5 -148.5v-417h-116v417q0 40 -26 65.5t-66 25.5t-66 -25.5t-26 -65.5v-1429q0 -40 26 -66t66 -26t66 26t26 66v333h-92v117h208v-450q0 -89 -59.5 -148.5t-148.5 -59.5t-148.5 59.5t-59.5 148.5z " glyph-name="K_G.liga" horiz-adv-x="1140" unicode="KG"/><glyph d="M827 0v1092h-184v-956q0 -64 -43.5 -108t-107.5 -44t-108 44t-44 108v864q0 40 -26 66t-66 26h-91v-1092h-117v2000h117v-792h91q40 0 66 26t26 66v700h117v-700q0 -91 -61 -150q61 -59 61 -150v-864q0 -15 10 -25t25 -10t25 10t10 25v1864h116v-792h184v792h116v-2000 h-116z" glyph-name="K_H.liga" horiz-adv-x="983" unicode="KH"/><glyph d="M40 0v2000h117v-792h91q40 0 66 26t26 66v700h117v-700q0 -91 -61 -150q61 -59 61 -150v-864q0 -15 10 -25t25 -10t25 10t10 25v1864h116v-1864q0 -64 -43.5 -108t-107.5 -44t-108 44t-44 108v864q0 40 -26 66t-66 26h-91v-1092h-117z" glyph-name="K_I.liga" horiz-adv-x="683" unicode="KI"/><glyph d="M527 -70v2070h116v-2070q0 -89 -59.5 -148.5t-148.5 -59.5t-148.5 59.5t-59.5 148.5h116q0 -40 26 -66t66 -26t66 26t26 66zM40 0v2000h117v-792h91q40 0 66 26t26 66v700h117v-700q0 -91 -61 -150q61 -59 61 -150v-1000h-117v1000q0 40 -26 66t-66 26h-91v-1092h-117z " glyph-name="K_J.liga" horiz-adv-x="673" unicode="KJ"/><glyph d="M40 0v2000h117v-792h91q40 0 66 26t26 66v700h117v-700q0 -91 -61 -150q61 -59 61 -150v-808q0 -32 21.5 -53.5t53.5 -21.5h388v-117h-388q-82 0 -137 55t-55 137v808q0 40 -26 66t-66 26h-91v-1092h-117zM527 187v1813h116v-1697h277v-116h-393z" glyph-name="K_L.liga" horiz-adv-x="930" unicode="KL"/><glyph d="M827 900l-184 675v-1395h-116v1820h116l242 -887l242 887h116v-2000h-116v1575l-184 -675h-116zM40 0v2000h117v-792h91q40 0 66 26t26 66v700h117v-700q0 -91 -61 -150q61 -59 61 -150v-748q0 -64 44.5 -107.5t110.5 -43.5q65 0 110 43.5t45 107.5v337h116v-337 q0 -113 -78 -190.5t-193 -77.5t-193.5 77.5t-78.5 190.5v748q0 40 -26 66t-66 26h-91v-1092h-117z" glyph-name="K_M.liga" horiz-adv-x="1283" unicode="KM"/><glyph d="M827 0v1500l-184 307v-1620h-116v1813h116l184 -307v307h116v-2000h-116zM40 0v2000h117v-792h91q40 0 66 26t26 66v700h117v-700q0 -91 -61 -150q61 -59 61 -150v-825q0 -24 17 -41t41 -17h128v-117h-128q-73 0 -124 51t-51 124v825q0 40 -26 66t-66 26h-91v-1092h-117z " glyph-name="K_N.liga" horiz-adv-x="983" unicode="KN"/><glyph d="M735 -16q-168 0 -281.5 113.5t-113.5 281.5v621q0 40 -26 66t-66 26h-95v-1092h-113v2000h113v-792h95q40 0 66 26t26 66v700h113v-700q0 -90 -60 -150q60 -60 60 -150v-621q0 -119 80.5 -198.5t201.5 -79.5q119 0 198.5 79.5t79.5 198.5v330h114v-330 q0 -168 -112.5 -281.5t-279.5 -113.5zM527 379v1429q0 89 59.5 148.5t148.5 59.5q87 0 146 -60t59 -148v-1429q0 -89 -59 -148.5t-146 -59.5q-89 0 -148.5 59.5t-59.5 148.5zM640 379q0 -40 27 -66t68 -26q40 0 66 26t26 66v1429q0 40 -26 65.5t-66 25.5q-41 0 -68 -25.5 t-27 -65.5v-1429z" glyph-name="K_O.liga" horiz-adv-x="1137" unicode="KO"/><glyph d="M40 0v2000h117v-792h91q40 0 66 26t26 66v700h117v-700q0 -91 -61 -150q61 -59 61 -150v-771q0 -55 36.5 -91.5t91.5 -36.5t91.5 36.5t36.5 91.5v480h117v-480q0 -103 -71 -174t-174 -71t-174 71t-71 174v771q0 40 -26 66t-66 26h-91v-1092h-117zM527 187v1813h208 q89 0 148.5 -59.5t59.5 -148.5v-492q0 -89 -59.5 -148.5t-148.5 -59.5h-92v-905h-116zM643 1208h92q40 0 66 26t26 66v492q0 40 -26 65.5t-66 25.5h-92v-675z" glyph-name="K_P.liga" horiz-adv-x="953" unicode="KP"/><glyph d="M735 -16q-168 0 -281.5 113.5t-113.5 281.5v621q0 40 -26 66t-66 26h-91v-1092h-117v2000h117v-792h91q40 0 66 26t26 66v700h117v-700q0 -91 -61 -150q61 -59 61 -150v-621q0 -103 61 -178t159 -94v71q-67 18 -108.5 72.5t-41.5 128.5v1429q0 89 59.5 148.5t148.5 59.5 t148.5 -59.5t59.5 -148.5v-1429q0 -74 -41.5 -128.5t-108.5 -72.5v-71q98 19 159 94t61 178v330h117v-330q0 -168 -113.5 -281.5t-281.5 -113.5zM643 379q0 -40 26 -66t66 -26t66 26t26 66v1429q0 40 -26 65.5t-66 25.5t-66 -25.5t-26 -65.5v-1429z" glyph-name="K_Q.liga" horiz-adv-x="1140" unicode="KQ"/><glyph d="M40 0v2000h117v-792h91q40 0 66 26t26 66v700h117v-700q0 -91 -61 -150q61 -59 61 -150v-808q0 -32 21.5 -53.5t53.5 -21.5h115v-117h-115q-82 0 -137 55t-55 137v808q0 40 -26 66t-66 26h-91v-1092h-117zM531 187v1813h208q89 0 148.5 -59.5t59.5 -148.5v-492 q0 -91 -61 -150q61 -59 61 -150v-1000h-116v1000q0 40 -26 66t-66 26h-92v-905h-116zM647 1208h92q40 0 66 26t26 66v492q0 40 -26 65.5t-66 25.5h-92v-675z" glyph-name="K_R.liga" horiz-adv-x="977" unicode="KR"/><glyph d="M735 -16q-168 0 -281.5 113.5t-113.5 281.5v621q0 40 -26 66t-66 26h-91v-1092h-117v2000h117v-792h91q40 0 66 26t26 66v700h117v-700q0 -91 -61 -150q61 -59 61 -150v-621q0 -119 79.5 -198.5t198.5 -79.5t198.5 79.5t79.5 198.5v330h117v-330q0 -168 -113.5 -281.5 t-281.5 -113.5zM527 379v440h116v-440q0 -40 26 -66t66 -26t66 26t26 66v581q0 40 -26 66t-66 26q-89 0 -148.5 59.5t-59.5 148.5v548q0 89 59.5 148.5t148.5 59.5t148.5 -59.5t59.5 -148.5v-407h-116v407q0 40 -26 65.5t-66 25.5t-66 -25.5t-26 -65.5v-548q0 -40 26 -66 t66 -26q89 0 148.5 -59.5t59.5 -148.5v-581q0 -89 -59.5 -148.5t-148.5 -59.5t-148.5 59.5t-59.5 148.5z" glyph-name="K_S.liga" horiz-adv-x="1140" unicode="KS"/><glyph d="M527 0v1883h-187v117h443v-117h-140v-1883h-116zM40 0v2000h117v-792h91q40 0 66 26t26 66v513h117v-513q0 -91 -61 -150q61 -59 61 -150v-1000h-117v1000q0 40 -26 66t-66 26h-91v-1092h-117z" glyph-name="K_T.liga" horiz-adv-x="793" unicode="KT"/><glyph d="M735 -16q-168 0 -281.5 113.5t-113.5 281.5v621q0 40 -26 66t-66 26h-91v-1092h-117v2000h117v-792h91q40 0 66 26t26 66v700h117v-700q0 -91 -61 -150q61 -59 61 -150v-621q0 -119 79.5 -198.5t198.5 -79.5t198.5 79.5t79.5 198.5v330h117v-330q0 -168 -113.5 -281.5 t-281.5 -113.5zM527 379v1621h116v-1621q0 -40 26 -66t66 -26t66 26t26 66v1621h116v-1621q0 -89 -59.5 -148.5t-148.5 -59.5t-148.5 59.5t-59.5 148.5z" glyph-name="K_U.liga" horiz-adv-x="1160" unicode="KU"/><glyph d="M40 0v2000h117v-792h91q40 0 66 26t26 66v564q0 64 44 108t108 44t107.5 -44t43.5 -108v-1672q0 -40 26 -65.5t66 -25.5t66 25.5t26 65.5v1808h116v-1808q0 -40 26 -65.5t66 -25.5t66 25.5t26 65.5v1808h116v-1808q0 -89 -59.5 -148.5t-148.5 -59.5q-91 0 -150 61 q-59 -61 -150 -61q-89 0 -148.5 59.5t-59.5 148.5v1672q0 15 -10 25t-25 10t-25 -10t-10 -25v-564q0 -91 -61 -150q61 -59 61 -150v-1000h-117v1000q0 40 -26 66t-66 26h-91v-1092h-117z" glyph-name="K_W.liga" horiz-adv-x="1273" unicode="KW"/><glyph d="M40 0v2000h117v-792h91q40 0 66 26t26 66v564q0 64 44 108t108 44t107.5 -44t43.5 -108v-671q0 -40 26 -65.5t66 -25.5t66 25.5t26 65.5v807h116v-807q0 -112 -89 -173q89 -61 89 -173v-847h-116v847q0 40 -26 65.5t-66 25.5t-66 -25.5t-26 -65.5v-847h-116v847 q0 112 89 173q-89 61 -89 173v671q0 15 -10 25t-25 10t-25 -10t-10 -25v-564q0 -91 -61 -150q61 -59 61 -150v-1000h-117v1000q0 40 -26 66t-66 26h-91v-1092h-117z" glyph-name="K_X.liga" horiz-adv-x="973" unicode="KX"/><glyph d="M40 0v2000h117v-792h91q40 0 66 26t26 66v700h117v-700q0 -91 -61 -150q61 -59 61 -150v-799q0 -43 28.5 -71.5t71.5 -28.5t71.5 28.5t28.5 71.5v782q-67 18 -108.5 72.5t-41.5 127.5v817h116v-817q0 -40 26 -65.5t66 -25.5t66 25.5t26 65.5v817h116v-817 q0 -73 -41.5 -127.5t-108.5 -72.5v-782q0 -92 -62 -154.5t-154 -62.5t-154.5 62.5t-62.5 154.5v799q0 40 -26 66t-66 26h-91v-1092h-117z" glyph-name="K_Y.liga" horiz-adv-x="933" unicode="KY"/><glyph d="M40 0v2000h117v-792h91q40 0 66 26t26 66v508q0 82 55 137t137 55h401l-282 -1883h282v-117h-416l283 1883h-268q-32 0 -53.5 -21.5t-21.5 -53.5v-508q0 -92 -63 -150q63 -58 63 -150v-1000h-117v1000q0 40 -26 66t-66 26h-91v-1092h-117z" glyph-name="K_Z.liga" horiz-adv-x="953" unicode="KZ"/><glyph d="M40 0v2000h117v-1883h210v-117h-327zM227 187v1621q0 89 59.5 148.5t148.5 59.5t148.5 -59.5t59.5 -148.5v-1808h-116v1092h-184v-905h-116zM343 1208h184v600q0 40 -26 65.5t-66 25.5t-66 -25.5t-26 -65.5v-600z" glyph-name="L_A.liga" horiz-adv-x="673" unicode="LA"/><glyph d="M40 0v2000h117v-1883h486v-117h-603zM227 187v1621q0 89 59.5 148.5t148.5 59.5t148.5 -59.5t59.5 -148.5v-1621h-116v905h-184v-905h-116zM343 1208h184v600q0 40 -26 65.5t-66 25.5t-66 -25.5t-26 -65.5v-600z" glyph-name="L_A_one.liga" horiz-adv-x="673" unicode="LA1"/><glyph d="M40 0v2000h117v-1883h486v-117h-603zM227 187v1813h208q89 0 148.5 -59.5t59.5 -148.5v-492q0 -91 -61 -150q61 -59 61 -150v-605q0 -89 -59.5 -148.5t-148.5 -59.5h-208zM343 303h92q40 0 66 26t26 66v605q0 40 -26 66t-66 26h-92v-789zM343 1208h92q40 0 66 26t26 66 v492q0 40 -26 65.5t-66 25.5h-92v-675z" glyph-name="L_B.liga" horiz-adv-x="673" unicode="LB"/><glyph d="M40 0v2000h117v-1883h486v-117h-603zM227 389v1419q0 89 59.5 148.5t148.5 59.5t148.5 -59.5t59.5 -148.5v-417h-116v417q0 40 -26 65.5t-66 25.5t-66 -25.5t-26 -65.5v-1419q0 -40 26 -66t66 -26t66 26t26 66v450h116v-450q0 -89 -59.5 -148.5t-148.5 -59.5t-148.5 59.5 t-59.5 148.5z" glyph-name="L_C.liga" horiz-adv-x="663" unicode="LC"/><glyph d="M40 0v2000h117v-1883h278q119 0 198.5 84t79.5 211v227h117v-227q0 -176 -113.5 -294t-281.5 -118h-395zM227 389v1419q0 89 59.5 148.5t148.5 59.5t148.5 -59.5t59.5 -148.5v-417h-116v417q0 40 -26 65.5t-66 25.5t-66 -25.5t-26 -65.5v-1419q0 -40 26 -66t66 -26t66 26 t26 66v450h116v-450q0 -89 -59.5 -148.5t-148.5 -59.5t-148.5 59.5t-59.5 148.5z" glyph-name="L_C_one.liga" horiz-adv-x="840" unicode="LC1"/><glyph d="M40 0v2000h117v-1883h446v-117h-563zM227 187v1813h376v-117h-260v-675h220v-116h-220v-789h260v-116h-376z" glyph-name="L_E.liga" horiz-adv-x="623" unicode="LE"/><glyph d="M673 0v1883h-633v117h917v-117h-167v-1883h-117zM40 0v1813h117v-1696h446v-117h-563zM227 187v1626h376v-116h-260v-489h220v-116h-220v-789h260v-116h-376z" glyph-name="L_E_T.liga" horiz-adv-x="967" unicode="LET"/><glyph d="M40 0v2000h117v-1883h210v-117h-327zM227 187v1813h376v-117h-260v-675h220v-116h-220v-905h-116z" glyph-name="L_F.liga" horiz-adv-x="613" unicode="LF"/><glyph d="M40 0v2000h117v-1883h278q119 0 198.5 84t79.5 211v227h117v-227q0 -176 -113.5 -294t-281.5 -118h-395zM227 389v1419q0 89 59.5 148.5t148.5 59.5t148.5 -59.5t59.5 -148.5v-417h-116v417q0 40 -26 65.5t-66 25.5t-66 -25.5t-26 -65.5v-1419q0 -40 26 -66t66 -26t66 26 t26 66v333h-92v117h208v-450q0 -89 -59.5 -148.5t-148.5 -59.5t-148.5 59.5t-59.5 148.5z" glyph-name="L_G.liga" horiz-adv-x="850" unicode="LG"/><glyph d="M40 0v2000h117v-1883h486v-117h-603zM227 389v1419q0 89 59.5 148.5t148.5 59.5t148.5 -59.5t59.5 -148.5v-517h-116v517q0 40 -26 65.5t-66 25.5t-66 -25.5t-26 -65.5v-1419q0 -40 26 -66t66 -26t66 26t26 66v433h-92v117h208v-550q0 -89 -59.5 -148.5t-148.5 -59.5 t-148.5 59.5t-59.5 148.5z" glyph-name="L_G_one.liga" horiz-adv-x="663" unicode="LG1"/><glyph d="M527 0v1092h-184v-905h-116v1813h116v-792h184v792h116v-2000h-116zM40 0v2000h117v-1883h210v-117h-327z" glyph-name="L_H.liga" horiz-adv-x="683" unicode="LH"/><glyph d="M40 0v2000h117v-1883h486v-117h-603zM227 187v1813h116v-792h184v792h116v-1813h-116v905h-184v-905h-116z" glyph-name="L_H_one.liga" horiz-adv-x="683" unicode="LH1"/><glyph d="M40 0v2000h117v-1883h186v-117h-303zM227 187v1813h116v-1813h-116z" glyph-name="L_I.liga" horiz-adv-x="383" unicode="LI"/><glyph d="M40 0v2000h117v-1883h486v-117h-603zM227 389h116q0 -40 26 -66t66 -26t66 26t26 66v1611h116v-1611q0 -89 -59.5 -148.5t-148.5 -59.5t-148.5 59.5t-59.5 148.5z" glyph-name="L_J.liga" horiz-adv-x="673" unicode="LJ"/><glyph d="M487 -71v2071h116v-2071q0 -89 -59.5 -148.5t-148.5 -59.5t-148.5 59.5t-59.5 148.5h116q0 -40 26 -66t66 -26t66 26t26 66zM40 0v2000h117v-1883h260v-117h-377z" glyph-name="L_J_one.liga" horiz-adv-x="633" unicode="LJ1"/><glyph d="M40 0v2000h117v-1883h210v-117h-327zM227 187v1813h116v-792h92q40 0 66 26t26 66v700h116v-700q0 -91 -61 -150q61 -59 61 -150v-1000h-116v1000q0 40 -26 66t-66 26h-92v-905h-116z" glyph-name="L_K.liga" horiz-adv-x="683" unicode="LK"/><glyph d="M40 0v2000h117v-1883h486v-117h-603zM227 187v1813h116v-792h92q40 0 66 26t26 66v700h116v-700q0 -91 -61 -150q61 -59 61 -150v-813h-116v813q0 40 -26 66t-66 26h-92v-905h-116z" glyph-name="L_K_one.liga" horiz-adv-x="683" unicode="LK1"/><glyph d="M40 0v2000h117v-1883h446v-117h-563zM227 187v1813h116v-1697h260v-116h-376z" glyph-name="L_L.liga" horiz-adv-x="613" unicode="LL"/><glyph d="M40 0v2000h117v-1883h516v866q-67 18 -108.5 72.5t-41.5 127.5v817h117v-817q0 -40 26 -65.5t66 -25.5t65.5 25.5t25.5 65.5v817h117v-817q0 -73 -41.5 -127.5t-108.5 -72.5v-983h-750zM227 187v1813h116v-1697h260v-116h-376z" glyph-name="L_L_Y.liga" horiz-adv-x="950" unicode="LLY"/><glyph d="M527 900l-184 675v-1388h-116v1813h116l242 -887l242 887h116v-2000h-116v1575l-184 -675h-116zM40 0v2000h117v-1883h210v-117h-327z" glyph-name="L_M.liga" horiz-adv-x="983" unicode="LM"/><glyph d="M527 900l-184 675v-1388h-116v1813h116l242 -887l242 887h116v-1813h-116v1388l-184 -675h-116zM40 0v2000h117v-1883h786v-117h-903z" glyph-name="L_M_one.liga" horiz-adv-x="983" unicode="LM1"/><glyph d="M527 900l-184 675v-1388h-116v1813h116l242 -887l242 887h116v-2000h-116v1575l-184 -675h-116zM40 0v2000h117v-1883h220q65 0 107.5 42.5t42.5 107.5v330h116v-330q0 -114 -76.5 -190.5t-189.5 -76.5h-337z" glyph-name="L_M_two.liga" horiz-adv-x="983" unicode="LM2"/><glyph d="M527 0v1500l-184 307v-1620h-116v1813h116l184 -307v307h116v-2000h-116zM40 0v2000h117v-1883h210v-117h-327z" glyph-name="L_N.liga" horiz-adv-x="683" unicode="LN"/><glyph d="M40 0v2000h117v-1883h486v-117h-603zM227 187v1813h116l184 -307v307h116v-1813h-116v1313l-184 307v-1620h-116z" glyph-name="L_N_one.liga" horiz-adv-x="683" unicode="LN1"/><glyph d="M40 0v2000h117v-1883h486v-117h-603zM227 389v1422q0 87 59.5 146t148.5 59t148.5 -59t59.5 -146v-1422q0 -89 -59.5 -148.5t-148.5 -59.5t-148.5 59.5t-59.5 148.5zM343 389q0 -40 26 -66t66 -26t66 26t26 66v1422q0 38 -26 63t-66 25t-66 -25t-26 -63v-1422z" glyph-name="L_O.liga" horiz-adv-x="673" unicode="LO"/><glyph d="M40 0v2000h117v-1883h278q119 0 198.5 79.5t79.5 198.5v244h117v-244q0 -168 -113.5 -281.5t-281.5 -113.5h-395zM227 389v1419q0 89 59.5 148.5t148.5 59.5t148.5 -59.5t59.5 -148.5v-1419q0 -89 -59.5 -148.5t-148.5 -59.5t-148.5 59.5t-59.5 148.5zM343 389 q0 -40 26 -66t66 -26t66 26t26 66v1419q0 40 -26 65.5t-66 25.5t-66 -25.5t-26 -65.5v-1419z" glyph-name="L_O_one.liga" horiz-adv-x="840" unicode="LO1"/><glyph d="M40 0v2000h117v-1883h210v-117h-327zM227 187v1813h208q89 0 148.5 -59.5t59.5 -148.5v-509q0 -89 -59.5 -148.5t-148.5 -59.5h-92v-888h-116zM343 1192h92q40 0 66 25.5t26 65.5v509q0 40 -26 65.5t-66 25.5h-92v-691z" glyph-name="L_P.liga" horiz-adv-x="653" unicode="LP"/><glyph d="M40 0v2000h117v-1883h123q57 0 95 38t38 95v380h117v-380q0 -106 -72 -178t-178 -72h-240zM227 187v1813h208q89 0 148.5 -59.5t59.5 -148.5v-509q0 -89 -59.5 -148.5t-148.5 -59.5h-92v-888h-116zM343 1192h92q40 0 66 25.5t26 65.5v509q0 40 -26 65.5t-66 25.5h-92 v-691z" glyph-name="L_P_one.liga" horiz-adv-x="653" unicode="LP1"/><glyph d="M40 0v2000h117v-1883h220v71q-67 18 -108.5 72.5t-41.5 128.5v1419q0 89 59.5 148.5t148.5 59.5t148.5 -59.5t59.5 -148.5v-1419q0 -74 -41.5 -128.5t-108.5 -72.5v-71h150v-117h-603zM343 389q0 -40 26 -66t66 -26t66 26t26 66v1419q0 40 -26 65.5t-66 25.5t-66 -25.5 t-26 -65.5v-1419z" glyph-name="L_Q.liga" horiz-adv-x="673" unicode="LQ"/><glyph d="M40 0v2000h117v-1883h220v71q-67 18 -108.5 72.5t-41.5 128.5v1419q0 89 59.5 148.5t148.5 59.5t148.5 -59.5t59.5 -148.5v-1419q0 -74 -41.5 -128.5t-108.5 -72.5v-65q98 19 159 94t61 178v244h117v-244q0 -168 -113.5 -281.5t-281.5 -113.5h-395zM343 389q0 -40 26 -66 t66 -26t66 26t26 66v1419q0 40 -26 65.5t-66 25.5t-66 -25.5t-26 -65.5v-1419z" glyph-name="L_Q_one.liga" horiz-adv-x="860" unicode="LQ1"/><glyph d="M40 0v2000h117v-1883h210v-117h-327zM227 187v1813h208q89 0 148.5 -59.5t59.5 -148.5v-492q0 -91 -61 -150q61 -59 61 -150v-1000h-116v1000q0 40 -26 66t-66 26h-92v-905h-116zM343 1208h92q40 0 66 26t26 66v492q0 40 -26 65.5t-66 25.5h-92v-675z" glyph-name="L_R.liga" horiz-adv-x="673" unicode="LR"/><glyph d="M40 0v2000h117v-1883h486v-117h-603zM227 187v1813h208q89 0 148.5 -59.5t59.5 -148.5v-492q0 -91 -61 -150q61 -59 61 -150v-813h-116v813q0 40 -26 66t-66 26h-92v-905h-116zM343 1208h92q40 0 66 26t26 66v492q0 40 -26 65.5t-66 25.5h-92v-675z" glyph-name="L_R_one.liga" horiz-adv-x="673" unicode="LR1"/><glyph d="M40 0v2000h117v-1883h486v-117h-603zM227 389v440h116v-440q0 -40 26 -66t66 -26t66 26t26 66v581q0 40 -26 66t-66 26q-89 0 -148.5 59.5t-59.5 148.5v538q0 89 59.5 148.5t148.5 59.5t148.5 -59.5t59.5 -148.5v-397h-116v397q0 40 -26 65.5t-66 25.5t-66 -25.5 t-26 -65.5v-538q0 -40 26 -66t66 -26q89 0 148.5 -59.5t59.5 -148.5v-581q0 -89 -59.5 -148.5t-148.5 -59.5t-148.5 59.5t-59.5 148.5z" glyph-name="L_S.liga" horiz-adv-x="673" unicode="LS"/><glyph d="M40 0v2000h117v-1883h278q119 0 198.5 79.5t79.5 198.5v244h117v-244q0 -168 -113.5 -281.5t-281.5 -113.5h-395zM227 389v440h116v-440q0 -40 26 -66t66 -26t66 26t26 66v581q0 40 -26 66t-66 26q-89 0 -148.5 59.5t-59.5 148.5v538q0 89 59.5 148.5t148.5 59.5 t148.5 -59.5t59.5 -148.5v-397h-116v397q0 40 -26 65.5t-66 25.5t-66 -25.5t-26 -65.5v-538q0 -40 26 -66t66 -26q89 0 148.5 -59.5t59.5 -148.5v-581q0 -89 -59.5 -148.5t-148.5 -59.5t-148.5 59.5t-59.5 148.5z" glyph-name="L_S_one.liga" horiz-adv-x="840" unicode="LS1"/><glyph d="M227 187v1696h-187v117h443v-117h-140v-1696h-116zM40 0v1813h117v-1696h186v-117h-303z" glyph-name="L_T.liga" horiz-adv-x="493" unicode="LT"/><glyph d="M227 187v1696h-187v117h490v-117h-187v-1696h-116zM40 0v1813h117v-1696h123q57 0 95 38t38 95v380h117v-380q0 -106 -72 -178t-178 -72h-240z" glyph-name="L_T_one.liga" horiz-adv-x="550" unicode="LT1"/><glyph d="M40 0v2000h117v-1883h486v-117h-603zM227 389v1611h116v-1611q0 -40 26 -66t66 -26t66 26t26 66v1611h116v-1611q0 -89 -59.5 -148.5t-148.5 -59.5t-148.5 59.5t-59.5 148.5z" glyph-name="L_U.liga" horiz-adv-x="673" unicode="LU"/><glyph d="M40 0v2000h117v-1883h278q119 0 198.5 79.5t79.5 198.5v244h117v-244q0 -168 -113.5 -281.5t-281.5 -113.5h-395zM227 389v1611h116v-1611q0 -40 26 -66t66 -26t66 26t26 66v1611h116v-1611q0 -89 -59.5 -148.5t-148.5 -59.5t-148.5 59.5t-59.5 148.5z" glyph-name="L_U_one.liga" horiz-adv-x="840" unicode="LU1"/><glyph d="M337 187l-116 1813h116l92 -1426l92 1426h116l-116 -1813h-184zM40 0v2000h117v-1883h364v-117h-481z" glyph-name="L_V.liga" horiz-adv-x="647" unicode="LV"/><glyph d="M40 0v2000h117v-1883h786v-117h-903zM227 389v1611h116v-1611q0 -40 26 -66t66 -26t66 26t26 66v1611h116v-1611q0 -40 26 -66t66 -26t66 26t26 66v1611h116v-1611q0 -89 -59.5 -148.5t-148.5 -59.5q-91 0 -150 61q-59 -61 -150 -61q-89 0 -148.5 59.5t-59.5 148.5z" glyph-name="L_W.liga" horiz-adv-x="973" unicode="LW"/><glyph d="M40 0v2000h117v-1883h578q119 0 198.5 79.5t79.5 198.5v244h117v-244q0 -168 -113.5 -281.5t-281.5 -113.5h-695zM227 389v1611h116v-1611q0 -40 26 -66t66 -26t66 26t26 66v1611h116v-1611q0 -40 26 -66t66 -26t66 26t26 66v1611h116v-1611q0 -89 -59.5 -148.5 t-148.5 -59.5q-91 0 -150 61q-59 -61 -150 -61q-89 0 -148.5 59.5t-59.5 148.5z" glyph-name="L_W_one.liga" horiz-adv-x="1140" unicode="LW1"/><glyph d="M40 0v2000h117v-1883h210v-117h-327zM227 187v660q0 112 89 173q-89 61 -89 173v807h116v-807q0 -40 26 -65.5t66 -25.5t66 25.5t26 65.5v807h116v-807q0 -112 -89 -173q89 -61 89 -173v-847h-116v847q0 40 -26 65.5t-66 25.5t-66 -25.5t-26 -65.5v-660h-116z" glyph-name="L_X.liga" horiz-adv-x="673" unicode="LX"/><glyph d="M40 0v2000h117v-1883h486v-117h-603zM227 187v660q0 112 89 173q-89 61 -89 173v807h116v-807q0 -40 26 -65.5t66 -25.5t66 25.5t26 65.5v807h116v-807q0 -112 -89 -173q89 -61 89 -173v-660h-116v660q0 40 -26 65.5t-66 25.5t-66 -25.5t-26 -65.5v-660h-116z" glyph-name="L_X_one.liga" horiz-adv-x="673" unicode="LX1"/><glyph d="M40 0v2000h117v-1883h336v-117h-453zM227 1183v817h116v-817q0 -40 26 -65.5t66 -25.5t66 25.5t26 65.5v817h116v-817q0 -73 -41.5 -127.5t-108.5 -72.5v-796h-116v796q-67 18 -108.5 72.5t-41.5 127.5z" glyph-name="L_Y.liga" horiz-adv-x="653" unicode="LY"/><glyph d="M40 0v2000h117v-1883h53q72 0 119.5 42.5t47.5 107.5v716q-67 18 -108.5 72.5t-41.5 127.5v817h116v-817q0 -40 26 -65.5t66 -25.5t66 25.5t26 65.5v817h116v-817q0 -73 -41.5 -127.5t-108.5 -72.5v-716q0 -114 -81 -190.5t-202 -76.5h-170z" glyph-name="L_Y_one.liga" horiz-adv-x="653" unicode="LY1"/><glyph d="M227 187l281 1696h-281v117h416l-281 -1697h281v-116h-416zM40 0v2000h117v-1883h486v-117h-603z" glyph-name="L_Z.liga" horiz-adv-x="663" unicode="LZ"/><glyph d="M227 187l281 1696h-281v117h416l-281 -1697h281v-116h-416zM40 0v2000h117v-1883h486q55 0 92 36.5t37 91.5t-37 91.5t-92 36.5h-143v117h143q104 0 174.5 -70.5t70.5 -174.5t-70.5 -174.5t-174.5 -70.5h-603z" glyph-name="L_Z_one.liga" horiz-adv-x="898" unicode="LZ1"/><glyph d="M340 900l-183 671v-1571h-117v2000h117l242 -885l241 885h117v-1864q0 -15 10 -25t25 -10q14 0 24.5 10t10.5 25v1672q0 88 60 148t148 60t148 -60t60 -148v-1808h-116v1092h-184v-956q0 -64 -44 -108t-107 -44q-64 0 -108 44t-44 108v1435l-183 -671h-117zM943 1208h184 v600q0 38 -26.5 64.5t-65.5 26.5t-65.5 -26.5t-26.5 -64.5v-600z" glyph-name="M_A.liga" horiz-adv-x="1273" unicode="MA"/><glyph d="M340 900l-183 671v-1571h-117v2000h117l242 -885l241 885h117v-1621q0 -119 79.5 -198.5t198.5 -79.5t198.5 79.5t79.5 198.5v330h117v-330q0 -168 -113.5 -281.5t-281.5 -113.5t-281.5 113.5t-113.5 281.5v1192l-183 -671h-117zM827 386v1422q0 89 59.5 148.5 t148.5 59.5t148.5 -59.5t59.5 -148.5v-417h-116v417q0 40 -26 65.5t-66 25.5t-66 -25.5t-26 -65.5v-1422q0 -40 26 -66t66 -26t66 26t26 66v453h116v-453q0 -89 -59.5 -149t-148.5 -60t-148.5 60t-59.5 149z" glyph-name="M_C.liga" horiz-adv-x="1450" unicode="MC"/><glyph d="M340 900l-183 671v-1571h-117v2000h117l242 -885l241 885h117v-1792q0 -40 25.5 -65.5t65.5 -25.5h355v-117h-355q-88 0 -148 60t-60 148v1363l-183 -671h-117zM827 187v1813h376v-117h-260v-675h220v-116h-220v-789h260v-116h-376z" glyph-name="M_E.liga" horiz-adv-x="1223" unicode="ME"/><glyph d="M340 900l-183 671v-1571h-117v2000h117l242 -885l241 885h117v-1807q0 -32 22 -54t54 -22h4v1883h853v-117h-737v-675h220v-116h-220v-975h260v-117h-380q-82 0 -137.5 55.5t-55.5 137.5v1378l-183 -671h-117zM1273 0v1813h117l183 -305v305h117v-1813h-117v1313 l-183 305v-1618h-117z" glyph-name="M_E_N.liga" horiz-adv-x="1730" unicode="MEN"/><glyph d="M340 900l-183 671v-1571h-117v2000h117l242 -885l241 885h117v-1771q0 -55 36.5 -91.5t91.5 -36.5t91.5 36.5t36.5 91.5v480h117v-480q0 -103 -71 -174t-174 -71t-174 71t-71 174v1342l-183 -671h-117zM827 187v1813h376v-117h-260v-675h220v-116h-220v-905h-116z" glyph-name="M_F.liga" horiz-adv-x="1223" unicode="MF"/><glyph d="M340 900l-183 671v-1571h-117v2000h117l242 -885l241 885h117v-1621q0 -119 79.5 -198.5t198.5 -79.5t198.5 79.5t79.5 198.5v330h117v-330q0 -168 -113.5 -281.5t-281.5 -113.5t-281.5 113.5t-113.5 281.5v1192l-183 -671h-117zM827 386v1422q0 89 59.5 148.5 t148.5 59.5t148.5 -59.5t59.5 -148.5v-417h-116v417q0 40 -26 65.5t-66 25.5t-66 -25.5t-26 -65.5v-1422q0 -40 26 -66t66 -26t66 26t26 66v406h-92v117h208v-523q0 -89 -59.5 -149t-148.5 -60t-148.5 60t-59.5 149z" glyph-name="M_G.liga" horiz-adv-x="1440" unicode="MG"/><glyph d="M340 900l-183 671v-1571h-117v2000h117l242 -885l241 885h117v-1859q0 -17 11.5 -28.5t28.5 -11.5t28.5 11.5t11.5 28.5v1859h116v-792h184v792h116v-2000h-116v1092h-184v-951q0 -67 -45 -112t-111 -45q-67 0 -112 45t-45 112v1430l-183 -671h-117z" glyph-name="M_H.liga" horiz-adv-x="1293" unicode="MH"/><glyph d="M340 900l-183 671v-1571h-117v2000h117l242 -885l241 885h117v-1859q0 -17 11.5 -28.5t28.5 -11.5t28.5 11.5t11.5 28.5v1859h116v-1859q0 -67 -45 -112t-111 -45q-67 0 -112 45t-45 112v1430l-183 -671h-117z" glyph-name="M_I.liga" horiz-adv-x="993" unicode="MI"/><glyph d="M340 900l-183 671v-1571h-117v2000h117l242 -885l241 885h117v-2000h-117v1571l-183 -671h-117zM527 -71h116q0 -40 26 -66t66 -26t66 26t26 66v2071h116v-2071q0 -89 -59.5 -148.5t-148.5 -59.5t-148.5 59.5t-59.5 148.5z" glyph-name="M_J.liga" horiz-adv-x="983" unicode="MJ"/><glyph d="M340 900l-183 671v-1571h-117v2000h117l242 -885l241 885h117v-1792q0 -40 25.5 -65.5t65.5 -25.5h355v-117h-355q-88 0 -148 60t-60 148v1363l-183 -671h-117zM827 187v1813h116v-1697h260v-116h-376z" glyph-name="M_L.liga" horiz-adv-x="1213" unicode="ML"/><glyph d="M1127 900l-184 675v-1323h-116v1748h116l242 -887l242 887h116v-2000h-116v1575l-184 -675h-116zM40 0v2000h117l242 -885l241 885h117v-1748q0 -64 44.5 -107.5t110.5 -43.5q65 0 110 43.5t45 107.5v337h116v-337q0 -113 -78 -190.5t-193 -77.5t-193.5 77.5t-78.5 190.5 v1319l-183 -671h-117l-183 671v-1571h-117z" glyph-name="M_M.liga" horiz-adv-x="1583" unicode="MM"/><glyph d="M340 900l-183 671v-1571h-117v2000h117l242 -885l241 885h117v-1792q0 -40 25.5 -65.5t65.5 -25.5h129v-117h-129q-88 0 -148 60t-60 148v1363l-183 -671h-117zM827 187v1813h116l184 -307v307h116v-2000h-116v1500l-184 307v-1620h-116z" glyph-name="M_N.liga" horiz-adv-x="1283" unicode="MN"/><glyph d="M340 900l-183 671v-1571h-117v2000h117l242 -885l241 885h117v-1621q0 -119 79.5 -198.5t198.5 -79.5t198.5 79.5t79.5 198.5v330h117v-330q0 -168 -113.5 -281.5t-281.5 -113.5t-281.5 113.5t-113.5 281.5v1192l-183 -671h-117zM827 379v1432q0 87 59.5 146t148.5 59 t148.5 -59t59.5 -146v-1432q0 -89 -59.5 -148.5t-148.5 -59.5t-148.5 59.5t-59.5 148.5zM943 379q0 -40 26 -66t66 -26t66 26t26 66v1432q0 38 -26 63t-66 25t-66 -25t-26 -63v-1432z" glyph-name="M_O.liga" horiz-adv-x="1440" unicode="MO"/><glyph d="M340 900l-183 671v-1571h-117v2000h117l242 -885l241 885h117v-1859q0 -17 11.5 -28.5t28.5 -11.5t28.5 11.5t11.5 28.5v1859h208q89 0 148.5 -59.5t59.5 -148.5v-509q0 -89 -59.5 -148.5t-148.5 -59.5h-92v-934q0 -67 -45 -112t-111 -45q-67 0 -112 45t-45 112v1430 l-183 -671h-117zM953 1192h92q40 0 66 25.5t26 65.5v509q0 40 -26 65.5t-66 25.5h-92v-691z" glyph-name="M_P.liga" horiz-adv-x="1263" unicode="MP"/><glyph d="M340 900l-183 671v-1571h-117v2000h117l242 -885l241 885h117v-1621q0 -103 61 -178t159 -94v71q-67 18 -108.5 72.5t-41.5 128.5v1429q0 89 59.5 148.5t148.5 59.5t148.5 -59.5t59.5 -148.5v-1429q0 -74 -41.5 -128.5t-108.5 -72.5v-71q98 19 159 94t61 178v330h117 v-330q0 -168 -113.5 -281.5t-281.5 -113.5t-281.5 113.5t-113.5 281.5v1192l-183 -671h-117zM943 379q0 -40 26 -66t66 -26t66 26t26 66v1429q0 40 -26 65.5t-66 25.5t-66 -25.5t-26 -65.5v-1429z" glyph-name="M_Q.liga" horiz-adv-x="1440" unicode="MQ"/><glyph d="M340 900l-183 671v-1571h-117v2000h117l242 -885l241 885h117v-1859q0 -17 11.5 -28.5t28.5 -11.5t28.5 11.5t11.5 28.5v1859h208q89 0 148.5 -59.5t59.5 -148.5v-492q0 -91 -61 -150q61 -59 61 -150v-1000h-116v1000q0 40 -26 66t-66 26h-92v-951q0 -67 -45 -112 t-111 -45q-67 0 -112 45t-45 112v1430l-183 -671h-117zM953 1208h92q40 0 66 26t26 66v492q0 40 -26 65.5t-66 25.5h-92v-675z" glyph-name="M_R.liga" horiz-adv-x="1283" unicode="MR"/><glyph d="M340 900l-183 671v-1571h-117v2000h117l242 -885l241 885h117v-1621q0 -119 79.5 -198.5t198.5 -79.5t198.5 79.5t79.5 198.5v330h117v-330q0 -168 -113.5 -281.5t-281.5 -113.5t-281.5 113.5t-113.5 281.5v1192l-183 -671h-117zM827 379v440h116v-440q0 -40 26 -66 t66 -26t66 26t26 66v581q0 40 -26 66t-66 26q-89 0 -148.5 59.5t-59.5 148.5v548q0 89 59.5 148.5t148.5 59.5t148.5 -59.5t59.5 -148.5v-407h-116v407q0 40 -26 65.5t-66 25.5t-66 -25.5t-26 -65.5v-548q0 -40 26 -66t66 -26q89 0 148.5 -59.5t59.5 -148.5v-581 q0 -89 -59.5 -148.5t-148.5 -59.5t-148.5 59.5t-59.5 148.5z" glyph-name="M_S.liga" horiz-adv-x="1460" unicode="MS"/><glyph d="M340 900l-183 671v-1571h-117v2000h117l247 -905l236 718h117v-1813h-117v1457l-183 -557h-117zM300 1883v117h793v-117h-150v-1883h-116v1883h-527z" glyph-name="M_T.liga" horiz-adv-x="1103" unicode="MT"/><glyph d="M340 900l-183 671v-1571h-117v2000h117l242 -885l241 885h117v-1621q0 -119 79.5 -198.5t198.5 -79.5t198.5 79.5t79.5 198.5v330h117v-330q0 -168 -113.5 -281.5t-281.5 -113.5t-281.5 113.5t-113.5 281.5v1192l-183 -671h-117zM827 379v1621h116v-1621q0 -40 26 -66 t66 -26t66 26t26 66v1621h116v-1621q0 -89 -59.5 -148.5t-148.5 -59.5t-148.5 59.5t-59.5 148.5z" glyph-name="M_U.liga" horiz-adv-x="1440" unicode="MU"/><glyph d="M340 900l-183 671v-1571h-117v2000h117l242 -885l241 885h117v-1230h-117v801l-183 -671h-117zM640 192v508h117v-508q0 -40 25.5 -65.5t65.5 -25.5t66 25.5t26 65.5v1808h117v-1808q0 -40 25.5 -65.5t65.5 -25.5t66 25.5t26 65.5v1808h117v-1808q0 -89 -60 -148.5 t-149 -59.5t-150 61q-59 -61 -150 -61q-88 0 -148 60t-60 148z" glyph-name="M_W.liga" horiz-adv-x="1387" unicode="MW"/><glyph d="M340 900l-183 671v-1571h-117v2000h117l242 -885l241 885h117v-1864q0 -15 10 -25t25 -10t25 10t10 25v711q0 112 89 173q-89 61 -89 173v807h116v-807q0 -40 26 -65.5t66 -25.5t66 25.5t26 65.5v807h116v-807q0 -112 -89 -173q89 -61 89 -173v-847h-116v847 q0 40 -26 65.5t-66 25.5t-66 -25.5t-26 -65.5v-711q0 -64 -43.5 -108t-107.5 -44t-108 44t-44 108v1435l-183 -671h-117z" glyph-name="M_X.liga" horiz-adv-x="1273" unicode="MX"/><glyph d="M340 900l-183 671v-1571h-117v2000h117l242 -885l241 885h117v-1799q0 -43 28.5 -71.5t71.5 -28.5t71.5 28.5t28.5 71.5v782q-67 18 -108.5 72.5t-41.5 127.5v817h116v-817q0 -40 26 -65.5t66 -25.5t66 25.5t26 65.5v817h116v-817q0 -73 -41.5 -127.5t-108.5 -72.5v-782 q0 -92 -62 -154.5t-154 -62.5t-154.5 62.5t-62.5 154.5v1370l-183 -671h-117z" glyph-name="M_Y.liga" horiz-adv-x="1233" unicode="MY"/><glyph d="M817 187l281 1696h-281v117h416l-281 -1697h281v-116h-416zM40 0v2000h117l242 -885l241 885h117v-1792q0 -40 25.5 -65.5t65.5 -25.5h385v-117h-385q-88 0 -148 60t-60 148v1363l-183 -671h-117l-183 671v-1571h-117z" glyph-name="M_Z.liga" horiz-adv-x="1253" unicode="MZ"/><glyph d="M40 0v2000h117l183 -305v305h117v-1864q0 -15 10 -25t25 -10t25 10t10 25v1672q0 89 59.5 148.5t148.5 59.5t148.5 -59.5t59.5 -148.5v-1808h-116v1092h-184v-956q0 -64 -43.5 -108t-107.5 -44t-108 44t-44 108v1364l-183 305v-1805h-117zM643 1208h184v600 q0 40 -26 65.5t-66 25.5t-66 -25.5t-26 -65.5v-600z" glyph-name="N_A.liga" horiz-adv-x="973" unicode="NA"/><glyph d="M735 -16q-168 0 -281.5 113.5t-113.5 281.5v1121l-183 305v-1805h-117v2000h117l183 -305v305h117v-1621q0 -119 79.5 -198.5t198.5 -79.5t198.5 79.5t79.5 198.5v330h117v-330q0 -168 -113.5 -281.5t-281.5 -113.5zM527 379v1429q0 89 59.5 148.5t148.5 59.5 t148.5 -59.5t59.5 -148.5v-417h-116v417q0 40 -26 65.5t-66 25.5t-66 -25.5t-26 -65.5v-1429q0 -40 26 -66t66 -26t66 26t26 66v450h116v-450q0 -89 -59.5 -148.5t-148.5 -59.5t-148.5 59.5t-59.5 148.5z" glyph-name="N_C.liga" horiz-adv-x="1140" unicode="NC"/><glyph d="M735 -16q-167 0 -281 114t-114 281v1121l-183 305v-1805h-117v2000h117l183 -305v305h117v-1621q0 -118 80 -198t198 -80t198 80t80 198v1621h393v-117h-276v-675h236v-116h-236v-975h276v-117h-393v96q-114 -112 -278 -112zM527 379v1429q0 88 60 148t148 60t148 -60 t60 -148v-417h-116v417q0 38 -26.5 64.5t-65.5 26.5t-65.5 -26.5t-26.5 -64.5v-1429q0 -39 26.5 -65.5t65.5 -26.5t65.5 26.5t26.5 65.5v450h116v-450q0 -88 -60 -148t-148 -60t-148 60t-60 148z" glyph-name="N_C_E.liga" horiz-adv-x="1427" unicode="NCE"/><glyph d="M40 0v2000h117l183 -305v305h117v-1792q0 -40 25.5 -65.5t65.5 -25.5h355v-117h-355q-88 0 -148 60t-60 148v1292l-183 305v-1805h-117zM527 187v1813h376v-117h-260v-675h220v-116h-220v-789h260v-116h-376z" glyph-name="N_E.liga" horiz-adv-x="923" unicode="NE"/><glyph d="M40 0v2000h117l183 -305v305h117v-1792q0 -40 25.5 -65.5t65.5 -25.5v-17l95 17l2 -100l-97 -17q-88 0 -148 60t-60 148v1292l-183 305v-1805h-117zM527 187v1813h376v-117h-260v-675h220v-116h-220v-905h-116z" glyph-name="N_F.liga" horiz-adv-x="913" unicode="NF"/><glyph d="M735 -16q-168 0 -281.5 113.5t-113.5 281.5v1121l-183 305v-1805h-117v2000h117l183 -305v305h117v-1621q0 -119 79.5 -198.5t198.5 -79.5t198.5 79.5t79.5 198.5v330h117v-330q0 -168 -113.5 -281.5t-281.5 -113.5zM527 386v1422q0 89 59.5 148.5t148.5 59.5 t148.5 -59.5t59.5 -148.5v-417h-116v417q0 40 -26 65.5t-66 25.5t-66 -25.5t-26 -65.5v-1422q0 -40 26 -66t66 -26t66 26t26 66v336h-92v117h208v-453q0 -89 -59.5 -149t-148.5 -60t-148.5 60t-59.5 149z" glyph-name="N_G.liga" horiz-adv-x="1140" unicode="NG"/><glyph d="M837 0v1092h-184v-951q0 -67 -45 -112t-111 -45q-67 0 -112 45t-45 112v1359l-183 305v-1805h-117v2000h117l183 -305v305h117v-1859q0 -17 11.5 -28.5t28.5 -11.5t28.5 11.5t11.5 28.5v1859h116v-792h184v792h116v-2000h-116z" glyph-name="N_H.liga" horiz-adv-x="993" unicode="NH"/><glyph d="M40 0v2000h117l183 -305v305h117v-1859q0 -17 11.5 -28.5t28.5 -11.5t28.5 11.5t11.5 28.5v1859h116v-1859q0 -67 -45 -112t-111 -45q-67 0 -112 45t-45 112v1359l-183 305v-1805h-117z" glyph-name="N_I.liga" horiz-adv-x="693" unicode="NI"/><glyph d="M527 -70v2070h116v-2070q0 -89 -59.5 -148.5t-148.5 -59.5t-148.5 59.5t-59.5 148.5h116q0 -40 26 -66t66 -26t66 26t26 66zM40 0v2000h117l183 -305v305h117v-2000h-117v1500l-183 305v-1805h-117z" glyph-name="N_J.liga" horiz-adv-x="683" unicode="NJ"/><glyph d="M40 0v2000h117l183 -305v305h117v-1792q0 -40 25.5 -65.5t65.5 -25.5h355v-117h-355q-88 0 -148 60t-60 148v1292l-183 305v-1805h-117zM527 187v1813h116v-1697h260v-116h-376z" glyph-name="N_L.liga" horiz-adv-x="913" unicode="NL"/><glyph d="M827 900l-184 675v-1388h-116v1813h116l242 -887l242 887h116v-2000h-116v1575l-184 -675h-116zM40 0v2000h117l183 -305v305h117v-1714q0 -80 52.5 -132.5t132.5 -52.5t132.5 52.5t52.5 132.5v303h116v-303q0 -129 -86.5 -215.5t-214.5 -86.5q-129 0 -215.5 86.5 t-86.5 215.5v1214l-183 305v-1805h-117z" glyph-name="N_M.liga" horiz-adv-x="1283" unicode="NM"/><glyph d="M837 0v1500l-184 307v-1666q0 -67 -45 -112t-111 -45q-67 0 -112 45t-45 112v1359l-183 305v-1805h-117v2000h117l183 -305v305h117v-1859q0 -17 11.5 -28.5t28.5 -11.5t28.5 11.5t11.5 28.5v1859h116l184 -307v307h116v-2000h-116z" glyph-name="N_N.liga" horiz-adv-x="993" unicode="NN"/><glyph d="M735 -16q-168 0 -281.5 113.5t-113.5 281.5v1121l-183 305v-1805h-117v2000h117l183 -305v305h117v-1621q0 -119 79.5 -198.5t198.5 -79.5t198.5 79.5t79.5 198.5v330h117v-330q0 -168 -113.5 -281.5t-281.5 -113.5zM527 386v1422q0 89 59.5 148.5t148.5 59.5 t148.5 -59.5t59.5 -148.5v-1422q0 -89 -59.5 -149t-148.5 -60t-148.5 60t-59.5 149zM643 386q0 -40 26 -66t66 -26t66 26t26 66v1422q0 40 -26 65.5t-66 25.5t-66 -25.5t-26 -65.5v-1422z" glyph-name="N_O.liga" horiz-adv-x="1140" unicode="NO"/><glyph d="M1013 0v1883h-973v117h1240v-117h-150v-1883h-117zM40 0v1813h117l183 -311v311h117v-1813h-117v1303l-183 311v-1614h-117zM527 192v1419q0 89 59.5 148.5t148.5 59.5t148.5 -59.5t59.5 -148.5v-1419q0 -89 -59.5 -148.5t-148.5 -59.5t-148.5 59.5t-59.5 148.5zM643 192 q0 -40 26 -65.5t66 -25.5t66 25.5t26 65.5v1419q0 40 -26 66t-66 26t-66 -26t-26 -66v-1419z" glyph-name="N_O_T.liga" horiz-adv-x="1290" unicode="NOT"/><glyph d="M40 0v2000h117l183 -305v305h117v-1771q0 -55 36.5 -91.5t91.5 -36.5t91.5 36.5t36.5 91.5v480h117v-480q0 -103 -71 -174t-174 -71t-174 71t-71 174v1271l-183 305v-1805h-117zM527 187v1813h208q89 0 148.5 -59.5t59.5 -148.5v-509q0 -89 -59.5 -148.5t-148.5 -59.5 h-92v-888h-116zM643 1192h92q40 0 66 25.5t26 65.5v509q0 40 -26 65.5t-66 25.5h-92v-691z" glyph-name="N_P.liga" horiz-adv-x="953" unicode="NP"/><glyph d="M735 -16q-168 0 -281.5 113.5t-113.5 281.5v1121l-183 305v-1805h-117v2000h117l183 -305v305h117v-1621q0 -103 61 -178t159 -94v78q-67 18 -108.5 72.5t-41.5 128.5v1422q0 89 59.5 148.5t148.5 59.5t148.5 -59.5t59.5 -148.5v-1422q0 -74 -41.5 -128.5t-108.5 -72.5 v-78q98 19 159 94t61 178v330h117v-330q0 -168 -113.5 -281.5t-281.5 -113.5zM643 386q0 -40 26 -66t66 -26t66 26t26 66v1422q0 40 -26 65.5t-66 25.5t-66 -25.5t-26 -65.5v-1422z" glyph-name="N_Q.liga" horiz-adv-x="1140" unicode="NQ"/><glyph d="M40 0v2000h117l183 -305v305h117v-1792q0 -40 25.5 -65.5t65.5 -25.5v-17l95 17l2 -100l-97 -17q-88 0 -148 60t-60 148v1292l-183 305v-1805h-117zM527 187v1813h208q89 0 148.5 -59.5t59.5 -148.5v-492q0 -91 -61 -150q61 -59 61 -150v-1000h-116v1000q0 40 -26 66 t-66 26h-92v-905h-116zM643 1208h92q40 0 66 26t26 66v492q0 40 -26 65.5t-66 25.5h-92v-675z" glyph-name="N_R.liga" horiz-adv-x="973" unicode="NR"/><glyph d="M735 -16q-168 0 -281.5 113.5t-113.5 281.5v1121l-183 305v-1805h-117v2000h117l183 -305v305h117v-1621q0 -119 79.5 -198.5t198.5 -79.5t198.5 79.5t79.5 198.5v330h117v-330q0 -168 -113.5 -281.5t-281.5 -113.5zM527 386v443h116v-443q0 -40 26 -66t66 -26t66 26 t26 66v584q0 40 -26 66t-66 26q-89 0 -148.5 59.5t-59.5 148.5v538q0 89 59.5 148.5t148.5 59.5t148.5 -59.5t59.5 -148.5v-397h-116v397q0 40 -26 65.5t-66 25.5t-66 -25.5t-26 -65.5v-538q0 -40 26 -66t66 -26q89 0 148.5 -59.5t59.5 -148.5v-584q0 -89 -59.5 -149 t-148.5 -60t-148.5 60t-59.5 149z" glyph-name="N_S.liga" horiz-adv-x="1140" unicode="NS"/><glyph d="M40 0v2000h117l183 -305v305h117v-1799q0 -43 28.5 -71.5t71.5 -28.5t71.5 28.5t28.5 71.5v1682h-150v117h416v-117h-150v-1682q0 -92 -62 -154.5t-154 -62.5t-154.5 62.5t-62.5 154.5v1299l-183 305v-1805h-117z" glyph-name="N_T.liga" horiz-adv-x="933" unicode="NT"/><glyph d="M735 -16q-168 0 -281.5 113.5t-113.5 281.5v1121l-183 305v-1805h-117v2000h117l183 -305v305h117v-1621q0 -119 79.5 -198.5t198.5 -79.5t198.5 79.5t79.5 198.5v330h117v-330q0 -168 -113.5 -281.5t-281.5 -113.5zM527 386v1614h116v-1614q0 -40 26 -66t66 -26t66 26 t26 66v1614h116v-1614q0 -89 -59.5 -149t-148.5 -60t-148.5 60t-59.5 149z" glyph-name="N_U.liga" horiz-adv-x="1140" unicode="NU"/><glyph d="M40 0v2000h117l183 -305v305h117v-1792q0 -40 25.5 -65.5t65.5 -25.5h695v-117h-695q-88 0 -148 60t-60 148v1292l-183 305v-1805h-117zM527 389v1611h116v-1611q0 -40 26 -66t66 -26t66 26t26 66v1611h116v-1611q0 -40 26 -66t66 -26t66 26t26 66v1611h116v-1611 q0 -89 -59.5 -148.5t-148.5 -59.5q-91 0 -150 61q-59 -61 -150 -61q-89 0 -148.5 59.5t-59.5 148.5z" glyph-name="N_W.liga" horiz-adv-x="1273" unicode="NW"/><glyph d="M40 0v2000h117l183 -305v305h117v-1864q0 -15 10 -25t25 -10t25 10t10 25v711q0 112 89 173q-89 61 -89 173v807h116v-807q0 -40 26 -65.5t66 -25.5t66 25.5t26 65.5v807h116v-807q0 -112 -89 -173q89 -61 89 -173v-847h-116v847q0 40 -26 65.5t-66 25.5t-66 -25.5 t-26 -65.5v-711q0 -64 -43.5 -108t-107.5 -44t-108 44t-44 108v1364l-183 305v-1805h-117z" glyph-name="N_X.liga" horiz-adv-x="973" unicode="NX"/><glyph d="M40 0v2000h117l183 -305v305h117v-1799q0 -43 28.5 -71.5t71.5 -28.5t71.5 28.5t28.5 71.5v782q-67 18 -108.5 72.5t-41.5 127.5v817h116v-817q0 -40 26 -65.5t66 -25.5t66 25.5t26 65.5v817h116v-817q0 -73 -41.5 -127.5t-108.5 -72.5v-782q0 -92 -62 -154.5t-154 -62.5 t-154.5 62.5t-62.5 154.5v1299l-183 305v-1805h-117z" glyph-name="N_Y.liga" horiz-adv-x="933" unicode="NY"/><glyph d="M517 197l281 1686h-281v117h416l-281 -1687h281v-116h-416zM40 0v2000h117l183 -305v305h117v-1792q0 -40 25.5 -65.5t65.5 -25.5h385v-117h-385q-88 0 -148 60t-60 148v1292l-183 305v-1805h-117z" glyph-name="N_Z.liga" horiz-adv-x="953" unicode="NZ"/><glyph d="M330 0v442h-183v-442h-117v758q0 88 60 148t148 60q89 0 149 -59.5t60 -148.5v-758h-117zM30 1242v566q0 88 60 148t148 60q89 0 149 -59.5t60 -148.5v-566q0 -89 -60 -148.5t-149 -59.5q-88 0 -148 60t-60 148zM147 558h183v200q0 40 -26 65.5t-66 25.5t-65.5 -25.5 t-25.5 -65.5v-200zM147 1242q0 -40 25.5 -65.5t65.5 -25.5t66 25.5t26 65.5v566q0 40 -26 65.5t-66 25.5t-65.5 -25.5t-25.5 -65.5v-566z" glyph-name="O_A.liga" unicode="OA"/><glyph d="M30 1808q0 88 60 148t148 60q89 0 149 -59.5t60 -148.5v-566q0 -89 -60 -148.5t-149 -59.5q-88 0 -148 60t-60 148v566zM30 192v566q0 88 60 148t148 60q89 0 149 -59.5t60 -148.5v-167h-117v167q0 40 -26 65.5t-66 25.5t-65.5 -25.5t-25.5 -65.5v-566q0 -40 25.5 -65.5 t65.5 -25.5t66 25.5t26 65.5v167h117v-167q0 -89 -60 -148.5t-149 -59.5q-88 0 -148 60t-60 148zM147 1242q0 -40 25.5 -65.5t65.5 -25.5t66 25.5t26 65.5v566q0 40 -26 65.5t-66 25.5t-65.5 -25.5t-25.5 -65.5v-566z" glyph-name="O_C.liga" horiz-adv-x="467" unicode="OC"/><glyph d="M30 0v965h208q89 0 149 -59.5t60 -148.5v-549q0 -89 -60 -148.5t-149 -59.5h-208zM30 1242v566q0 88 60 148t148 60q89 0 149 -59.5t60 -148.5v-566q0 -89 -60 -148.5t-149 -59.5q-88 0 -148 60t-60 148zM147 117h91q40 0 66 25.5t26 65.5v549q0 40 -26 65.5t-66 25.5 h-91v-731zM147 1242q0 -40 25.5 -65.5t65.5 -25.5t66 25.5t26 65.5v566q0 40 -26 65.5t-66 25.5t-65.5 -25.5t-25.5 -65.5v-566z" glyph-name="O_D.liga" unicode="OD"/><glyph d="M30 1808q0 88 60 148t148 60q89 0 149 -59.5t60 -148.5v-566q0 -89 -60 -148.5t-149 -59.5q-88 0 -148 60t-60 148v566zM30 192v566q0 88 60 148t148 60q89 0 149 -59.5t60 -148.5v-167h-117v167q0 40 -26 65.5t-66 25.5t-65.5 -25.5t-25.5 -65.5v-566q0 -40 25.5 -65.5 t65.5 -25.5t66 25.5t26 65.5v150h-92v117h209v-267q0 -89 -60 -148.5t-149 -59.5q-88 0 -148 60t-60 148zM147 1242q0 -40 25.5 -65.5t65.5 -25.5t66 25.5t26 65.5v566q0 40 -26 65.5t-66 25.5t-65.5 -25.5t-25.5 -65.5v-566z" glyph-name="O_G.liga" horiz-adv-x="467" unicode="OG"/><glyph d="M517 192v1808h116v-1808q0 -89 -59.5 -148.5t-148.5 -59.5t-148.5 59.5t-59.5 148.5h116q0 -40 26 -65.5t66 -25.5t66 25.5t26 65.5zM30 466v1342q0 88 60 148t148 60q89 0 149 -59.5t60 -148.5v-1342q0 -89 -60 -149t-149 -60t-148.5 60t-59.5 149zM147 466 q0 -40 25.5 -66t65.5 -26t66 26t26 66v1342q0 40 -26 65.5t-66 25.5t-65.5 -25.5t-25.5 -65.5v-1342z" glyph-name="O_J.liga" horiz-adv-x="663" unicode="OJ"/><glyph d="M30 1808q0 88 60 148t148 60q89 0 149 -59.5t60 -148.5v-566q0 -89 -60 -148.5t-149 -59.5q-88 0 -148 60t-60 148v566zM30 192v566q0 88 60 148t148 60q89 0 149 -59.5t60 -148.5v-566q0 -89 -60 -148.5t-149 -59.5q-88 0 -148 60t-60 148zM147 192q0 -40 25.5 -65.5 t65.5 -25.5t66 25.5t26 65.5v566q0 40 -26 65.5t-66 25.5t-65.5 -25.5t-25.5 -65.5v-566zM147 1242q0 -40 25.5 -65.5t65.5 -25.5t66 25.5t26 65.5v566q0 40 -26 65.5t-66 25.5t-65.5 -25.5t-25.5 -65.5v-566z" glyph-name="O_O.liga" unicode="OO"/><glyph d="M30 1808q0 88 60 148t148 60q89 0 149 -59.5t60 -148.5v-566q0 -89 -60 -148.5t-149 -59.5q-88 0 -148 60t-60 148v566zM30 192v566q0 88 60 148t148 60q89 0 149 -59.5t60 -148.5v-566q0 -73 -41.5 -127.5t-108.5 -72.5v-192h-117v192q-67 18 -108.5 72.5t-41.5 127.5z M147 192q0 -40 25.5 -65.5t65.5 -25.5t66 25.5t26 65.5v566q0 38 -26 63t-66 25t-65.5 -25t-25.5 -63v-566zM147 1242q0 -40 25.5 -65.5t65.5 -25.5t66 25.5t26 65.5v566q0 38 -26 63t-66 25t-65.5 -25t-25.5 -63v-566z" glyph-name="O_Q.liga" unicode="OQ"/><glyph d="M517 0v1883h-487v117h753v-117h-150v-1883h-116zM30 192v1419q0 89 59.5 148.5t148.5 59.5t149 -59.5t60 -148.5v-1419q0 -89 -60 -148.5t-149 -59.5q-88 0 -148 60t-60 148zM147 192q0 -40 25.5 -65.5t65.5 -25.5t66 25.5t26 65.5v1419q0 40 -26 66t-66 26t-65.5 -26 t-25.5 -66v-1419z" glyph-name="O_T.liga" horiz-adv-x="793" unicode="OT"/><glyph d="M1003 0v1092h-183v-1092h-117v1803h117v-595h183v792h117v-2000h-117zM30 192v1419q0 89 59.5 148.5t148.5 59.5t149 -59.5t60 -148.5v-1419q0 -89 -60 -148.5t-149 -59.5q-88 0 -148 60t-60 148zM30 1883v117h790v-117h-187v-1883h-116v1883h-487zM147 192 q0 -40 25.5 -65.5t65.5 -25.5t66 25.5t26 65.5v1419q0 40 -26 66t-66 26t-65.5 -26t-25.5 -66v-1419z" glyph-name="O_T_H.liga" horiz-adv-x="1160" unicode="OTH"/><glyph d="M330 192v774h117v-774q0 -89 -60 -148.5t-149 -59.5q-88 0 -148 60t-60 148v774h117v-774q0 -40 25.5 -65.5t65.5 -25.5t66 25.5t26 65.5zM30 1242v566q0 88 60 148t148 60q89 0 149 -59.5t60 -148.5v-566q0 -89 -60 -148.5t-149 -59.5q-88 0 -148 60t-60 148zM147 1242 q0 -40 25.5 -65.5t65.5 -25.5t66 25.5t26 65.5v566q0 40 -26 65.5t-66 25.5t-65.5 -25.5t-25.5 -65.5v-566z" glyph-name="O_U.liga" unicode="OU"/><glyph d="M492 -16q-64 0 -108 44t-44 108v864q0 40 -26 66t-66 26h-91v-1092h-117v2000h208q89 0 149 -59.5t60 -148.5v-492q0 -106 -65 -150q65 -44 65 -150v-864q0 -15 10 -25t25 -10t25 10t10 25v1672q0 89 59.5 148.5t148.5 59.5t148.5 -59.5t59.5 -148.5v-1808h-116v1092 h-184v-956q0 -64 -43.5 -108t-107.5 -44zM157 1208h91q40 0 66 26t26 66v492q0 40 -26 65.5t-66 25.5h-91v-675zM643 1208h184v600q0 40 -26 65.5t-66 25.5t-66 -25.5t-26 -65.5v-600z" glyph-name="R_A.liga" horiz-adv-x="973" unicode="RA"/><glyph d="M530 0q-80 0 -135 55t-55 137v808q0 40 -26 66t-66 26h-91v-1092h-117v2000h208q89 0 149 -59.5t60 -148.5v-492q0 -91 -61 -150q61 -59 61 -150v-808q0 -32 21 -53.5t52 -21.5h1v1883h209q88 0 148 -60t60 -148v-492q0 -91 -61 -150q61 -59 61 -150v-775 q0 -97 -59.5 -161t-148.5 -64h-210zM157 1208h91q40 0 66 26t26 66v492q0 40 -26 65.5t-66 25.5h-91v-675zM648 117h92q40 0 65.5 30.5t25.5 77.5v775q0 40 -25.5 66t-65.5 26h-92v-975zM648 1208h92q40 0 65.5 26t25.5 66v492q0 40 -25.5 65.5t-65.5 25.5h-92v-675z" glyph-name="R_B.liga" horiz-adv-x="978" unicode="RB"/><glyph d="M735 -16q-168 0 -281.5 113.5t-113.5 281.5v621q0 40 -26 66t-66 26h-91v-1092h-117v2000h208q89 0 149 -59.5t60 -148.5v-492q0 -91 -61 -150q61 -59 61 -150v-621q0 -119 79.5 -198.5t198.5 -79.5t198.5 79.5t79.5 198.5v330h117v-330q0 -168 -113.5 -281.5 t-281.5 -113.5zM157 1208h91q40 0 66 26t26 66v492q0 40 -26 65.5t-66 25.5h-91v-675zM527 379v1429q0 89 59.5 148.5t148.5 59.5t148.5 -59.5t59.5 -148.5v-417h-116v417q0 40 -26 65.5t-66 25.5t-66 -25.5t-26 -65.5v-1429q0 -40 26 -66t66 -26t66 26t26 66v450h116v-450 q0 -89 -59.5 -148.5t-148.5 -59.5t-148.5 59.5t-59.5 148.5z" glyph-name="R_C.liga" horiz-adv-x="1150" unicode="RC"/><glyph d="M40 0v2000h208q89 0 149 -59.5t60 -148.5v-492q0 -91 -61 -150q61 -59 61 -150v-825q0 -24 17 -41t41 -17h15v1883h208q89 0 149 -59.5t60 -148.5v-1584q0 -89 -60 -148.5t-149 -59.5h-223q-73 0 -124 51t-51 124v825q0 40 -26 66t-66 26h-91v-1092h-117zM157 1208h91 q40 0 66 26t26 66v492q0 40 -26 65.5t-66 25.5h-91v-675zM647 117h91q40 0 66 25.5t26 65.5v1584q0 40 -26 65.5t-66 25.5h-91v-1766z" glyph-name="R_D.liga" horiz-adv-x="977" unicode="RD"/><glyph d="M40 0v2000h208q89 0 149 -59.5t60 -148.5v-492q0 -91 -61 -150q61 -59 61 -150v-792q0 -40 25.5 -65.5t65.5 -25.5h362v-117h-362q-88 0 -148 60t-60 148v792q0 40 -26 66t-66 26h-91v-1092h-117zM157 1208h91q40 0 66 26t26 66v492q0 40 -26 65.5t-66 25.5h-91v-675z M534 187v1813h376v-117h-260v-675h220v-116h-220v-789h260v-116h-376z" glyph-name="R_E.liga" horiz-adv-x="930" unicode="RE"/><glyph d="M40 0v2000h208q89 0 149 -59.5t60 -148.5v-492q0 -91 -61 -150q61 -59 61 -150v-771q0 -55 36.5 -91.5t91.5 -36.5t91.5 36.5t36.5 91.5v480h117v-480q0 -103 -71 -174t-174 -71t-174 71t-71 174v771q0 40 -26 66t-66 26h-91v-1092h-117zM157 1208h91q40 0 66 26t26 66 v492q0 40 -26 65.5t-66 25.5h-91v-675zM527 187v1813h376v-117h-260v-675h220v-116h-220v-905h-116z" glyph-name="R_F.liga" horiz-adv-x="913" unicode="RF"/><glyph d="M735 -16q-168 0 -281.5 113.5t-113.5 281.5v621q0 40 -26 66t-66 26h-91v-1092h-117v2000h208q89 0 149 -59.5t60 -148.5v-492q0 -91 -61 -150q61 -59 61 -150v-621q0 -119 79.5 -198.5t198.5 -79.5t198.5 79.5t79.5 198.5v330h117v-330q0 -168 -113.5 -281.5 t-281.5 -113.5zM157 1208h91q40 0 66 26t26 66v492q0 40 -26 65.5t-66 25.5h-91v-675zM527 379v1429q0 89 59.5 148.5t148.5 59.5t148.5 -59.5t59.5 -148.5v-417h-116v417q0 40 -26 65.5t-66 25.5t-66 -25.5t-26 -65.5v-1429q0 -40 26 -66t66 -26t66 26t26 66v333h-92v117 h208v-450q0 -89 -59.5 -148.5t-148.5 -59.5t-148.5 59.5t-59.5 148.5z" glyph-name="R_G.liga" horiz-adv-x="1140" unicode="RG"/><glyph d="M827 0v1092h-184v-956q0 -64 -43.5 -108t-107.5 -44t-108 44t-44 108v864q0 40 -26 66t-66 26h-91v-1092h-117v2000h208q89 0 149 -59.5t60 -148.5v-492q0 -91 -61 -150q61 -59 61 -150v-864q0 -15 10 -25t25 -10t25 10t10 25v1864h116v-792h184v792h116v-2000h-116z M157 1208h91q40 0 66 26t26 66v492q0 40 -26 65.5t-66 25.5h-91v-675z" glyph-name="R_H.liga" horiz-adv-x="983" unicode="RH"/><glyph d="M40 0v2000h208q89 0 149 -59.5t60 -148.5v-492q0 -91 -61 -150q61 -59 61 -150v-864q0 -15 10 -25t25 -10t25 10t10 25v1864h116v-1864q0 -64 -43.5 -108t-107.5 -44t-108 44t-44 108v864q0 40 -26 66t-66 26h-91v-1092h-117zM157 1208h91q40 0 66 26t26 66v492 q0 40 -26 65.5t-66 25.5h-91v-675z" glyph-name="R_I.liga" horiz-adv-x="683" unicode="RI"/><glyph d="M527 -70v2070h116v-2070q0 -89 -59.5 -148.5t-148.5 -59.5t-148.5 59.5t-59.5 148.5h116q0 -40 26 -66t66 -26t66 26t26 66zM40 0v2000h208q89 0 149 -59.5t60 -148.5v-492q0 -91 -61 -150q61 -59 61 -150v-1000h-117v1000q0 40 -26 66t-66 26h-91v-1092h-117zM157 1208 h91q40 0 66 26t26 66v492q0 40 -26 65.5t-66 25.5h-91v-675z" glyph-name="R_J.liga" horiz-adv-x="673" unicode="RJ"/><glyph d="M40 0v2000h208q89 0 149 -59.5t60 -148.5v-492q0 -91 -61 -150q61 -59 61 -150v-792q0 -40 25.5 -65.5t65.5 -25.5h355v-117h-355q-88 0 -148 60t-60 148v792q0 40 -26 66t-66 26h-91v-1092h-117zM157 1208h91q40 0 66 26t26 66v492q0 40 -26 65.5t-66 25.5h-91v-675z M527 187v1813h116v-1697h260v-116h-376z" glyph-name="R_L.liga" horiz-adv-x="913" unicode="RL"/><glyph d="M827 900l-184 675v-1388h-116v1813h116l242 -887l242 887h116v-2000h-116v1575l-184 -675h-116zM40 0v2000h208q89 0 149 -59.5t60 -148.5v-492q0 -91 -61 -150q61 -59 61 -150v-714q0 -80 52.5 -132.5t132.5 -52.5t132.5 52.5t52.5 132.5v303h116v-303 q0 -129 -86.5 -215.5t-214.5 -86.5q-129 0 -215.5 86.5t-86.5 215.5v714q0 40 -26 66t-66 26h-91v-1092h-117zM157 1208h91q40 0 66 26t26 66v492q0 40 -26 65.5t-66 25.5h-91v-675z" glyph-name="R_M.liga" horiz-adv-x="1283" unicode="RM"/><glyph d="M827 0v1500l-184 307v-1620h-116v1813h116l184 -307v307h116v-2000h-116zM40 0v2000h208q89 0 149 -59.5t60 -148.5v-492q0 -91 -61 -150q61 -59 61 -150v-792q0 -40 25.5 -65.5t65.5 -25.5h129v-117h-129q-88 0 -148 60t-60 148v792q0 40 -26 66t-66 26h-91v-1092h-117z M157 1208h91q40 0 66 26t26 66v492q0 40 -26 65.5t-66 25.5h-91v-675z" glyph-name="R_N.liga" horiz-adv-x="983" unicode="RN"/><glyph d="M735 -16q-168 0 -281.5 113.5t-113.5 281.5v621q0 40 -26 66t-66 26h-91v-1092h-117v2000h208q89 0 149 -59.5t60 -148.5v-492q0 -91 -61 -150q61 -59 61 -150v-621q0 -119 79.5 -198.5t198.5 -79.5t198.5 79.5t79.5 198.5v330h117v-330q0 -168 -113.5 -281.5 t-281.5 -113.5zM157 1208h91q40 0 66 26t26 66v492q0 40 -26 65.5t-66 25.5h-91v-675zM527 379v1429q0 89 59.5 148.5t148.5 59.5t148.5 -59.5t59.5 -148.5v-1429q0 -89 -59.5 -148.5t-148.5 -59.5t-148.5 59.5t-59.5 148.5zM643 379q0 -40 26 -66t66 -26t66 26t26 66v1429 q0 40 -26 65.5t-66 25.5t-66 -25.5t-26 -65.5v-1429z" glyph-name="R_O.liga" horiz-adv-x="1140" unicode="RO"/><glyph d="M735 -16q-168 0 -281.5 113.5t-113.5 281.5v621q0 40 -26 66t-66 26h-91v-1092h-117v2000h208q89 0 149 -59.5t60 -148.5v-492q0 -91 -61 -150q61 -59 61 -150v-621q0 -119 79.5 -198.5t198.5 -79.5t198.5 79.5t79.5 198.5v330h117v-330q0 -168 -113.5 -281.5 t-281.5 -113.5zM157 1208h91q40 0 66 26t26 66v492q0 40 -26 65.5t-66 25.5h-91v-675zM527 379v1429q0 89 59.5 148.5t148.5 59.5t148.5 -59.5t59.5 -148.5v-1429q0 -89 -59.5 -148.5t-148.5 -59.5t-148.5 59.5t-59.5 148.5zM643 379q0 -40 26 -66t66 -26t66 26t26 66v1429 q0 40 -26 65.5t-66 25.5t-66 -25.5t-26 -65.5v-1429zM1013 779v971h117v-971h-117zM1013 1850v150h117v-150h-117z" glyph-name="R_O_I.liga" horiz-adv-x="1170" unicode="ROI"/><glyph d="M40 0v2000h208q89 0 149 -59.5t60 -148.5v-492q0 -91 -61 -150q61 -59 61 -150v-771q0 -55 36.5 -91.5t91.5 -36.5t91.5 36.5t36.5 91.5v480h117v-480q0 -103 -71 -174t-174 -71t-174 71t-71 174v771q0 40 -26 66t-66 26h-91v-1092h-117zM157 1208h91q40 0 66 26t26 66 v492q0 40 -26 65.5t-66 25.5h-91v-675zM527 187v1813h208q89 0 148.5 -59.5t59.5 -148.5v-492q0 -89 -59.5 -148.5t-148.5 -59.5h-92v-905h-116zM643 1208h92q40 0 66 26t26 66v492q0 40 -26 65.5t-66 25.5h-92v-675z" glyph-name="R_P.liga" horiz-adv-x="953" unicode="RP"/><glyph d="M735 -16q-168 0 -281.5 113.5t-113.5 281.5v621q0 40 -26 66t-66 26h-91v-1092h-117v2000h208q89 0 149 -59.5t60 -148.5v-492q0 -91 -61 -150q61 -59 61 -150v-621q0 -103 61 -178t159 -94v71q-67 18 -108.5 72.5t-41.5 128.5v1429q0 89 59.5 148.5t148.5 59.5 t148.5 -59.5t59.5 -148.5v-1429q0 -74 -41.5 -128.5t-108.5 -72.5v-71q98 19 159 94t61 178v330h117v-330q0 -168 -113.5 -281.5t-281.5 -113.5zM157 1208h91q40 0 66 26t26 66v492q0 40 -26 65.5t-66 25.5h-91v-675zM643 379q0 -40 26 -66t66 -26t66 26t26 66v1429 q0 40 -26 65.5t-66 25.5t-66 -25.5t-26 -65.5v-1429z" glyph-name="R_Q.liga" horiz-adv-x="1140" unicode="RQ"/><glyph d="M40 0v2000h208q89 0 149 -59.5t60 -148.5v-492q0 -91 -61 -150q61 -59 61 -150v-792q0 -40 25.5 -65.5t65.5 -25.5h133v-117h-133q-88 0 -148 60t-60 148v792q0 40 -26 66t-66 26h-91v-1092h-117zM157 1208h91q40 0 66 26t26 66v492q0 40 -26 65.5t-66 25.5h-91v-675z M531 187v1813h208q89 0 148.5 -59.5t59.5 -148.5v-492q0 -91 -61 -150q61 -59 61 -150v-1000h-116v1000q0 40 -26 66t-66 26h-92v-905h-116zM647 1208h92q40 0 66 26t26 66v492q0 40 -26 65.5t-66 25.5h-92v-675z" glyph-name="R_R.liga" horiz-adv-x="977" unicode="RR"/><glyph d="M735 -16q-168 0 -281.5 113.5t-113.5 281.5v621q0 40 -26 66t-66 26h-91v-1092h-117v2000h208q89 0 149 -59.5t60 -148.5v-492q0 -91 -61 -150q61 -59 61 -150v-621q0 -119 79.5 -198.5t198.5 -79.5t198.5 79.5t79.5 198.5v330h117v-330q0 -168 -113.5 -281.5 t-281.5 -113.5zM157 1208h91q40 0 66 26t26 66v492q0 40 -26 65.5t-66 25.5h-91v-675zM527 379v440h116v-440q0 -40 26 -66t66 -26t66 26t26 66v581q0 40 -26 66t-66 26q-89 0 -148.5 59.5t-59.5 148.5v548q0 89 59.5 148.5t148.5 59.5t148.5 -59.5t59.5 -148.5v-407h-116 v407q0 40 -26 65.5t-66 25.5t-66 -25.5t-26 -65.5v-548q0 -40 26 -66t66 -26q89 0 148.5 -59.5t59.5 -148.5v-581q0 -89 -59.5 -148.5t-148.5 -59.5t-148.5 59.5t-59.5 148.5z" glyph-name="R_S.liga" horiz-adv-x="1140" unicode="RS"/><glyph d="M735 -16q-168 0 -281.5 113.5t-113.5 281.5v621q0 40 -26 66t-66 26h-91v-1092h-117v2000h208q89 0 149 -59.5t60 -148.5v-492q0 -91 -61 -150q61 -59 61 -150v-621q0 -119 79.5 -198.5t198.5 -79.5t198.5 79.5t79.5 198.5v1504h-486v117h753v-117h-150v-1504 q0 -168 -113.5 -281.5t-281.5 -113.5zM157 1208h91q40 0 66 26t26 66v492q0 40 -26 65.5t-66 25.5h-91v-675zM527 379v340h116v-340q0 -40 26 -66t66 -26t66 26t26 66v481q0 40 -26 66t-66 26q-89 0 -148.5 59.5t-59.5 148.5v451q0 89 59.5 148.5t148.5 59.5t148.5 -59.5 t59.5 -148.5v-310h-116v310q0 40 -26 66t-66 26t-66 -26t-26 -66v-451q0 -40 26 -66t66 -26q89 0 148.5 -59.5t59.5 -148.5v-481q0 -89 -59.5 -148.5t-148.5 -59.5t-148.5 59.5t-59.5 148.5z" glyph-name="R_S_T.liga" horiz-adv-x="1290" unicode="RST"/><glyph d="M735 -16q-168 0 -281.5 113.5t-113.5 281.5v621q0 40 -26 66t-66 26h-91v-1092h-117v2000h208q89 0 149 -59.5t60 -148.5v-492q0 -91 -61 -150q61 -59 61 -150v-621q0 -119 79.5 -198.5t198.5 -79.5t198.5 79.5t79.5 198.5v330h117v-330q0 -168 -113.5 -281.5 t-281.5 -113.5zM157 1208h91q40 0 66 26t26 66v492q0 40 -26 65.5t-66 25.5h-91v-675zM527 379v1621h116v-1621q0 -40 26 -66t66 -26t66 26t26 66v1621h116v-1621q0 -89 -59.5 -148.5t-148.5 -59.5t-148.5 59.5t-59.5 148.5z" glyph-name="R_U.liga" horiz-adv-x="1160" unicode="RU"/><glyph d="M40 0v2000h208q89 0 149 -59.5t60 -148.5v-492q0 -91 -61 -150q61 -59 61 -150v-792q0 -40 25.5 -65.5t65.5 -25.5h695v-117h-695q-88 0 -148 60t-60 148v792q0 40 -26 66t-66 26h-91v-1092h-117zM157 1208h91q40 0 66 26t26 66v492q0 40 -26 65.5t-66 25.5h-91v-675z M527 389v1611h116v-1611q0 -40 26 -66t66 -26t66 26t26 66v1611h116v-1611q0 -40 26 -66t66 -26t66 26t26 66v1611h116v-1611q0 -89 -59.5 -148.5t-148.5 -59.5q-91 0 -150 61q-59 -61 -150 -61q-89 0 -148.5 59.5t-59.5 148.5z" glyph-name="R_W.liga" horiz-adv-x="1273" unicode="RW"/><glyph d="M40 0v2000h208q89 0 149 -59.5t60 -148.5v-492q0 -91 -61 -150q61 -59 61 -150v-864q0 -15 10 -25t25 -10t25 10t10 25v711q0 112 89 173q-89 61 -89 173v807h116v-807q0 -40 26 -65.5t66 -25.5t66 25.5t26 65.5v807h116v-807q0 -112 -89 -173q89 -61 89 -173v-847h-116 v847q0 40 -26 65.5t-66 25.5t-66 -25.5t-26 -65.5v-711q0 -64 -43.5 -108t-107.5 -44t-108 44t-44 108v864q0 40 -26 66t-66 26h-91v-1092h-117zM157 1208h91q40 0 66 26t26 66v492q0 40 -26 65.5t-66 25.5h-91v-675z" glyph-name="R_X.liga" horiz-adv-x="973" unicode="RX"/><glyph d="M40 0v2000h208q89 0 149 -59.5t60 -148.5v-492q0 -91 -61 -150q61 -59 61 -150v-799q0 -43 28.5 -71.5t71.5 -28.5t71.5 28.5t28.5 71.5v782q-67 18 -108.5 72.5t-41.5 127.5v817h116v-817q0 -40 26 -65.5t66 -25.5t66 25.5t26 65.5v817h116v-817q0 -73 -41.5 -127.5 t-108.5 -72.5v-782q0 -92 -62 -154.5t-154 -62.5t-154.5 62.5t-62.5 154.5v799q0 40 -26 66t-66 26h-91v-1092h-117zM157 1208h91q40 0 66 26t26 66v492q0 40 -26 65.5t-66 25.5h-91v-675z" glyph-name="R_Y.liga" horiz-adv-x="933" unicode="RY"/><glyph d="M548 0q-88 0 -147.5 59t-60.5 148v793q0 40 -26 66t-66 26h-91v-1092h-117v2000h208q89 0 149 -59.5t60 -148.5v-492q0 -91 -61 -150q61 -59 61 -150v-792q0 -37 21.5 -61.5t56.5 -28.5l264 1765h-267v117h401l-282 -1883h282v-117h-385zM157 1208h91q40 0 66 26t26 66 v492q0 40 -26 65.5t-66 25.5h-91v-675z" glyph-name="R_Z.liga" horiz-adv-x="953" unicode="RZ"/><glyph d="M160 0v1883h-150v117h753v-117h-486v-1883h-117zM347 0v1611q0 89 59.5 148.5t148.5 59.5t148.5 -59.5t59.5 -148.5v-1611h-116v1092h-184v-1092h-116zM463 1208h184v403q0 40 -26 66t-66 26t-66 -26t-26 -66v-403z" glyph-name="T_A.liga" horiz-adv-x="793" unicode="TA"/><glyph d="M160 0v1883h-150v117h753v-117h-486v-1883h-117zM347 0v1813h208q89 0 148.5 -59.5t59.5 -148.5v-305q0 -91 -61 -150q61 -59 61 -150v-792q0 -89 -59.5 -148.5t-148.5 -59.5h-208zM463 117h92q40 0 66 25.5t26 65.5v792q0 40 -26 66t-66 26h-92v-975zM463 1208h92 q40 0 66 26t26 66v305q0 40 -26 66t-66 26h-92v-489z" glyph-name="T_B.liga" horiz-adv-x="793" unicode="TB"/><glyph d="M160 0v1883h-150v117h753v-117h-486v-1883h-117zM347 192v1419q0 89 59.5 148.5t148.5 59.5t148.5 -59.5t59.5 -148.5v-550h-116v550q0 40 -26 66t-66 26t-66 -26t-26 -66v-1419q0 -40 26 -65.5t66 -25.5t66 25.5t26 65.5v517h116v-517q0 -89 -59.5 -148.5t-148.5 -59.5 t-148.5 59.5t-59.5 148.5z" glyph-name="T_C.liga" horiz-adv-x="783" unicode="TC"/><glyph d="M160 0v1883h-150v117h753v-117h-486v-1883h-117zM347 0v1813h208q89 0 148.5 -59.5t59.5 -148.5v-1397q0 -89 -59.5 -148.5t-148.5 -59.5h-208zM463 117h92q40 0 66 25.5t26 65.5v1397q0 40 -26 66t-66 26h-92v-1580z" glyph-name="T_D.liga" horiz-adv-x="793" unicode="TD"/><glyph d="M160 0v1883h-150v117h713v-117h-446v-1883h-117zM347 0v1813h376v-116h-260v-489h220v-116h-220v-975h260v-117h-376z" glyph-name="T_E.liga" horiz-adv-x="743" unicode="TE"/><glyph d="M160 0v1883h-150v117h713v-117h-446v-1883h-117zM347 0v1813h376v-116h-260v-489h220v-116h-220v-1092h-116z" glyph-name="T_F.liga" horiz-adv-x="733" unicode="TF"/><glyph d="M160 0v1883h-150v117h753v-117h-486v-1883h-117zM347 192v1419q0 89 59.5 148.5t148.5 59.5t148.5 -59.5t59.5 -148.5v-550h-116v550q0 40 -26 66t-66 26t-66 -26t-26 -66v-1419q0 -40 26 -65.5t66 -25.5t66 25.5t26 65.5v400h-92v117h208v-517q0 -89 -59.5 -148.5 t-148.5 -59.5t-148.5 59.5t-59.5 148.5z" glyph-name="T_G.liga" horiz-adv-x="783" unicode="TG"/><glyph d="M647 0v1092h-184v-1092h-116v1813h116v-605h184v792h116v-2000h-116zM10 1883v117h453v-117h-186v-1883h-117v1883h-150z" glyph-name="T_H.liga" horiz-adv-x="803" unicode="TH"/><glyph d="M160 0v1883h-150v117h453v-117h-186v-1883h-117zM347 0v1813h116v-605h184v792h116v-1792q0 -40 26 -65.5t66 -25.5h355v-117h-355q-89 0 -148.5 59.5t-59.5 148.5v884h-184v-1092h-116zM833 187v1813h377v-117h-260v-675h220v-116h-220v-789h260v-116h-377z" glyph-name="T_H_E.liga" horiz-adv-x="1230" unicode="THE"/><glyph d="M160 0v1883h-150v117h453v-117h-186v-1883h-117zM347 0v1780h116v-1780h-116z" glyph-name="T_I.liga" horiz-adv-x="503" unicode="TI"/><glyph d="M170 0v1883h-150v117h453v-117h-186v-1883h-117zM57 -70h116q0 -40 26 -66t66 -26t66 26t26 66v1883h116v-1883q0 -89 -59.5 -148.5t-148.5 -59.5t-148.5 59.5t-59.5 148.5z" glyph-name="T_J.liga" horiz-adv-x="503" unicode="TJ"/><glyph d="M160 0v1883h-150v117h453v-117h-186v-1883h-117zM347 0v1813h116v-605h92q40 0 66 26t26 66v700h116v-700q0 -91 -61 -150q61 -59 61 -150v-1000h-116v1000q0 40 -26 66t-66 26h-92v-1092h-116z" glyph-name="T_K.liga" horiz-adv-x="803" unicode="TK"/><glyph d="M160 0v1883h-150v117h453v-117h-186v-1883h-117zM347 0v1813h116v-1696h260v-117h-376z" glyph-name="T_L.liga" horiz-adv-x="733" unicode="TL"/><glyph d="M647 900l-184 560v-1460h-116v1813h116l237 -720l247 907h116v-2000h-116v1575l-184 -675h-116zM10 1883v117h804v-117h-537v-1883h-117v1883h-150z" glyph-name="T_M.liga" horiz-adv-x="1103" unicode="TM"/><glyph d="M160 0v1883h-150v117h753v-117h-486v-1883h-117zM347 0v1813h116l184 -307v307h116v-1813h-116v1313l-184 307v-1620h-116z" glyph-name="T_N.liga" horiz-adv-x="803" unicode="TN"/><glyph d="M160 0v1883h-150v117h753v-117h-486v-1883h-117zM347 192v1419q0 89 59.5 148.5t148.5 59.5t148.5 -59.5t59.5 -148.5v-1419q0 -89 -59.5 -148.5t-148.5 -59.5t-148.5 59.5t-59.5 148.5zM463 192q0 -40 26 -65.5t66 -25.5t66 25.5t26 65.5v1419q0 40 -26 66t-66 26 t-66 -26t-26 -66v-1419z" glyph-name="T_O.liga" horiz-adv-x="793" unicode="TO"/><glyph d="M160 0v1883h-150v117h753v-117h-486v-1883h-117zM347 0v1813h208q89 0 148.5 -59.5t59.5 -148.5v-508q0 -89 -59.5 -149t-148.5 -60h-92v-888h-116zM463 1005h92q40 0 66 26t26 66v508q0 40 -26 66t-66 26h-92v-692z" glyph-name="T_P.liga" horiz-adv-x="773" unicode="TP"/><glyph d="M160 0v1883h-150v117h753v-117h-486v-1883h-117zM347 192v1419q0 89 59.5 148.5t148.5 59.5t148.5 -59.5t59.5 -148.5v-1419q0 -73 -41.5 -127.5t-108.5 -72.5v-192h-116v192q-67 18 -108.5 72.5t-41.5 127.5zM463 192q0 -40 26 -65.5t66 -25.5t66 25.5t26 65.5v1419 q0 40 -26 66t-66 26t-66 -26t-26 -66v-1419z" glyph-name="T_Q.liga" horiz-adv-x="793" unicode="TQ"/><glyph d="M160 0v1883h-150v117h753v-117h-486v-1883h-117zM347 0v1813h208q89 0 148.5 -59.5t59.5 -148.5v-305q0 -91 -61 -150q61 -59 61 -150v-1000h-116v1000q0 40 -26 66t-66 26h-92v-1092h-116zM463 1208h92q40 0 66 26t26 66v305q0 40 -26 66t-66 26h-92v-489z" glyph-name="T_R.liga" horiz-adv-x="793" unicode="TR"/><glyph d="M160 0v1883h-150v117h753v-117h-486v-1883h-117zM347 192v417h116v-417q0 -40 26 -65.5t66 -25.5t66 25.5t26 65.5v548q0 40 -26 66t-66 26q-89 0 -148.5 59.5t-59.5 148.5v571q0 89 59.5 148.5t148.5 59.5t148.5 -59.5t59.5 -148.5v-450h-116v450q0 40 -26 66t-66 26 t-66 -26t-26 -66v-571q0 -40 26 -66t66 -26q89 0 148.5 -59.5t59.5 -148.5v-548q0 -89 -59.5 -148.5t-148.5 -59.5t-148.5 59.5t-59.5 148.5z" glyph-name="T_S.liga" horiz-adv-x="793" unicode="TS"/><glyph d="M160 0v1883h-150v117h753v-117h-486v-1883h-117zM347 1697v116h416v-116h-150v-1697h-116v1697h-150z" glyph-name="T_T.liga" horiz-adv-x="773" unicode="TT"/><glyph d="M160 0v1883h-150v117h453v-117h-186v-1883h-117zM347 192v1621h116v-1621q0 -40 26 -65.5t66 -25.5t66 25.5t26 65.5v1808h116v-1808q0 -89 -59.5 -148.5t-148.5 -59.5t-148.5 59.5t-59.5 148.5z" glyph-name="T_U.liga" horiz-adv-x="793" unicode="TU"/><glyph d="M453 0l-116 1813h116l91 -1407l93 1594h116l-116 -2000h-184zM10 1883v117h443v-117h-176v-1883h-117v1883h-150z" glyph-name="T_V.liga" horiz-adv-x="763" unicode="TV"/><glyph d="M160 0v1883h-150v117h453v-117h-186v-1883h-117zM347 192v1621h116v-1621q0 -40 26 -65.5t66 -25.5t66 25.5t26 65.5v1808h116v-1808q0 -40 26 -65.5t66 -25.5t66 25.5t26 65.5v1808h116v-1808q0 -89 -59.5 -148.5t-148.5 -59.5q-91 0 -150 61q-59 -61 -150 -61 q-89 0 -148.5 59.5t-59.5 148.5z" glyph-name="T_W.liga" horiz-adv-x="1093" unicode="TW"/><glyph d="M160 0v1883h-150v117h453v-117h-186v-1883h-117zM347 0v847q0 112 89 173q-89 61 -89 173v620h116v-620q0 -40 26 -65.5t66 -25.5t66 25.5t26 65.5v807h116v-807q0 -112 -89 -173q89 -61 89 -173v-847h-116v847q0 40 -26 65.5t-66 25.5t-66 -25.5t-26 -65.5v-847h-116z " glyph-name="T_X.liga" horiz-adv-x="793" unicode="TX"/><glyph d="M160 0v1883h-150v117h453v-117h-186v-1883h-117zM347 1183v630h116v-630q0 -40 26 -65.5t66 -25.5t66 25.5t26 65.5v817h116v-817q0 -73 -41.5 -127.5t-108.5 -72.5v-983h-116v983q-67 18 -108.5 72.5t-41.5 127.5z" glyph-name="T_Y.liga" horiz-adv-x="773" unicode="TY"/><glyph d="M347 0l281 1697h-281v116h416l-281 -1696h281v-117h-416zM10 1883v117h753v-117h-486v-1883h-117v1883h-150z" glyph-name="T_Z.liga" horiz-adv-x="783" unicode="TZ"/><glyph d="M817 208v1600q0 89 59.5 148.5t148.5 59.5t148.5 -59.5t59.5 -148.5v-1029h-116v313h-184v-884q0 -89 -59.5 -148.5t-148.5 -59.5h-695v117h695q40 0 66 25.5t26 65.5zM30 389v1611h117v-1611q0 -40 25.5 -66t65.5 -26t66 26t26 66v1611h117v-1611q0 -40 25.5 -66 t65.5 -26t66 26t26 66v1611h117v-1611q0 -89 -60 -148.5t-149 -59.5t-150 61q-59 -61 -150 -61q-89 0 -148.5 59.5t-59.5 148.5zM933 1208h184v600q0 40 -26 65.5t-66 25.5t-66 -25.5t-26 -65.5v-600zM1117 281v428h116v-428q0 -77 51.5 -128.5t128.5 -51.5t128.5 51.5 t51.5 128.5v569q0 40 -25.5 66t-65.5 26q-89 0 -149 59.5t-60 148.5v658q0 89 60 148.5t149 59.5q88 0 148 -60t60 -148v-517h-117v517q0 40 -25.5 65.5t-65.5 25.5t-66 -25.5t-26 -65.5v-658q0 -40 26 -66t66 -26q89 0 148.5 -59.5t59.5 -148.5v-569q0 -127 -85 -212 t-212 -85q-126 0 -211 85t-85 212z" glyph-name="W_A_S.liga" horiz-adv-x="1740" unicode="WAS"/><glyph d="M30 0v1808q0 88 60 148t148 60q89 0 149 -59.5t60 -148.5v-1522q0 -86 60 -138v1660q0 89 59.5 148.5t148.5 59.5t148.5 -59.5t59.5 -148.5v-517h-116v517q0 40 -26 65.5t-66 25.5t-66 -25.5t-26 -65.5v-1704h4q77 0 128.5 51.5t51.5 130.5v423h116v-423 q0 -129 -85 -215.5t-211 -86.5q-127 0 -212 86.5t-85 215.5v1206h-183v-1492h-117zM147 1608h183v200q0 40 -26 65.5t-66 25.5t-65.5 -25.5t-25.5 -65.5v-200z" glyph-name="a_C.liga" horiz-adv-x="943" unicode="aC"/><glyph d="M30 0v1808q0 88 60 148t148 60q89 0 149 -59.5t60 -148.5v-1600q0 -40 25.5 -65.5t65.5 -25.5h187q40 0 66 25.5t26 65.5v1584q0 40 -26 65.5t-66 25.5h-92v-1691h-116v1808h208q89 0 148.5 -59.5t59.5 -148.5v-1584q0 -89 -59.5 -148.5t-148.5 -59.5h-187q-88 0 -148 60 t-60 148v1284h-183v-1492h-117zM147 1608h183v200q0 40 -26 65.5t-66 25.5t-65.5 -25.5t-25.5 -65.5v-200z" glyph-name="a_D.liga" horiz-adv-x="963" unicode="aD"/><glyph d="M517 136v1864h116v-1864q0 -64 -43.5 -108t-107.5 -44t-108 44t-44 108v1356h-183v-1492h-117v1808q0 88 60 148t148 60q89 0 149 -59.5t60 -148.5v-1672q0 -16 9.5 -25.5t25.5 -9.5q15 0 25 9.5t10 25.5zM147 1608h183v200q0 40 -26 65.5t-66 25.5t-65.5 -25.5 t-25.5 -65.5v-200z" glyph-name="a_I.liga" horiz-adv-x="673" unicode="aI"/><glyph d="M630 192v1808h117v-1808q0 -89 -60 -148.5t-149 -59.5q-88 0 -148 60t-60 148h117q0 -40 25.5 -65.5t65.5 -25.5t66 25.5t26 65.5zM30 0v1808q0 88 60 148t148 60q89 0 149 -59.5t60 -148.5v-1546h-117v1230h-183v-1492h-117zM147 1608h183v200q0 40 -26 65.5t-66 25.5 t-65.5 -25.5t-25.5 -65.5v-200z" glyph-name="a_J.liga" horiz-adv-x="777" unicode="aJ"/><glyph d="M517 0q-80 2 -133.5 56.5t-53.5 133.5v1302h-183v-1492h-117v1808q0 88 60 148t148 60q89 0 149 -59.5t60 -148.5v-1618q0 -31 20 -51.5t50 -21.5v1883h116v-1883h260v-117h-373h-3zM147 1608h183v200q0 40 -26 65.5t-66 25.5t-65.5 -25.5t-25.5 -65.5v-200z" glyph-name="a_L.liga" horiz-adv-x="903" unicode="aL"/><glyph d="M817 900l-184 675v-1383h-116v1808h116l242 -887l242 887h116v-2000h-116v1575l-184 -675h-116zM30 0v1808q0 88 60 148t148 60q89 0 149 -59.5t60 -148.5v-1600q0 -40 25.5 -65.5t65.5 -25.5h475v-117h-475q-88 0 -148 60t-60 148v1284h-183v-1492h-117zM147 1608h183 v200q0 40 -26 65.5t-66 25.5t-65.5 -25.5t-25.5 -65.5v-200z" glyph-name="a_M.liga" horiz-adv-x="1273" unicode="aM"/><glyph d="M817 0v1500l-184 307v-1615h-116v1808h116l184 -307v307h116v-2000h-116zM30 0v1808q0 88 60 148t148 60q89 0 149 -59.5t60 -148.5v-1600q0 -40 25.5 -65.5t65.5 -25.5h176v-117h-176q-88 0 -148 60t-60 148v1284h-183v-1492h-117zM147 1608h183v200q0 40 -26 65.5 t-66 25.5t-65.5 -25.5t-25.5 -65.5v-200z" glyph-name="a_N.liga" horiz-adv-x="973" unicode="aN"/><glyph d="M30 0v1808q0 88 60 148t148 60q89 0 149 -59.5t60 -148.5v-1527q0 -83 60 -137v1664q0 89 59.5 148.5t148.5 59.5t148.5 -59.5t59.5 -148.5v-1527q0 -127 -85 -212t-211 -85q-127 0 -212 85t-85 212v1211h-183v-1492h-117zM147 1608h183v200q0 40 -26 65.5t-66 25.5 t-65.5 -25.5t-25.5 -65.5v-200zM623 101h4q77 0 128.5 51.5t51.5 128.5v1527q0 40 -26 65.5t-66 25.5t-66 -25.5t-26 -65.5v-1707z" glyph-name="a_O.liga" horiz-adv-x="953" unicode="aO"/><glyph d="M30 0v1808q0 88 60 148t148 60q89 0 149 -59.5t60 -148.5v-1527q0 -83 60 -137v1664q0 89 59.5 148.5t148.5 59.5t148.5 -59.5t59.5 -148.5v-1527q0 -85 -40.5 -154t-109.5 -107v-220h-116v185q-10 -1 -30 -1q-127 0 -212 85t-85 212v1211h-183v-1492h-117zM147 1608h183 v200q0 40 -26 65.5t-66 25.5t-65.5 -25.5t-25.5 -65.5v-200zM623 101h4q77 0 128.5 51.5t51.5 128.5v1527q0 40 -26 65.5t-66 25.5t-66 -25.5t-26 -65.5v-1707z" glyph-name="a_Q.liga" horiz-adv-x="953" unicode="aQ"/><glyph d="M30 0v1808q0 88 60 148t148 60q89 0 149 -59.5t60 -148.5v-1029h-117v713h-183v-1492h-117zM147 1608h183v200q0 40 -26 65.5t-66 25.5t-65.5 -25.5t-25.5 -65.5v-200zM330 281v428h117v-428q0 -77 51.5 -128.5t128.5 -51.5t128.5 51.5t51.5 128.5v569q0 40 -26 66 t-66 26q-89 0 -148.5 59.5t-59.5 148.5v658q0 89 59.5 148.5t148.5 59.5t148.5 -59.5t59.5 -148.5v-517h-116v517q0 40 -26 65.5t-66 25.5t-66 -25.5t-26 -65.5v-658q0 -40 26 -66t66 -26q89 0 148.5 -59.5t59.5 -148.5v-569q0 -127 -85 -212t-211 -85q-127 0 -212 85 t-85 212z" glyph-name="a_S.liga" horiz-adv-x="953" unicode="aS"/><glyph d="M30 0v1808q0 88 60 148t148 60q89 0 149 -59.5t60 -148.5v-1612q0 -40 27.5 -67.5t67.5 -27.5t67.5 27.5t27.5 67.5v1687h-150v117h416v-117h-150v-1687q0 -90 -61 -151t-150 -61q-90 0 -151 61t-61 151v1296h-183v-1492h-117zM147 1608h183v200q0 40 -26 65.5t-66 25.5 t-65.5 -25.5t-25.5 -65.5v-200z" glyph-name="a_T.liga" horiz-adv-x="913" unicode="aT"/><glyph d="M30 0v1808q0 88 60 148t148 60q89 0 149 -59.5t60 -148.5v-1600q0 -40 25.5 -65.5t65.5 -25.5h395v-117h-395q-88 0 -148 60t-60 148v1284h-183v-1492h-117zM147 1608h183v200q0 40 -26 65.5t-66 25.5t-65.5 -25.5t-25.5 -65.5v-200zM517 389v1611h116v-1611 q0 -40 26 -66t66 -26t66 26t26 66v1611h116v-1611q0 -89 -59.5 -148.5t-148.5 -59.5t-148.5 59.5t-59.5 148.5z" glyph-name="a_U.liga" horiz-adv-x="963" unicode="aU"/><glyph d="M603 192l-116 1808h116l92 -1422l92 1422h116l-116 -1808h-184zM30 1808q0 88 60 148t148 60q89 0 149 -59.5t60 -148.5v-1600q0 -40 25.5 -65.5t65.5 -25.5h349v-117h-349q-88 0 -148 60t-60 148v1284h-183v-1492h-117v1808zM147 1608h183v200q0 40 -26 65.5t-66 25.5 t-65.5 -25.5t-25.5 -65.5v-200z" glyph-name="a_V.liga" horiz-adv-x="913" unicode="aV"/><glyph d="M930 192v1808h117v-1808q0 -89 -60 -148.5t-149 -59.5t-150 61q-59 -61 -150 -61q-88 0 -148 60t-60 148v508h117v-508q0 -40 25.5 -65.5t65.5 -25.5t66 25.5t26 65.5v1808h117v-1808q0 -40 25.5 -65.5t65.5 -25.5t66 25.5t26 65.5zM30 0v1808q0 88 60 148t148 60 q89 0 149 -59.5t60 -148.5v-1008h-117v692h-183v-1492h-117zM147 1608h183v200q0 40 -26 65.5t-66 25.5t-65.5 -25.5t-25.5 -65.5v-200z" glyph-name="a_W.liga" horiz-adv-x="1077" unicode="aW"/><glyph d="M30 0v1808q0 88 60 148t148 60q89 0 149 -59.5t60 -148.5v-1677q0 -13 8.5 -21.5t21.5 -8.5q12 0 21 8.5t9 21.5v716q0 112 89 173q-89 61 -89 173v807h116v-807q0 -40 26 -65.5t66 -25.5t66 25.5t26 65.5v807h116v-807q0 -112 -89 -173q89 -61 89 -173v-847h-116v847 q0 40 -26 65.5t-66 25.5t-66 -25.5t-26 -65.5v-716q0 -62 -42 -104.5t-104 -42.5t-104.5 42.5t-42.5 104.5v1361h-183v-1492h-117zM147 1608h183v200q0 40 -26 65.5t-66 25.5t-65.5 -25.5t-25.5 -65.5v-200z" glyph-name="a_X.liga" horiz-adv-x="953" unicode="aX"/><glyph d="M30 0v1808q0 88 60 148t148 60q89 0 149 -59.5t60 -148.5v-1527q0 -77 51.5 -128.5t128.5 -51.5t128.5 51.5t51.5 128.5v566q0 40 -26 65.5t-66 25.5t-66 -25.5t-26 -65.5v-566h-116v566q0 55 24 100.5t66 72.5q-42 29 -66 76t-24 104v800h116v-800q0 -43 26 -70.5 t66 -27.5t66 27.5t26 70.5v800h116v-800q0 -57 -24 -104t-66 -76q42 -27 66 -72.5t24 -100.5v-566q0 -127 -85 -212t-211 -85q-127 0 -212 85t-85 212v1211h-183v-1492h-117zM147 1608h183v200q0 40 -26 65.5t-66 25.5t-65.5 -25.5t-25.5 -65.5v-200z" glyph-name="a_X_one.liga" horiz-adv-x="953" unicode="aX1"/><glyph d="M30 0v1808q0 88 60 148t148 60q89 0 149 -59.5t60 -148.5v-1609q0 -42 28 -70t70 -28t70 28t28 70v784q-67 18 -108.5 72.5t-41.5 127.5v817h117v-817q0 -40 26 -65.5t66 -25.5t65.5 25.5t25.5 65.5v817h117v-817q0 -73 -41.5 -127.5t-108.5 -72.5v-784q0 -91 -62 -153 t-153 -62t-153 62t-62 153v1293h-183v-1492h-117zM147 1608h183v200q0 40 -26 65.5t-66 25.5t-65.5 -25.5t-25.5 -65.5v-200z" glyph-name="a_Y.liga" horiz-adv-x="920" unicode="aY"/><glyph d="M538 0l-15 72v-72q-82 0 -137.5 55.5t-55.5 137.5v1299h-183v-1492h-117v1808q0 88 60 148t148 60q89 0 149 -59.5t60 -148.5v-1615q0 -30 19 -51t48 -25l265 1766h-282v117h416l-282 -1883h282v-117h-375zM147 1608h183v200q0 40 -26 65.5t-66 25.5t-65.5 -25.5 t-25.5 -65.5v-200z" glyph-name="a_Z.liga" horiz-adv-x="933" unicode="aZ"/><glyph d="M632 -16q-129 0 -215.5 86.5t-86.5 215.5v1206h-183v-1492h-117v1808q0 88 60 148t148 60q89 0 149 -59.5t60 -148.5v-1522q0 -93 70 -147v1861h208q89 0 148.5 -59.5t59.5 -148.5v-92q0 -91 -61 -150q61 -59 61 -150v-1114q0 -129 -86.5 -215.5t-214.5 -86.5zM147 1608 h183v200q0 40 -26 65.5t-66 25.5t-65.5 -25.5t-25.5 -65.5v-200zM633 101q79 0 131.5 53t52.5 132v1114q0 40 -26 66t-66 26h-92v-1391zM633 1608h92q40 0 66 26t26 66v92q0 40 -26 65.5t-66 25.5h-92v-275z" glyph-name="a_b.liga" horiz-adv-x="963" unicode="ab"/><glyph d="M30 0v1808q0 88 60 148t148 60q89 0 149 -59.5t60 -148.5v-200h70v392h376v-117h-260v-275h220v-116h-220v-1284h-116v1284h-70v-1284q0 -40 25.5 -65.5t65.5 -25.5h355v-117h-355q-88 0 -148 60t-60 148v1284h-183v-1492h-117zM147 1608h183v200q0 40 -26 65.5t-66 25.5 t-65.5 -25.5t-25.5 -65.5v-200z" glyph-name="a_e.liga" horiz-adv-x="913" unicode="ae"/><glyph d="M517 0q-80 2 -133.5 56.5t-53.5 133.5v1302h-183v-1492h-117v1808q0 88 60 148t148 60q89 0 149 -59.5t60 -148.5v-200h70v392h376v-117h-260v-275h220v-116h-220v-1492h-113h-3zM147 1608h183v200q0 40 -26 65.5t-66 25.5t-65.5 -25.5t-25.5 -65.5v-200zM447 190 q0 -31 20 -51.5t50 -21.5v1375h-70v-1302z" glyph-name="a_f.liga" horiz-adv-x="903" unicode="af"/><glyph d="M30 0v1808q0 88 60 148t148 60q89 0 149 -59.5t60 -148.5v-200h70v392h116v-392h184v392h116v-1714q0 -129 -86.5 -215.5t-214.5 -86.5q-129 0 -215.5 86.5t-86.5 215.5v1206h-183v-1492h-117zM147 1608h183v200q0 40 -26 65.5t-66 25.5t-65.5 -25.5t-25.5 -65.5v-200z M447 286q0 -80 52.5 -132.5t132.5 -52.5t132.5 52.5t52.5 132.5v1206h-184v-1206h-116v1206h-70v-1206z" glyph-name="a_h.liga" horiz-adv-x="973" unicode="ah"/><glyph d="M517 136v1356h-70v-1356q0 -16 9.5 -25.5t25.5 -9.5q15 0 25 9.5t10 25.5zM30 0v1808q0 88 60 148t148 60q89 0 149 -59.5t60 -148.5v-200h70v392h116v-392h92q40 0 66 26t26 66v300h116v-300q0 -91 -61 -150q61 -59 61 -150v-1400h-116v1400q0 40 -26 66t-66 26h-92 v-1356q0 -64 -43.5 -108t-107.5 -44t-108 44t-44 108v1356h-183v-1492h-117zM147 1608h183v200q0 40 -26 65.5t-66 25.5t-65.5 -25.5t-25.5 -65.5v-200z" glyph-name="a_k.liga" horiz-adv-x="973" unicode="ak"/><glyph d="M517 136v1864h208q89 0 148.5 -59.5t59.5 -148.5v-92q0 -89 -59.5 -148.5t-148.5 -59.5h-92v-1356q0 -64 -43.5 -108t-107.5 -44t-108 44t-44 108v1356h-183v-1492h-117v1808q0 88 60 148t148 60q89 0 149 -59.5t60 -148.5v-1672q0 -16 9.5 -25.5t25.5 -9.5q15 0 25 9.5 t10 25.5zM147 1608h183v200q0 40 -26 65.5t-66 25.5t-65.5 -25.5t-25.5 -65.5v-200zM633 1608h92q40 0 66 26t26 66v92q0 40 -26 65.5t-66 25.5h-92v-275z" glyph-name="a_p.liga" horiz-adv-x="943" unicode="ap"/><glyph d="M30 0v1808q0 88 60 148t148 60q89 0 149 -59.5t60 -148.5v-1522q0 -80 52.5 -132.5t132.5 -52.5t132.5 52.5t52.5 132.5v1114q0 40 -26 66t-66 26h-92v-1206h-116v1714h208q89 0 148.5 -59.5t59.5 -148.5v-92q0 -91 -61 -150q61 -59 61 -150v-1114q0 -129 -86.5 -215.5 t-214.5 -86.5q-129 0 -215.5 86.5t-86.5 215.5v1206h-183v-1492h-117zM147 1608h183v200q0 40 -26 65.5t-66 25.5t-65.5 -25.5t-25.5 -65.5v-200zM633 1608h92q40 0 66 26t26 66v92q0 40 -26 65.5t-66 25.5h-92v-275z" glyph-name="a_r.liga" horiz-adv-x="963" unicode="ar"/><glyph d="M40 0v2000h208q89 0 149 -59.5t60 -148.5v-92q0 -91 -61 -150q61 -59 61 -150v-1215v-1q0 -36 21 -59.5t54 -23.5q32 0 53.5 21.5t21.5 53.5v1824h116v-1824q0 -82 -55 -137t-136 -55q-85 0 -140 61q-55 -45 -127 -45h-225zM157 117h108q32 0 53.5 19.5t21.5 48.5v1215 q0 40 -26 66t-66 26h-91v-1375zM157 1608h91q40 0 66 26t26 66v92q0 40 -26 65.5t-66 25.5h-91v-275z" glyph-name="b_J.liga" horiz-adv-x="753" unicode="bJ"/><glyph d="M527 0v1883h-487v117h753v-117h-150v-1883h-116zM40 0v1780h208q89 0 149 -59.5t60 -148.5v-92q0 -91 -61 -150q61 -59 61 -150v-972q0 -89 -60 -148.5t-149 -59.5h-208zM157 117h91q40 0 66 25.5t26 65.5v972q0 40 -26 66t-66 26h-91v-1155zM157 1388h91q40 0 66 26 t26 66v92q0 40 -26 65.5t-66 25.5h-91v-275z" glyph-name="b_T.liga" horiz-adv-x="803" unicode="bT"/><glyph d="M40 0v2000h117v-392h91q40 0 66 26t26 66v300h117v-300q0 -91 -61 -150q61 -59 61 -150v-1264q0 -15 10 -25t25 -10t25 10t10 25v1672q0 89 59.5 148.5t148.5 59.5t148.5 -59.5t59.5 -148.5v-1808h-116v1092h-184v-956q0 -64 -43.5 -108t-107.5 -44t-108 44t-44 108v1264 q0 40 -26 66t-66 26h-91v-1492h-117zM643 1208h184v600q0 40 -26 65.5t-66 25.5t-66 -25.5t-26 -65.5v-600z" glyph-name="k_A.liga" horiz-adv-x="973" unicode="kA"/><glyph d="M532 0q-82 0 -137 55t-55 137v1208q0 40 -26 66t-66 26h-91v-1492h-117v2000h117v-392h91q40 0 66 26t26 66v300h117v-300q0 -91 -61 -150q61 -59 61 -150v-1208q0 -32 21.5 -53.5t53.5 -21.5h2v1883h208q89 0 148.5 -59.5t59.5 -148.5v-492q0 -91 -61 -150 q61 -59 61 -150v-792q0 -89 -59.5 -148.5t-148.5 -59.5h-210zM650 117h92q40 0 66 25.5t26 65.5v792q0 40 -26 66t-66 26h-92v-975zM650 1208h92q40 0 66 26t26 66v492q0 40 -26 65.5t-66 25.5h-92v-675z" glyph-name="k_B.liga" horiz-adv-x="980" unicode="kB"/><glyph d="M735 -16q-168 0 -281.5 113.5t-113.5 281.5v1021q0 40 -26 66t-66 26h-91v-1492h-117v2000h117v-392h91q40 0 66 26t26 66v300h117v-300q0 -91 -61 -150q61 -59 61 -150v-1021q0 -119 79.5 -198.5t198.5 -79.5t198.5 79.5t79.5 198.5v330h117v-330q0 -168 -113.5 -281.5 t-281.5 -113.5zM527 379v1429q0 89 59.5 148.5t148.5 59.5t148.5 -59.5t59.5 -148.5v-417h-116v417q0 40 -26 65.5t-66 25.5t-66 -25.5t-26 -65.5v-1429q0 -40 26 -66t66 -26t66 26t26 66v450h116v-450q0 -89 -59.5 -148.5t-148.5 -59.5t-148.5 59.5t-59.5 148.5z" glyph-name="k_C.liga" horiz-adv-x="1150" unicode="kC"/><glyph d="M40 0v2000h117v-392h91q40 0 66 26t26 66v300h117v-300q0 -91 -61 -150q61 -59 61 -150v-1208q0 -32 21.5 -53.5t53.5 -21.5h2v1883h208q89 0 149 -59.5t60 -148.5v-1584q0 -89 -60 -148.5t-149 -59.5h-210q-82 0 -137 55t-55 137v1208q0 40 -26 66t-66 26h-91v-1492 h-117zM651 117h91q40 0 66 25.5t26 65.5v1584q0 40 -26 65.5t-66 25.5h-91v-1766z" glyph-name="k_D.liga" horiz-adv-x="980" unicode="kD"/><glyph d="M40 0v2000h117v-392h91q40 0 66 26t26 66v300h117v-300q0 -91 -61 -150q61 -59 61 -150v-1192q0 -40 25.5 -65.5t65.5 -25.5h360v-117h-360q-88 0 -148 60t-60 148v1192q0 40 -26 66t-66 26h-91v-1492h-117zM531 187v1813h377v-117h-260v-675h220v-116h-220v-789h260 v-116h-377z" glyph-name="k_E.liga" horiz-adv-x="928" unicode="kE"/><glyph d="M40 0v2000h117v-392h91q40 0 66 26t26 66v300h117v-300q0 -91 -61 -150q61 -59 61 -150v-1171q0 -55 36.5 -91.5t91.5 -36.5t91.5 36.5t36.5 91.5v480h117v-480q0 -103 -71 -174t-174 -71t-174 71t-71 174v1171q0 40 -26 66t-66 26h-91v-1492h-117zM527 187v1813h376 v-117h-260v-675h220v-116h-220v-905h-116z" glyph-name="k_F.liga" horiz-adv-x="913" unicode="kF"/><glyph d="M735 -16q-168 0 -281.5 113.5t-113.5 281.5v1021q0 40 -26 66t-66 26h-91v-1492h-117v2000h117v-392h91q40 0 66 26t26 66v300h117v-300q0 -91 -61 -150q61 -59 61 -150v-1021q0 -119 79.5 -198.5t198.5 -79.5t198.5 79.5t79.5 198.5v330h117v-330q0 -168 -113.5 -281.5 t-281.5 -113.5zM527 379v1429q0 89 59.5 148.5t148.5 59.5t148.5 -59.5t59.5 -148.5v-417h-116v417q0 40 -26 65.5t-66 25.5t-66 -25.5t-26 -65.5v-1429q0 -40 26 -66t66 -26t66 26t26 66v333h-92v117h208v-450q0 -89 -59.5 -148.5t-148.5 -59.5t-148.5 59.5t-59.5 148.5z " glyph-name="k_G.liga" horiz-adv-x="1140" unicode="kG"/><glyph d="M827 0v1092h-184v-956q0 -64 -43.5 -108t-107.5 -44t-108 44t-44 108v1264q0 40 -26 66t-66 26h-91v-1492h-117v2000h117v-392h91q40 0 66 26t26 66v300h117v-300q0 -91 -61 -150q61 -59 61 -150v-1264q0 -15 10 -25t25 -10t25 10t10 25v1864h116v-792h184v792h116v-2000 h-116z" glyph-name="k_H.liga" horiz-adv-x="983" unicode="kH"/><glyph d="M40 0v2000h117v-392h91q40 0 66 26t26 66v300h117v-300q0 -91 -61 -150q61 -59 61 -150v-1264q0 -15 10 -25t25 -10t25 10t10 25v1864h116v-1864q0 -64 -43.5 -108t-107.5 -44t-108 44t-44 108v1264q0 40 -26 66t-66 26h-91v-1492h-117z" glyph-name="k_I.liga" horiz-adv-x="683" unicode="kI"/><glyph d="M527 -70v2070h116v-2070q0 -89 -59.5 -148.5t-148.5 -59.5t-148.5 59.5t-59.5 148.5h116q0 -40 26 -66t66 -26t66 26t26 66zM40 0v2000h117v-392h91q40 0 66 26t26 66v300h117v-300q0 -91 -61 -150q61 -59 61 -150v-1400h-117v1400q0 40 -26 66t-66 26h-91v-1492h-117z " glyph-name="k_J.liga" horiz-adv-x="673" unicode="kJ"/><glyph d="M40 0v2000h117v-392h91q40 0 66 26t26 66v300h117v-300q0 -91 -61 -150q61 -59 61 -150v-1192q0 -40 25.5 -65.5t65.5 -25.5h355v-117h-355q-88 0 -148 60t-60 148v1192q0 40 -26 66t-66 26h-91v-1492h-117zM527 187v1813h116v-1697h260v-116h-376z" glyph-name="k_L.liga" horiz-adv-x="913" unicode="kL"/><glyph d="M827 900l-184 675v-1388h-116v1813h116l242 -887l242 887h116v-2000h-116v1575l-184 -675h-116zM40 0v2000h117v-392h91q40 0 66 26t26 66v300h117v-300q0 -91 -61 -150q61 -59 61 -150v-1114q0 -80 52.5 -132.5t132.5 -52.5t132.5 52.5t52.5 132.5v303h116v-303 q0 -129 -86.5 -215.5t-214.5 -86.5q-129 0 -215.5 86.5t-86.5 215.5v1114q0 40 -26 66t-66 26h-91v-1492h-117z" glyph-name="k_M.liga" horiz-adv-x="1283" unicode="kM"/><glyph d="M827 0v1500l-184 307v-1620h-116v1813h116l184 -307v307h116v-2000h-116zM40 0v2000h117v-392h91q40 0 66 26t26 66v300h117v-300q0 -91 -61 -150q61 -59 61 -150v-1192q0 -40 25.5 -65.5t65.5 -25.5h119v-117h-119q-88 0 -148 60t-60 148v1192q0 40 -26 66t-66 26h-91 v-1492h-117z" glyph-name="k_N.liga" horiz-adv-x="983" unicode="kN"/><glyph d="M735 -16q-168 0 -281.5 113.5t-113.5 281.5v1021q0 40 -26 66t-66 26h-91v-1492h-117v2000h117v-392h91q40 0 66 26t26 66v300h117v-300q0 -91 -61 -150q61 -59 61 -150v-1021q0 -119 79.5 -198.5t198.5 -79.5t198.5 79.5t79.5 198.5v330h117v-330q0 -168 -113.5 -281.5 t-281.5 -113.5zM527 379v1429q0 89 59.5 148.5t148.5 59.5t148.5 -59.5t59.5 -148.5v-1429q0 -89 -59.5 -148.5t-148.5 -59.5t-148.5 59.5t-59.5 148.5zM643 379q0 -40 26 -66t66 -26t66 26t26 66v1429q0 40 -26 65.5t-66 25.5t-66 -25.5t-26 -65.5v-1429z" glyph-name="k_O.liga" horiz-adv-x="1140" unicode="kO"/><glyph d="M40 0v2000h117v-392h91q40 0 66 26t26 66v300h117v-300q0 -91 -61 -150q61 -59 61 -150v-1171q0 -55 36.5 -91.5t91.5 -36.5t91.5 36.5t36.5 91.5v480h117v-480q0 -103 -71 -174t-174 -71t-174 71t-71 174v1171q0 40 -26 66t-66 26h-91v-1492h-117zM527 187v1813h208 q89 0 148.5 -59.5t59.5 -148.5v-509q0 -89 -59.5 -148.5t-148.5 -59.5h-92v-888h-116zM643 1192h92q40 0 66 25.5t26 65.5v509q0 40 -26 65.5t-66 25.5h-92v-691z" glyph-name="k_P.liga" horiz-adv-x="953" unicode="kP"/><glyph d="M735 -16q-168 0 -281.5 113.5t-113.5 281.5v1021q0 40 -26 66t-66 26h-91v-1492h-117v2000h117v-392h91q40 0 66 26t26 66v300h117v-300q0 -91 -61 -150q61 -59 61 -150v-1021q0 -103 61 -178t159 -94v71q-67 18 -108.5 72.5t-41.5 128.5v1429q0 89 59.5 148.5 t148.5 59.5t148.5 -59.5t59.5 -148.5v-1429q0 -74 -41.5 -128.5t-108.5 -72.5v-71q98 19 159 94t61 178v330h117v-330q0 -168 -113.5 -281.5t-281.5 -113.5zM643 379q0 -40 26 -66t66 -26t66 26t26 66v1429q0 40 -26 65.5t-66 25.5t-66 -25.5t-26 -65.5v-1429z" glyph-name="k_Q.liga" horiz-adv-x="1140" unicode="kQ"/><glyph d="M40 0v2000h117v-392h91q40 0 66 26t26 66v300h117v-300q0 -91 -61 -150q61 -59 61 -150v-1192q0 -40 25.5 -65.5t65.5 -25.5h123v-117h-123q-88 0 -148 60t-60 148v1192q0 40 -26 66t-66 26h-91v-1492h-117zM531 187v1813h208q89 0 148.5 -59.5t59.5 -148.5v-492 q0 -91 -61 -150q61 -59 61 -150v-1000h-116v1000q0 40 -26 66t-66 26h-92v-905h-116zM647 1208h92q40 0 66 26t26 66v492q0 40 -26 65.5t-66 25.5h-92v-675z" glyph-name="k_R.liga" horiz-adv-x="977" unicode="kR"/><glyph d="M735 -16q-168 0 -281.5 113.5t-113.5 281.5v1021q0 40 -26 66t-66 26h-91v-1492h-117v2000h117v-392h91q40 0 66 26t26 66v300h117v-300q0 -91 -61 -150q61 -59 61 -150v-1021q0 -119 79.5 -198.5t198.5 -79.5t198.5 79.5t79.5 198.5v330h117v-330q0 -168 -113.5 -281.5 t-281.5 -113.5zM527 379v440h116v-440q0 -40 26 -66t66 -26t66 26t26 66v581q0 40 -26 66t-66 26q-89 0 -148.5 59.5t-59.5 148.5v548q0 89 59.5 148.5t148.5 59.5t148.5 -59.5t59.5 -148.5v-407h-116v407q0 40 -26 65.5t-66 25.5t-66 -25.5t-26 -65.5v-548q0 -40 26 -66 t66 -26q89 0 148.5 -59.5t59.5 -148.5v-581q0 -89 -59.5 -148.5t-148.5 -59.5t-148.5 59.5t-59.5 148.5z" glyph-name="k_S.liga" horiz-adv-x="1140" unicode="kS"/><glyph d="M527 0v1883h-187v117h453v-117h-150v-1883h-116zM40 0v2000h117v-392h91q40 0 66 26t26 66v113h117v-113q0 -91 -61 -150q61 -59 61 -150v-1400h-117v1400q0 40 -26 66t-66 26h-91v-1492h-117z" glyph-name="k_T.liga" horiz-adv-x="803" unicode="kT"/><glyph d="M735 -16q-168 0 -281.5 113.5t-113.5 281.5v1021q0 40 -26 66t-66 26h-91v-1492h-117v2000h117v-392h91q40 0 66 26t26 66v300h117v-300q0 -91 -61 -150q61 -59 61 -150v-1021q0 -119 79.5 -198.5t198.5 -79.5t198.5 79.5t79.5 198.5v330h117v-330q0 -168 -113.5 -281.5 t-281.5 -113.5zM527 379v1621h116v-1621q0 -40 26 -66t66 -26t66 26t26 66v1621h116v-1621q0 -89 -59.5 -148.5t-148.5 -59.5t-148.5 59.5t-59.5 148.5z" glyph-name="k_U.liga" horiz-adv-x="1160" unicode="kU"/><glyph d="M40 0v2000h117v-392h91q40 0 66 26t26 66v164q0 64 44 108t108 44t107.5 -44t43.5 -108v-1672q0 -40 26 -65.5t66 -25.5t66 25.5t26 65.5v1808h116v-1808q0 -40 26 -65.5t66 -25.5t66 25.5t26 65.5v1808h116v-1808q0 -89 -59.5 -148.5t-148.5 -59.5q-91 0 -150 61 q-59 -61 -150 -61q-89 0 -148.5 59.5t-59.5 148.5v1672q0 15 -10 25t-25 10t-25 -10t-10 -25v-164q0 -91 -61 -150q61 -59 61 -150v-1400h-117v1400q0 40 -26 66t-66 26h-91v-1492h-117z" glyph-name="k_W.liga" horiz-adv-x="1273" unicode="kW"/><glyph d="M40 0v2000h117v-392h91q40 0 66 26t26 66v164q0 64 44 108t108 44t107.5 -44t43.5 -108v-671q0 -40 26 -65.5t66 -25.5t66 25.5t26 65.5v807h116v-807q0 -112 -89 -173q89 -61 89 -173v-847h-116v847q0 40 -26 65.5t-66 25.5t-66 -25.5t-26 -65.5v-847h-116v847 q0 112 89 173q-89 61 -89 173v671q0 15 -10 25t-25 10t-25 -10t-10 -25v-164q0 -91 -61 -150q61 -59 61 -150v-1400h-117v1400q0 40 -26 66t-66 26h-91v-1492h-117z" glyph-name="k_X.liga" horiz-adv-x="973" unicode="kX"/><glyph d="M40 0v2000h117v-392h91q40 0 66 26t26 66v300h117v-300q0 -91 -61 -150q61 -59 61 -150v-1196q0 -44 29.5 -73.5t73.5 -29.5t73.5 29.5t29.5 73.5v779q-67 18 -108.5 72.5t-41.5 127.5v817h117v-817q0 -40 26 -65.5t66 -25.5t65.5 25.5t25.5 65.5v817h117v-817 q0 -73 -41.5 -127.5t-108.5 -72.5v-779q0 -94 -63 -157t-157 -63t-157 63t-63 157v1196q0 40 -26 66t-66 26h-91v-1492h-117z" glyph-name="k_Y.liga" horiz-adv-x="940" unicode="kY"/><glyph d="M517 0l282 1883h-251q-40 0 -65.5 -25.5t-25.5 -65.5v-92q0 -91 -61 -150q61 -59 61 -150v-1400h-117v1400q0 40 -26 66t-66 26h-91v-1492h-117v2000h117v-392h91q40 0 66 26t26 66v92q0 88 60 148t148 60h385l-282 -1883h282v-117h-416z" glyph-name="k_Z.liga" horiz-adv-x="953" unicode="kZ"/><glyph d="M40 0v2000h117v-392h91q40 0 66 26t26 66v300h117v-300q0 -91 -61 -150q61 -59 61 -150v-1264q0 -15 10 -25t25 -10t25 10t10 25v1672q0 89 59.5 148.5t148.5 59.5t148.5 -59.5t59.5 -148.5v-1808h-116v1492h-184v-1356q0 -64 -43.5 -108t-107.5 -44t-108 44t-44 108 v1264q0 40 -26 66t-66 26h-91v-1492h-117zM643 1608h184v200q0 40 -26 65.5t-66 25.5t-66 -25.5t-26 -65.5v-200z" glyph-name="k_a.liga" horiz-adv-x="973" unicode="ka"/><glyph d="M532 0q-82 0 -137 55t-55 137v1208q0 40 -26 66t-66 26h-91v-1492h-117v2000h117v-392h91q40 0 66 26t26 66v300h117v-300q0 -91 -61 -150q61 -59 61 -150v-1208q0 -32 21.5 -53.5t53.5 -21.5h2v1883h208q89 0 148.5 -59.5t59.5 -148.5v-92q0 -91 -61 -150 q61 -59 61 -150v-1192q0 -89 -59.5 -148.5t-148.5 -59.5h-210zM650 117h92q40 0 66 25.5t26 65.5v1192q0 40 -26 66t-66 26h-92v-1375zM650 1608h92q40 0 66 26t26 66v92q0 40 -26 65.5t-66 25.5h-92v-275z" glyph-name="k_b.liga" horiz-adv-x="980" unicode="kb"/><glyph d="M40 0v2000h117v-392h91q40 0 66 26t26 66v300h117v-300q0 -91 -61 -150q61 -59 61 -150v-1192q0 -40 25.5 -65.5t65.5 -25.5h360v-117h-360q-88 0 -148 60t-60 148v1192q0 40 -26 66t-66 26h-91v-1492h-117zM531 187v1813h377v-117h-260v-275h220v-116h-220v-1189h260 v-116h-377z" glyph-name="k_e.liga" horiz-adv-x="928" unicode="ke"/><glyph d="M40 0v2000h117v-392h91q40 0 66 26t26 66v300h117v-300q0 -91 -61 -150q61 -59 61 -150v-1171q0 -55 36.5 -91.5t91.5 -36.5t91.5 36.5t36.5 91.5v480h117v-480q0 -103 -71 -174t-174 -71t-174 71t-71 174v1171q0 40 -26 66t-66 26h-91v-1492h-117zM527 187v1813h376 v-117h-260v-275h220v-116h-220v-1305h-116z" glyph-name="k_f.liga" horiz-adv-x="913" unicode="kf"/><glyph d="M827 0v1492h-184v-1356q0 -64 -43.5 -108t-107.5 -44t-108 44t-44 108v1264q0 40 -26 66t-66 26h-91v-1492h-117v2000h117v-392h91q40 0 66 26t26 66v300h117v-300q0 -91 -61 -150q61 -59 61 -150v-1264q0 -15 10 -25t25 -10t25 10t10 25v1864h116v-392h184v392h116 v-2000h-116z" glyph-name="k_h.liga" horiz-adv-x="983" unicode="kh"/><glyph d="M40 0v2000h117v-392h91q40 0 66 26t26 66v300h117v-300q0 -91 -61 -150q61 -59 61 -150v-1264q0 -15 10 -25t25 -10t25 10t10 25v1614h116v-1614q0 -64 -43.5 -108t-107.5 -44t-108 44t-44 108v1264q0 40 -26 66t-66 26h-91v-1492h-117zM527 1850v150h116v-150h-116z" glyph-name="k_i.liga" horiz-adv-x="683" unicode="ki"/><glyph d="M40 0v2000h117v-392h91q40 0 66 26t26 66v300h117v-300q0 -91 -61 -150q61 -59 61 -150v-1400h-117v1400q0 40 -26 66t-66 26h-91v-1492h-117zM227 -70h116q0 -40 26 -66t66 -26t66 26t26 66v1810h116v-1810q0 -89 -59.5 -148.5t-148.5 -59.5t-148.5 59.5t-59.5 148.5z M527 1850v150h116v-150h-116z" glyph-name="k_j.liga" horiz-adv-x="673" unicode="kj"/><glyph d="M40 0v2000h117v-392h91q40 0 66 26t26 66v300h117v-300q0 -91 -61 -150q61 -59 61 -150v-1114q0 -80 52.5 -132.5t132.5 -52.5t132.5 52.5t52.5 132.5v1522q0 40 -26 65.5t-66 25.5t-66 -25.5t-26 -65.5v-1521h-116v1521q0 89 59.5 148.5t148.5 59.5q91 0 150 -61 q59 61 150 61q89 0 148.5 -59.5t59.5 -148.5v-1808h-116v1808q0 40 -26 65.5t-66 25.5t-66 -25.5t-26 -65.5v-1523q0 -129 -86.5 -215t-214.5 -86q-129 0 -215.5 86.5t-86.5 215.5v1114q0 40 -26 66t-66 26h-91v-1492h-117z" glyph-name="k_m.liga" horiz-adv-x="1283" unicode="km"/><glyph d="M40 0v2000h117v-392h91q40 0 66 26t26 66v300h117v-300q0 -91 -61 -150q61 -59 61 -150v-1192q0 -40 25.5 -65.5t65.5 -25.5h129v-117h-129q-88 0 -148 60t-60 148v1192q0 40 -26 66t-66 26h-91v-1492h-117zM527 187v1621q0 89 59.5 148.5t148.5 59.5t148.5 -59.5 t59.5 -148.5v-1808h-116v1808q0 40 -26 65.5t-66 25.5t-66 -25.5t-26 -65.5v-1621h-116z" glyph-name="k_n.liga" horiz-adv-x="983" unicode="kn"/><glyph d="M40 0v2000h117v-392h91q40 0 66 26t26 66v300h117v-300q0 -91 -61 -150q61 -59 61 -150v-1171q0 -55 36.5 -91.5t91.5 -36.5t91.5 36.5t36.5 91.5v480h117v-480q0 -103 -71 -174t-174 -71t-174 71t-71 174v1171q0 40 -26 66t-66 26h-91v-1492h-117zM527 187v1813h208 q89 0 148.5 -59.5t59.5 -148.5v-92q0 -89 -59.5 -148.5t-148.5 -59.5h-92v-1305h-116zM643 1608h92q40 0 66 26t26 66v92q0 40 -26 65.5t-66 25.5h-92v-275z" glyph-name="k_p.liga" horiz-adv-x="953" unicode="kp"/><glyph d="M40 0v2000h117v-392h91q40 0 66 26t26 66v300h117v-300q0 -91 -61 -150q61 -59 61 -150v-1192q0 -40 25.5 -65.5t65.5 -25.5h133v-117h-133q-88 0 -148 60t-60 148v1192q0 40 -26 66t-66 26h-91v-1492h-117zM531 187v1813h208q89 0 148.5 -59.5t59.5 -148.5v-92 q0 -91 -61 -150q61 -59 61 -150v-1400h-116v1400q0 40 -26 66t-66 26h-92v-1305h-116zM647 1608h92q40 0 66 26t26 66v92q0 40 -26 65.5t-66 25.5h-92v-275z" glyph-name="k_r.liga" horiz-adv-x="977" unicode="kr"/><glyph d="M40 0v2000h117v-392h91q40 0 66 26t26 66v164q0 64 44 108t108 44t107.5 -44t43.5 -108v-171q0 -40 26 -65.5t66 -25.5t66 25.5t26 65.5v307h116v-307q0 -112 -89 -173q89 -61 89 -173v-1347h-116v1347q0 40 -26 65.5t-66 25.5t-66 -25.5t-26 -65.5v-1347h-116v1347 q0 112 89 173q-89 61 -89 173v171q0 15 -10 25t-25 10t-25 -10t-10 -25v-164q0 -91 -61 -150q61 -59 61 -150v-1400h-117v1400q0 40 -26 66t-66 26h-91v-1492h-117z" glyph-name="k_x.liga" horiz-adv-x="973" unicode="kx"/><glyph d="M40 0v2000h117v-392h91q40 0 66 26t26 66v300h117v-300q0 -91 -61 -150q61 -59 61 -150v-1199q0 -43 28.5 -71.5t71.5 -28.5t71.5 28.5t28.5 71.5v1282q-67 18 -108.5 72.5t-41.5 127.5v317h116v-317q0 -40 26 -65.5t66 -25.5t66 25.5t26 65.5v317h116v-317 q0 -73 -41.5 -127.5t-108.5 -72.5v-1282q0 -92 -62 -154.5t-154 -62.5t-154.5 62.5t-62.5 154.5v1199q0 40 -26 66t-66 26h-91v-1492h-117z" glyph-name="k_y.liga" horiz-adv-x="933" unicode="ky"/><glyph d="M1127 0v1092h-184v-956q0 -64 -43.5 -108t-107.5 -44t-108 44t-44 108v1672q0 40 -26 65.5t-66 25.5t-65.5 -25.5t-25.5 -65.5v-1808h-117v1808q0 40 -26 65.5t-66 25.5t-65.5 -25.5t-25.5 -65.5v-1808h-117v1808q0 88 60 148t148 60q91 0 150 -61q61 61 150 61 t149 -59.5t60 -148.5v-1672q0 -15 10 -25t25 -10t25 10t10 25v1672q0 89 59.5 148.5t148.5 59.5t148.5 -59.5t59.5 -148.5v-1808h-116zM943 1208h184v600q0 40 -26 65.5t-66 25.5t-66 -25.5t-26 -65.5v-600z" glyph-name="m_A.liga" horiz-adv-x="1273" unicode="mA"/><glyph d="M1035 -16q-168 0 -281.5 113.5t-113.5 281.5v1429q0 40 -26 65.5t-66 25.5t-65.5 -25.5t-25.5 -65.5v-1808h-117v1808q0 40 -26 65.5t-66 25.5t-65.5 -25.5t-25.5 -65.5v-1808h-117v1808q0 88 60 148t148 60q91 0 150 -61q61 61 150 61t149 -59.5t60 -148.5v-1429 q0 -119 79.5 -198.5t198.5 -79.5t198.5 79.5t79.5 198.5v330h117v-330q0 -168 -113.5 -281.5t-281.5 -113.5zM827 389v1419q0 89 59.5 148.5t148.5 59.5t148.5 -59.5t59.5 -148.5v-417h-116v417q0 40 -26 65.5t-66 25.5t-66 -25.5t-26 -65.5v-1419q0 -40 26 -66t66 -26 t66 26t26 66v450h116v-450q0 -89 -59.5 -148.5t-148.5 -59.5t-148.5 59.5t-59.5 148.5z" glyph-name="m_C.liga" horiz-adv-x="1450" unicode="mC"/><glyph d="M340 0v1808q0 40 -26 65.5t-66 25.5t-65.5 -25.5t-25.5 -65.5v-1808h-117v1808q0 88 60 148t148 60q91 0 150 -61q61 61 150 61t149 -59.5t60 -148.5v-1600q0 -40 25.5 -65.5t65.5 -25.5h355v-117h-355q-88 0 -148 60t-60 148v1600q0 40 -26 65.5t-66 25.5t-65.5 -25.5 t-25.5 -65.5v-1808h-117zM827 187v1813h376v-117h-260v-675h220v-116h-220v-789h260v-116h-376z" glyph-name="m_E.liga" horiz-adv-x="1223" unicode="mE"/><glyph d="M340 0v1808q0 40 -26 65.5t-66 25.5t-65.5 -25.5t-25.5 -65.5v-1808h-117v1808q0 88 60 148t148 60q91 0 150 -61q61 61 150 61t149 -59.5t60 -148.5v-1579q0 -55 36.5 -91.5t91.5 -36.5t91.5 36.5t36.5 91.5v480h117v-480q0 -103 -71 -174t-174 -71t-174 71t-71 174 v1579q0 40 -26 65.5t-66 25.5t-65.5 -25.5t-25.5 -65.5v-1808h-117zM827 187v1813h376v-117h-260v-675h220v-116h-220v-905h-116z" glyph-name="m_F.liga" horiz-adv-x="1223" unicode="mF"/><glyph d="M1035 -16q-168 0 -281.5 113.5t-113.5 281.5v1429q0 40 -26 65.5t-66 25.5t-65.5 -25.5t-25.5 -65.5v-1808h-117v1808q0 40 -26 65.5t-66 25.5t-65.5 -25.5t-25.5 -65.5v-1808h-117v1808q0 88 60 148t148 60q91 0 150 -61q61 61 150 61t149 -59.5t60 -148.5v-1429 q0 -119 79.5 -198.5t198.5 -79.5t198.5 79.5t79.5 198.5v330h117v-330q0 -168 -113.5 -281.5t-281.5 -113.5zM827 389v1419q0 89 59.5 148.5t148.5 59.5t148.5 -59.5t59.5 -148.5v-417h-116v417q0 40 -26 65.5t-66 25.5t-66 -25.5t-26 -65.5v-1419q0 -40 26 -66t66 -26 t66 26t26 66v403h-92v117h208v-520q0 -89 -59.5 -148.5t-148.5 -59.5t-148.5 59.5t-59.5 148.5z" glyph-name="m_G.liga" horiz-adv-x="1440" unicode="mG"/><glyph d="M1137 0v1092h-184v-951q0 -67 -45 -112t-111 -45q-67 0 -112 45t-45 112v1667q0 40 -26 65.5t-66 25.5t-65.5 -25.5t-25.5 -65.5v-1808h-117v1808q0 40 -26 65.5t-66 25.5t-65.5 -25.5t-25.5 -65.5v-1808h-117v1808q0 88 60 148t148 60q91 0 150 -61q61 61 150 61 t149 -59.5t60 -148.5v-1667q0 -17 11.5 -28.5t28.5 -11.5t28.5 11.5t11.5 28.5v1859h116v-792h184v792h116v-2000h-116z" glyph-name="m_H.liga" horiz-adv-x="1293" unicode="mH"/><glyph d="M837 141v1859h116v-1859q0 -67 -45 -112t-111 -45q-67 0 -112 45t-45 112v1667q0 40 -26 65.5t-66 25.5t-65.5 -25.5t-25.5 -65.5v-1808h-117v1808q0 40 -26 65.5t-66 25.5t-65.5 -25.5t-25.5 -65.5v-1808h-117v1808q0 88 60 148t148 60q91 0 150 -61q61 61 150 61 t149 -59.5t60 -148.5v-1667q0 -17 11.5 -28.5t28.5 -11.5t28.5 11.5t11.5 28.5z" glyph-name="m_I.liga" horiz-adv-x="993" unicode="mI"/><glyph d="M827 -71v2071h116v-2071q0 -89 -59.5 -148.5t-148.5 -59.5t-148.5 59.5t-59.5 148.5h116q0 -40 26 -66t66 -26t66 26t26 66zM40 0v1808q0 88 60 148t148 60q91 0 150 -61q61 61 150 61t149 -59.5t60 -148.5v-1808h-117v1808q0 40 -26 65.5t-66 25.5t-65.5 -25.5 t-25.5 -65.5v-1808h-117v1808q0 40 -26 65.5t-66 25.5t-65.5 -25.5t-25.5 -65.5v-1808h-117z" glyph-name="m_J.liga" horiz-adv-x="983" unicode="mJ"/><glyph d="M340 0v1808q0 40 -26 65.5t-66 25.5t-65.5 -25.5t-25.5 -65.5v-1808h-117v1808q0 88 60 148t148 60q91 0 150 -61q61 61 150 61t149 -59.5t60 -148.5v-1600q0 -40 25.5 -65.5t65.5 -25.5h355v-117h-355q-88 0 -148 60t-60 148v1600q0 40 -26 65.5t-66 25.5t-65.5 -25.5 t-25.5 -65.5v-1808h-117zM827 187v1813h116v-1697h260v-116h-376z" glyph-name="m_L.liga" horiz-adv-x="1213" unicode="mL"/><glyph d="M1035 -16q-168 0 -281.5 113.5t-113.5 281.5v1429q0 40 -26 65.5t-66 25.5t-65.5 -25.5t-25.5 -65.5v-1808h-117v1808q0 40 -26 65.5t-66 25.5t-65.5 -25.5t-25.5 -65.5v-1808h-117v1808q0 88 60 148t148 60q91 0 150 -61q61 61 150 61t149 -59.5t60 -148.5v-1429 q0 -119 79.5 -198.5t198.5 -79.5t198.5 79.5t79.5 198.5v330h117v-330q0 -168 -113.5 -281.5t-281.5 -113.5zM827 379v1429q0 89 59.5 148.5t148.5 59.5t148.5 -59.5t59.5 -148.5v-1429q0 -89 -59.5 -148.5t-148.5 -59.5t-148.5 59.5t-59.5 148.5zM943 379q0 -40 26 -66 t66 -26t66 26t26 66v1429q0 40 -26 65.5t-66 25.5t-66 -25.5t-26 -65.5v-1429z" glyph-name="m_O.liga" horiz-adv-x="1440" unicode="mO"/><glyph d="M837 141v1859h208q89 0 148.5 -59.5t59.5 -148.5v-509q0 -89 -59.5 -148.5t-148.5 -59.5h-92v-934q0 -67 -45 -112t-111 -45q-67 0 -112 45t-45 112v1667q0 40 -26 65.5t-66 25.5t-65.5 -25.5t-25.5 -65.5v-1808h-117v1808q0 40 -26 65.5t-66 25.5t-65.5 -25.5 t-25.5 -65.5v-1808h-117v1808q0 88 60 148t148 60q91 0 150 -61q61 61 150 61t149 -59.5t60 -148.5v-1667q0 -17 11.5 -28.5t28.5 -11.5t28.5 11.5t11.5 28.5zM953 1192h92q40 0 66 25.5t26 65.5v509q0 40 -26 65.5t-66 25.5h-92v-691z" glyph-name="m_P.liga" horiz-adv-x="1263" unicode="mP"/><glyph d="M1035 -16q-168 0 -281.5 113.5t-113.5 281.5v1429q0 40 -26 65.5t-66 25.5t-65.5 -25.5t-25.5 -65.5v-1808h-117v1808q0 40 -26 65.5t-66 25.5t-65.5 -25.5t-25.5 -65.5v-1808h-117v1808q0 88 60 148t148 60q91 0 150 -61q61 61 150 61t149 -59.5t60 -148.5v-1429 q0 -103 61 -178t159 -94v71q-67 18 -108.5 72.5t-41.5 128.5v1429q0 89 59.5 148.5t148.5 59.5t148.5 -59.5t59.5 -148.5v-1429q0 -74 -41.5 -128.5t-108.5 -72.5v-71q98 19 159 94t61 178v330h117v-330q0 -168 -113.5 -281.5t-281.5 -113.5zM943 379q0 -40 26 -66t66 -26 t66 26t26 66v1429q0 40 -26 65.5t-66 25.5t-66 -25.5t-26 -65.5v-1429z" glyph-name="m_Q.liga" horiz-adv-x="1440" unicode="mQ"/><glyph d="M837 141v1859h208q89 0 148.5 -59.5t59.5 -148.5v-492q0 -91 -61 -150q61 -59 61 -150v-1000h-116v1000q0 40 -26 66t-66 26h-92v-951q0 -67 -45 -112t-111 -45q-67 0 -112 45t-45 112v1667q0 40 -26 65.5t-66 25.5t-65.5 -25.5t-25.5 -65.5v-1808h-117v1808 q0 40 -26 65.5t-66 25.5t-65.5 -25.5t-25.5 -65.5v-1808h-117v1808q0 88 60 148t148 60q91 0 150 -61q61 61 150 61t149 -59.5t60 -148.5v-1667q0 -17 11.5 -28.5t28.5 -11.5t28.5 11.5t11.5 28.5zM953 1208h92q40 0 66 26t26 66v492q0 40 -26 65.5t-66 25.5h-92v-675z" glyph-name="m_R.liga" horiz-adv-x="1283" unicode="mR"/><glyph d="M1035 -16q-168 0 -281.5 113.5t-113.5 281.5v1429q0 40 -26 65.5t-66 25.5t-65.5 -25.5t-25.5 -65.5v-1808h-117v1808q0 40 -26 65.5t-66 25.5t-65.5 -25.5t-25.5 -65.5v-1808h-117v1808q0 88 60 148t148 60q91 0 150 -61q61 61 150 61t149 -59.5t60 -148.5v-1429 q0 -119 79.5 -198.5t198.5 -79.5t198.5 79.5t79.5 198.5v330h117v-330q0 -168 -113.5 -281.5t-281.5 -113.5zM827 379v440h116v-440q0 -40 26 -66t66 -26t66 26t26 66v581q0 40 -26 66t-66 26q-89 0 -148.5 59.5t-59.5 148.5v548q0 89 59.5 148.5t148.5 59.5t148.5 -59.5 t59.5 -148.5v-407h-116v407q0 40 -26 65.5t-66 25.5t-66 -25.5t-26 -65.5v-548q0 -40 26 -66t66 -26q89 0 148.5 -59.5t59.5 -148.5v-581q0 -89 -59.5 -148.5t-148.5 -59.5t-148.5 59.5t-59.5 148.5z" glyph-name="m_S.liga" horiz-adv-x="1460" unicode="mS"/><glyph d="M827 0v1883h-787v117h1053v-117h-150v-1883h-116zM40 0v1611q0 89 59.5 148.5t148.5 59.5q91 0 150 -61q61 61 150 61t149 -59.5t60 -148.5v-1611h-117v1611q0 40 -26 66t-66 26t-65.5 -26t-25.5 -66v-1611h-117v1611q0 40 -26 66t-66 26t-65.5 -26t-25.5 -66v-1611h-117 z" glyph-name="m_T.liga" horiz-adv-x="1103" unicode="mT"/><glyph d="M1035 -16q-168 0 -281.5 113.5t-113.5 281.5v1429q0 40 -26 65.5t-66 25.5t-65.5 -25.5t-25.5 -65.5v-1808h-117v1808q0 40 -26 65.5t-66 25.5t-65.5 -25.5t-25.5 -65.5v-1808h-117v1808q0 88 60 148t148 60q91 0 150 -61q61 61 150 61t149 -59.5t60 -148.5v-1429 q0 -119 79.5 -198.5t198.5 -79.5t198.5 79.5t79.5 198.5v330h117v-330q0 -168 -113.5 -281.5t-281.5 -113.5zM827 379v1621h116v-1621q0 -40 26 -66t66 -26t66 26t26 66v1621h116v-1621q0 -89 -59.5 -148.5t-148.5 -59.5t-148.5 59.5t-59.5 148.5z" glyph-name="m_U.liga" horiz-adv-x="1440" unicode="mU"/><glyph d="M1240 192v1808h117v-1808q0 -89 -60 -148.5t-149 -59.5t-150 61q-59 -61 -150 -61q-88 0 -148 60t-60 148v508h117v-508q0 -40 25.5 -65.5t65.5 -25.5t66 25.5t26 65.5v1808h117v-1808q0 -40 25.5 -65.5t65.5 -25.5t66 25.5t26 65.5zM40 0v1808q0 88 60 148t148 60 q91 0 150 -61q61 61 150 61t149 -59.5t60 -148.5v-1038h-117v1038q0 40 -26 65.5t-66 25.5t-65.5 -25.5t-25.5 -65.5v-1808h-117v1808q0 40 -26 65.5t-66 25.5t-65.5 -25.5t-25.5 -65.5v-1808h-117z" glyph-name="m_W.liga" horiz-adv-x="1387" unicode="mW"/><glyph d="M340 0v1808q0 40 -26 65.5t-66 25.5t-65.5 -25.5t-25.5 -65.5v-1808h-117v1808q0 88 60 148t148 60q91 0 150 -61q61 61 150 61t149 -59.5t60 -148.5v-1672q0 -15 10 -25t25 -10t25 10t10 25v711q0 112 89 173q-89 61 -89 173v807h116v-807q0 -40 26 -65.5t66 -25.5 t66 25.5t26 65.5v807h116v-807q0 -112 -89 -173q89 -61 89 -173v-847h-116v847q0 40 -26 65.5t-66 25.5t-66 -25.5t-26 -65.5v-711q0 -64 -43.5 -108t-107.5 -44t-108 44t-44 108v1672q0 40 -26 65.5t-66 25.5t-65.5 -25.5t-25.5 -65.5v-1808h-117z" glyph-name="m_X.liga" horiz-adv-x="1273" unicode="mX"/><glyph d="M340 0v1808q0 40 -26 65.5t-66 25.5t-65.5 -25.5t-25.5 -65.5v-1808h-117v1808q0 88 60 148t148 60q91 0 150 -61q61 61 150 61t149 -59.5t60 -148.5v-1607q0 -43 28.5 -71.5t71.5 -28.5t71.5 28.5t28.5 71.5v782q-67 18 -108.5 72.5t-41.5 127.5v817h116v-817 q0 -40 26 -65.5t66 -25.5t66 25.5t26 65.5v817h116v-817q0 -73 -41.5 -127.5t-108.5 -72.5v-782q0 -92 -62 -154.5t-154 -62.5t-154.5 62.5t-62.5 154.5v1607q0 40 -26 65.5t-66 25.5t-65.5 -25.5t-25.5 -65.5v-1808h-117z" glyph-name="m_Y.liga" horiz-adv-x="1233" unicode="mY"/><glyph d="M817 187l281 1696h-281v117h416l-281 -1697h281v-116h-416zM40 0v1808q0 88 60 148t148 60q91 0 150 -61q61 61 150 61t149 -59.5t60 -148.5v-1600q0 -40 25.5 -65.5t65.5 -25.5h385v-117h-385q-88 0 -148 60t-60 148v1600q0 40 -26 65.5t-66 25.5t-65.5 -25.5 t-25.5 -65.5v-1808h-117v1808q0 40 -26 65.5t-66 25.5t-65.5 -25.5t-25.5 -65.5v-1808h-117z" glyph-name="m_Z.liga" horiz-adv-x="1253" unicode="mZ"/><glyph d="M1127 0v1492h-184v-1356q0 -64 -43.5 -108t-107.5 -44t-108 44t-44 108v1672q0 40 -26 65.5t-66 25.5t-65.5 -25.5t-25.5 -65.5v-1808h-117v1808q0 40 -26 65.5t-66 25.5t-65.5 -25.5t-25.5 -65.5v-1808h-117v1808q0 88 60 148t148 60q91 0 150 -61q61 61 150 61 t149 -59.5t60 -148.5v-1672q0 -15 10 -25t25 -10t25 10t10 25v1672q0 89 59.5 148.5t148.5 59.5t148.5 -59.5t59.5 -148.5v-1808h-116zM943 1608h184v200q0 40 -26 65.5t-66 25.5t-66 -25.5t-26 -65.5v-200z" glyph-name="m_a.liga" horiz-adv-x="1273" unicode="ma"/><glyph d="M340 0v1808q0 40 -26 65.5t-66 25.5t-65.5 -25.5t-25.5 -65.5v-1808h-117v1808q0 88 60 148t148 60q91 0 150 -61q61 61 150 61t149 -59.5t60 -148.5v-1600q0 -40 25.5 -65.5t65.5 -25.5h355v-117h-355q-88 0 -148 60t-60 148v1600q0 40 -26 65.5t-66 25.5t-65.5 -25.5 t-25.5 -65.5v-1808h-117zM827 187v1813h376v-117h-260v-275h220v-116h-220v-1189h260v-116h-376z" glyph-name="m_e.liga" horiz-adv-x="1223" unicode="me"/><glyph d="M340 0v1808q0 40 -26 65.5t-66 25.5t-65.5 -25.5t-25.5 -65.5v-1808h-117v1808q0 88 60 148t148 60q91 0 150 -61q61 61 150 61t149 -59.5t60 -148.5v-1579q0 -55 36.5 -91.5t91.5 -36.5t91.5 36.5t36.5 91.5v480h117v-480q0 -103 -71 -174t-174 -71t-174 71t-71 174 v1579q0 40 -26 65.5t-66 25.5t-65.5 -25.5t-25.5 -65.5v-1808h-117zM827 187v1813h376v-117h-260v-275h220v-116h-220v-1305h-116z" glyph-name="m_f.liga" horiz-adv-x="1223" unicode="mf"/><glyph d="M1137 0v1492h-184v-1351q0 -67 -45 -112t-111 -45q-67 0 -112 45t-45 112v1667q0 40 -26 65.5t-66 25.5t-65.5 -25.5t-25.5 -65.5v-1808h-117v1808q0 40 -26 65.5t-66 25.5t-65.5 -25.5t-25.5 -65.5v-1808h-117v1808q0 88 60 148t148 60q91 0 150 -61q61 61 150 61 t149 -59.5t60 -148.5v-1667q0 -17 11.5 -28.5t28.5 -11.5t28.5 11.5t11.5 28.5v1859h116v-392h184v392h116v-2000h-116z" glyph-name="m_h.liga" horiz-adv-x="1293" unicode="mh"/><glyph d="M340 0v1808q0 40 -26 65.5t-66 25.5t-65.5 -25.5t-25.5 -65.5v-1808h-117v1808q0 88 60 148t148 60q91 0 150 -61q61 61 150 61t149 -59.5t60 -148.5v-1667q0 -17 11.5 -28.5t28.5 -11.5t28.5 11.5t11.5 28.5v1609h116v-1609q0 -67 -45 -112t-111 -45q-67 0 -112 45 t-45 112v1667q0 40 -26 65.5t-66 25.5t-65.5 -25.5t-25.5 -65.5v-1808h-117zM837 1850v150h116v-150h-116z" glyph-name="m_i.liga" horiz-adv-x="993" unicode="mi"/><glyph d="M827 -71v1821h116v-1821q0 -89 -59.5 -148.5t-148.5 -59.5t-148.5 59.5t-59.5 148.5h116q0 -40 26 -66t66 -26t66 26t26 66zM40 0v1808q0 88 60 148t148 60q91 0 150 -61q61 61 150 61t149 -59.5t60 -148.5v-1808h-117v1808q0 40 -26 65.5t-66 25.5t-65.5 -25.5 t-25.5 -65.5v-1808h-117v1808q0 40 -26 65.5t-66 25.5t-65.5 -25.5t-25.5 -65.5v-1808h-117zM827 1850v150h116v-150h-116z" glyph-name="m_j.liga" horiz-adv-x="983" unicode="mj"/><glyph d="M1427 0v1808q0 40 -26 65.5t-66 25.5t-66 -25.5t-26 -65.5v-1150h-116v1150q0 40 -26 65.5t-66 25.5t-66 -25.5t-26 -65.5v-1522h-116v1522q0 89 59.5 148.5t148.5 59.5q91 0 150 -61q59 61 150 61q89 0 148.5 -59.5t59.5 -148.5v-1808h-116zM40 0v1808q0 88 60 148 t148 60q91 0 150 -61q61 61 150 61t149 -59.5t60 -148.5v-1522q0 -80 52.5 -132.5t132.5 -52.5t132.5 52.5t52.5 132.5v303h116v-303q0 -129 -86.5 -215.5t-214.5 -86.5q-129 0 -215.5 86.5t-86.5 215.5v1522q0 40 -26 65.5t-66 25.5t-65.5 -25.5t-25.5 -65.5v-1808h-117 v1808q0 40 -26 65.5t-66 25.5t-65.5 -25.5t-25.5 -65.5v-1808h-117z" glyph-name="m_m.liga" horiz-adv-x="1583" unicode="mm"/><glyph d="M1127 0v1808q0 40 -26 65.5t-66 25.5t-66 -25.5t-26 -65.5v-1621h-116v1621q0 89 59.5 148.5t148.5 59.5t148.5 -59.5t59.5 -148.5v-1808h-116zM40 0v1808q0 88 60 148t148 60q91 0 150 -61q61 61 150 61t149 -59.5t60 -148.5v-1600q0 -40 25.5 -65.5t65.5 -25.5h129 v-117h-129q-88 0 -148 60t-60 148v1600q0 40 -26 65.5t-66 25.5t-65.5 -25.5t-25.5 -65.5v-1808h-117v1808q0 40 -26 65.5t-66 25.5t-65.5 -25.5t-25.5 -65.5v-1808h-117z" glyph-name="m_n.liga" horiz-adv-x="1283" unicode="mn"/><glyph d="M837 141v1859h208q89 0 148.5 -59.5t59.5 -148.5v-109q0 -89 -59.5 -148.5t-148.5 -59.5h-92v-1334q0 -67 -45 -112t-111 -45q-67 0 -112 45t-45 112v1650q0 47 -26 77.5t-66 30.5t-65.5 -30.5t-25.5 -77.5v-1791h-117v1791q0 47 -26 77.5t-66 30.5t-65.5 -30.5 t-25.5 -77.5v-1791h-117v1791q0 97 59.5 161t148.5 64q90 0 150 -66q61 66 150 66t149 -64t60 -161v-1650q0 -17 11.5 -28.5t28.5 -11.5t28.5 11.5t11.5 28.5zM953 1592h92q40 0 66 25.5t26 65.5v109q0 40 -26 65.5t-66 25.5h-92v-291z" glyph-name="m_p.liga" horiz-adv-x="1263" unicode="mp"/><glyph d="M837 141v1859h208q89 0 148.5 -59.5t59.5 -148.5v-92q0 -91 -61 -150q61 -59 61 -150v-1400h-116v1400q0 40 -26 66t-66 26h-92v-1351q0 -67 -45 -112t-111 -45q-67 0 -112 45t-45 112v1667q0 40 -26 65.5t-66 25.5t-65.5 -25.5t-25.5 -65.5v-1808h-117v1808 q0 40 -26 65.5t-66 25.5t-65.5 -25.5t-25.5 -65.5v-1808h-117v1808q0 88 60 148t148 60q91 0 150 -61q61 61 150 61t149 -59.5t60 -148.5v-1667q0 -17 11.5 -28.5t28.5 -11.5t28.5 11.5t11.5 28.5zM953 1608h92q40 0 66 26t26 66v92q0 40 -26 65.5t-66 25.5h-92v-275z" glyph-name="m_r.liga" horiz-adv-x="1283" unicode="mr"/><glyph d="M340 0v1808q0 40 -26 65.5t-66 25.5t-65.5 -25.5t-25.5 -65.5v-1808h-117v1808q0 88 60 148t148 60q91 0 150 -61q61 61 150 61t149 -59.5t60 -148.5v-1672q0 -15 10 -25t25 -10t25 10t10 25v1111q0 112 89 173q-89 61 -89 173v407h116v-407q0 -40 26 -65.5t66 -25.5 t66 25.5t26 65.5v407h116v-407q0 -112 -89 -173q89 -61 89 -173v-1247h-116v1247q0 40 -26 65.5t-66 25.5t-66 -25.5t-26 -65.5v-1111q0 -64 -43.5 -108t-107.5 -44t-108 44t-44 108v1672q0 40 -26 65.5t-66 25.5t-65.5 -25.5t-25.5 -65.5v-1808h-117z" glyph-name="m_x.liga" horiz-adv-x="1273" unicode="mx"/><glyph d="M340 0v1808q0 40 -26 65.5t-66 25.5t-65.5 -25.5t-25.5 -65.5v-1808h-117v1808q0 88 60 148t148 60q91 0 150 -61q61 61 150 61t149 -59.5t60 -148.5v-1607q0 -43 28.5 -71.5t71.5 -28.5t71.5 28.5t28.5 71.5v1182q-67 20 -108.5 79t-41.5 138v400h116v-400 q0 -47 26 -77.5t66 -30.5t66 30.5t26 77.5v400h116v-400q0 -79 -41.5 -138t-108.5 -79v-1182q0 -92 -62 -154.5t-154 -62.5t-154.5 62.5t-62.5 154.5v1607q0 40 -26 65.5t-66 25.5t-65.5 -25.5t-25.5 -65.5v-1808h-117z" glyph-name="m_y.liga" horiz-adv-x="1233" unicode="my"/><glyph d="M40 0v2000h395q89 0 148.5 -59.5t59.5 -148.5v-75q0 -89 -59.5 -149t-148.5 -60h-278v-1508h-117zM157 1625h278q40 0 66 26t26 66v75q0 40 -26 65.5t-66 25.5h-278v-258zM227 0v1247q0 89 59.5 148.5t148.5 59.5t148.5 -59.5t59.5 -148.5v-1247h-116v798h-184v-798h-116 zM343 914h184v333q0 40 -26 66t-66 26t-66 -26t-26 -66v-333z" glyph-name="p_A.liga" horiz-adv-x="673" unicode="pA"/><glyph d="M40 0v2000h395q89 0 148.5 -59.5t59.5 -148.5v-75q0 -89 -59.5 -149t-148.5 -60h-278v-1508h-117zM157 1625h278q40 0 66 26t26 66v75q0 40 -26 65.5t-66 25.5h-278v-258zM227 0v1438h208q89 0 148.5 -59.5t59.5 -148.5v-225q0 -91 -61 -150q61 -59 61 -150v-497 q0 -89 -59.5 -148.5t-148.5 -59.5h-208zM343 117h92q40 0 66 25.5t26 65.5v497q0 40 -26 66t-66 26h-92v-680zM343 913h92q40 0 66 26t26 66v225q0 40 -26 66t-66 26h-92v-409z" glyph-name="p_B.liga" horiz-adv-x="673" unicode="pB"/><glyph d="M40 0v2000h395q89 0 148.5 -59.5t59.5 -148.5v-75q0 -89 -59.5 -149t-148.5 -60h-278v-1508h-117zM157 1625h278q40 0 66 26t26 66v75q0 40 -26 65.5t-66 25.5h-278v-258zM227 192v1049q0 89 59.5 148.5t148.5 59.5t148.5 -59.5t59.5 -148.5v-317h-116v317q0 40 -26 66 t-66 26t-66 -26t-26 -66v-1049q0 -40 26 -65.5t66 -25.5t66 25.5t26 65.5v317h116v-317q0 -89 -59.5 -148.5t-148.5 -59.5t-148.5 59.5t-59.5 148.5z" glyph-name="p_C.liga" horiz-adv-x="663" unicode="pC"/><glyph d="M40 0v2000h395q89 0 148.5 -59.5t59.5 -148.5v-75q0 -89 -59.5 -149t-148.5 -60h-278v-1508h-117zM157 1625h278q40 0 66 26t26 66v75q0 40 -26 65.5t-66 25.5h-278v-258zM227 0v1438h208q89 0 148.5 -59.5t59.5 -148.5v-1022q0 -89 -59.5 -148.5t-148.5 -59.5h-208z M343 117h92q40 0 66 25.5t26 65.5v1022q0 40 -26 66t-66 26h-92v-1205z" glyph-name="p_D.liga" horiz-adv-x="673" unicode="pD"/><glyph d="M40 0v2000h355q89 0 148.5 -59.5t59.5 -148.5v-75q0 -89 -59.5 -149t-148.5 -60h-238v-1508h-117zM157 1625h238q40 0 66 26t26 66v75q0 40 -26 65.5t-66 25.5h-238v-258zM227 0v1438h376v-116h-260v-409h220v-116h-220v-680h260v-117h-376z" glyph-name="p_E.liga" horiz-adv-x="623" unicode="pE"/><glyph d="M40 0v2000h355q89 0 148.5 -59.5t59.5 -148.5v-75q0 -89 -59.5 -149t-148.5 -60h-238v-1508h-117zM157 1625h238q40 0 66 26t26 66v75q0 40 -26 65.5t-66 25.5h-238v-258zM227 0v1438h376v-116h-260v-409h220v-116h-220v-797h-116z" glyph-name="p_F.liga" horiz-adv-x="613" unicode="pF"/><glyph d="M40 0v2000h395q89 0 148.5 -59.5t59.5 -148.5v-75q0 -89 -59.5 -149t-148.5 -60h-278v-1508h-117zM157 1625h278q40 0 66 26t26 66v75q0 40 -26 65.5t-66 25.5h-278v-258zM227 192v1049q0 89 59.5 148.5t148.5 59.5t148.5 -59.5t59.5 -148.5v-317h-116v317q0 40 -26 66 t-66 26t-66 -26t-26 -66v-1049q0 -40 26 -65.5t66 -25.5t66 25.5t26 65.5v300h-92v117h208v-417q0 -89 -59.5 -148.5t-148.5 -59.5t-148.5 59.5t-59.5 148.5z" glyph-name="p_G.liga" horiz-adv-x="663" unicode="pG"/><glyph d="M40 0v2000h395q89 0 148.5 -59.5t59.5 -148.5v-75q0 -89 -59.5 -149t-148.5 -60h-278v-1508h-117zM157 1625h278q40 0 66 26t26 66v75q0 40 -26 65.5t-66 25.5h-278v-258zM227 0v1438h116v-530h184v530h116v-1438h-116v792h-184v-792h-116z" glyph-name="p_H.liga" horiz-adv-x="683" unicode="pH"/><glyph d="M40 0v2000h192q88 0 148 -60t60 -148v-75q0 -89 -59.5 -149t-148.5 -60h-75v-1508h-117zM157 1625h75q40 0 65.5 26t25.5 66v75q0 40 -25.5 65.5t-65.5 25.5h-75v-258zM227 0v1438h116v-1438h-116z" glyph-name="p_I.liga" horiz-adv-x="480" unicode="pI"/><glyph d="M123 0v2000h192q89 0 148.5 -59.5t59.5 -148.5v-75q0 -89 -59.5 -149t-148.5 -60h-75v-1508h-117zM10 -70h117q0 -40 25.5 -66t65.5 -26t66 26t26 66v1508h117v-1508q0 -89 -60 -148.5t-149 -59.5t-148.5 59.5t-59.5 148.5zM240 1625h75q40 0 66 26t26 66v75 q0 40 -26 65.5t-66 25.5h-75v-258z" glyph-name="p_J.liga" horiz-adv-x="553" unicode="pJ"/><glyph d="M40 0v2000h395q89 0 148.5 -59.5t59.5 -148.5v-75q0 -89 -59.5 -149t-148.5 -60h-278v-1508h-117zM157 1625h278q40 0 66 26t26 66v75q0 40 -26 65.5t-66 25.5h-278v-258zM227 0v1438h116v-525h92q40 0 66 26t26 66v433h116v-433q0 -91 -61 -150q61 -59 61 -150v-705 h-116v705q0 40 -26 66t-66 26h-92v-797h-116z" glyph-name="p_K.liga" horiz-adv-x="683" unicode="pK"/><glyph d="M40 0v2000h208q89 0 149 -59.5t60 -148.5v-75q0 -89 -60 -149t-149 -60h-91v-1508h-117zM157 1625h91q40 0 66 26t26 66v75q0 40 -26 65.5t-66 25.5h-91v-258zM227 0v1438h116v-1321h260v-117h-376z" glyph-name="p_L.liga" horiz-adv-x="613" unicode="pL"/><glyph d="M527 633l-184 494v-1127h-116v1438h116l242 -649l242 649h116v-1438h-116v1127l-184 -494h-116zM40 0v2000h695q89 0 148.5 -59.5t59.5 -148.5v-75q0 -89 -59.5 -149t-148.5 -60h-578v-1508h-117zM157 1625h578q40 0 66 26t26 66v75q0 40 -26 65.5t-66 25.5h-578v-258z " glyph-name="p_M.liga" horiz-adv-x="983" unicode="pM"/><glyph d="M40 0v2000h395q89 0 148.5 -59.5t59.5 -148.5v-75q0 -89 -59.5 -149t-148.5 -60h-278v-1508h-117zM157 1625h278q40 0 66 26t26 66v75q0 40 -26 65.5t-66 25.5h-278v-258zM227 0v1438h116l184 -307v307h116v-1438h-116v938l-184 307v-1245h-116z" glyph-name="p_N.liga" horiz-adv-x="683" unicode="pN"/><glyph d="M40 0v2000h395q89 0 148.5 -59.5t59.5 -148.5v-75q0 -89 -59.5 -149t-148.5 -60h-278v-1508h-117zM157 1625h278q40 0 66 26t26 66v75q0 40 -26 65.5t-66 25.5h-278v-258zM227 192v1049q0 89 59.5 148.5t148.5 59.5t148.5 -59.5t59.5 -148.5v-1049q0 -89 -59.5 -148.5 t-148.5 -59.5t-148.5 59.5t-59.5 148.5zM343 192q0 -40 26 -65.5t66 -25.5t66 25.5t26 65.5v1049q0 40 -26 66t-66 26t-66 -26t-26 -66v-1049z" glyph-name="p_O.liga" horiz-adv-x="673" unicode="pO"/><glyph d="M40 0v2000h395q89 0 148.5 -59.5t59.5 -148.5v-75q0 -89 -59.5 -149t-148.5 -60h-278v-1508h-117zM157 1625h278q40 0 66 26t26 66v75q0 40 -26 65.5t-66 25.5h-278v-258zM227 0v1438h208q89 0 148.5 -59.5t59.5 -148.5v-208q0 -89 -59.5 -149t-148.5 -60h-92v-813h-116z M343 930h92q40 0 66 26t26 66v208q0 40 -26 66t-66 26h-92v-392z" glyph-name="p_P.liga" horiz-adv-x="653" unicode="pP"/><glyph d="M40 0v2000h395q89 0 148.5 -59.5t59.5 -148.5v-75q0 -89 -59.5 -149t-148.5 -60h-278v-1508h-117zM157 1625h278q40 0 66 26t26 66v75q0 40 -26 65.5t-66 25.5h-278v-258zM227 192v1049q0 89 59.5 148.5t148.5 59.5t148.5 -59.5t59.5 -148.5v-1049q0 -73 -41.5 -127.5 t-108.5 -72.5v-192h-116v192q-67 18 -108.5 72.5t-41.5 127.5zM343 192q0 -40 26 -65.5t66 -25.5t66 25.5t26 65.5v1049q0 40 -26 66t-66 26t-66 -26t-26 -66v-1049z" glyph-name="p_Q.liga" horiz-adv-x="673" unicode="pQ"/><glyph d="M40 0v2000h395q89 0 148.5 -60.5t59.5 -151.5v-75q0 -87 -59.5 -146t-148.5 -59h-278v-1508h-117zM157 1625h278q40 0 66 25t26 63v75q0 41 -26 68t-66 27h-278v-258zM227 0v1438h208q89 0 148.5 -59.5t59.5 -148.5v-192q0 -89 -61 -150q61 -59 61 -150v-738h-116v738 q0 40 -26 66t-66 26h-92v-830h-116zM343 947h92q40 0 66 25.5t26 65.5v192q0 40 -26 66t-66 26h-92v-375z" glyph-name="p_R.liga" horiz-adv-x="673" unicode="pR"/><glyph d="M40 0v2000h395q89 0 148.5 -59.5t59.5 -148.5v-75q0 -89 -59.5 -149t-148.5 -60h-278v-1508h-117zM157 1625h278q40 0 66 26t26 66v75q0 40 -26 65.5t-66 25.5h-278v-258zM227 192v217h116v-217q0 -40 26 -65.5t66 -25.5t66 25.5t26 65.5v391q0 40 -26 66t-66 26 q-89 0 -148.5 59.5t-59.5 148.5v358q0 89 59.5 148.5t148.5 59.5t148.5 -59.5t59.5 -148.5v-217h-116v217q0 40 -26 66t-66 26t-66 -26t-26 -66v-358q0 -40 26 -65.5t66 -25.5q89 0 148.5 -60t59.5 -149v-391q0 -89 -59.5 -148.5t-148.5 -59.5t-148.5 59.5t-59.5 148.5z" glyph-name="p_S.liga" horiz-adv-x="673" unicode="pS"/><glyph d="M527 0v1883h-487v117h753v-117h-150v-1883h-116zM40 0v1813h208q89 0 149 -59.5t60 -148.5v-108q0 -89 -60 -149t-149 -60h-91v-1288h-117zM157 1405h91q40 0 66 26t26 66v108q0 40 -26 66t-66 26h-91v-292z" glyph-name="p_T.liga" horiz-adv-x="803" unicode="pT"/></font>
</defs>
</svg>
