<?xml version="1.0" standalone="no"?>
<!DOCTYPE svg PUBLIC "-//W3C//DTD SVG 1.1//EN" "http://www.w3.org/Graphics/SVG/1.1/DTD/svg11.dtd">
<svg version="1.1" xmlns="http://www.w3.org/2000/svg" xmlns:xlink="http://www.w3.org/1999/xlink"><metadata>This SVG WebFont was generated by YouWorkForThem.
</metadata><defs><font horiz-adv-x="510" id="ywftsvg"><font-face ascent="800" bbox="-85 -400 1810 2495" cap-height="2000" descent="-200" font-family="" font-stretch="normal" font-weight="400" panose-1="0 0 0 0 0 0 0 0 0 0" underline-position="0" underline-thickness="0" unicode-range="U+0020-A78C" units-per-em="1000" x-height="2000"/><missing-glyph d="M1025 2200v-2500h-792v2500h792zM418 -127h415v82h-255l175 118h80v82h-415v-82h175l-175 -118v-82zM418 213h415v282h-415v-282zM418 645h415v283h-250v-140h85v57h82v-117h-250v200h-82v-283zM418 983h415v250h-83v-165h-332v-85zM418 1125h250v175h165v83h-415v-83 h165v-92h-165v-83zM418 1450h415v85h-165v175h-250v-260zM418 1775h415v83h-165v92h165v83h-413v-83h163v-92h-165v-83zM500 295v118h250v-118h-250zM500 1535v90h83v-90h-83z" horiz-adv-x="1250"/><glyph d="M665 -16q-139 0 -237 98t-98 237v756h-150v-1075h-150v1791q0 93 66 159t159 66t159 -66t66 -159v-1472q0 -90 70 -145v1826h225q93 0 159 -66t66 -159v-475q0 -85 -57 -150q57 -65 57 -150v-681q0 -139 -98 -237t-237 -98zM180 1225h150v566q0 31 -22 53t-53 22t-53 -22 t-22 -53v-566zM700 137q64 13 107 64t43 118v681q0 31 -22 53t-53 22h-75v-938zM700 1225h75q31 0 53 22t22 53v475q0 31 -22 53t-53 22h-75v-625z" glyph-name="A_B.liga" horiz-adv-x="1030" unicode="AB"/><glyph d="M660 -16q-137 0 -233.5 98t-96.5 237v756h-150v-1075h-150v1791q0 93 66 159t159 66t159 -66t66 -159v-1472q0 -81 60 -136v1608q0 93 66 159t159 66t159 -66t66 -159v-500h-150v500q0 31 -22 53t-53 22t-53 -22t-22 -53v-1651q64 11 107 61t43 118v390h150v-390 q0 -139 -96.5 -237t-233.5 -98zM180 1225h150v566q0 31 -22 53t-53 22t-53 -22t-22 -53v-566z" glyph-name="A_C.liga" horiz-adv-x="1010" unicode="AC"/><glyph d="M30 1791q0 93 66 159t159 66t159 -66t66 -159v-1566q0 -31 22 -53t53 -22h220q31 0 53 22t22 53v1550q0 31 -22 53t-53 22h-75v-1625h-150v1775h225q93 0 159 -66t66 -159v-1550q0 -93 -66 -159t-159 -66h-220q-93 0 -159 66t-66 159v850h-150v-1075h-150v1791zM180 1225 h150v566q0 31 -22 53t-53 22t-53 -22t-22 -53v-566z" glyph-name="A_D.liga" horiz-adv-x="1030" unicode="AD"/><glyph d="M30 1791q0 93 66 159t159 66t159 -66t66 -159v-566h70v775h410v-150h-260v-625h220v-150h-220v-850h-150v850h-70v-850q0 -31 22 -53t53 -22h405v-150h-405q-93 0 -159 66t-66 159v850h-150v-1075h-150v1791zM180 1225h150v566q0 31 -22 53t-53 22t-53 -22t-22 -53v-566z " glyph-name="A_E.liga" horiz-adv-x="980" unicode="AE"/><glyph d="M30 1791q0 93 66 159t159 66t159 -66t66 -159v-566h70v775h410v-150h-260v-625h220v-150h-220v-1075h-150q-92 2 -156 68t-64 157v850h-150v-1075h-150v1791zM180 1225h150v566q0 31 -22 53t-53 22t-53 -22t-22 -53v-566zM480 225q0 -29 20.5 -51t49.5 -24v925h-70v-850z " glyph-name="A_F.liga" horiz-adv-x="970" unicode="AF"/><glyph d="M663 -16q-138 0 -235.5 97.5t-97.5 235.5v242h-150v-559h-150v1791q0 93 66 159t159 66t159 -66t66 -159v-1082h65v1082q0 93 66 159t159 66t159 -66t66 -159v-500h-150v500q0 31 -22 53t-53 22t-53 -22t-22 -53v-1082h300v-392q0 -138 -97.5 -235.5t-234.5 -97.5z M180 709h150v1082q0 31 -22 53t-53 22t-53 -22t-22 -53v-1082zM480 317q0 -85 65 -140v382h-65v-242zM695 137q64 11 107 62t43 118v242h-150v-422z" glyph-name="A_G.liga" horiz-adv-x="1015" unicode="AG"/><glyph d="M665 -16q-139 0 -237 98t-98 237v756h-150v-1075h-150v1791q0 93 66 159t159 66t159 -66t66 -159v-566h70v775h150v-775h150v775h150v-1681q0 -139 -98 -237t-237 -98zM180 1225h150v566q0 31 -22 53t-53 22t-53 -22t-22 -53v-566zM480 319q0 -77 54 -131t131 -54t131 54 t54 131v756h-150v-756h-150v756h-70v-756z" glyph-name="A_H.liga" horiz-adv-x="1040" unicode="AH"/><glyph d="M330 169v906h-150v-1075h-150v1791q0 93 66 159t159 66t159 -66t66 -159v-1622q0 -15 10 -25t25 -10t25 10t10 25v1831h150v-1831q0 -77 -54 -131t-131 -54t-131 54t-54 131zM180 1225h150v566q0 31 -22 53t-53 22t-53 -22t-22 -53v-566z" glyph-name="A_I.liga" horiz-adv-x="740" unicode="AI"/><glyph d="M555 -16q-93 0 -159 66t-66 159h150q0 -31 22 -53t53 -22t53 22t22 53v1791h150v-1791q0 -93 -66 -159t-159 -66zM30 0v1791q0 93 66 159t159 66t159 -66t66 -159v-1512h-150v796h-150v-1075h-150zM180 1225h150v566q0 31 -22 53t-53 22t-53 -22t-22 -53v-566z" glyph-name="A_J.liga" horiz-adv-x="810" unicode="AJ"/><glyph d="M30 1791q0 93 66 159t159 66t159 -66t66 -159v-566h70v775h150v-775h75q31 0 53 22t22 53v700h150v-700q0 -85 -57 -150q57 -65 57 -150v-1000h-150v1000q0 31 -22 53t-53 22h-75v-906q0 -77 -54 -131t-131 -54t-131 54t-54 131v906h-150v-1075h-150v1791zM180 1225h150 v566q0 31 -22 53t-53 22t-53 -22t-22 -53v-566zM480 169q0 -15 10 -25t25 -10t25 10t10 25v906h-70v-906z" glyph-name="A_K.liga" horiz-adv-x="1040" unicode="AK"/><glyph d="M30 1791q0 93 66 159t159 66t159 -66t66 -159v-1566q0 -29 20.5 -51t49.5 -24v1850h150v-1850h260v-150h-405q-93 0 -159 66t-66 159v850h-150v-1075h-150v1791zM180 1225h150v566q0 31 -22 53t-53 22t-53 -22t-22 -53v-566z" glyph-name="A_L.liga" horiz-adv-x="970" unicode="AL"/><glyph d="M30 1791q0 93 66 159t159 66t159 -66t66 -159v-1566q0 -29 20.5 -51t49.5 -24v1850h150v-1850h480v-150h-633q-90 3 -153.5 68.5t-63.5 156.5v850h-150v-1075h-150v1791zM180 1225h150v566q0 31 -22 53t-53 22t-53 -22t-22 -53v-566zM770 220v1780h150v-1630h260v-150 h-410z" glyph-name="A_L_L.liga" horiz-adv-x="1190" unicode="ALL"/><glyph d="M30 1791q0 93 66 159t159 66t159 -66t66 -159v-1566q0 -31 22 -53t53 -22h525v-150h-525q-93 0 -159 66t-66 159v850h-150v-1075h-150v1791zM180 1225h150v566q0 31 -22 53t-53 22t-53 -22t-22 -53v-566zM550 225v1775h150l225 -825l225 825h150v-2000h-150v1450 l-150 -550h-150l-150 550v-1225h-150z" glyph-name="A_M.liga" horiz-adv-x="1340" unicode="AM"/><glyph d="M30 1791q0 93 66 159t159 66t159 -66t66 -159v-1566q0 -31 22 -53t53 -22h226v-150h-226q-93 0 -159 66t-66 159v850h-150v-1075h-150v1791zM180 1225h150v566q0 31 -22 53t-53 22t-53 -22t-22 -53v-566zM550 225v1775h150l150 -250v250h150v-2000h-150v1500l-150 250 v-1525h-150z" glyph-name="A_N.liga" horiz-adv-x="1040" unicode="AN"/><glyph d="M30 1791q0 93 66 159t159 66t159 -66t66 -159v-1566q0 -31 22 -53t53 -22h515v1850h225q93 0 159 -66t66 -159v-1550q0 -93 -66 -159t-159 -66h-740q-93 0 -159 66t-66 159v850h-150v-1075h-150v1791zM180 1225h150v566q0 31 -22 53t-53 22t-53 -22t-22 -53v-566z M550 220v1780h150l150 -250v250h150v-1780h-150v1280l-150 250v-1530h-150zM1220 150h75q31 0 53 22t22 53v1550q0 31 -22 53t-53 22h-75v-1700z" glyph-name="A_N_D.liga" horiz-adv-x="1550" unicode="AND"/><glyph d="M30 1791q0 93 66 159t159 66t159 -66t66 -159v-1566q0 -31 22 -53t53 -22h445q92 0 156 64t64 156v618q-66 24 -108 82t-42 130v800h150v-800q0 -31 22 -53t53 -22t53 22t22 53v800h150v-800q0 -72 -42 -130t-108 -82v-618q0 -153 -108.5 -261.5t-261.5 -108.5h-445 q-93 0 -159 66t-66 159v850h-150v-1075h-150v1791zM180 1225h150v566q0 31 -22 53t-53 22t-53 -22t-22 -53v-566zM550 220v1780h150l150 -250v250h150v-1780h-150v1280l-150 250v-1530h-150z" glyph-name="A_N_Y.liga" horiz-adv-x="1530" unicode="ANY"/><glyph d="M660 -16q-136 0 -233 97t-97 233v761h-150v-1075h-150v1791q0 93 66 159t159 66t159 -66t66 -159v-1477q0 -80 60 -134v1611q0 93 66 159t159 66t159 -66t66 -159v-1477q0 -136 -97 -233t-233 -97zM180 1225h150v566q0 31 -22 53t-53 22t-53 -22t-22 -53v-566zM690 137 q64 11 107 61t43 116v1477q0 31 -22 53t-53 22t-53 -22t-22 -53v-1654z" glyph-name="A_O.liga" horiz-adv-x="1020" unicode="AO"/><glyph d="M515 -16q-77 0 -131 54t-54 131v906h-150v-1075h-150v1791q0 93 66 159t159 66t159 -66t66 -159v-1622q0 -15 10 -25t25 -10t25 10t10 25v1831h225q93 0 159 -66t66 -159v-475q0 -93 -66 -159t-159 -66h-75v-906q0 -77 -54 -131t-131 -54zM180 1225h150v566q0 31 -22 53 t-53 22t-53 -22t-22 -53v-566zM700 1225h75q31 0 53 22t22 53v475q0 31 -22 53t-53 22h-75v-625z" glyph-name="A_P.liga" horiz-adv-x="1010" unicode="AP"/><glyph d="M30 0v1791q0 93 66 159t159 66t159 -66t66 -159v-1477q0 -80 60 -134v1611q0 93 66 159t159 66t159 -66t66 -159v-1477q0 -86 -40.5 -159t-109.5 -117v-238h-150v185q-10 -1 -30 -1q-136 0 -233 97t-97 233v761h-150v-1075h-150zM180 1225h150v566q0 31 -22 53t-53 22 t-53 -22t-22 -53v-566zM690 137q64 11 107 61t43 116v1477q0 31 -22 53t-53 22t-53 -22t-22 -53v-1654z" glyph-name="A_Q.liga" horiz-adv-x="1020" unicode="AQ"/><glyph d="M30 0v1791q0 93 66 159t159 66t159 -66t66 -159v-1472q0 -77 54 -131t131 -54t131 54t54 131v681q0 31 -22 53t-53 22h-75v-756h-150v1681h225q93 0 159 -66t66 -159v-475q0 -85 -57 -150q57 -65 57 -150v-681q0 -139 -98 -237t-237 -98t-237 98t-98 237v756h-150v-1075 h-150zM180 1225h150v566q0 31 -22 53t-53 22t-53 -22t-22 -53v-566zM700 1225h75q31 0 53 22t22 53v475q0 31 -22 53t-53 22h-75v-625z" glyph-name="A_R.liga" horiz-adv-x="1030" unicode="AR"/><glyph d="M665 -16q-139 0 -237 98t-98 237v756h-150v-1075h-150v1791q0 93 66 159t159 66t159 -66t66 -159v-1472q0 -77 54 -131t131 -54t131 54t54 131v681q0 31 -22 53t-53 22h-75v-756h-150v1681h225q93 0 159 -66t66 -159v-475q0 -85 -57 -150q57 -65 57 -150v-665 q0 -90 70 -145v1810h225q93 0 159 -66t66 -159v-1550q0 -93 -66 -159t-159 -66h-110q-74 0 -140 31t-113 85q-48 -61 -117.5 -96.5t-149.5 -35.5zM180 1225h150v566q0 31 -22 53t-53 22t-53 -22t-22 -53v-566zM700 1225h75q31 0 53 22t22 53v475q0 31 -22 53t-53 22h-75 v-625zM1220 150h75q31 0 53 22t22 53v1550q0 31 -22 53t-53 22h-75v-1700z" glyph-name="A_R_D.liga" horiz-adv-x="1550" unicode="ARD"/><glyph d="M30 0v1791q0 93 66 159t159 66t159 -66t66 -159v-1472q0 -77 54 -131t131 -54t131 54t54 131v681q0 31 -22 53t-53 22h-75v-756h-150v1681h225q93 0 159 -66t66 -159v-475q0 -85 -57 -150q57 -65 57 -150v-665q0 -77 54 -131t131 -54h295v-150h-295q-74 0 -140 31 t-113 85q-48 -61 -117.5 -96.5t-149.5 -35.5q-139 0 -237 98t-98 237v756h-150v-1075h-150zM180 1225h150v566q0 31 -22 53t-53 22t-53 -22t-22 -53v-566zM700 1225h75q31 0 53 22t22 53v475q0 31 -22 53t-53 22h-75v-625zM1070 220v1780h410v-150h-260v-625h220v-150h-220 v-705h260v-150h-410z" glyph-name="A_R_E.liga" horiz-adv-x="1500" unicode="ARE"/><glyph d="M30 0v1791q0 93 66 159t159 66t159 -66t66 -159v-1012h-150v296h-150v-1075h-150zM180 1225h150v566q0 31 -22 53t-53 22t-53 -22t-22 -53v-566zM330 314v395h150v-395q0 -74 53 -127t127 -53t127 53t53 127v536q0 31 -22 53t-53 22q-93 0 -159 66t-66 159v641 q0 93 66 159t159 66t159 -66t66 -159v-500h-150v500q0 31 -22 53t-53 22t-53 -22t-22 -53v-641q0 -31 22 -53t53 -22q93 0 159 -66t66 -159v-536q0 -136 -97 -233t-233 -97t-233 97t-97 233z" glyph-name="A_S.liga" horiz-adv-x="1020" unicode="AS"/><glyph d="M30 0v1791q0 93 66 159t159 66t159 -66t66 -159v-1562q0 -39 28 -67t67 -28t67 28t28 67v1621h-150v150h450v-150h-150v-1621q0 -101 -72 -173t-173 -72t-173 72t-72 173v846h-150v-1075h-150zM180 1225h150v566q0 31 -22 53t-53 22t-53 -22t-22 -53v-566z" glyph-name="A_T.liga" horiz-adv-x="980" unicode="AT"/><glyph d="M30 0v1791q0 93 66 159t159 66t159 -66t66 -159v-1566q0 -31 22 -53t53 -22h445v-150h-445q-93 0 -159 66t-66 159v850h-150v-1075h-150zM180 1225h150v566q0 31 -22 53t-53 22t-53 -22t-22 -53v-566zM550 439v1561h150v-1561q0 -31 22 -53t53 -22t53 22t22 53v1561h150 v-1561q0 -93 -66 -159t-159 -66t-159 66t-66 159z" glyph-name="A_U.liga" horiz-adv-x="1030" unicode="AU"/><glyph d="M620 225l-100 1775h150l65 -1151l4 -436h12l4 436l65 1151h150l-100 -1775h-250zM30 1791q0 93 66 159t159 66t159 -66t66 -159v-1566q0 -31 22 -53t53 -22h415v-150h-415q-93 0 -159 66t-66 159v850h-150v-1075h-150v1791zM180 1225h150v566q0 31 -22 53t-53 22t-53 -22 t-22 -53v-566z" glyph-name="A_V.liga" horiz-adv-x="980" unicode="AV"/><glyph d="M930 209v1791h150v-1791q0 -93 -66 -159t-159 -66q-85 0 -150 57q-65 -57 -150 -57q-93 0 -159 66t-66 159v491h150v-491q0 -31 22 -53t53 -22t53 22t22 53v1791h150v-1791q0 -31 22 -53t53 -22t53 22t22 53zM30 0v1791q0 93 66 159t159 66t159 -66t66 -159v-991h-150 v275h-150v-1075h-150zM180 1225h150v566q0 31 -22 53t-53 22t-53 -22t-22 -53v-566z" glyph-name="A_W.liga" horiz-adv-x="1110" unicode="AW"/><glyph d="M30 0v1791q0 93 66 159t159 66t159 -66t66 -159v-1627q0 -12 9 -21t21 -9t21 9t9 21v666q0 57 26 105.5t71 79.5q-45 31 -71 79.5t-26 105.5v800h150v-800q0 -31 22 -53t53 -22t53 22t22 53v800h150v-800q0 -57 -26 -105.5t-71 -79.5q45 -31 71 -79.5t26 -105.5v-830 h-150v830q0 31 -22 53t-53 22t-53 -22t-22 -53v-666q0 -74 -53 -127t-127 -53t-127 53t-53 127v911h-150v-1075h-150zM180 1225h150v566q0 31 -22 53t-53 22t-53 -22t-22 -53v-566z" glyph-name="A_X.liga" horiz-adv-x="1020" unicode="AX"/><glyph d="M30 0v1791q0 93 66 159t159 66t159 -66t66 -159v-1477q0 -74 53 -127t127 -53t127 53t53 127v516q0 31 -22 53t-53 22t-53 -22t-22 -53v-516h-150v516q0 57 26 105.5t71 79.5q-45 31 -71 79.5t-26 105.5v800h150v-800q0 -31 22 -53t53 -22t53 22t22 53v800h150v-800 q0 -57 -26 -105.5t-71 -79.5q45 -31 71 -79.5t26 -105.5v-516q0 -136 -97 -233t-233 -97t-233 97t-97 233v761h-150v-1075h-150zM180 1225h150v566q0 31 -22 53t-53 22t-53 -22t-22 -53v-566z" glyph-name="A_X_one.liga" horiz-adv-x="1020" unicode="AX1"/><glyph d="M30 0v1791q0 93 66 159t159 66t159 -66t66 -159v-1562q0 -39 28 -67t67 -28t67 28t28 67v759q-66 24 -108 82t-42 130v800h150v-800q0 -31 22 -53t53 -22t53 22t22 53v800h150v-800q0 -72 -42 -130t-108 -82v-759q0 -101 -72 -173t-173 -72t-173 72t-72 173v846h-150 v-1075h-150zM180 1225h150v566q0 31 -22 53t-53 22t-53 -22t-22 -53v-566z" glyph-name="A_Y.liga" horiz-adv-x="980" unicode="AY"/><glyph d="M555 0q-93 0 -159 66t-66 159v850h-150v-1075h-150v1791q0 93 66 159t159 66t159 -66t66 -159v-1566q0 -30 21.5 -52t50.5 -23l255 1700h-277v150h450l-277 -1850h277v-150h-425zM180 1225h150v566q0 31 -22 53t-53 22t-53 -22t-22 -53v-566z" glyph-name="A_Z.liga" horiz-adv-x="1000" unicode="AZ"/><glyph d="M40 0v2000h225q93 0 159 -66t66 -159v-475q0 -85 -57 -150q57 -65 57 -150v-775v-1q0 -38 22 -64t53 -26t53 22t22 53v1791h150v-1791q0 -93 -66 -159t-159 -66t-157 67q-62 -51 -143 -51h-225zM190 150h75q31 0 53 22t22 53v775q0 31 -22 53t-53 22h-75v-925zM190 1225 h75q31 0 53 22t22 53v475q0 31 -22 53t-53 22h-75v-625z" glyph-name="B_J.liga" horiz-adv-x="820" unicode="BJ"/><glyph d="M560 0v1850h-520v150h820v-150h-150v-1850h-150zM40 0v1780h225q93 0 159 -66t66 -159v-375q0 -85 -57 -150q57 -65 57 -150v-655q0 -93 -66 -159t-159 -66h-225zM190 150h75q31 0 53 22t22 53v655q0 31 -22 53t-53 22h-75v-805zM190 1105h75q31 0 53 22t22 53v375 q0 31 -22 53t-53 22h-75v-525z" glyph-name="B_T.liga" horiz-adv-x="870" unicode="BT"/><glyph d="M1080 0v1850h-1040v150h1340v-150h-150v-1850h-150zM40 0v1780h225q93 0 159 -66t66 -159v-365q0 -85 -57 -150q57 -65 57 -150v-665q0 -93 -66 -159t-159 -66h-225zM190 150h75q31 0 53 22t22 53v665q0 31 -22 53t-53 22h-75v-815zM190 1115h75q31 0 53 22t22 53v365 q0 31 -22 53t-53 22h-75v-515zM560 209v1571h150v-1571q0 -31 22 -53t53 -22t53 22t22 53v1571h150v-1571q0 -93 -66 -159t-159 -66t-159 66t-66 159z" glyph-name="B_U_T.liga" horiz-adv-x="1390" unicode="BUT"/><glyph d="M830 0v1075h-150v-296h-150v1012q0 93 66 159t159 66t159 -66t66 -159v-1791h-150zM30 309v1482q0 93 66 159t159 66t159 -66t66 -159v-500h-150v500q0 31 -22 53t-53 22t-53 -22t-22 -53v-1482q0 -73 51 -124t124 -51t124 51t51 124v400h150v-400q0 -134 -95.5 -229.5 t-229.5 -95.5t-229.5 95.5t-95.5 229.5zM680 1225h150v566q0 31 -22 53t-53 22t-53 -22t-22 -53v-566z" glyph-name="C_A.liga" horiz-adv-x="1010" unicode="CA"/><glyph d="M30 314v1477q0 93 66 159t159 66t159 -66t66 -159v-500h-150v500q0 31 -22 53t-53 22t-53 -22t-22 -53v-1477q0 -74 53 -127t127 -53t127 53t53 127v395h150v-395q0 -136 -97 -233t-233 -97t-233 97t-97 233zM540 779v1221h225q93 0 159 -66t66 -159v-475q0 -85 -57 -150 q57 -65 57 -150v-775q0 -93 -66 -159t-159 -66h-50v150h50q31 0 53 22t22 53v775q0 31 -22 53t-53 22h-75v-296h-150zM690 1225h75q31 0 53 22t22 53v475q0 31 -22 53t-53 22h-75v-625z" glyph-name="C_B.liga" horiz-adv-x="1020" unicode="CB"/><glyph d="M30 209v1582q0 93 66 159t159 66t159 -66t66 -159v-100h-150v100q0 31 -22 53t-53 22t-53 -22t-22 -53v-1582q0 -31 22 -53t53 -22t53 22t22 53v100h150v-100q0 -93 -66 -159t-159 -66t-159 66t-66 159zM250 609v782q0 93 66 159t159 66t159 -66t66 -159v-200h-150v200 q0 31 -22 53t-53 22t-53 -22t-22 -53v-782q0 -31 22 -53t53 -22t53 22t22 53v200h150v-200q0 -93 -66 -159t-159 -66t-159 66t-66 159z" glyph-name="C_C.liga" horiz-adv-x="710" unicode="CC"/><glyph d="M30 209v1582q0 93 66 159t159 66t159 -66t66 -159v-100h-150v100q0 31 -22 53t-53 22t-53 -22t-22 -53v-1582q0 -31 22 -53t53 -22t53 22t22 53v100h150v-100q0 -93 -66 -159t-159 -66t-159 66t-66 159zM250 400v1200h225q93 0 159 -66t66 -159v-750q0 -93 -66 -159 t-159 -66h-225zM400 550h75q31 0 53 22t22 53v750q0 31 -22 53t-53 22h-75v-900z" glyph-name="C_D.liga" horiz-adv-x="710" unicode="CD"/><glyph d="M30 314v1477q0 93 66 159t159 66t159 -66t66 -159v-500h-150v500q0 31 -22 53t-53 22t-53 -22t-22 -53v-1477q0 -75 52.5 -127.5t127.5 -52.5t127.5 52.5t52.5 127.5v195h150v-195q0 -70 47 -117t117 -47h96v-150h-96q-143 0 -237 107q-46 -57 -113 -90t-144 -33 q-136 0 -233 97t-97 233zM540 579v1421h410v-150h-260v-625h220v-150h-220v-496h-150z" glyph-name="C_E.liga" horiz-adv-x="970" unicode="CE"/><glyph d="M30 314v1477q0 93 66 159t159 66t159 -66t66 -159v-500h-150v500q0 31 -22 53t-53 22t-53 -22t-22 -53v-1477q0 -75 52.5 -127.5t127.5 -52.5t127.5 52.5t52.5 127.5v195h150v-195q0 -136 -97 -233t-233 -97t-233 97t-97 233zM540 579v1421h410v-150h-260v-625h220v-150 h-220v-496h-150z" glyph-name="C_F.liga" horiz-adv-x="960" unicode="CF"/><glyph d="M30 209v1582q0 93 66 159t159 66t159 -66t66 -159v-500h-150v500q0 31 -22 53t-53 22t-53 -22t-22 -53v-1582q0 -31 22 -53t53 -22t53 22t22 53v500h210v1082q0 93 66 159t159 66t159 -66t66 -159v-500h-150v500q0 31 -22 53t-53 22t-53 -22t-22 -53v-1082h300v-500 q0 -93 -66 -159t-159 -66t-159 66t-66 159v350h-60v-350q0 -93 -66 -159t-159 -66t-159 66t-66 159zM690 209q0 -31 22 -53t53 -22t53 22t22 53v350h-150v-350z" glyph-name="C_G.liga" horiz-adv-x="1010" unicode="CG"/><glyph d="M630 0v1075h-150v-696h-150v1242h150v-396h150v775h150v-2000h-150zM30 209v1582q0 93 66 159t159 66t159 -66t66 -159v-100h-150v100q0 31 -22 53t-53 22t-53 -22t-22 -53v-1582q0 -31 22 -53t53 -22t53 22t22 53v100h150v-100q0 -93 -66 -159t-159 -66t-159 66t-66 159 z" glyph-name="C_H.liga" horiz-adv-x="820" unicode="CH"/><glyph d="M30 314v1477q0 93 66 159t159 66t159 -66t66 -159v-500h-150v500q0 31 -22 53t-53 22t-53 -22t-22 -53v-1477q0 -75 52.5 -127.5t127.5 -52.5t127.5 52.5t52.5 127.5v195h150v-195q0 -136 -97 -233t-233 -97t-233 97t-97 233zM540 579v1421h150v-1421h-150z" glyph-name="C_I.liga" horiz-adv-x="730" unicode="CI"/><glyph d="M475 -16q-121 0 -223.5 59.5t-162 162t-59.5 223.5v1362q0 93 66 159t159 66t159 -66t66 -159v-500h-150v500q0 31 -22 53t-53 22t-53 -22t-22 -53v-1362q0 -122 86.5 -208.5t208.5 -86.5t208.5 86.5t86.5 208.5v280h150v-280q0 -121 -59.5 -223.5t-162 -162 t-223.5 -59.5zM250 429h150q0 -31 22 -53t53 -22t53 22t22 53v1571h150v-1571q0 -93 -66 -159t-159 -66t-159 66t-66 159z" glyph-name="C_J.liga" horiz-adv-x="930" unicode="CJ"/><glyph d="M30 209v1582q0 93 66 159t159 66t159 -66t66 -159v-100h-150v100q0 31 -22 53t-53 22t-53 -22t-22 -53v-1582q0 -31 22 -53t53 -22t53 22t22 53v100h150v-100q0 -93 -66 -159t-159 -66t-159 66t-66 159zM330 379v1242h150v-396h75q31 0 53 22t22 53v700h150v-700 q0 -85 -57 -150q57 -65 57 -150v-1000h-150v1000q0 31 -22 53t-53 22h-75v-696h-150z" glyph-name="C_K.liga" horiz-adv-x="820" unicode="CK"/><glyph d="M455 -16q-176 0 -300.5 124.5t-124.5 300.5v1312q0 122 86.5 208.5t208.5 86.5t208.5 -86.5t86.5 -208.5v-430h-150v430q0 60 -42.5 102.5t-102.5 42.5t-102.5 -42.5t-42.5 -102.5v-1312q0 -114 80.5 -194.5t194.5 -80.5t194.5 80.5t80.5 194.5v300h150v-300 q0 -176 -124.5 -300.5t-300.5 -124.5zM250 310v1456h150v-1306h260v-150h-410z" glyph-name="C_L.liga" horiz-adv-x="890" unicode="CL"/><glyph d="M840 900l-150 550v-871h-150v1421h150l225 -825l225 825h150v-2000h-150v1450l-150 -550h-150zM30 314v1477q0 93 66 159t159 66t159 -66t66 -159v-500h-150v500q0 31 -22 53t-53 22t-53 -22t-22 -53v-1477q0 -75 52.5 -127.5t127.5 -52.5t127.5 52.5t52.5 127.5v195h150 v-195q0 -136 -97 -233t-233 -97t-233 97t-97 233z" glyph-name="C_M.liga" horiz-adv-x="1330" unicode="CM"/><glyph d="M840 0v1500l-150 250v-1171h-150v1421h150l150 -250v250h150v-2000h-150zM30 314v1477q0 93 66 159t159 66t159 -66t66 -159v-500h-150v500q0 31 -22 53t-53 22t-53 -22t-22 -53v-1477q0 -75 52.5 -127.5t127.5 -52.5t127.5 52.5t52.5 127.5v195h150v-195 q0 -136 -97 -233t-233 -97t-233 97t-97 233z" glyph-name="C_N.liga" horiz-adv-x="1030" unicode="CN"/><glyph d="M30 209v1582q0 93 66 159t159 66t159 -66t66 -159v-100h-150v100q0 31 -22 53t-53 22t-53 -22t-22 -53v-1582q0 -31 22 -53t53 -22t53 22t22 53v100h150v-100q0 -93 -66 -159t-159 -66t-159 66t-66 159zM250 609v782q0 93 66 159t159 66t159 -66t66 -159v-782 q0 -93 -66 -159t-159 -66t-159 66t-66 159zM400 609q0 -31 22 -53t53 -22t53 22t22 53v782q0 31 -22 53t-53 22t-53 -22t-22 -53v-782z" glyph-name="C_O.liga" horiz-adv-x="710" unicode="CO"/><glyph d="M30 314v1477q0 93 66 159t159 66t159 -66t66 -159v-500h-150v500q0 31 -22 53t-53 22t-53 -22t-22 -53v-1477q0 -75 52.5 -127.5t127.5 -52.5t127.5 52.5t52.5 127.5v195h150v-195q0 -136 -97 -233t-233 -97t-233 97t-97 233zM540 579v1421h225q93 0 159 -66t66 -159 v-475q0 -93 -66 -159t-159 -66h-75v-496h-150zM690 1225h75q31 0 53 22t22 53v475q0 31 -22 53t-53 22h-75v-625z" glyph-name="C_P.liga" horiz-adv-x="1000" unicode="CP"/><glyph d="M30 314v1477q0 93 66 159t159 66t159 -66t66 -159v-500h-150v500q0 31 -22 53t-53 22t-53 -22t-22 -53v-1477q0 -75 52.5 -127.5t127.5 -52.5t127.5 52.5t52.5 127.5v195h150v-195q0 -136 -97 -233t-233 -97t-233 97t-97 233zM540 579v1421h225q93 0 159 -66t66 -159 v-475q0 -85 -57 -150q57 -65 57 -150v-1000h-150v1000q0 31 -22 53t-53 22h-75v-496h-150zM690 1225h75q31 0 53 22t22 53v475q0 31 -22 53t-53 22h-75v-625z" glyph-name="C_R.liga" horiz-adv-x="1020" unicode="CR"/><glyph d="M30 1571q0 121 59.5 223.5t162 162t223.5 59.5t223.5 -59.5t162 -162t59.5 -223.5v-280h-150v280q0 122 -86.5 208.5t-208.5 86.5t-208.5 -86.5t-86.5 -208.5v-1142q0 -122 86.5 -208.5t208.5 -86.5t208.5 86.5t86.5 208.5v280h150v-280q0 -121 -59.5 -223.5t-162 -162 t-223.5 -59.5t-223.5 59.5t-162 162t-59.5 223.5v1142zM250 429v280h150v-280q0 -31 22 -53t53 -22t53 22t22 53v421q0 31 -22 53t-53 22q-93 0 -159 66t-66 159v421q0 93 66 159t159 66t159 -66t66 -159v-280h-150v280q0 31 -22 53t-53 22t-53 -22t-22 -53v-421 q0 -31 22 -53t53 -22q93 0 159 -66t66 -159v-421q0 -93 -66 -159t-159 -66t-159 66t-66 159z" glyph-name="C_S.liga" horiz-adv-x="940" unicode="CS"/><glyph d="M550 0v1850h-520v150h820v-150h-150v-1850h-150zM30 209v1346q0 93 66 159t159 66t159 -66t66 -159v-500h-150v500q0 31 -22 53t-53 22t-53 -22t-22 -53v-1346q0 -31 22 -53t53 -22t53 22t22 53v500h150v-500q0 -93 -66 -159t-159 -66t-159 66t-66 159z" glyph-name="C_T.liga" horiz-adv-x="860" unicode="CT"/><glyph d="M420 -16q-161 0 -275.5 114.5t-114.5 275.5v1417q0 93 66 159t159 66t159 -66t66 -159v-500h-150v500q0 31 -22 53t-53 22t-53 -22t-22 -53v-1417q0 -99 70.5 -169.5t169.5 -70.5t169.5 70.5t70.5 169.5v135h150v-135q0 -161 -114.5 -275.5t-275.5 -114.5zM510 1850v150 h450v-150h-150v-1271h-150v1271h-150z" glyph-name="C_T_one.liga" horiz-adv-x="970" unicode="CT1"/><glyph d="M30 1571q0 121 59.5 223.5t162 162t223.5 59.5t223.5 -59.5t162 -162t59.5 -223.5v-280h-150v280q0 122 -86.5 208.5t-208.5 86.5t-208.5 -86.5t-86.5 -208.5v-1142q0 -122 86.5 -208.5t208.5 -86.5t208.5 86.5t86.5 208.5v280h150v-280q0 -121 -59.5 -223.5t-162 -162 t-223.5 -59.5t-223.5 59.5t-162 162t-59.5 223.5v1142zM250 429v1271h150v-1271q0 -31 22 -53t53 -22t53 22t22 53v1271h150v-1271q0 -93 -66 -159t-159 -66t-159 66t-66 159z" glyph-name="C_U.liga" horiz-adv-x="940" unicode="CU"/><glyph d="M1130 209v1791h150v-1791q0 -93 -66 -159t-159 -66q-85 0 -150 57q-65 -57 -150 -57q-93 0 -159 66t-66 159v1212h150v-1212q0 -31 22 -53t53 -22t53 22t22 53v1791h150v-1791q0 -31 22 -53t53 -22t53 22t22 53zM30 209v1482q0 134 95.5 229.5t229.5 95.5t229.5 -95.5 t95.5 -229.5v-200h-150v200q0 73 -51 124t-124 51t-124 -51t-51 -124v-1482q0 -31 22 -53t53 -22t53 22t22 53v500h150v-500q0 -93 -66 -159t-159 -66t-159 66t-66 159z" glyph-name="C_W.liga" horiz-adv-x="1310" unicode="CW"/><glyph d="M30 209v1582q0 93 66 159t159 66t159 -66t66 -159v-100h-150v100q0 31 -22 53t-53 22t-53 -22t-22 -53v-1582q0 -31 22 -53t53 -22t53 22t22 53v100h150v-100q0 -93 -66 -159t-159 -66t-159 66t-66 159zM330 379v451q0 57 26 105.5t71 79.5q-45 31 -71 79.5t-26 105.5 v421h150v-421q0 -31 22 -53t53 -22t53 22t22 53v800h150v-800q0 -57 -26 -105.5t-71 -79.5q45 -31 71 -79.5t26 -105.5v-830h-150v830q0 31 -22 53t-53 22t-53 -22t-22 -53v-451h-150z" glyph-name="C_X.liga" horiz-adv-x="810" unicode="CX"/><glyph d="M30 309v1482q0 93 66 159t159 66t159 -66t66 -159v-500h-150v500q0 31 -22 53t-53 22t-53 -22t-22 -53v-1482q0 -73 51 -124t124 -51t124 51t51 124v200h150v-200q0 -134 -95.5 -229.5t-229.5 -95.5t-229.5 95.5t-95.5 229.5zM530 579v251q0 57 26 105.5t71 79.5 q-45 31 -71 79.5t-26 105.5v800h150v-800q0 -31 22 -53t53 -22t53 22t22 53v800h150v-800q0 -57 -26 -105.5t-71 -79.5q45 -31 71 -79.5t26 -105.5v-830h-150v830q0 31 -22 53t-53 22t-53 -22t-22 -53v-251h-150z" glyph-name="C_X_one.liga" horiz-adv-x="1010" unicode="CX1"/><glyph d="M30 284v1507q0 93 66 159t159 66t159 -66t66 -159v-200h-150v200q0 31 -22 53t-53 22t-53 -22t-22 -53v-1507q0 -62 44 -106t106 -44t106 44t44 106v125h150v-125q0 -124 -88 -212t-212 -88t-212 88t-88 212zM330 1200v321h150v-321q0 -31 22 -53t53 -22t53 22t22 53v800 h150v-800q0 -72 -42 -130t-108 -82v-509h-150v509q-66 24 -108 82t-42 130z" glyph-name="C_Y.liga" horiz-adv-x="790" unicode="CY"/><glyph d="M420 -16q-161 0 -275.5 114.5t-114.5 275.5v1417q0 93 66 159t159 66t159 -66t66 -159v-500h-150v500q0 31 -22 53t-53 22t-53 -22t-22 -53v-1417q0 -99 70.5 -169.5t169.5 -70.5t169.5 70.5t70.5 169.5v614q-66 24 -108 82t-42 130v800h150v-800q0 -31 22 -53t53 -22 t53 22t22 53v800h150v-800q0 -72 -42 -130t-108 -82v-614q0 -161 -114.5 -275.5t-275.5 -114.5z" glyph-name="C_Y_one.liga" horiz-adv-x="970" unicode="CY1"/><glyph d="M830 0v1075h-150v-296h-150v1012q0 93 66 159t159 66t159 -66t66 -159v-1791h-150zM30 309v1482q0 93 66 159t159 66t159 -66t66 -159v-500h-150v500q0 31 -22 53t-53 22t-53 -22t-22 -53v-1482q0 -73 51 -124t124 -51t124 51t51 124v400h150v-400q0 -134 -95.5 -229.5 t-229.5 -95.5t-229.5 95.5t-95.5 229.5zM680 1225h150v566q0 31 -22 53t-53 22t-53 -22t-22 -53v-566z" glyph-name="C_a.liga" horiz-adv-x="1010" unicode="Ca"/><glyph d="M30 314v1477q0 93 66 159t159 66t159 -66t66 -159v-500h-150v500q0 31 -22 53t-53 22t-53 -22t-22 -53v-1477q0 -74 53 -127t127 -53t127 53t53 127v395h150v-395q0 -136 -97 -233t-233 -97t-233 97t-97 233zM540 779v1221h225q93 0 159 -66t66 -159v-75q0 -85 -57 -150 q57 -65 57 -150v-1175q0 -93 -66 -159t-159 -66h-50v150h50q31 0 53 22t22 53v1175q0 31 -22 53t-53 22h-75v-696h-150zM690 1625h75q31 0 53 22t22 53v75q0 31 -22 53t-53 22h-75v-225z" glyph-name="C_b.liga" horiz-adv-x="1020" unicode="Cb"/><glyph d="M30 314v1477q0 93 66 159t159 66t159 -66t66 -159v-500h-150v500q0 31 -22 53t-53 22t-53 -22t-22 -53v-1477q0 -75 52.5 -127.5t127.5 -52.5t127.5 52.5t52.5 127.5v195h150v-195q0 -70 47 -117t117 -47h96v-150h-96q-143 0 -237 107q-46 -57 -113 -90t-144 -33 q-136 0 -233 97t-97 233zM540 579v1421h410v-150h-260v-225h220v-150h-220v-896h-150z" glyph-name="C_e.liga" horiz-adv-x="970" unicode="Ce"/><glyph d="M30 314v1477q0 93 66 159t159 66t159 -66t66 -159v-500h-150v500q0 31 -22 53t-53 22t-53 -22t-22 -53v-1477q0 -75 52.5 -127.5t127.5 -52.5t127.5 52.5t52.5 127.5v195h150v-195q0 -136 -97 -233t-233 -97t-233 97t-97 233zM540 579v1421h410v-150h-260v-225h220v-150 h-220v-896h-150z" glyph-name="C_f.liga" horiz-adv-x="960" unicode="Cf"/><glyph d="M30 314v1477q0 93 66 159t159 66t159 -66t66 -159v-500h-150v500q0 31 -22 53t-53 22t-53 -22t-22 -53v-1477q0 -75 52.5 -127.5t127.5 -52.5t127.5 52.5t52.5 127.5v195h150v-195q0 -136 -97 -233t-233 -97t-233 97t-97 233zM540 579v1171h150v-1171h-150zM540 1850v150 h150v-150h-150z" glyph-name="C_i.liga" horiz-adv-x="730" unicode="Ci"/><glyph d="M475 -16q-121 0 -223.5 59.5t-162 162t-59.5 223.5v1362q0 93 66 159t159 66t159 -66t66 -159v-500h-150v500q0 31 -22 53t-53 22t-53 -22t-22 -53v-1362q0 -122 86.5 -208.5t208.5 -86.5t208.5 86.5t86.5 208.5v280h150v-280q0 -121 -59.5 -223.5t-162 -162 t-223.5 -59.5zM250 429h150q0 -31 22 -53t53 -22t53 22t22 53v1321h150v-1321q0 -93 -66 -159t-159 -66t-159 66t-66 159zM550 1850v150h150v-150h-150z" glyph-name="C_j.liga" horiz-adv-x="930" unicode="Cj"/><glyph d="M30 209v1582q0 93 66 159t159 66t159 -66t66 -159v-100h-150v100q0 31 -22 53t-53 22t-53 -22t-22 -53v-1582q0 -31 22 -53t53 -22t53 22t22 53v100h150v-100q0 -93 -66 -159t-159 -66t-159 66t-66 159zM330 379v1242h150v-96h75q31 0 53 22t22 53v400h150v-400 q0 -85 -57 -150q57 -65 57 -150v-1300h-150v1300q0 31 -22 53t-53 22h-75v-996h-150z" glyph-name="C_k.liga" horiz-adv-x="820" unicode="Ck"/><glyph d="M1140 0v1791q0 31 -22 53t-53 22t-53 -22t-22 -53v-1791h-150v1791q0 31 -22 53t-53 22t-53 -22t-22 -53v-1211h-150v1211q0 93 66 159t159 66q85 0 150 -57q65 57 150 57q93 0 159 -66t66 -159v-1791h-150zM30 314v1477q0 93 66 159t159 66t159 -66t66 -159v-500h-150 v500q0 31 -22 53t-53 22t-53 -22t-22 -53v-1477q0 -75 52.5 -127.5t127.5 -52.5t127.5 52.5t52.5 127.5v195h150v-195q0 -136 -97 -233t-233 -97t-233 97t-97 233z" glyph-name="C_m.liga" horiz-adv-x="1320" unicode="Cm"/><glyph d="M840 0v1791q0 31 -22 53t-53 22t-53 -22t-22 -53v-1211h-150v1211q0 93 66 159t159 66t159 -66t66 -159v-1791h-150zM30 314v1477q0 93 66 159t159 66t159 -66t66 -159v-500h-150v500q0 31 -22 53t-53 22t-53 -22t-22 -53v-1477q0 -75 52.5 -127.5t127.5 -52.5 t127.5 52.5t52.5 127.5v195h150v-195q0 -136 -97 -233t-233 -97t-233 97t-97 233z" glyph-name="C_n.liga" horiz-adv-x="1030" unicode="Cn"/><glyph d="M30 314v1477q0 93 66 159t159 66t159 -66t66 -159v-500h-150v500q0 31 -22 53t-53 22t-53 -22t-22 -53v-1477q0 -75 52.5 -127.5t127.5 -52.5t127.5 52.5t52.5 127.5v195h150v-195q0 -136 -97 -233t-233 -97t-233 97t-97 233zM540 579v1421h225q93 0 159 -66t66 -159v-75 q0 -93 -66 -159t-159 -66h-75v-896h-150zM690 1625h75q31 0 53 22t22 53v75q0 31 -22 53t-53 22h-75v-225z" glyph-name="C_p.liga" horiz-adv-x="1000" unicode="Cp"/><glyph d="M30 314v1477q0 93 66 159t159 66t159 -66t66 -159v-500h-150v500q0 31 -22 53t-53 22t-53 -22t-22 -53v-1477q0 -75 52.5 -127.5t127.5 -52.5t127.5 52.5t52.5 127.5v195h150v-195q0 -136 -97 -233t-233 -97t-233 97t-97 233zM540 579v1421h225q93 0 159 -66t66 -159v-75 q0 -85 -57 -150q57 -65 57 -150v-1400h-150v1400q0 31 -22 53t-53 22h-75v-896h-150zM690 1625h75q31 0 53 22t22 53v75q0 31 -22 53t-53 22h-75v-225z" glyph-name="C_r.liga" horiz-adv-x="1020" unicode="Cr"/><glyph d="M30 209v1582q0 93 66 159t159 66t159 -66t66 -159v-100h-150v100q0 31 -22 53t-53 22t-53 -22t-22 -53v-1582q0 -31 22 -53t53 -22t53 22t22 53v100h150v-100q0 -93 -66 -159t-159 -66t-159 66t-66 159zM330 379v851q0 57 26 105.5t71 79.5q-45 31 -71 79.5t-26 105.5v21 h150v-21q0 -31 22 -53t53 -22t53 22t22 53v400h150v-400q0 -57 -26 -105.5t-71 -79.5q45 -31 71 -79.5t26 -105.5v-1230h-150v1230q0 31 -22 53t-53 22t-53 -22t-22 -53v-851h-150z" glyph-name="C_x.liga" horiz-adv-x="810" unicode="Cx"/><glyph d="M30 309v1482q0 93 66 159t159 66t159 -66t66 -159v-500h-150v500q0 31 -22 53t-53 22t-53 -22t-22 -53v-1482q0 -73 51 -124t124 -51t124 51t51 124v200h150v-200q0 -134 -95.5 -229.5t-229.5 -95.5t-229.5 95.5t-95.5 229.5zM530 579v651q0 57 26 105.5t71 79.5 q-45 31 -71 79.5t-26 105.5v400h150v-400q0 -31 22 -53t53 -22t53 22t22 53v400h150v-400q0 -57 -26 -105.5t-71 -79.5q45 -31 71 -79.5t26 -105.5v-1230h-150v1230q0 31 -22 53t-53 22t-53 -22t-22 -53v-651h-150z" glyph-name="C_x_one.liga" horiz-adv-x="1010" unicode="Cx1"/><glyph d="M420 -16q-161 0 -275.5 114.5t-114.5 275.5v1417q0 93 66 159t159 66t159 -66t66 -159v-500h-150v500q0 31 -22 53t-53 22t-53 -22t-22 -53v-1417q0 -99 70.5 -169.5t169.5 -70.5t169.5 70.5t70.5 169.5v1014q-66 24 -108 82t-42 130v400h150v-400q0 -31 22 -53t53 -22 t53 22t22 53v400h150v-400q0 -72 -42 -130t-108 -82v-1014q0 -161 -114.5 -275.5t-275.5 -114.5z" glyph-name="C_y_one.liga" horiz-adv-x="970" unicode="Cy1"/><glyph d="M560 209v1791h150v-1791q0 -93 -66 -159t-159 -66t-159 66t-66 159h150q0 -31 22 -53t53 -22t53 22t22 53zM40 279v1721h225q93 0 159 -66t66 -159v-1271q0 -93 -66 -159t-159 -66h-225zM190 429h75q31 0 53 22t22 53v1271q0 31 -22 53t-53 22h-75v-1421z" glyph-name="D_J.liga" horiz-adv-x="740" unicode="DJ"/><glyph d="M560 0v1850h-520v150h820v-150h-150v-1850h-150zM40 0v1780h225q93 0 159 -66t66 -159v-1330q0 -93 -66 -159t-159 -66h-225zM190 150h75q31 0 53 22t22 53v1330q0 31 -22 53t-53 22h-75v-1480z" glyph-name="D_T.liga" horiz-adv-x="870" unicode="DT"/><glyph d="M40 0v2000h410v-150h-260v-625h220v-150h-220v-925h460v-150h-610zM500 220v1571q0 93 66 159t159 66t159 -66t66 -159v-1791h-150v1075h-150v-855h-150zM650 1225h150v566q0 31 -22 53t-53 22t-53 -22t-22 -53v-566z" glyph-name="E_A.liga" horiz-adv-x="980" unicode="EA"/><glyph d="M40 0v2000h910v-150h-760v-625h220v-150h-220v-925h260v-150h-410zM500 0v1571q0 93 66 159t159 66t159 -66t66 -159v-1571h-150v1075h-150v-1075h-150zM650 1225h150v346q0 31 -22 53t-53 22t-53 -22t-22 -53v-346z" glyph-name="E_A_one.liga" horiz-adv-x="980" unicode="EA1"/><glyph d="M40 0v2000h910v-150h-760v-625h220v-150h-220v-925h760v-150h-910zM500 220v1351q0 93 66 159t159 66t159 -66t66 -159v-1351h-150v855h-150v-855h-150zM650 1225h150v346q0 31 -22 53t-53 22t-53 -22t-22 -53v-346z" glyph-name="E_A_two.liga" horiz-adv-x="980" unicode="EA2"/><glyph d="M40 0v2000h410v-150h-260v-625h220v-150h-220v-925h770v-150h-920zM510 220v1780h225q93 0 159 -66t66 -159v-475q0 -85 -57 -150q57 -65 57 -150v-555q0 -93 -66 -159t-159 -66h-225zM660 370h75q31 0 53 22t22 53v555q0 31 -22 53t-53 22h-75v-705zM660 1225h75 q31 0 53 22t22 53v475q0 31 -22 53t-53 22h-75v-625z" glyph-name="E_B.liga" horiz-adv-x="990" unicode="EB"/><glyph d="M40 0v2000h920v-150h-770v-625h220v-150h-220v-925h260v-150h-410zM510 0v1780h225q93 0 159 -66t66 -159v-255q0 -85 -57 -150q57 -65 57 -150v-775q0 -93 -66 -159t-159 -66h-225zM660 150h75q31 0 53 22t22 53v775q0 31 -22 53t-53 22h-75v-925zM660 1225h75 q31 0 53 22t22 53v255q0 31 -22 53t-53 22h-75v-405z" glyph-name="E_B_one.liga" horiz-adv-x="990" unicode="EB1"/><glyph d="M40 0v2000h920v-150h-770v-625h220v-150h-220v-925h770v-150h-920zM510 220v1560h225q93 0 159 -66t66 -159v-255q0 -85 -57 -150q57 -65 57 -150v-555q0 -93 -66 -159t-159 -66h-225zM660 370h75q31 0 53 22t22 53v555q0 31 -22 53t-53 22h-75v-705zM660 1225h75 q31 0 53 22t22 53v255q0 31 -22 53t-53 22h-75v-405z" glyph-name="E_B_two.liga" horiz-adv-x="990" unicode="EB2"/><glyph d="M40 0v2000h410v-150h-260v-625h220v-150h-220v-925h760v-150h-910zM500 429v1362q0 93 66 159t159 66t159 -66t66 -159v-400h-150v400q0 31 -22 53t-53 22t-53 -22t-22 -53v-1362q0 -31 22 -53t53 -22t53 22t22 53v400h150v-400q0 -93 -66 -159t-159 -66t-159 66t-66 159 z" glyph-name="E_C.liga" horiz-adv-x="970" unicode="EC"/><glyph d="M40 0v2000h910v-150h-760v-625h220v-150h-220v-925h260v-150h-410zM500 209v1362q0 93 66 159t159 66t159 -66t66 -159v-400h-150v400q0 31 -22 53t-53 22t-53 -22t-22 -53v-1362q0 -31 22 -53t53 -22t53 22t22 53v400h150v-400q0 -93 -66 -159t-159 -66t-159 66t-66 159 z" glyph-name="E_C_one.liga" horiz-adv-x="970" unicode="EC1"/><glyph d="M40 0v2000h910v-150h-760v-625h220v-150h-220v-925h760v-150h-910zM500 429v1142q0 93 66 159t159 66t159 -66t66 -159v-400h-150v400q0 31 -22 53t-53 22t-53 -22t-22 -53v-1142q0 -31 22 -53t53 -22t53 22t22 53v400h150v-400q0 -93 -66 -159t-159 -66t-159 66t-66 159 z" glyph-name="E_C_two.liga" horiz-adv-x="970" unicode="EC2"/><glyph d="M40 0v2000h410v-150h-260v-625h220v-150h-220v-925h770v-150h-920zM510 220v1780h225q93 0 159 -66t66 -159v-1330q0 -93 -66 -159t-159 -66h-225zM660 370h75q31 0 53 22t22 53v1330q0 31 -22 53t-53 22h-75v-1480z" glyph-name="E_D.liga" horiz-adv-x="990" unicode="ED"/><glyph d="M40 0v2000h920v-150h-770v-625h220v-150h-220v-925h260v-150h-410zM510 0v1780h225q93 0 159 -66t66 -159v-1330q0 -93 -66 -159t-159 -66h-225zM660 150h75q31 0 53 22t22 53v1330q0 31 -22 53t-53 22h-75v-1480z" glyph-name="E_D_one.liga" horiz-adv-x="990" unicode="ED1"/><glyph d="M40 0v2000h920v-150h-770v-625h220v-150h-220v-925h770v-150h-920zM510 220v1560h225q93 0 159 -66t66 -159v-1110q0 -93 -66 -159t-159 -66h-225zM660 370h75q31 0 53 22t22 53v1110q0 31 -22 53t-53 22h-75v-1260z" glyph-name="E_D_two.liga" horiz-adv-x="990" unicode="ED2"/><glyph d="M40 0v1780h930v-150h-780v-405h220v-150h-220v-925h555q122 0 208.5 86.5t86.5 208.5v1405h-1000v150h1300v-150h-150v-1405q0 -121 -59.5 -223.5t-162 -162t-223.5 -59.5h-705zM520 220v1340h225q93 0 159 -66t66 -159v-890q0 -93 -66 -159t-159 -66h-225zM670 370h75 q31 0 53 22t22 53v890q0 31 -22 53t-53 22h-75v-1040z" glyph-name="E_D_T.liga" horiz-adv-x="1350" unicode="EDT"/><glyph d="M40 0v2000h410v-150h-260v-625h220v-150h-220v-925h730v-150h-880zM510 220v1780h410v-150h-260v-625h220v-150h-220v-705h260v-150h-410z" glyph-name="E_E.liga" horiz-adv-x="940" unicode="EE"/><glyph d="M40 0v2000h880v-150h-730v-625h220v-150h-220v-925h260v-150h-410zM510 0v1780h410v-150h-260v-405h220v-150h-220v-925h260v-150h-410z" glyph-name="E_E_one.liga" horiz-adv-x="940" unicode="EE1"/><glyph d="M40 0v2000h880v-150h-730v-625h220v-150h-220v-925h730v-150h-880zM510 220v1560h410v-150h-260v-405h220v-150h-220v-705h260v-150h-410z" glyph-name="E_E_two.liga" horiz-adv-x="940" unicode="EE2"/><glyph d="M40 0v2000h410v-150h-260v-625h320v775h410v-150h-260v-625h220v-150h-220v-925h260v-150h-410v1075h-320v-925h260v-150h-410z" glyph-name="E_E_three.liga" horiz-adv-x="940" unicode="EE3"/><glyph d="M40 0v2000h410v-150h-260v-625h220v-150h-220v-925h470v-150h-620zM510 220v1780h410v-150h-260v-625h220v-150h-220v-855h-150z" glyph-name="E_F.liga" horiz-adv-x="930" unicode="EF"/><glyph d="M40 0v2000h880v-150h-730v-625h220v-150h-220v-925h260v-150h-410zM510 0v1780h410v-150h-260v-405h220v-150h-220v-1075h-150z" glyph-name="E_F_one.liga" horiz-adv-x="930" unicode="EF1"/><glyph d="M40 0v2000h880v-150h-730v-625h220v-150h-220v-925h470v-150h-620zM510 220v1560h410v-150h-260v-405h220v-150h-220v-855h-150z" glyph-name="E_F_two.liga" horiz-adv-x="930" unicode="EF2"/><glyph d="M40 0v2000h410v-150h-260v-625h320v775h410v-150h-260v-625h220v-150h-220v-1075h-150v1075h-320v-925h260v-150h-410z" glyph-name="E_F_three.liga" horiz-adv-x="930" unicode="EF3"/><glyph d="M40 0v2000h410v-150h-260v-625h220v-150h-220v-925h767v-150h-917zM507 439v1352q0 93 66 159t159 66t159 -66t66 -159v-400h-150v400q0 31 -22 53t-53 22t-53 -22t-22 -53v-1352q0 -31 22 -53t53 -22t53 22t22 53v250h-75v150h225v-400q0 -93 -66 -159t-159 -66t-159 66 t-66 159z" glyph-name="E_G.liga" horiz-adv-x="977" unicode="EG"/><glyph d="M40 0v2000h917v-150h-767v-625h220v-150h-220v-925h260v-150h-410zM507 209v1352q0 93 66 159t159 66t159 -66t66 -159v-400h-150v400q0 31 -22 53t-53 22t-53 -22t-22 -53v-1352q0 -31 22 -53t53 -22t53 22t22 53v250h-75v150h225v-400q0 -93 -66 -159t-159 -66t-159 66 t-66 159z" glyph-name="E_G_one.liga" horiz-adv-x="977" unicode="EG1"/><glyph d="M40 0v2000h917v-150h-767v-625h220v-150h-220v-925h767v-150h-917zM507 439v1122q0 93 66 159t159 66t159 -66t66 -159v-400h-150v400q0 31 -22 53t-53 22t-53 -22t-22 -53v-1122q0 -31 22 -53t53 -22t53 22t22 53v250h-75v150h225v-400q0 -93 -66 -159t-159 -66t-159 66 t-66 159z" glyph-name="E_G_two.liga" horiz-adv-x="977" unicode="EG2"/><glyph d="M810 0v1075h-150v-855h-150v1780h150v-775h150v775h150v-2000h-150zM40 0v2000h410v-150h-260v-625h220v-150h-220v-925h470v-150h-620z" glyph-name="E_H.liga" horiz-adv-x="1000" unicode="EH"/><glyph d="M810 0v1075h-150v-1075h-150v1780h150v-555h150v775h150v-2000h-150zM40 0v2000h620v-150h-470v-625h220v-150h-220v-925h260v-150h-410z" glyph-name="E_H_one.liga" horiz-adv-x="1000" unicode="EH1"/><glyph d="M810 0v1075h-150v-855h-150v1560h150v-555h150v775h150v-2000h-150zM40 0v2000h620v-150h-470v-625h220v-150h-220v-925h470v-150h-620z" glyph-name="E_H_two.liga" horiz-adv-x="1000" unicode="EH2"/><glyph d="M40 0v2000h410v-150h-260v-625h220v-150h-220v-925h470v-150h-620zM510 220v1780h150v-1780h-150z" glyph-name="E_I.liga" horiz-adv-x="700" unicode="EI"/><glyph d="M40 0v2000h620v-150h-470v-625h220v-150h-220v-925h260v-150h-410zM510 0v1780h150v-1780h-150z" glyph-name="E_I_one.liga" horiz-adv-x="700" unicode="EI1"/><glyph d="M40 0v2000h620v-150h-470v-625h220v-150h-220v-925h470v-150h-620zM510 220v1560h150v-1560h-150z" glyph-name="E_I_two.liga" horiz-adv-x="700" unicode="EI2"/><glyph d="M40 0v2000h410v-150h-260v-625h220v-150h-220v-925h524v-150h-674zM260 439h150q0 -31 22 -53t53 -22t53 22t22 53v1561h150v-1561q0 -93 -66 -159t-159 -66t-159 66t-66 159z" glyph-name="E_J.liga" horiz-adv-x="744" unicode="EJ"/><glyph d="M40 0v2000h630v-150h-480v-625h220v-150h-220v-925h260v-150h-410zM220 -70h150q0 -31 22 -53t53 -22t53 22t22 53v1850h150v-1850q0 -93 -66 -159t-159 -66t-159 66t-66 159z" glyph-name="E_J_one.liga" horiz-adv-x="700" unicode="EJ1"/><glyph d="M40 0v2000h674v-150h-524v-625h220v-150h-220v-925h524v-150h-674zM260 439h150q0 -31 22 -53t53 -22t53 22t22 53v1341h150v-1341q0 -93 -66 -159t-159 -66t-159 66t-66 159z" glyph-name="E_J_two.liga" horiz-adv-x="744" unicode="EJ2"/><glyph d="M40 0v2000h410v-150h-260v-625h220v-150h-220v-925h470v-150h-620zM510 220v1780h150v-775h75q31 0 53 22t22 53v700h150v-700q0 -85 -57 -150q57 -65 57 -150v-1000h-150v1000q0 31 -22 53t-53 22h-75v-855h-150z" glyph-name="E_K.liga" horiz-adv-x="1000" unicode="EK"/><glyph d="M40 0v2000h620v-150h-470v-625h220v-150h-220v-925h260v-150h-410zM510 0v1780h150v-555h75q31 0 53 22t22 53v700h150v-700q0 -85 -57 -150q57 -65 57 -150v-1000h-150v1000q0 31 -22 53t-53 22h-75v-1075h-150z" glyph-name="E_K_one.liga" horiz-adv-x="1000" unicode="EK1"/><glyph d="M40 0v2000h620v-150h-470v-625h220v-150h-220v-925h470v-150h-620zM510 220v1560h150v-555h75q31 0 53 22t22 53v700h150v-700q0 -85 -57 -150q57 -65 57 -150v-1000h-150v1000q0 31 -22 53t-53 22h-75v-855h-150z" glyph-name="E_K_two.liga" horiz-adv-x="1000" unicode="EK2"/><glyph d="M40 0v2000h410v-150h-260v-625h220v-150h-220v-925h730v-150h-880zM510 220v1780h150v-1630h260v-150h-410z" glyph-name="E_L.liga" horiz-adv-x="930" unicode="EL"/><glyph d="M40 0v2000h620v-150h-470v-625h220v-150h-220v-925h260v-150h-410zM510 0v1780h150v-1630h260v-150h-410z" glyph-name="E_L_one.liga" horiz-adv-x="930" unicode="EL1"/><glyph d="M40 0v2000h620v-150h-470v-625h220v-150h-220v-925h730v-150h-880zM510 220v1560h150v-1410h260v-150h-410z" glyph-name="E_L_two.liga" horiz-adv-x="930" unicode="EL2"/><glyph d="M810 900l-150 550v-1230h-150v1780h150l225 -825l225 825h150v-2000h-150v1450l-150 -550h-150zM40 0v2000h410v-150h-260v-625h220v-150h-220v-925h850v-150h-1000z" glyph-name="E_M.liga" horiz-adv-x="1300" unicode="EM"/><glyph d="M810 900l-150 440v-1340h-150v1780h150l217 -636l233 856h150v-2000h-150v1450l-150 -550h-150zM40 0v2000h620v-150h-470v-625h220v-150h-220v-925h260v-150h-410z" glyph-name="E_M_one.liga" horiz-adv-x="1300" unicode="EM1"/><glyph d="M810 900l-150 440v-1120h-150v1560h150l217 -636l233 856h150v-2000h-150v1450l-150 -550h-150zM40 0v2000h620v-150h-470v-625h220v-150h-220v-925h850v-150h-1000z" glyph-name="E_M_two.liga" horiz-adv-x="1300" unicode="EM2"/><glyph d="M810 0v1500l-150 250v-1530h-150v1780h150l150 -250v250h150v-2000h-150zM40 0v2000h410v-150h-260v-625h220v-150h-220v-925h470v-150h-620z" glyph-name="E_N.liga" horiz-adv-x="1000" unicode="EN"/><glyph d="M40 0v2000h920v-150h-770v-625h220v-150h-220v-925h260v-150h-410zM510 0v1780h150l150 -250v250h150v-1780h-150v1280l-150 250v-1530h-150z" glyph-name="E_N_one.liga" horiz-adv-x="1000" unicode="EN1"/><glyph d="M40 0v2000h920v-150h-770v-625h220v-150h-220v-925h470v-150h-620zM510 220v1560h150l150 -250v250h150v-1780h-150v1280l-150 250v-1310h-150z" glyph-name="E_N_two.liga" horiz-adv-x="1000" unicode="EN2"/><glyph d="M40 0v1780h920v-150h-770v-405h220v-150h-220v-925h555q122 0 208.5 86.5t86.5 208.5v1405h-1000v150h1300v-150h-150v-1405q0 -121 -59.5 -223.5t-162 -162t-223.5 -59.5h-705zM510 220v1340h150l150 -250v250h150v-1240h-150v740l-150 250v-1090h-150z" glyph-name="E_N_T.liga" horiz-adv-x="1350" unicode="ENT"/><glyph d="M40 0v2000h410v-150h-260v-625h220v-150h-220v-925h760v-150h-910zM500 439v1352q0 93 66 159t159 66t159 -66t66 -159v-1352q0 -93 -66 -159t-159 -66t-159 66t-66 159zM650 439q0 -31 22 -53t53 -22t53 22t22 53v1352q0 31 -22 53t-53 22t-53 -22t-22 -53v-1352z" glyph-name="E_O.liga" horiz-adv-x="980" unicode="EO"/><glyph d="M40 0v2000h910v-150h-760v-625h220v-150h-220v-925h260v-150h-410zM500 209v1352q0 93 66 159t159 66t159 -66t66 -159v-1352q0 -93 -66 -159t-159 -66t-159 66t-66 159zM650 209q0 -31 22 -53t53 -22t53 22t22 53v1352q0 31 -22 53t-53 22t-53 -22t-22 -53v-1352z" glyph-name="E_O_one.liga" horiz-adv-x="980" unicode="EO1"/><glyph d="M40 0v2000h910v-150h-760v-625h220v-150h-220v-925h760v-150h-910zM500 439v1122q0 93 66 159t159 66t159 -66t66 -159v-1122q0 -93 -66 -159t-159 -66t-159 66t-66 159zM650 439q0 -31 22 -53t53 -22t53 22t22 53v1122q0 31 -22 53t-53 22t-53 -22t-22 -53v-1122z" glyph-name="E_O_two.liga" horiz-adv-x="980" unicode="EO2"/><glyph d="M40 0v2000h410v-150h-260v-625h220v-150h-220v-925h470v-150h-620zM510 220v1780h225q93 0 159 -66t66 -159v-475q0 -93 -66 -159t-159 -66h-75v-855h-150zM660 1225h75q31 0 53 22t22 53v475q0 31 -22 53t-53 22h-75v-625z" glyph-name="E_P.liga" horiz-adv-x="970" unicode="EP"/><glyph d="M40 0v2000h920v-150h-770v-625h220v-150h-220v-925h260v-150h-410zM510 0v1780h225q93 0 159 -66t66 -159v-255q0 -93 -66 -159t-159 -66h-75v-1075h-150zM660 1225h75q31 0 53 22t22 53v255q0 31 -22 53t-53 22h-75v-405z" glyph-name="E_P_one.liga" horiz-adv-x="970" unicode="EP1"/><glyph d="M40 0v2000h920v-150h-770v-625h220v-150h-220v-925h468v-150h-618zM510 220v1560h225q93 0 159 -66t66 -159v-255q0 -93 -66 -159t-159 -66h-75v-855h-150zM660 1225h75q31 0 53 22t22 53v255q0 31 -22 53t-53 22h-75v-405z" glyph-name="E_P_two.liga" horiz-adv-x="970" unicode="EP2"/><glyph d="M40 0v2000h410v-150h-260v-625h220v-150h-220v-925h460v177q-66 24 -108 82t-42 130v1252q0 93 66 159t159 66t159 -66t66 -159v-1252q0 -72 -42 -130t-108 -82v-177h150v-150h-910zM650 539q0 -31 22 -53t53 -22t53 22t22 53v1252q0 31 -22 53t-53 22t-53 -22t-22 -53 v-1252z" glyph-name="E_Q.liga" horiz-adv-x="980" unicode="EQ"/><glyph d="M40 0v2000h910v-150h-760v-625h220v-150h-220v-925h260v-150h-410zM500 209v1352q0 93 66 159t159 66t159 -66t66 -159v-1352q0 -72 -42 -130t-108 -82v-197h-150v197q-66 24 -108 82t-42 130zM650 209q0 -31 22 -53t53 -22t53 22t22 53v1352q0 31 -22 53t-53 22t-53 -22 t-22 -53v-1352z" glyph-name="E_Q_one.liga" horiz-adv-x="980" unicode="EQ1"/><glyph d="M40 0v2000h910v-150h-760v-625h220v-150h-220v-925h460v177q-66 24 -108 82t-42 130v1022q0 93 66 159t159 66t159 -66t66 -159v-1022q0 -72 -42 -130t-108 -82v-177h150v-150h-910zM650 539q0 -31 22 -53t53 -22t53 22t22 53v1022q0 31 -22 53t-53 22t-53 -22t-22 -53 v-1022z" glyph-name="E_Q_two.liga" horiz-adv-x="980" unicode="EQ2"/><glyph d="M40 0v2000h410v-150h-260v-625h220v-150h-220v-925h470v-150h-620zM510 220v1780h225q93 0 159 -66t66 -159v-475q0 -85 -57 -150q57 -65 57 -150v-1000h-150v1000q0 31 -22 53t-53 22h-75v-855h-150zM660 1225h75q31 0 53 22t22 53v475q0 31 -22 53t-53 22h-75v-625z " glyph-name="E_R.liga" horiz-adv-x="990" unicode="ER"/><glyph d="M1040 0q-92 2 -156 68t-64 157v775q0 31 -22 53t-53 22h-75v-855h-150v1560h225q93 0 159 -66t66 -159v-255q0 -85 -57 -150q57 -65 57 -150v-775q0 -29 20.5 -51t49.5 -24v1850h410v-150h-260v-625h220v-150h-220v-925h260v-150h-405h-5zM40 0v2000h930v-150h-780v-625 h220v-150h-220v-925h480v-150h-630zM670 1225h75q31 0 53 22t22 53v255q0 31 -22 53t-53 22h-75v-405z" glyph-name="E_R_E.liga" horiz-adv-x="1470" unicode="ERE"/><glyph d="M40 0v2000h920v-150h-770v-625h220v-150h-220v-925h470v-150h-620zM510 220v1560h225q93 0 159 -66t66 -159v-255q0 -85 -57 -150q57 -65 57 -150v-831q0 -14 10.5 -24.5t24.5 -10.5t24.5 10.5t10.5 24.5v1831h150v-1831q0 -77 -54 -131t-131 -54t-131 54t-54 131v831 q0 31 -22 53t-53 22h-75v-855h-150zM660 1225h75q31 0 53 22t22 53v255q0 31 -22 53t-53 22h-75v-405z" glyph-name="E_R_I.liga" horiz-adv-x="1220" unicode="ERI"/><glyph d="M40 0v2000h920v-150h-770v-625h220v-150h-220v-925h260v-150h-410zM510 0v1770h225q93 0 159 -66t66 -159v-245q0 -85 -57 -150q57 -65 57 -150v-1000h-150v1000q0 31 -22 53t-53 22h-75v-1075h-150zM660 1225h75q31 0 53 22t22 53v245q0 31 -22 53t-53 22h-75v-395z" glyph-name="E_R_one.liga" horiz-adv-x="990" unicode="ER1"/><glyph d="M40 0v2000h920v-150h-770v-625h220v-150h-220v-925h470v-150h-620zM510 220v1550h225q93 0 159 -66t66 -159v-245q0 -85 -57 -150q57 -65 57 -150v-1000h-150v1000q0 31 -22 53t-53 22h-75v-855h-150zM660 1225h75q31 0 53 22t22 53v245q0 31 -22 53t-53 22h-75v-395z " glyph-name="E_R_two.liga" horiz-adv-x="990" unicode="ER2"/><glyph d="M40 0v2000h410v-150h-260v-625h220v-150h-220v-925h760v-150h-910zM500 439v380h150v-380q0 -31 22 -53t53 -22t53 22t22 53v521q0 31 -22 53t-53 22q-93 0 -159 66t-66 159v531q0 93 66 159t159 66t159 -66t66 -159v-390h-150v390q0 31 -22 53t-53 22t-53 -22t-22 -53 v-531q0 -31 22 -53t53 -22q93 0 159 -66t66 -159v-521q0 -93 -66 -159t-159 -66t-159 66t-66 159z" glyph-name="E_S.liga" horiz-adv-x="980" unicode="ES"/><glyph d="M40 0v2000h910v-150h-760v-625h220v-150h-220v-925h260v-150h-410zM500 209v390h150v-390q0 -31 22 -53t53 -22t53 22t22 53v531q0 31 -22 53t-53 22q-93 0 -159 66t-66 159v521q0 93 66 159t159 66t159 -66t66 -159v-380h-150v380q0 31 -22 53t-53 22t-53 -22t-22 -53 v-521q0 -31 22 -53t53 -22q93 0 159 -66t66 -159v-531q0 -93 -66 -159t-159 -66t-159 66t-66 159z" glyph-name="E_S_one.liga" horiz-adv-x="980" unicode="ES1"/><glyph d="M40 0v2000h910v-150h-760v-625h220v-150h-220v-925h760v-150h-910zM500 439v280h150v-280q0 -31 22 -53t53 -22t53 22t22 53v421q0 31 -22 53t-53 22q-93 0 -159 66t-66 159v401q0 93 66 159t159 66t159 -66t66 -159v-260h-150v260q0 31 -22 53t-53 22t-53 -22t-22 -53 v-401q0 -31 22 -53t53 -22q93 0 159 -66t66 -159v-421q0 -93 -66 -159t-159 -66t-159 66t-66 159z" glyph-name="E_S_two.liga" horiz-adv-x="980" unicode="ES2"/><glyph d="M1020 0v1850h-980v150h1280v-150h-150v-1850h-150zM40 0v1770h410v-150h-260v-395h220v-150h-220v-925h760v-150h-910zM500 439v270h150v-270q0 -31 22 -53t53 -22t53 22t22 53v411q0 31 -22 53t-53 22q-93 0 -159 66t-66 159v411q0 93 66 159t159 66t159 -66t66 -159 v-270h-150v270q0 31 -22 53t-53 22t-53 -22t-22 -53v-411q0 -31 22 -53t53 -22q93 0 159 -66t66 -159v-411q0 -93 -66 -159t-159 -66t-159 66t-66 159z" glyph-name="E_S_T.liga" horiz-adv-x="1330" unicode="EST"/><glyph d="M40 0v2000h410v-150h-260v-625h220v-150h-220v-925h590v-150h-740zM480 1850v150h450v-150h-150v-1630h-150v1630h-150z" glyph-name="E_T.liga" horiz-adv-x="940" unicode="ET"/><glyph d="M40 0v2000h780v-150h-630v-625h220v-150h-220v-925h260v-150h-410zM370 1630v150h450v-150h-150v-1630h-150v1630h-150z" glyph-name="E_T_one.liga" horiz-adv-x="830" unicode="ET1"/><glyph d="M40 0v2000h780v-150h-630v-625h220v-150h-220v-925h480v-150h-630zM370 1630v150h450v-150h-150v-1410h-150v1410h-150z" glyph-name="E_T_two.liga" horiz-adv-x="830" unicode="ET2"/><glyph d="M40 0v2000h410v-150h-260v-625h220v-150h-220v-925h760v-150h-910zM500 439v1561h150v-1561q0 -31 22 -53t53 -22t53 22t22 53v1561h150v-1561q0 -93 -66 -159t-159 -66t-159 66t-66 159z" glyph-name="E_U.liga" horiz-adv-x="980" unicode="EU"/><glyph d="M40 0v2000h910v-150h-760v-625h220v-150h-220v-925h260v-150h-410zM500 209v1571h150v-1571q0 -31 22 -53t53 -22t53 22t22 53v1571h150v-1571q0 -93 -66 -159t-159 -66t-159 66t-66 159z" glyph-name="E_U_one.liga" horiz-adv-x="980" unicode="EU1"/><glyph d="M40 0v2000h910v-150h-760v-625h220v-150h-220v-925h760v-150h-910zM500 439v1341h150v-1341q0 -31 22 -53t53 -22t53 22t22 53v1341h150v-1341q0 -93 -66 -159t-159 -66t-159 66t-66 159z" glyph-name="E_U_two.liga" horiz-adv-x="980" unicode="EU2"/><glyph d="M580 220l-100 1780h150l65 -1155l4 -436h12l4 436l65 1155h150l-100 -1780h-250zM40 0v2000h410v-150h-260v-625h220v-150h-220v-925h640v-150h-790z" glyph-name="E_V.liga" horiz-adv-x="940" unicode="EV"/><glyph d="M580 0l-100 1780h150l64 -1129l5 -436h12l2 436l67 1349h150l-100 -2000h-250zM40 0v2000h590v-150h-440v-625h220v-150h-220v-925h260v-150h-410z" glyph-name="E_V_one.liga" horiz-adv-x="940" unicode="EV1"/><glyph d="M580 230l-100 1550h150l61 -957l7 -436h12l3 436l67 1177h150l-100 -1770h-250zM40 0v2000h590v-150h-440v-625h220v-150h-220v-925h640v-150h-790z" glyph-name="E_V_two.liga" horiz-adv-x="940" unicode="EV2"/><glyph d="M40 0v2000h410v-150h-260v-625h220v-150h-220v-925h1060v-150h-1210zM500 439v1561h150v-1561q0 -31 22 -53t53 -22t53 22t22 53v1561h150v-1561q0 -31 22 -53t53 -22t53 22t22 53v1561h150v-1561q0 -93 -66 -159t-159 -66q-85 0 -150 57q-65 -57 -150 -57q-93 0 -159 66 t-66 159z" glyph-name="E_W.liga" horiz-adv-x="1280" unicode="EW"/><glyph d="M40 0v2000h610v-150h-460v-625h220v-150h-220v-925h260v-150h-410zM500 209v1571h150v-1571q0 -31 22 -53t53 -22t53 22t22 53v1791h150v-1791q0 -31 22 -53t53 -22t53 22t22 53v1791h150v-1791q0 -93 -66 -159t-159 -66q-85 0 -150 57q-65 -57 -150 -57q-93 0 -159 66 t-66 159z" glyph-name="E_W_one.liga" horiz-adv-x="1280" unicode="EW1"/><glyph d="M40 0v2000h610v-150h-460v-625h220v-150h-220v-925h1060v-150h-1210zM500 439v1341h150v-1341q0 -31 22 -53t53 -22t53 22t22 53v1561h150v-1561q0 -31 22 -53t53 -22t53 22t22 53v1561h150v-1561q0 -93 -66 -159t-159 -66q-85 0 -150 57q-65 -57 -150 -57q-93 0 -159 66 t-66 159z" glyph-name="E_W_two.liga" horiz-adv-x="1280" unicode="EW2"/><glyph d="M40 0v2000h410v-150h-260v-625h220v-150h-220v-925h460v-150h-610zM500 220v610q0 57 26 105.5t71 79.5q-45 31 -71 79.5t-26 105.5v800h150v-800q0 -31 22 -53t53 -22t53 22t22 53v800h150v-800q0 -57 -26 -105.5t-71 -79.5q45 -31 71 -79.5t26 -105.5v-830h-150v830 q0 31 -22 53t-53 22t-53 -22t-22 -53v-610h-150z" glyph-name="E_X.liga" horiz-adv-x="980" unicode="EX"/><glyph d="M40 0v2000h610v-150h-460v-625h220v-150h-220v-925h260v-150h-410zM500 0v830q0 57 26 105.5t71 79.5q-45 31 -71 79.5t-26 105.5v580h150v-580q0 -31 22 -53t53 -22t53 22t22 53v800h150v-800q0 -57 -26 -105.5t-71 -79.5q45 -31 71 -79.5t26 -105.5v-830h-150v830 q0 31 -22 53t-53 22t-53 -22t-22 -53v-830h-150z" glyph-name="E_X_one.liga" horiz-adv-x="980" unicode="EX1"/><glyph d="M40 0v2000h610v-150h-460v-625h220v-150h-220v-925h460v-150h-610zM500 220v610q0 57 26 105.5t71 79.5q-45 31 -71 79.5t-26 105.5v580h150v-580q0 -31 22 -53t53 -22t53 22t22 53v800h150v-800q0 -57 -26 -105.5t-71 -79.5q45 -31 71 -79.5t26 -105.5v-830h-150v830 q0 31 -22 53t-53 22t-53 -22t-22 -53v-610h-150z" glyph-name="E_X_two.liga" horiz-adv-x="980" unicode="EX2"/><glyph d="M40 0v2000h410v-150h-260v-625h220v-150h-220v-925h590v-150h-740zM480 1200v800h150v-800q0 -31 22 -53t53 -22t53 22t22 53v800h150v-800q0 -72 -42 -130t-108 -82v-768h-150v768q-66 24 -108 82t-42 130z" glyph-name="E_Y.liga" horiz-adv-x="940" unicode="EY"/><glyph d="M40 0v2000h590v-150h-440v-625h220v-150h-220v-925h260v-150h-410zM480 1200v580h150v-580q0 -31 22 -53t53 -22t53 22t22 53v800h150v-800q0 -72 -42 -130t-108 -82v-988h-150v988q-66 24 -108 82t-42 130z" glyph-name="E_Y_one.liga" horiz-adv-x="940" unicode="EY1"/><glyph d="M40 0v2000h590v-150h-440v-625h220v-150h-220v-925h590v-150h-740zM480 1200v580h150v-580q0 -31 22 -53t53 -22t53 22t22 53v800h150v-800q0 -72 -42 -130t-108 -82v-758h-150v758q-66 24 -108 82t-42 130z" glyph-name="E_Y_two.liga" horiz-adv-x="940" unicode="EY2"/><glyph d="M490 220l275 1630h-275v150h450l-275 -1630h275v-150h-450zM40 0v2000h410v-150h-260v-625h220v-150h-220v-925h750v-150h-900z" glyph-name="E_Z.liga" horiz-adv-x="960" unicode="EZ"/><glyph d="M490 0l275 1630h-275v150h450l-275 -1630h275v-150h-450zM40 0v2000h900v-150h-750v-625h220v-150h-220v-925h260v-150h-410z" glyph-name="E_Z_one.liga" horiz-adv-x="960" unicode="EZ1"/><glyph d="M490 220l271 1410h-271v150h450l-271 -1410h271v-150h-450zM40 0v2000h900v-150h-750v-625h220v-150h-220v-925h750v-150h-900z" glyph-name="E_Z_two.liga" horiz-adv-x="960" unicode="EZ2"/><glyph d="M40 0v2000h900v-150h-750v-625h220v-150h-220v-1075h-150zM490 0v1561q0 93 66 159t159 66t159 -66t66 -159v-1561h-150v1075h-150v-1075h-150zM640 1225h150v336q0 31 -22 53t-53 22t-53 -22t-22 -53v-336z" glyph-name="F_A.liga" horiz-adv-x="970" unicode="FA"/><glyph d="M40 0v2000h910v-150h-760v-625h220v-150h-220v-1075h-150zM500 0v1770h225q93 0 159 -66t66 -159v-245q0 -85 -57 -150q57 -65 57 -150v-775q0 -93 -66 -159t-159 -66h-225zM650 150h75q31 0 53 22t22 53v775q0 31 -22 53t-53 22h-75v-925zM650 1225h75q31 0 53 22t22 53 v245q0 31 -22 53t-53 22h-75v-395z" glyph-name="F_B.liga" horiz-adv-x="980" unicode="FB"/><glyph d="M40 0v2000h900v-150h-750v-625h220v-150h-220v-1075h-150zM490 209v1352q0 93 66 159t159 66t159 -66t66 -159v-300h-150v300q0 31 -22 53t-53 22t-53 -22t-22 -53v-1352q0 -31 22 -53t53 -22t53 22t22 53v300h150v-300q0 -93 -66 -159t-159 -66t-159 66t-66 159z" glyph-name="F_C.liga" horiz-adv-x="960" unicode="FC"/><glyph d="M40 0v2000h910v-150h-760v-625h220v-150h-220v-1075h-150zM500 0v1770h225q93 0 159 -66t66 -159v-1320q0 -93 -66 -159t-159 -66h-225zM650 150h75q31 0 53 22t22 53v1320q0 31 -22 53t-53 22h-75v-1470z" glyph-name="F_D.liga" horiz-adv-x="980" unicode="FD"/><glyph d="M40 0v2000h870v-150h-720v-625h220v-150h-220v-1075h-150zM500 0v1780h410v-150h-260v-405h220v-150h-220v-925h260v-150h-410z" glyph-name="F_E.liga" horiz-adv-x="930" unicode="FE"/><glyph d="M40 0v2000h870v-150h-720v-625h220v-150h-220v-1075h-150zM500 0v1780h410v-150h-260v-405h220v-150h-220v-1075h-150z" glyph-name="F_F.liga" horiz-adv-x="920" unicode="FF"/><glyph d="M40 0v2000h910v-150h-760v-625h220v-150h-220v-1075h-150zM500 209v1352q0 93 66 159t159 66t159 -66t66 -159v-300h-150v300q0 31 -22 53t-53 22t-53 -22t-22 -53v-1352q0 -31 22 -53t53 -22t53 22t22 53v150h-75v150h225v-300q0 -93 -66 -159t-159 -66t-159 66t-66 159 z" glyph-name="F_G.liga" horiz-adv-x="970" unicode="FG"/><glyph d="M780 0v1075h-150v-1075h-150v1770h150v-545h150v775h150v-2000h-150zM40 0v2000h590v-150h-440v-625h220v-150h-220v-1075h-150z" glyph-name="F_H.liga" horiz-adv-x="970" unicode="FH"/><glyph d="M40 0v2000h590v-150h-440v-625h220v-150h-220v-1075h-150zM480 0v1780h150v-1780h-150z" glyph-name="F_I.liga" horiz-adv-x="670" unicode="FI"/><glyph d="M40 0v2000h675v-150h-525v-625h220v-150h-220v-1075h-150zM265 209h150q0 -31 22 -53t53 -22t53 22t22 53v1571h150v-1571q0 -93 -66 -159t-159 -66t-159 66t-66 159z" glyph-name="F_J.liga" horiz-adv-x="745" unicode="FJ"/><glyph d="M40 0v2000h610v-150h-460v-625h220v-150h-220v-1075h-150zM500 0v1780h150v-555h75q31 0 53 22t22 53v700h150v-700q0 -85 -57 -150q57 -65 57 -150v-1000h-150v1000q0 31 -22 53t-53 22h-75v-1075h-150z" glyph-name="F_K.liga" horiz-adv-x="990" unicode="FK"/><glyph d="M40 0v2000h590v-150h-440v-625h220v-150h-220v-1075h-150zM480 0v1780h150v-1630h260v-150h-410z" glyph-name="F_L.liga" horiz-adv-x="900" unicode="FL"/><glyph d="M800 900l-150 440v-1340h-150v1780h150l217 -636l233 856h150v-2000h-150v1450l-150 -550h-150zM40 0v2000h610v-150h-460v-625h220v-150h-220v-1075h-150z" glyph-name="F_M.liga" horiz-adv-x="1290" unicode="FM"/><glyph d="M40 0v2000h890v-150h-740v-625h220v-150h-220v-1075h-150zM480 0v1780h150l150 -250v250h150v-1780h-150v1280l-150 250v-1530h-150z" glyph-name="F_N.liga" horiz-adv-x="970" unicode="FN"/><glyph d="M40 0v2000h890v-150h-740v-625h220v-150h-220v-1075h-150zM480 209v1352q0 93 66 159t159 66t159 -66t66 -159v-1352q0 -93 -66 -159t-159 -66t-159 66t-66 159zM630 209q0 -31 22 -53t53 -22t53 22t22 53v1352q0 31 -22 53t-53 22t-53 -22t-22 -53v-1352z" glyph-name="F_O.liga" horiz-adv-x="960" unicode="FO"/><glyph d="M1000 0v1075h-70v-866q0 -93 -66 -159t-159 -66t-159 66t-66 159v866h-290v-1075h-150v2000h890v-150h-740v-625h290v336q0 93 66 159t159 66t159 -66t66 -159v-336h70v775h225q93 0 159 -66t66 -159v-475q0 -85 -57 -150q57 -65 57 -150v-1000h-150v1000q0 31 -22 53 t-53 22h-75v-1075h-150zM630 209q0 -31 22 -53t53 -22t53 22t22 53v866h-150v-866zM630 1225h150v336q0 31 -22 53t-53 22t-53 -22t-22 -53v-336zM1150 1225h75q31 0 53 22t22 53v475q0 31 -22 53t-53 22h-75v-625z" glyph-name="F_O_R.liga" horiz-adv-x="1480" unicode="FOR"/><glyph d="M40 0v2000h890v-150h-740v-625h220v-150h-220v-1075h-150zM480 0v1780h225q93 0 159 -66t66 -159v-255q0 -93 -66 -159t-159 -66h-75v-1075h-150zM630 1225h75q31 0 53 22t22 53v255q0 31 -22 53t-53 22h-75v-405z" glyph-name="F_P.liga" horiz-adv-x="940" unicode="FP"/><glyph d="M40 0v2000h890v-150h-740v-625h220v-150h-220v-1075h-150zM480 209v1352q0 93 66 159t159 66t159 -66t66 -159v-1352q0 -72 -42 -130t-108 -82v-197h-150v197q-66 24 -108 82t-42 130zM630 209q0 -31 22 -53t53 -22t53 22t22 53v1352q0 31 -22 53t-53 22t-53 -22t-22 -53 v-1352z" glyph-name="F_Q.liga" horiz-adv-x="960" unicode="FQ"/><glyph d="M40 0v2000h890v-150h-740v-625h220v-150h-220v-1075h-150zM480 0v1780h225q93 0 159 -66t66 -159v-255q0 -85 -57 -150q57 -65 57 -150v-1000h-150v1000q0 31 -22 53t-53 22h-75v-1075h-150zM630 1225h75q31 0 53 22t22 53v255q0 31 -22 53t-53 22h-75v-405z" glyph-name="F_R.liga" horiz-adv-x="960" unicode="FR"/><glyph d="M40 0v2000h890v-150h-740v-625h220v-150h-220v-1075h-150zM480 209v230h150v-230q0 -31 22 -53t53 -22t53 22t22 53v571q0 31 -22 53t-53 22q-93 0 -159 66t-66 159v481q0 93 66 159t159 66t159 -66t66 -159v-270h-150v270q0 31 -22 53t-53 22t-53 -22t-22 -53v-481 q0 -31 22 -53t53 -22q93 0 159 -66t66 -159v-571q0 -93 -66 -159t-159 -66t-159 66t-66 159z" glyph-name="F_S.liga" horiz-adv-x="960" unicode="FS"/><glyph d="M40 0v2000h740v-150h-590v-625h220v-150h-220v-1075h-150zM330 1630v150h450v-150h-150v-1630h-150v1630h-150z" glyph-name="F_T.liga" horiz-adv-x="790" unicode="FT"/><glyph d="M40 0v2000h590v-150h-440v-625h220v-150h-220v-1075h-150zM480 209v1571h150v-1571q0 -31 22 -53t53 -22t53 22t22 53v1791h150v-1791q0 -93 -66 -159t-159 -66t-159 66t-66 159z" glyph-name="F_U.liga" horiz-adv-x="960" unicode="FU"/><glyph d="M570 0l-100 1780h150l64 -1129l5 -436h12l2 436l67 1349h150l-100 -2000h-250zM40 0v2000h580v-150h-430v-625h220v-150h-220v-1075h-150z" glyph-name="F_V.liga" horiz-adv-x="930" unicode="FV"/><glyph d="M40 0v2000h590v-150h-440v-625h220v-150h-220v-1075h-150zM480 209v1571h150v-1571q0 -31 22 -53t53 -22t53 22t22 53v1791h150v-1791q0 -31 22 -53t53 -22t53 22t22 53v1791h150v-1791q0 -93 -66 -159t-159 -66q-85 0 -150 57q-65 -57 -150 -57q-93 0 -159 66t-66 159z " glyph-name="F_W.liga" horiz-adv-x="1260" unicode="FW"/><glyph d="M40 0v2000h590v-150h-440v-625h220v-150h-220v-1075h-150zM480 0v830q0 57 26 105.5t71 79.5q-45 31 -71 79.5t-26 105.5v580h150v-580q0 -31 22 -53t53 -22t53 22t22 53v800h150v-800q0 -57 -26 -105.5t-71 -79.5q45 -31 71 -79.5t26 -105.5v-830h-150v830q0 31 -22 53 t-53 22t-53 -22t-22 -53v-830h-150z" glyph-name="F_X.liga" horiz-adv-x="960" unicode="FX"/><glyph d="M40 0v2000h580v-150h-430v-625h220v-150h-220v-1075h-150zM470 1200v580h150v-580q0 -31 22 -53t53 -22t53 22t22 53v800h150v-800q0 -72 -42 -130t-108 -82v-988h-150v988q-66 24 -108 82t-42 130z" glyph-name="F_Y.liga" horiz-adv-x="930" unicode="FY"/><glyph d="M300 0l275 1620h-275v150h450l-275 -1620h275v-150h-450zM40 0v2000h710v-150h-560v-625h220v-150h-220v-1075h-150z" glyph-name="F_Z.liga" horiz-adv-x="770" unicode="FZ"/><glyph d="M40 1492q0 106 41.5 203.5t111.5 167.5t167.5 111.5t203.5 41.5t203.5 -41.5t167.5 -111.5t111.5 -167.5t41.5 -203.5v-201h-150v201q0 154 -110 264t-264 110t-264 -110t-110 -264v-1283q0 -31 22 -53t53 -22t53 22t22 53v350h-75v150h225v-500q0 -93 -66 -159t-159 -66 t-159 66t-66 159v1283zM340 779v722q0 93 66 159t159 66t159 -66t66 -159v-1501h-150v1075h-150v-296h-150zM490 1225h150v276q0 31 -22 53t-53 22t-53 -22t-22 -53v-276z" glyph-name="G_A.liga" horiz-adv-x="1098" unicode="GA"/><glyph d="M550 0v1075q-88 6 -149 71t-61 154v491q0 31 -22 53t-53 22t-53 -22t-22 -53v-1582q0 -31 22 -53t53 -22t53 22t22 53v350h-75v150h225v-500q0 -93 -66 -159t-159 -66t-159 66t-66 159v1582q0 93 66 159t159 66t159 -66t66 -159v-491q0 -27 17 -47.5t43 -25.5v773h225 q93 0 159 -66t66 -159v-475q0 -85 -57 -150q57 -65 57 -150v-775q0 -93 -66 -159t-159 -66h-225zM700 150h75q31 0 53 22t22 53v775q0 31 -22 53t-53 22h-75v-925zM700 1225h75q31 0 53 22t22 53v475q0 31 -22 53t-53 22h-75v-625z" glyph-name="G_B.liga" horiz-adv-x="1030" unicode="GB"/><glyph d="M540 209v783q-89 37 -144.5 118.5t-55.5 180.5v500q0 31 -22 53t-53 22t-53 -22t-22 -53v-1582q0 -31 22 -53t53 -22t53 22t22 53v350h-75v150h225v-500q0 -93 -66 -159t-159 -66t-159 66t-66 159v1582q0 93 66 159t159 66t159 -66t66 -159v-499q0 -70 50 -122v621 q0 93 66 159t159 66t159 -66t66 -159v-499v-1q-1 -127 -87.5 -220t-212.5 -103v-759q0 -31 22 -53t53 -22t53 22t22 53v500h150v-500q0 -93 -66 -159t-159 -66t-159 66t-66 159zM690 1119q64 9 107 58.5t43 114.5v499q0 31 -22 53t-53 22t-53 -22t-22 -53v-672z" glyph-name="G_C.liga" horiz-adv-x="1010" unicode="GC"/><glyph d="M40 1426q0 160 79 296t215 215t296 79t296 -79t215 -215t79 -296v-135h-150v135q0 182 -129 311t-311 129t-311 -129t-129 -311v-1217q0 -31 22 -53t53 -22t53 22t22 53v350h-75v150h225v-500q0 -93 -66 -159t-159 -66t-159 66t-66 159v1217zM550 0v1700h225 q93 0 159 -66t66 -159v-1250q0 -93 -66 -159t-159 -66h-225zM700 150h75q31 0 53 22t22 53v1250q0 31 -22 53t-53 22h-75v-1400z" glyph-name="G_D.liga" horiz-adv-x="1230" unicode="GD"/><glyph d="M40 209v1582q0 93 66 159t159 66t159 -66t66 -159v-491q0 -27 17 -47.5t43 -25.5v773h410v-150h-260v-625h220v-150h-220v-925h260v-150h-410v1075q-88 6 -149 71t-61 154v491q0 31 -22 53t-53 22t-53 -22t-22 -53v-1582q0 -31 22 -53t53 -22t53 22t22 53v350h-75v150 h225v-500q0 -93 -66 -159t-159 -66t-159 66t-66 159z" glyph-name="G_E.liga" horiz-adv-x="980" unicode="GE"/><glyph d="M40 209v1582q0 93 66 159t159 66t159 -66t66 -159v-491q0 -27 17 -47.5t43 -25.5v773h410v-150h-260v-625h220v-150h-220v-1075h-150v1075q-88 6 -149 71t-61 154v491q0 31 -22 53t-53 22t-53 -22t-22 -53v-1582q0 -31 22 -53t53 -22t53 22t22 53v350h-75v150h225v-500 q0 -93 -66 -159t-159 -66t-159 66t-66 159z" glyph-name="G_F.liga" horiz-adv-x="970" unicode="GF"/><glyph d="M550 209v775q-94 37 -152 120t-58 187v500q0 31 -22 53t-53 22t-53 -22t-22 -53v-1582q0 -31 22 -53t53 -22t53 22t22 53v350h-75v150h225v-500q0 -93 -66 -159t-159 -66t-159 66t-66 159v1582q0 93 66 159t159 66t159 -66t66 -159v-500q0 -80 60 -134v634q0 93 66 159 t159 66t159 -66t66 -159v-500q0 -128 -86.5 -222.5t-213.5 -106.5v-753q0 -31 22 -53t53 -22t53 22t22 53v350h-75v150h225v-500q0 -93 -66 -159t-159 -66t-159 66t-66 159zM700 1114q64 11 107 61t43 116v500q0 31 -22 53t-53 22t-53 -22t-22 -53v-677z" glyph-name="G_G.liga" horiz-adv-x="1020" unicode="GG"/><glyph d="M40 209v1582q0 93 66 159t159 66t159 -66t66 -159v-491q0 -27 17 -47.5t43 -25.5v773h150v-775h150v775h150v-2000h-150v1075h-150v-1075h-150v1075q-88 6 -149 71t-61 154v491q0 31 -22 53t-53 22t-53 -22t-22 -53v-1582q0 -31 22 -53t53 -22t53 22t22 53v350h-75v150 h225v-500q0 -93 -66 -159t-159 -66t-159 66t-66 159z" glyph-name="G_H.liga" horiz-adv-x="1040" unicode="GH"/><glyph d="M550 0v1521h150v-1521h-150zM40 209v1477q0 136 97 233t233 97t233 -97t97 -233v-95h-150v95q0 74 -53 127t-127 53t-127 -53t-53 -127v-1477q0 -31 22 -53t53 -22t53 22t22 53v350h-75v150h225v-500q0 -93 -66 -159t-159 -66t-159 66t-66 159z" glyph-name="G_I.liga" horiz-adv-x="740" unicode="GI"/><glyph d="M550 -86v1607h150v-1607q0 -93 -66 -159t-159 -66t-159 66t-66 159h150q0 -31 22 -53t53 -22t53 22t22 53zM40 209v1477q0 136 97 233t233 97t233 -97t97 -233v-95h-150v95q0 74 -53 127t-127 53t-127 -53t-53 -127v-1477q0 -31 22 -53t53 -22t53 22t22 53v350h-75v150 h225v-500q0 -93 -66 -159t-159 -66t-159 66t-66 159z" glyph-name="G_J.liga" horiz-adv-x="730" unicode="GJ"/><glyph d="M40 209v1582q0 93 66 159t159 66t159 -66t66 -159v-491q0 -27 17 -47.5t43 -25.5v773h150v-775h75q31 0 53 22t22 53v700h150v-700q0 -85 -57 -150q57 -65 57 -150v-1000h-150v1000q0 31 -22 53t-53 22h-75v-1075h-150v1075q-88 6 -149 71t-61 154v491q0 31 -22 53 t-53 22t-53 -22t-22 -53v-1582q0 -31 22 -53t53 -22t53 22t22 53v350h-75v150h225v-500q0 -93 -66 -159t-159 -66t-159 66t-66 159z" glyph-name="G_K.liga" horiz-adv-x="1040" unicode="GK"/><glyph d="M550 0v1521h150v-1371h260v-150h-410zM40 209v1477q0 136 97 233t233 97t233 -97t97 -233v-95h-150v95q0 74 -53 127t-127 53t-127 -53t-53 -127v-1477q0 -31 22 -53t53 -22t53 22t22 53v350h-75v150h225v-500q0 -93 -66 -159t-159 -66t-159 66t-66 159z" glyph-name="G_L.liga" horiz-adv-x="970" unicode="GL"/><glyph d="M850 900l-150 311v-1211h-150v1521h150l204 -423l246 902h150v-2000h-150v1450l-150 -550h-150zM40 209v1477q0 136 97 233t233 97t233 -97t97 -233v-95h-150v95q0 74 -53 127t-127 53t-127 -53t-53 -127v-1477q0 -31 22 -53t53 -22t53 22t22 53v350h-75v150h225v-500 q0 -93 -66 -159t-159 -66t-159 66t-66 159z" glyph-name="G_M.liga" horiz-adv-x="1340" unicode="GM"/><glyph d="M850 0v1021l-150 250v-1271h-150v1521h150l150 -250v729h150v-2000h-150zM40 209v1477q0 136 97 233t233 97t233 -97t97 -233v-95h-150v95q0 74 -53 127t-127 53t-127 -53t-53 -127v-1477q0 -31 22 -53t53 -22t53 22t22 53v350h-75v150h225v-500q0 -93 -66 -159t-159 -66 t-159 66t-66 159z" glyph-name="G_N.liga" horiz-adv-x="1040" unicode="GN"/><glyph d="M40 1431q0 159 78.5 293.5t213 213t293.5 78.5t293.5 -78.5t213 -213t78.5 -293.5v-134h-149v134q0 180 -127.5 307.5t-308.5 127.5t-308 -127.5t-127 -307.5v-1222q0 -31 22 -53t53 -22t53 22t22 53v350h-75v150h225v-500q0 -93 -66 -159t-159 -66t-159 66t-66 159v1222 zM540 209v1272q0 93 66 159t159 66t159 -66t66 -159v-1272q0 -93 -66 -159t-159 -66t-159 66t-66 159zM690 209q0 -31 22 -53t53 -22t53 22t22 53v1272q0 31 -22 53t-53 22t-53 -22t-22 -53v-1272z" glyph-name="G_O.liga" horiz-adv-x="1220" unicode="GO"/><glyph d="M40 209v1582q0 93 66 159t159 66t159 -66t66 -159v-491q0 -27 17 -47.5t43 -25.5v773h225q93 0 159 -66t66 -159v-475q0 -93 -66 -159t-159 -66h-75v-1075h-150v1075q-88 6 -149 71t-61 154v491q0 31 -22 53t-53 22t-53 -22t-22 -53v-1582q0 -31 22 -53t53 -22t53 22 t22 53v350h-75v150h225v-500q0 -93 -66 -159t-159 -66t-159 66t-66 159zM700 1225h75q31 0 53 22t22 53v475q0 31 -22 53t-53 22h-75v-625z" glyph-name="G_P.liga" horiz-adv-x="1010" unicode="GP"/><glyph d="M40 1431q0 159 78.5 293.5t213 213t293.5 78.5t293.5 -78.5t213 -213t78.5 -293.5v-134h-149v134q0 180 -127.5 307.5t-308.5 127.5t-308 -127.5t-127 -307.5v-1222q0 -31 22 -53t53 -22t53 22t22 53v350h-75v150h225v-500q0 -93 -66 -159t-159 -66t-159 66t-66 159v1222 zM540 209v1282q0 93 66 159t159 66t159 -66t66 -159v-1282q0 -72 -42 -130t-108 -82v-197h-150v197q-66 24 -108 82t-42 130zM690 209q0 -31 22 -53t53 -22t53 22t22 53v1282q0 31 -22 53t-53 22t-53 -22t-22 -53v-1282z" glyph-name="G_Q.liga" horiz-adv-x="1220" unicode="GQ"/><glyph d="M40 209v1582q0 93 66 159t159 66t159 -66t66 -159v-491q0 -27 17 -47.5t43 -25.5v773h225q93 0 159 -66t66 -159v-475q0 -85 -57 -150q57 -65 57 -150v-1000h-150v1000q0 31 -22 53t-53 22h-75v-1075h-150v1075q-88 6 -149 71t-61 154v491q0 31 -22 53t-53 22t-53 -22 t-22 -53v-1582q0 -31 22 -53t53 -22t53 22t22 53v350h-75v150h225v-500q0 -93 -66 -159t-159 -66t-159 66t-66 159zM700 1225h75q31 0 53 22t22 53v475q0 31 -22 53t-53 22h-75v-625z" glyph-name="G_R.liga" horiz-adv-x="1030" unicode="GR"/><glyph d="M40 1496q0 106 41 202t111 166t166 111t202 41t202 -41t166 -111t111 -166t41 -202v-205h-150v205q0 153 -108.5 261.5t-261.5 108.5t-261.5 -108.5t-108.5 -261.5v-1287q0 -31 22 -53t53 -22t53 22t22 53v350h-75v150h225v-500q0 -93 -66 -159t-159 -66t-159 66t-66 159 v1287zM260 1450v150h600v-150h-150v-1450h-150v1450h-300z" glyph-name="G_T.liga" horiz-adv-x="1090" unicode="GT"/><glyph d="M840 209v1791h150v-1791q0 -93 -66 -159t-159 -66t-159 66t-66 159v1312h150v-1312q0 -31 22 -53t53 -22t53 22t22 53zM40 209v1482q0 134 95.5 229.5t229.5 95.5t229.5 -95.5t95.5 -229.5v-100h-150v100q0 73 -51 124t-124 51t-124 -51t-51 -124v-1482q0 -31 22 -53 t53 -22t53 22t22 53v350h-75v150h225v-500q0 -93 -66 -159t-159 -66t-159 66t-66 159z" glyph-name="G_U.liga" horiz-adv-x="1020" unicode="GU"/><glyph d="M1140 209v1791h150v-1791q0 -93 -66 -159t-159 -66q-85 0 -150 57q-65 -57 -150 -57q-93 0 -159 66t-66 159v1312h150v-1312q0 -31 22 -53t53 -22t53 22t22 53v1791h150v-1791q0 -31 22 -53t53 -22t53 22t22 53zM40 209v1482q0 134 95.5 229.5t229.5 95.5t229.5 -95.5 t95.5 -229.5v-100h-150v100q0 73 -51 124t-124 51t-124 -51t-51 -124v-1482q0 -31 22 -53t53 -22t53 22t22 53v350h-75v150h225v-500q0 -93 -66 -159t-159 -66t-159 66t-66 159z" glyph-name="G_W.liga" horiz-adv-x="1320" unicode="GW"/><glyph d="M40 209v1482q0 134 95.5 229.5t229.5 95.5t229.5 -95.5t95.5 -229.5v-100h-150v100q0 73 -51 124t-124 51t-124 -51t-51 -124v-1482q0 -31 22 -53t53 -22t53 22t22 53v350h-75v150h225v-500q0 -93 -66 -159t-159 -66t-159 66t-66 159zM540 0v830q0 57 26 105.5t71 79.5 q-45 31 -71 79.5t-26 105.5v321h150v-321q0 -31 22 -53t53 -22t53 22t22 53v800h150v-800q0 -57 -26 -105.5t-71 -79.5q45 -31 71 -79.5t26 -105.5v-830h-150v830q0 31 -22 53t-53 22t-53 -22t-22 -53v-830h-150z" glyph-name="G_X.liga" horiz-adv-x="1020" unicode="GX"/><glyph d="M40 209v1547q0 108 76 184t184 76t184 -76t76 -184v-165h-150v165q0 46 -32 78t-78 32t-78 -32t-32 -78v-1547q0 -31 22 -53t53 -22t53 22t22 53v350h-75v150h225v-500q0 -93 -66 -159t-159 -66t-159 66t-66 159zM410 1200v321h150v-321q0 -31 22 -53t53 -22t53 22t22 53 v800h150v-800q0 -72 -42 -130t-108 -82v-988h-150v988q-66 24 -108 82t-42 130z" glyph-name="G_Y.liga" horiz-adv-x="870" unicode="GY"/><glyph d="M530 0l263 1071h-453v150h640l-263 -1071h263v-150h-450zM40 209v1582q0 93 66 159t159 66t159 -66t66 -159v-500h-150v500q0 31 -22 53t-53 22t-53 -22t-22 -53v-1582q0 -31 22 -53t53 -22t53 22t22 53v350h-75v150h225v-500q0 -93 -66 -159t-159 -66t-159 66t-66 159z " glyph-name="G_Z.liga" horiz-adv-x="1000" unicode="GZ"/><glyph d="M40 0v2000h150v-775h150v775h150v-1831q0 -14 10.5 -24.5t24.5 -10.5t24.5 10.5t10.5 24.5v1622q0 93 66 159t159 66t159 -66t66 -159v-1791h-150v1075h-150v-906q0 -77 -54 -131t-131 -54t-131 54t-54 131v906h-150v-1075h-150zM710 1225h150v566q0 31 -22 53t-53 22 t-53 -22t-22 -53v-566z" glyph-name="H_A.liga" horiz-adv-x="1040" unicode="HA"/><glyph d="M1080 0q-92 2 -156 68t-64 157v850h-150v-906q0 -77 -54 -131t-131 -54t-131 54t-54 131v906h-150v-1075h-150v2000h150v-775h150v775h150v-1831q0 -15 10 -25t25 -10t25 10t10 25v1622q0 93 66 159t159 66t159 -66t66 -159v-1566q0 -29 20.5 -51t49.5 -24v1850h225 q93 0 159 -66t66 -159v-1550q0 -93 -66 -159t-159 -66h-220h-5zM710 1225h150v566q0 31 -22 53t-53 22t-53 -22t-22 -53v-566zM1230 150h75q31 0 53 22t22 53v1550q0 31 -22 53t-53 22h-75v-1700z" glyph-name="H_A_D.liga" horiz-adv-x="1560" unicode="HAD"/><glyph d="M40 0v2000h150v-775h150v775h150v-1831q0 -15 10 -25t25 -10t25 10t10 25v1622q0 93 66 159t159 66t159 -66t66 -159v-1012h-150v296h-150v-906q0 -77 -54 -131t-131 -54t-131 54t-54 131v906h-150v-1075h-150zM710 1225h150v566q0 31 -22 53t-53 22t-53 -22t-22 -53 v-566zM860 314v395h150v-395q0 -74 53 -127t127 -53t127 53t53 127v536q0 31 -22 53t-53 22q-93 0 -159 66t-66 159v641q0 93 66 159t159 66t159 -66t66 -159v-500h-150v500q0 31 -22 53t-53 22t-53 -22t-22 -53v-641q0 -31 22 -53t53 -22q93 0 159 -66t66 -159v-536 q0 -136 -97 -233t-233 -97t-233 97t-97 233z" glyph-name="H_A_S.liga" horiz-adv-x="1550" unicode="HAS"/><glyph d="M340 0v1075h-150v-1075h-150v2000h150v-775h150v775h150v-775h80v775h225q93 0 159 -66t66 -159v-475q0 -85 -57 -150q57 -65 57 -150v-775q0 -93 -66 -159t-159 -66h-225v1075h-80v-1075h-150zM720 150h75q31 0 53 22t22 53v775q0 31 -22 53t-53 22h-75v-925zM720 1225 h75q31 0 53 22t22 53v475q0 31 -22 53t-53 22h-75v-625z" glyph-name="H_B.liga" horiz-adv-x="1050" unicode="HB"/><glyph d="M565 0q-93 0 -159 66t-66 159v850h-150v-1075h-150v2000h150v-775h150v775h150v-1775q0 -31 22 -53t53 -22h5v1850h225q93 0 159 -66t66 -159v-1550q0 -93 -66 -159t-159 -66h-230zM720 150h75q31 0 53 22t22 53v1550q0 31 -22 53t-53 22h-75v-1700z" glyph-name="H_D.liga" horiz-adv-x="1050" unicode="HD"/><glyph d="M570 0v1075h-80v-1075h-150v1075h-150v-1075h-150v2000h150v-775h150v775h150v-775h80v775h410v-150h-260v-625h220v-150h-220v-925h260v-150h-410z" glyph-name="H_E.liga" horiz-adv-x="1000" unicode="HE"/><glyph d="M570 0v1075h-80v-1075h-150v1075h-150v-1075h-150v2000h150v-775h150v775h150v-775h80v775h410v-150h-260v-625h220v-150h-220v-1075h-150z" glyph-name="H_F.liga" horiz-adv-x="990" unicode="HF"/><glyph d="M340 0v559h-150v-559h-150v2000h150v-1291h150v1291h150v-1291h73v1082q0 93 66 159t159 66t159 -66t66 -159v-500h-150v500q0 31 -22 53t-53 22t-53 -22t-22 -53v-1082h300v-500q0 -93 -66 -159t-159 -66t-159 66t-66 159v350h-73v-559h-150zM713 209q0 -31 22 -53 t53 -22t53 22t22 53v350h-150v-350z" glyph-name="H_G.liga" horiz-adv-x="1033" unicode="HG"/><glyph d="M340 0v1076l-150 -1v-1075h-150v2000h150v-775l150 1v774h150v-773h80v773h150v-775h75q31 0 53 22t22 53v700h150v-700q0 -85 -57 -150q57 -65 57 -150v-1000h-150v1000q0 31 -22 53t-53 22h-75v-1075h-150v1077h-80v-1077h-150z" glyph-name="H_K.liga" horiz-adv-x="1060" unicode="HK"/><glyph d="M640 900l-150 550v-50h-150v600h150l225 -825l225 825h150v-2000h-150v1450l-150 -550h-150zM40 0v2000h150v-775h150v105h150v-1330h-150v1075h-150v-1075h-150z" glyph-name="H_M.liga" horiz-adv-x="1130" unicode="HM"/><glyph d="M640 0v1500l-150 250v-250h-150v500h150l150 -250v250h150v-2000h-150zM40 0v2000h150v-775h150v205h150v-1430h-150v1075h-150v-1075h-150z" glyph-name="H_N.liga" horiz-adv-x="830" unicode="HN"/><glyph d="M340 0v1075h-150v-1075h-150v2000h150v-775h150v775h150v-775h80v775h225q93 0 159 -66t66 -159v-475q0 -93 -66 -159t-159 -66h-75v-1075h-150v1075h-80v-1075h-150zM720 1225h75q31 0 53 22t22 53v475q0 31 -22 53t-53 22h-75v-625z" glyph-name="H_P.liga" horiz-adv-x="1030" unicode="HP"/><glyph d="M340 0v1075h-150v-1075h-150v2000h150v-775h150v775h150v-775h80v775h225q93 0 159 -66t66 -159v-475q0 -85 -57 -150q57 -65 57 -150v-1000h-150v1000q0 31 -22 53t-53 22h-75v-1075h-150v1075h-80v-1075h-150zM720 1225h75q31 0 53 22t22 53v475q0 31 -22 53t-53 22 h-75v-625z" glyph-name="H_R.liga" horiz-adv-x="1050" unicode="HR"/><glyph d="M40 0v2000h150v-775h150v775h150v-1521h-150v596h-150v-1075h-150zM340 314v95h150v-95q0 -74 53 -127t127 -53t127 53t53 127v536q0 31 -22 53t-53 22q-93 0 -159 66t-66 159v641q0 93 66 159t159 66t159 -66t66 -159v-500h-150v500q0 31 -22 53t-53 22t-53 -22t-22 -53 v-641q0 -31 22 -53t53 -22q93 0 159 -66t66 -159v-536q0 -136 -97 -233t-233 -97t-233 97t-97 233z" glyph-name="H_S.liga" horiz-adv-x="1030" unicode="HS"/><glyph d="M560 0v1850h-220v150h520v-150h-150v-1850h-150zM40 0v2000h150v-775h150v555h150v-1780h-150v1075h-150v-1075h-150z" glyph-name="H_T.liga" horiz-adv-x="870" unicode="HT"/><glyph d="M40 0v2000h150v-775h150v606q0 77 54 131t131 54t131 -54t54 -131v-1622q0 -31 22 -53t53 -22t53 22t22 53v1791h150v-1791q0 -93 -66 -159t-159 -66t-159 66t-66 159v1622q0 14 -10.5 24.5t-24.5 10.5t-24.5 -10.5t-10.5 -24.5v-1831h-150v1075h-150v-1075h-150z" glyph-name="H_U.liga" horiz-adv-x="1040" unicode="HU"/><glyph d="M40 0v2000h150v-775h150v606q0 77 54 131t131 54t131 -54t54 -131v-1622q0 -31 22 -53t53 -22t53 22t22 53v1791h150v-1791q0 -31 22 -53t53 -22t53 22t22 53v1791h150v-1791q0 -93 -66 -159t-159 -66q-85 0 -150 57q-65 -57 -150 -57q-93 0 -159 66t-66 159v1622 q0 14 -10.5 24.5t-24.5 10.5t-24.5 -10.5t-10.5 -24.5v-1831h-150v1075h-150v-1075h-150z" glyph-name="H_W.liga" horiz-adv-x="1340" unicode="HW"/><glyph d="M40 0v2000h150v-775h150v606q0 77 54 131t131 54t131 -54t54 -131v-631q0 -31 22 -53t53 -22t53 22t22 53v800h150v-800q0 -57 -26 -105.5t-71 -79.5q45 -31 71 -79.5t26 -105.5v-830h-150v830q0 31 -22 53t-53 22t-53 -22t-22 -53v-830h-150v830q0 57 26 105.5t71 79.5 q-45 31 -71 79.5t-26 105.5v631q0 14 -10.5 24.5t-24.5 10.5t-24.5 -10.5t-10.5 -24.5v-1831h-150v1075h-150v-1075h-150z" glyph-name="H_X.liga" horiz-adv-x="1040" unicode="HX"/><glyph d="M40 0v2000h150v-775h150v616q0 73 51 124t124 51t124 -51t51 -124v-641q0 -31 22 -53t53 -22t53 22t22 53v800h150v-800q0 -72 -42 -130t-108 -82v-988h-150v988q-66 24 -108 82t-42 130v641q0 11 -7 18t-18 7t-18 -7t-7 -18v-1841h-150v1075h-150v-1075h-150z" glyph-name="H_Y.liga" horiz-adv-x="1000" unicode="HY"/><glyph d="M40 0v1780h150v-1780h-150zM40 1850v150h1080v-150h-150v-1850h-150v1850h-780zM270 0v1780h150l150 -250v250h150v-1780h-150v1280l-150 250v-1530h-150z" glyph-name="I_N_T.liga" horiz-adv-x="1130" unicode="INT"/><glyph d="M780 0v1850h-740v150h1040v-150h-150v-1850h-150zM40 319v1451h150v-1451q0 -76 54.5 -130.5t130.5 -54.5t130.5 54.5t54.5 130.5v531q0 31 -22 53t-53 22q-93 0 -159 66t-66 159v411q0 93 66 159t159 66t159 -66t66 -159v-270h-150v270q0 31 -22 53t-53 22t-53 -22 t-22 -53v-411q0 -31 22 -53t53 -22q93 0 159 -66t66 -159v-531q0 -139 -98 -237t-237 -98t-237 98t-98 237z" glyph-name="I_S_T.liga" horiz-adv-x="1090" unicode="IST"/><glyph d="M630 0v1850h-590v150h890v-150h-150v-1850h-150zM40 0v1560h150v-1560h-150zM40 1630v150h520v-150h-150v-1630h-150v1630h-220z" glyph-name="I_T_T.liga" horiz-adv-x="940" unicode="ITT"/><glyph d="M40 0v2000h150v-775h75q31 0 53 22t22 53v700h150v-700q0 -85 -57 -150q57 -65 57 -150v-831q0 -14 10.5 -24.5t24.5 -10.5t24.5 10.5t10.5 24.5v1622q0 93 66 159t159 66t159 -66t66 -159v-1791h-150v1075h-150v-906q0 -77 -54 -131t-131 -54t-131 54t-54 131v831 q0 31 -22 53t-53 22h-75v-1075h-150zM710 1225h150v566q0 31 -22 53t-53 22t-53 -22t-22 -53v-566z" glyph-name="K_A.liga" horiz-adv-x="1040" unicode="KA"/><glyph d="M565 0q-93 0 -159 66t-66 159v775q0 31 -22 53t-53 22h-75v-1075h-150v2000h150v-775h75q31 0 53 22t22 53v700h150v-700q0 -85 -57 -150q57 -65 57 -150v-775q0 -31 22 -53t53 -22h2v1850h225q93 0 159 -66t66 -159v-475q0 -85 -57 -150q57 -65 57 -150v-775 q0 -93 -66 -159t-159 -66h-227zM717 150h75q31 0 53 22t22 53v775q0 31 -22 53t-53 22h-75v-925zM717 1225h75q31 0 53 22t22 53v475q0 31 -22 53t-53 22h-75v-625z" glyph-name="K_B.liga" horiz-adv-x="1047" unicode="KB"/><glyph d="M785 -16q-121 0 -223.5 59.5t-162 162t-59.5 223.5v571q0 31 -22 53t-53 22h-75v-1075h-150v2000h150v-775h75q31 0 53 22t22 53v700h150v-700q0 -85 -57 -150q57 -65 57 -150v-571q0 -122 86.5 -208.5t208.5 -86.5t208.5 86.5t86.5 208.5v280h150v-280 q0 -121 -59.5 -223.5t-162 -162t-223.5 -59.5zM560 429v1362q0 93 66 159t159 66t159 -66t66 -159v-400h-150v400q0 31 -22 53t-53 22t-53 -22t-22 -53v-1362q0 -31 22 -53t53 -22t53 22t22 53v400h150v-400q0 -93 -66 -159t-159 -66t-159 66t-66 159z" glyph-name="K_C.liga" horiz-adv-x="1250" unicode="KC"/><glyph d="M40 0v2000h150v-775h75q31 0 53 22t22 53v700h150v-700q0 -85 -57 -150q57 -65 57 -150v-775q0 -31 22 -53t53 -22h2v1850h225q93 0 159 -66t66 -159v-1550q0 -93 -66 -159t-159 -66h-227q-93 0 -159 66t-66 159v775q0 31 -22 53t-53 22h-75v-1075h-150zM717 150h75 q31 0 53 22t22 53v1550q0 31 -22 53t-53 22h-75v-1700z" glyph-name="K_D.liga" horiz-adv-x="1047" unicode="KD"/><glyph d="M40 0v2000h150v-775h75q31 0 53 22t22 53v700h150v-700q0 -85 -57 -150q57 -65 57 -150v-775q0 -31 22 -53t53 -22h412v-150h-412q-93 0 -159 66t-66 159v775q0 31 -22 53t-53 22h-75v-1075h-150zM567 220v1780h410v-150h-260v-625h220v-150h-220v-705h260v-150h-410z " glyph-name="K_E.liga" horiz-adv-x="997" unicode="KE"/><glyph d="M40 0v2000h150v-775h75q31 0 53 22t22 53v700h150v-700q0 -85 -57 -150q57 -65 57 -150v-721q0 -60 42.5 -102.5t102.5 -42.5t102.5 42.5t42.5 102.5v430h150v-430q0 -122 -86.5 -208.5t-208.5 -86.5t-208.5 86.5t-86.5 208.5v721q0 31 -22 53t-53 22h-75v-1075h-150z M560 220v1780h410v-150h-260v-625h220v-150h-220v-855h-150z" glyph-name="K_F.liga" horiz-adv-x="980" unicode="KF"/><glyph d="M785 -16q-121 0 -223.5 59.5t-162 162t-59.5 223.5v571q0 31 -22 53t-53 22h-75v-1075h-150v2000h150v-775h75q31 0 53 22t22 53v700h150v-700q0 -85 -57 -150q57 -65 57 -150v-571q0 -122 86.5 -208.5t208.5 -86.5t208.5 86.5t86.5 208.5v280h150v-280 q0 -121 -59.5 -223.5t-162 -162t-223.5 -59.5zM560 429v1362q0 93 66 159t159 66t159 -66t66 -159v-400h-150v400q0 31 -22 53t-53 22t-53 -22t-22 -53v-1362q0 -31 22 -53t53 -22t53 22t22 53v250h-75v150h225v-400q0 -93 -66 -159t-159 -66t-159 66t-66 159z" glyph-name="K_G.liga" horiz-adv-x="1240" unicode="KG"/><glyph d="M860 0v1075h-150v-906q0 -77 -54 -131t-131 -54t-131 54t-54 131v831q0 31 -22 53t-53 22h-75v-1075h-150v2000h150v-775h75q31 0 53 22t22 53v700h150v-700q0 -85 -57 -150q57 -65 57 -150v-831q0 -14 10.5 -24.5t24.5 -10.5t24.5 10.5t10.5 24.5v1831h150v-775h150v775 h150v-2000h-150z" glyph-name="K_H.liga" horiz-adv-x="1050" unicode="KH"/><glyph d="M40 0v2000h150v-775h75q31 0 53 22t22 53v700h150v-700q0 -85 -57 -150q57 -65 57 -150v-831q0 -14 10.5 -24.5t24.5 -10.5t24.5 10.5t10.5 24.5v1831h150v-1831q0 -77 -54 -131t-131 -54t-131 54t-54 131v831q0 31 -22 53t-53 22h-75v-1075h-150z" glyph-name="K_I.liga" horiz-adv-x="750" unicode="KI"/><glyph d="M560 -70v2070h150v-2070q0 -93 -66 -159t-159 -66t-159 66t-66 159h150q0 -31 22 -53t53 -22t53 22t22 53zM40 0v2000h150v-775h75q31 0 53 22t22 53v700h150v-700q0 -85 -57 -150q57 -65 57 -150v-1000h-150v1000q0 31 -22 53t-53 22h-75v-1075h-150z" glyph-name="K_J.liga" horiz-adv-x="740" unicode="KJ"/><glyph d="M40 0v2000h150v-775h75q31 0 53 22t22 53v700h150v-700q0 -85 -57 -150q57 -65 57 -150v-775q0 -31 22 -53t53 -22h405v-150h-405q-93 0 -159 66t-66 159v775q0 31 -22 53t-53 22h-75v-1075h-150zM560 220v1780h150v-1630h260v-150h-410z" glyph-name="K_L.liga" horiz-adv-x="980" unicode="KL"/><glyph d="M860 900l-150 550v-1230h-150v1780h150l225 -825l225 825h150v-2000h-150v1450l-150 -550h-150zM40 0v2000h150v-775h75q31 0 53 22t22 53v700h150v-700q0 -85 -57 -150q57 -65 57 -150v-681q0 -77 54 -131t131 -54t131 54t54 131v270h150v-270q0 -139 -98 -237t-237 -98 t-237 98t-98 237v681q0 31 -22 53t-53 22h-75v-1075h-150z" glyph-name="K_M.liga" horiz-adv-x="1350" unicode="KM"/><glyph d="M860 0v1500l-150 250v-1530h-150v1780h150l150 -250v250h150v-2000h-150zM40 0v2000h150v-775h75q31 0 53 22t22 53v700h150v-700q0 -85 -57 -150q57 -65 57 -150v-775q0 -31 22 -53t53 -22h145v-150h-145q-93 0 -159 66t-66 159v775q0 31 -22 53t-53 22h-75v-1075h-150z " glyph-name="K_N.liga" horiz-adv-x="1050" unicode="KN"/><glyph d="M785 -16q-121 0 -223.5 59.5t-162 162t-59.5 223.5v571q0 31 -22 53t-53 22h-75v-1075h-150v2000h150v-775h75q31 0 53 22t22 53v700h150v-700q0 -85 -57 -150q57 -65 57 -150v-571q0 -122 86.5 -208.5t208.5 -86.5t208.5 86.5t86.5 208.5v280h150v-280 q0 -121 -59.5 -223.5t-162 -162t-223.5 -59.5zM560 429v1362q0 93 66 159t159 66t159 -66t66 -159v-1362q0 -93 -66 -159t-159 -66t-159 66t-66 159zM710 429q0 -31 22 -53t53 -22t53 22t22 53v1362q0 31 -22 53t-53 22t-53 -22t-22 -53v-1362z" glyph-name="K_O.liga" horiz-adv-x="1240" unicode="KO"/><glyph d="M40 0v2000h150v-775h75q31 0 53 22t22 53v700h150v-700q0 -85 -57 -150q57 -65 57 -150v-721q0 -60 42.5 -102.5t102.5 -42.5t102.5 42.5t42.5 102.5v430h150v-430q0 -122 -86.5 -208.5t-208.5 -86.5t-208.5 86.5t-86.5 208.5v721q0 31 -22 53t-53 22h-75v-1075h-150z M560 220v1780h225q93 0 159 -66t66 -159v-475q0 -93 -66 -159t-159 -66h-75v-855h-150zM710 1225h75q31 0 53 22t22 53v475q0 31 -22 53t-53 22h-75v-625z" glyph-name="K_P.liga" horiz-adv-x="1020" unicode="KP"/><glyph d="M785 -16q-121 0 -223.5 59.5t-162 162t-59.5 223.5v571q0 31 -22 53t-53 22h-75v-1075h-150v2000h150v-775h75q31 0 53 22t22 53v700h150v-700q0 -85 -57 -150q57 -65 57 -150v-571q0 -102 62 -181t158 -104v73q-66 24 -108 82t-42 130v1362q0 93 66 159t159 66t159 -66 t66 -159v-1362q0 -72 -42 -130t-108 -82v-73q96 25 158 104t62 181v280h150v-280q0 -121 -59.5 -223.5t-162 -162t-223.5 -59.5zM710 429q0 -31 22 -53t53 -22t53 22t22 53v1362q0 31 -22 53t-53 22t-53 -22t-22 -53v-1362z" glyph-name="K_Q.liga" horiz-adv-x="1240" unicode="KQ"/><glyph d="M40 0v2000h150v-775h75q31 0 53 22t22 53v700h150v-700q0 -85 -57 -150q57 -65 57 -150v-775q0 -31 22 -53t53 -22h149v-150h-149q-93 0 -159 66t-66 159v775q0 31 -22 53t-53 22h-75v-1075h-150zM564 220v1780h225q93 0 159 -66t66 -159v-475q0 -85 -57 -150 q57 -65 57 -150v-1000h-150v1000q0 31 -22 53t-53 22h-75v-855h-150zM714 1225h75q31 0 53 22t22 53v475q0 31 -22 53t-53 22h-75v-625z" glyph-name="K_R.liga" horiz-adv-x="1044" unicode="KR"/><glyph d="M785 -16q-121 0 -223.5 59.5t-162 162t-59.5 223.5v571q0 31 -22 53t-53 22h-75v-1075h-150v2000h150v-775h75q31 0 53 22t22 53v700h150v-700q0 -85 -57 -150q57 -65 57 -150v-571q0 -122 86.5 -208.5t208.5 -86.5t208.5 86.5t86.5 208.5v280h150v-280 q0 -121 -59.5 -223.5t-162 -162t-223.5 -59.5zM560 429v390h150v-390q0 -31 22 -53t53 -22t53 22t22 53v531q0 31 -22 53t-53 22q-93 0 -159 66t-66 159v531q0 93 66 159t159 66t159 -66t66 -159v-390h-150v390q0 31 -22 53t-53 22t-53 -22t-22 -53v-531q0 -31 22 -53 t53 -22q93 0 159 -66t66 -159v-531q0 -93 -66 -159t-159 -66t-159 66t-66 159z" glyph-name="K_S.liga" horiz-adv-x="1240" unicode="KS"/><glyph d="M560 0v1850h-220v150h520v-150h-150v-1850h-150zM40 0v2000h150v-775h75q31 0 53 22t22 53v480h150v-480q0 -85 -57 -150q57 -65 57 -150v-1000h-150v1000q0 31 -22 53t-53 22h-75v-1075h-150z" glyph-name="K_T.liga" horiz-adv-x="870" unicode="KT"/><glyph d="M785 -16q-121 0 -223.5 59.5t-162 162t-59.5 223.5v571q0 31 -22 53t-53 22h-75v-1075h-150v2000h150v-775h75q31 0 53 22t22 53v700h150v-700q0 -85 -57 -150q57 -65 57 -150v-571q0 -122 86.5 -208.5t208.5 -86.5t208.5 86.5t86.5 208.5v280h150v-280 q0 -121 -59.5 -223.5t-162 -162t-223.5 -59.5zM560 429v1571h150v-1571q0 -31 22 -53t53 -22t53 22t22 53v1571h150v-1571q0 -93 -66 -159t-159 -66t-159 66t-66 159z" glyph-name="K_U.liga" horiz-adv-x="1260" unicode="KU"/><glyph d="M40 0v2000h150v-775h75q31 0 53 22t22 53v531q0 77 54 131t131 54t131 -54t54 -131v-1622q0 -31 22 -53t53 -22t53 22t22 53v1791h150v-1791q0 -31 22 -53t53 -22t53 22t22 53v1791h150v-1791q0 -93 -66 -159t-159 -66q-85 0 -150 57q-65 -57 -150 -57q-93 0 -159 66 t-66 159v1622q0 14 -10.5 24.5t-24.5 10.5t-24.5 -10.5t-10.5 -24.5v-531q0 -85 -57 -150q57 -65 57 -150v-1000h-150v1000q0 31 -22 53t-53 22h-75v-1075h-150z" glyph-name="K_W.liga" horiz-adv-x="1340" unicode="KW"/><glyph d="M40 0v2000h150v-775h75q31 0 53 22t22 53v531q0 77 54 131t131 54t131 -54t54 -131v-631q0 -31 22 -53t53 -22t53 22t22 53v800h150v-800q0 -57 -26 -105.5t-71 -79.5q45 -31 71 -79.5t26 -105.5v-830h-150v830q0 31 -22 53t-53 22t-53 -22t-22 -53v-830h-150v830 q0 57 26 105.5t71 79.5q-45 31 -71 79.5t-26 105.5v631q0 14 -10.5 24.5t-24.5 10.5t-24.5 -10.5t-10.5 -24.5v-531q0 -85 -57 -150q57 -65 57 -150v-1000h-150v1000q0 31 -22 53t-53 22h-75v-1075h-150z" glyph-name="K_X.liga" horiz-adv-x="1040" unicode="KX"/><glyph d="M40 0v2000h150v-775h75q31 0 53 22t22 53v700h150v-700q0 -85 -57 -150q57 -65 57 -150v-766q0 -41 29.5 -70.5t70.5 -29.5t70.5 29.5t29.5 70.5v754q-66 24 -108 82t-42 130v800h150v-800q0 -31 22 -53t53 -22t53 22t22 53v800h150v-800q0 -72 -42 -130t-108 -82v-754 q0 -104 -73 -177t-177 -73t-177 73t-73 177v766q0 31 -22 53t-53 22h-75v-1075h-150z" glyph-name="K_Y.liga" horiz-adv-x="1000" unicode="KY"/><glyph d="M40 0v2000h150v-775h75q31 0 53 22t22 53v475q0 93 66 159t159 66h435l-277 -1850h277v-150h-450l278 1850h-263q-31 0 -53 -22t-22 -53v-475q0 -85 -57 -150q57 -65 57 -150v-1000h-150v1000q0 31 -22 53t-53 22h-75v-1075h-150z" glyph-name="K_Z.liga" horiz-adv-x="1020" unicode="KZ"/><glyph d="M40 0v2000h150v-1850h220v-150h-370zM260 220v1571q0 93 66 159t159 66t159 -66t66 -159v-1791h-150v1075h-150v-855h-150zM410 1225h150v566q0 31 -22 53t-53 22t-53 -22t-22 -53v-566z" glyph-name="L_A.liga" horiz-adv-x="740" unicode="LA"/><glyph d="M40 0v2000h150v-1850h520v-150h-670zM260 220v1571q0 93 66 159t159 66t159 -66t66 -159v-1571h-150v855h-150v-855h-150zM410 1225h150v566q0 31 -22 53t-53 22t-53 -22t-22 -53v-566z" glyph-name="L_A_one.liga" horiz-adv-x="740" unicode="LA1"/><glyph d="M40 0v2000h150v-1850h520v-150h-670zM260 220v1780h225q93 0 159 -66t66 -159v-475q0 -85 -57 -150q57 -65 57 -150v-555q0 -93 -66 -159t-159 -66h-225zM410 370h75q31 0 53 22t22 53v555q0 31 -22 53t-53 22h-75v-705zM410 1225h75q31 0 53 22t22 53v475q0 31 -22 53 t-53 22h-75v-625z" glyph-name="L_B.liga" horiz-adv-x="740" unicode="LB"/><glyph d="M40 0v2000h150v-1850h520v-150h-670zM260 439v1352q0 93 66 159t159 66t159 -66t66 -159v-400h-150v400q0 31 -22 53t-53 22t-53 -22t-22 -53v-1352q0 -31 22 -53t53 -22t53 22t22 53v400h150v-400q0 -93 -66 -159t-159 -66t-159 66t-66 159z" glyph-name="L_C.liga" horiz-adv-x="730" unicode="LC"/><glyph d="M40 0v2000h150v-1850h295q122 0 208.5 86.5t86.5 208.5v194h150v-194q0 -121 -59.5 -223.5t-162 -162t-223.5 -59.5h-445zM260 439v1352q0 93 66 159t159 66t159 -66t66 -159v-400h-150v400q0 31 -22 53t-53 22t-53 -22t-22 -53v-1352q0 -31 22 -53t53 -22t53 22t22 53 v400h150v-400q0 -93 -66 -159t-159 -66t-159 66t-66 159z" glyph-name="L_C_one.liga" horiz-adv-x="940" unicode="LC1"/><glyph d="M40 0v2000h150v-1850h480v-150h-630zM260 220v1780h410v-150h-260v-625h220v-150h-220v-705h260v-150h-410z" glyph-name="L_E.liga" horiz-adv-x="690" unicode="LE"/><glyph d="M740 0v1850h-700v150h1000v-150h-150v-1850h-150zM40 0v1780h150v-1630h480v-150h-630zM260 220v1560h410v-150h-260v-405h220v-150h-220v-705h260v-150h-410z" glyph-name="L_E_T.liga" horiz-adv-x="1050" unicode="LET"/><glyph d="M40 0v2000h150v-1850h220v-150h-370zM260 220v1780h410v-150h-260v-625h220v-150h-220v-855h-150z" glyph-name="L_F.liga" horiz-adv-x="680" unicode="LF"/><glyph d="M40 0v2000h150v-1850h295q122 0 208.5 86.5t86.5 208.5v194h150v-194q0 -121 -59.5 -223.5t-162 -162t-223.5 -59.5h-445zM260 439v1352q0 93 66 159t159 66t159 -66t66 -159v-400h-150v400q0 31 -22 53t-53 22t-53 -22t-22 -53v-1352q0 -31 22 -53t53 -22t53 22t22 53 v250h-75v150h225v-400q0 -93 -66 -159t-159 -66t-159 66t-66 159z" glyph-name="L_G.liga" horiz-adv-x="950" unicode="LG"/><glyph d="M40 0v2000h150v-1850h520v-150h-670zM260 439v1352q0 93 66 159t159 66t159 -66t66 -159v-500h-150v500q0 31 -22 53t-53 22t-53 -22t-22 -53v-1352q0 -31 22 -53t53 -22t53 22t22 53v350h-75v150h225v-500q0 -93 -66 -159t-159 -66t-159 66t-66 159z" glyph-name="L_G_one.liga" horiz-adv-x="730" unicode="LG1"/><glyph d="M560 0v1075h-150v-855h-150v1780h150v-775h150v775h150v-2000h-150zM40 0v2000h150v-1850h220v-150h-370z" glyph-name="L_H.liga" horiz-adv-x="750" unicode="LH"/><glyph d="M40 0v2000h150v-1850h520v-150h-670zM260 220v1780h150v-775h150v775h150v-1780h-150v855h-150v-855h-150z" glyph-name="L_H_one.liga" horiz-adv-x="750" unicode="LH1"/><glyph d="M40 0v2000h150v-1850h220v-150h-370zM260 220v1780h150v-1780h-150z" glyph-name="L_I.liga" horiz-adv-x="450" unicode="LI"/><glyph d="M40 0v2000h150v-1850h520v-150h-670zM260 439h150q0 -31 22 -53t53 -22t53 22t22 53v1561h150v-1561q0 -93 -66 -159t-159 -66t-159 66t-66 159z" glyph-name="L_J.liga" horiz-adv-x="740" unicode="LJ"/><glyph d="M520 -71v2071h150v-2071q0 -93 -66 -159t-159 -66t-159 66t-66 159h150q0 -31 22 -53t53 -22t53 22t22 53zM40 0v2000h150v-1850h260v-150h-410z" glyph-name="L_J_one.liga" horiz-adv-x="700" unicode="LJ1"/><glyph d="M40 0v2000h150v-1850h220v-150h-370zM260 220v1780h150v-775h75q31 0 53 22t22 53v700h150v-700q0 -85 -57 -150q57 -65 57 -150v-1000h-150v1000q0 31 -22 53t-53 22h-75v-855h-150z" glyph-name="L_K.liga" horiz-adv-x="750" unicode="LK"/><glyph d="M40 0v2000h150v-1850h520v-150h-670zM260 220v1780h150v-775h75q31 0 53 22t22 53v700h150v-700q0 -85 -57 -150q57 -65 57 -150v-780h-150v780q0 31 -22 53t-53 22h-75v-855h-150z" glyph-name="L_K_one.liga" horiz-adv-x="750" unicode="LK1"/><glyph d="M40 0v2000h150v-1850h480v-150h-630zM260 220v1780h150v-1630h260v-150h-410z" glyph-name="L_L.liga" horiz-adv-x="680" unicode="LL"/><glyph d="M40 0v2000h150v-1850h550v838q-66 24 -108 82t-42 130v800h150v-800q0 -31 22 -53t53 -22t53 22t22 53v800h150v-800q0 -72 -42 -130t-108 -82v-988h-850zM260 220v1780h150v-1630h260v-150h-410z" glyph-name="L_L_Y.liga" horiz-adv-x="1050" unicode="LLY"/><glyph d="M560 900l-150 550v-1230h-150v1780h150l225 -825l225 825h150v-2000h-150v1450l-150 -550h-150zM40 0v2000h150v-1850h220v-150h-370z" glyph-name="L_M.liga" horiz-adv-x="1050" unicode="LM"/><glyph d="M560 900l-150 550v-1230h-150v1780h150l225 -825l225 825h150v-1780h-150v1230l-150 -550h-150zM40 0v2000h150v-1850h820v-150h-970z" glyph-name="L_M_one.liga" horiz-adv-x="1050" unicode="LM1"/><glyph d="M560 900l-150 550v-1230h-150v1780h150l225 -825l225 825h150v-2000h-150v1450l-150 -550h-150zM40 0v2000h150v-1850h220q62 0 106 44t44 106v330h150v-330q0 -124 -88 -212t-212 -88h-370z" glyph-name="L_M_two.liga" horiz-adv-x="1050" unicode="LM2"/><glyph d="M560 0v1500l-150 250v-1530h-150v1780h150l150 -250v250h150v-2000h-150zM40 0v2000h150v-1850h220v-150h-370z" glyph-name="L_N.liga" horiz-adv-x="750" unicode="LN"/><glyph d="M40 0v2000h150v-1850h520v-150h-670zM260 220v1780h150l150 -250v250h150v-1780h-150v1280l-150 250v-1530h-150z" glyph-name="L_N_one.liga" horiz-adv-x="750" unicode="LN1"/><glyph d="M40 0v2000h150v-1850h520v-150h-670zM260 439v1352q0 93 66 159t159 66t159 -66t66 -159v-1352q0 -93 -66 -159t-159 -66t-159 66t-66 159zM410 439q0 -31 22 -53t53 -22t53 22t22 53v1352q0 31 -22 53t-53 22t-53 -22t-22 -53v-1352z" glyph-name="L_O.liga" horiz-adv-x="740" unicode="LO"/><glyph d="M40 0v2000h150v-1850h295q122 0 208.5 86.5t86.5 208.5v194h150v-194q0 -121 -59.5 -223.5t-162 -162t-223.5 -59.5h-445zM260 439v1352q0 93 66 159t159 66t159 -66t66 -159v-1352q0 -93 -66 -159t-159 -66t-159 66t-66 159zM410 439q0 -31 22 -53t53 -22t53 22t22 53 v1352q0 31 -22 53t-53 22t-53 -22t-22 -53v-1352z" glyph-name="L_O_one.liga" horiz-adv-x="940" unicode="LO1"/><glyph d="M40 0v2000h150v-1850h220v-150h-370zM260 220v1780h225q93 0 159 -66t66 -159v-475q0 -93 -66 -159t-159 -66h-75v-855h-150zM410 1225h75q31 0 53 22t22 53v475q0 31 -22 53t-53 22h-75v-625z" glyph-name="L_P.liga" horiz-adv-x="720" unicode="LP"/><glyph d="M40 0v2000h150v-1850h140q62 0 106 44t44 106v330h150v-330q0 -124 -88 -212t-212 -88h-290zM260 220v1780h225q93 0 159 -66t66 -159v-475q0 -93 -66 -159t-159 -66h-75v-855h-150zM410 1225h75q31 0 53 22t22 53v475q0 31 -22 53t-53 22h-75v-625z" glyph-name="L_P_one.liga" horiz-adv-x="720" unicode="LP1"/><glyph d="M40 0v2000h150v-1850h220v77q-66 24 -108 82t-42 130v1352q0 93 66 159t159 66t159 -66t66 -159v-1352q0 -72 -42 -130t-108 -82v-77h150v-150h-670zM410 439q0 -31 22 -53t53 -22t53 22t22 53v1352q0 31 -22 53t-53 22t-53 -22t-22 -53v-1352z" glyph-name="L_Q.liga" horiz-adv-x="740" unicode="LQ"/><glyph d="M40 0v2000h150v-1850h220v77q-66 24 -108 82t-42 130v1352q0 93 66 159t159 66t159 -66t66 -159v-1352q0 -72 -42 -130t-108 -82v-67q96 25 158 104t62 181v194h150v-194q0 -121 -59.5 -223.5t-162 -162t-223.5 -59.5h-445zM410 439q0 -31 22 -53t53 -22t53 22t22 53 v1352q0 31 -22 53t-53 22t-53 -22t-22 -53v-1352z" glyph-name="L_Q_one.liga" horiz-adv-x="960" unicode="LQ1"/><glyph d="M40 0v2000h150v-1850h220v-150h-370zM260 220v1780h225q93 0 159 -66t66 -159v-475q0 -85 -57 -150q57 -65 57 -150v-1000h-150v1000q0 31 -22 53t-53 22h-75v-855h-150zM410 1225h75q31 0 53 22t22 53v475q0 31 -22 53t-53 22h-75v-625z" glyph-name="L_R.liga" horiz-adv-x="740" unicode="LR"/><glyph d="M40 0v2000h150v-1850h520v-150h-670zM260 220v1780h225q93 0 159 -66t66 -159v-475q0 -85 -57 -150q57 -65 57 -150v-780h-150v780q0 31 -22 53t-53 22h-75v-855h-150zM410 1225h75q31 0 53 22t22 53v475q0 31 -22 53t-53 22h-75v-625z" glyph-name="L_R_one.liga" horiz-adv-x="740" unicode="LR1"/><glyph d="M40 0v2000h150v-1850h520v-150h-670zM260 439v390h150v-390q0 -31 22 -53t53 -22t53 22t22 53v531q0 31 -22 53t-53 22q-93 0 -159 66t-66 159v521q0 93 66 159t159 66t159 -66t66 -159v-380h-150v380q0 31 -22 53t-53 22t-53 -22t-22 -53v-521q0 -31 22 -53t53 -22 q93 0 159 -66t66 -159v-531q0 -93 -66 -159t-159 -66t-159 66t-66 159z" glyph-name="L_S.liga" horiz-adv-x="740" unicode="LS"/><glyph d="M40 0v2000h150v-1850h295q122 0 208.5 86.5t86.5 208.5v194h150v-194q0 -121 -59.5 -223.5t-162 -162t-223.5 -59.5h-445zM260 439v390h150v-390q0 -31 22 -53t53 -22t53 22t22 53v531q0 31 -22 53t-53 22q-93 0 -159 66t-66 159v521q0 93 66 159t159 66t159 -66t66 -159 v-380h-150v380q0 31 -22 53t-53 22t-53 -22t-22 -53v-521q0 -31 22 -53t53 -22q93 0 159 -66t66 -159v-531q0 -93 -66 -159t-159 -66t-159 66t-66 159z" glyph-name="L_S_one.liga" horiz-adv-x="940" unicode="LS1"/><glyph d="M260 220v1630h-220v150h520v-150h-150v-1630h-150zM40 0v1780h150v-1630h220v-150h-370z" glyph-name="L_T.liga" horiz-adv-x="570" unicode="LT"/><glyph d="M260 220v1630h-220v150h590v-150h-220v-1630h-150zM40 0v1780h150v-1630h140q62 0 106 44t44 106v330h150v-330q0 -124 -88 -212t-212 -88h-290z" glyph-name="L_T_one.liga" horiz-adv-x="650" unicode="LT1"/><glyph d="M40 0v2000h150v-1850h520v-150h-670zM260 439v1561h150v-1561q0 -31 22 -53t53 -22t53 22t22 53v1561h150v-1561q0 -93 -66 -159t-159 -66t-159 66t-66 159z" glyph-name="L_U.liga" horiz-adv-x="740" unicode="LU"/><glyph d="M40 0v2000h150v-1850h295q122 0 208.5 86.5t86.5 208.5v194h150v-194q0 -121 -59.5 -223.5t-162 -162t-223.5 -59.5h-445zM260 439v1561h150v-1561q0 -31 22 -53t53 -22t53 22t22 53v1561h150v-1561q0 -93 -66 -159t-159 -66t-159 66t-66 159z" glyph-name="L_U_one.liga" horiz-adv-x="940" unicode="LU1"/><glyph d="M354 220l-100 1780h150l65 -1155l4 -436h12l4 436l65 1155h150l-100 -1780h-250zM40 0v2000h150v-1850h414v-150h-564z" glyph-name="L_V.liga" horiz-adv-x="714" unicode="LV"/><glyph d="M40 0v2000h150v-1850h820v-150h-970zM260 439v1561h150v-1561q0 -31 22 -53t53 -22t53 22t22 53v1561h150v-1561q0 -31 22 -53t53 -22t53 22t22 53v1561h150v-1561q0 -93 -66 -159t-159 -66q-85 0 -150 57q-65 -57 -150 -57q-93 0 -159 66t-66 159z" glyph-name="L_W.liga" horiz-adv-x="1040" unicode="LW"/><glyph d="M40 0v2000h150v-1850h595q122 0 208.5 86.5t86.5 208.5v194h150v-194q0 -121 -59.5 -223.5t-162 -162t-223.5 -59.5h-745zM260 439v1561h150v-1561q0 -31 22 -53t53 -22t53 22t22 53v1561h150v-1561q0 -31 22 -53t53 -22t53 22t22 53v1561h150v-1561q0 -93 -66 -159 t-159 -66q-85 0 -150 57q-65 -57 -150 -57q-93 0 -159 66t-66 159z" glyph-name="L_W_one.liga" horiz-adv-x="1240" unicode="LW1"/><glyph d="M40 0v2000h150v-1850h220v-150h-370zM260 220v610q0 57 26 105.5t71 79.5q-45 31 -71 79.5t-26 105.5v800h150v-800q0 -31 22 -53t53 -22t53 22t22 53v800h150v-800q0 -57 -26 -105.5t-71 -79.5q45 -31 71 -79.5t26 -105.5v-830h-150v830q0 31 -22 53t-53 22t-53 -22 t-22 -53v-610h-150z" glyph-name="L_X.liga" horiz-adv-x="740" unicode="LX"/><glyph d="M40 0v2000h150v-1850h520v-150h-670zM260 220v610q0 57 26 105.5t71 79.5q-45 31 -71 79.5t-26 105.5v800h150v-800q0 -31 22 -53t53 -22t53 22t22 53v800h150v-800q0 -57 -26 -105.5t-71 -79.5q45 -31 71 -79.5t26 -105.5v-610h-150v610q0 31 -22 53t-53 22t-53 -22 t-22 -53v-610h-150z" glyph-name="L_X_one.liga" horiz-adv-x="740" unicode="LX1"/><glyph d="M40 0v2000h150v-1850h370v-150h-520zM260 1200v800h150v-800q0 -31 22 -53t53 -22t53 22t22 53v800h150v-800q0 -72 -42 -130t-108 -82v-768h-150v768q-66 24 -108 82t-42 130z" glyph-name="L_Y.liga" horiz-adv-x="720" unicode="LY"/><glyph d="M40 0v2000h150v-1850h70q62 0 106 44t44 106v688q-66 24 -108 82t-42 130v800h150v-800q0 -31 22 -53t53 -22t53 22t22 53v800h150v-800q0 -72 -42 -130t-108 -82v-688q0 -124 -88 -212t-212 -88h-220z" glyph-name="L_Y_one.liga" horiz-adv-x="720" unicode="LY1"/><glyph d="M260 220l275 1630h-275v150h450l-275 -1630h275v-150h-450zM40 0v2000h150v-1850h520v-150h-670z" glyph-name="L_Z.liga" horiz-adv-x="730" unicode="LZ"/><glyph d="M260 220l275 1630h-275v150h450l-275 -1630h275v-150h-450zM40 0v2000h150v-1850h520q60 0 102.5 42.5t42.5 102.5t-42.5 102.5t-102.5 42.5h-177v150h177q122 0 208.5 -86.5t86.5 -208.5t-86.5 -208.5t-208.5 -86.5h-670z" glyph-name="L_Z_one.liga" horiz-adv-x="1015" unicode="LZ1"/><glyph d="M340 900l-150 550v-1450h-150v2000h150l225 -825l225 825h150v-1831q0 -14 10.5 -24.5t24.5 -10.5t24.5 10.5t10.5 24.5v1622q0 93 66 159t159 66t159 -66t66 -159v-1791h-150v1075h-150v-906q0 -77 -54 -131t-131 -54t-131 54t-54 131v1281l-150 -550h-150zM1010 1225 h150v566q0 31 -22 53t-53 22t-53 -22t-22 -53v-566z" glyph-name="M_A.liga" horiz-adv-x="1340" unicode="MA"/><glyph d="M340 900l-150 550v-1450h-150v2000h150l225 -825l225 825h150v-1571q0 -122 86.5 -208.5t208.5 -86.5t208.5 86.5t86.5 208.5v280h150v-280q0 -121 -59.5 -223.5t-162 -162t-223.5 -59.5t-223.5 59.5t-162 162t-59.5 223.5v1021l-150 -550h-150zM860 439v1352 q0 93 66 159t159 66t159 -66t66 -159v-400h-150v400q0 31 -22 53t-53 22t-53 -22t-22 -53v-1352q0 -31 22 -53t53 -22t53 22t22 53v400h150v-400q0 -93 -66 -159t-159 -66t-159 66t-66 159z" glyph-name="M_C.liga" horiz-adv-x="1550" unicode="MC"/><glyph d="M340 900l-150 550v-1450h-150v2000h150l225 -825l225 825h150v-1775q0 -31 22 -53t53 -22h405v-150h-405q-93 0 -159 66t-66 159v1225l-150 -550h-150zM860 220v1780h410v-150h-260v-625h220v-150h-220v-705h260v-150h-410z" glyph-name="M_E.liga" horiz-adv-x="1290" unicode="ME"/><glyph d="M340 900l-150 550v-1450h-150v2000h150l225 -825l225 825h150v-1775q0 -31 22 -53t53 -22h5v1850h920v-150h-770v-625h220v-150h-220v-925h260v-150h-415q-93 0 -159 66t-66 159v1225l-150 -550h-150zM1340 0v1780h150l150 -250v250h150v-1780h-150v1280l-150 250v-1530 h-150z" glyph-name="M_E_N.liga" horiz-adv-x="1830" unicode="MEN"/><glyph d="M340 900l-150 550v-1450h-150v2000h150l225 -825l225 825h150v-1721q0 -60 42.5 -102.5t102.5 -42.5t102.5 42.5t42.5 102.5v430h150v-430q0 -122 -86.5 -208.5t-208.5 -86.5t-208.5 86.5t-86.5 208.5v1171l-150 -550h-150zM860 220v1780h410v-150h-260v-625h220v-150 h-220v-855h-150z" glyph-name="M_F.liga" horiz-adv-x="1290" unicode="MF"/><glyph d="M340 900l-150 550v-1450h-150v2000h150l225 -825l225 825h150v-1571q0 -122 86.5 -208.5t208.5 -86.5t208.5 86.5t86.5 208.5v280h150v-280q0 -121 -59.5 -223.5t-162 -162t-223.5 -59.5t-223.5 59.5t-162 162t-59.5 223.5v1021l-150 -550h-150zM860 439v1352 q0 93 66 159t159 66t159 -66t66 -159v-400h-150v400q0 31 -22 53t-53 22t-53 -22t-22 -53v-1352q0 -31 22 -53t53 -22t53 22t22 53v320h-75v150h225v-470q0 -93 -66 -159t-159 -66t-159 66t-66 159z" glyph-name="M_G.liga" horiz-adv-x="1540" unicode="MG"/><glyph d="M340 900l-150 550v-1450h-150v2000h150l225 -825l225 825h150v-1826q0 -16 12 -28t28 -12t28 12t12 28v1826h150v-775h150v775h150v-2000h-150v1075h-150v-901q0 -79 -55.5 -134.5t-134.5 -55.5t-134.5 55.5t-55.5 134.5v1276l-150 -550h-150z" glyph-name="M_H.liga" horiz-adv-x="1360" unicode="MH"/><glyph d="M340 900l-150 550v-1450h-150v2000h150l225 -825l225 825h150v-1826q0 -16 12 -28t28 -12t28 12t12 28v1826h150v-1826q0 -79 -55.5 -134.5t-134.5 -55.5t-134.5 55.5t-55.5 134.5v1276l-150 -550h-150z" glyph-name="M_I.liga" horiz-adv-x="1060" unicode="MI"/><glyph d="M340 900l-150 550v-1450h-150v2000h150l225 -825l225 825h150v-2000h-150v1450l-150 -550h-150zM560 -71h150q0 -31 22 -53t53 -22t53 22t22 53v2071h150v-2071q0 -93 -66 -159t-159 -66t-159 66t-66 159z" glyph-name="M_J.liga" horiz-adv-x="1050" unicode="MJ"/><glyph d="M340 900l-150 550v-1450h-150v2000h150l225 -825l225 825h150v-1775q0 -31 22 -53t53 -22h405v-150h-405q-93 0 -159 66t-66 159v1225l-150 -550h-150zM860 220v1780h150v-1630h260v-150h-410z" glyph-name="M_L.liga" horiz-adv-x="1280" unicode="ML"/><glyph d="M1160 900l-150 550v-1131h-150v1681h150l225 -825l225 825h150v-2000h-150v1450l-150 -550h-150zM40 0v2000h150l225 -825l225 825h150v-1681q0 -77 54 -131t131 -54t131 54t54 131v270h150v-270q0 -139 -98 -237t-237 -98t-237 98t-98 237v1131l-150 -550h-150l-150 550 v-1450h-150z" glyph-name="M_M.liga" horiz-adv-x="1650" unicode="MM"/><glyph d="M340 900l-150 550v-1450h-150v2000h150l225 -825l225 825h150v-1775q0 -31 22 -53t53 -22h145v-150h-145q-93 0 -159 66t-66 159v1225l-150 -550h-150zM860 220v1780h150l150 -250v250h150v-2000h-150v1500l-150 250v-1530h-150z" glyph-name="M_N.liga" horiz-adv-x="1350" unicode="MN"/><glyph d="M340 900l-150 550v-1450h-150v2000h150l225 -825l225 825h150v-1571q0 -122 86.5 -208.5t208.5 -86.5t208.5 86.5t86.5 208.5v280h150v-280q0 -121 -59.5 -223.5t-162 -162t-223.5 -59.5t-223.5 59.5t-162 162t-59.5 223.5v1021l-150 -550h-150zM860 429v1362 q0 93 66 159t159 66t159 -66t66 -159v-1362q0 -93 -66 -159t-159 -66t-159 66t-66 159zM1010 429q0 -31 22 -53t53 -22t53 22t22 53v1362q0 31 -22 53t-53 22t-53 -22t-22 -53v-1362z" glyph-name="M_O.liga" horiz-adv-x="1540" unicode="MO"/><glyph d="M340 900l-150 550v-1450h-150v2000h150l225 -825l225 825h150v-1826q0 -16 12 -28t28 -12t28 12t12 28v1826h225q93 0 159 -66t66 -159v-475q0 -93 -66 -159t-159 -66h-75v-901q0 -79 -55.5 -134.5t-134.5 -55.5t-134.5 55.5t-55.5 134.5v1276l-150 -550h-150zM1020 1225 h75q31 0 53 22t22 53v475q0 31 -22 53t-53 22h-75v-625z" glyph-name="M_P.liga" horiz-adv-x="1330" unicode="MP"/><glyph d="M340 900l-150 550v-1450h-150v2000h150l225 -825l225 825h150v-1571q0 -102 62 -181t158 -104v73q-66 24 -108 82t-42 130v1362q0 93 66 159t159 66t159 -66t66 -159v-1362q0 -72 -42 -130t-108 -82v-73q96 25 158 104t62 181v280h150v-280q0 -121 -59.5 -223.5 t-162 -162t-223.5 -59.5t-223.5 59.5t-162 162t-59.5 223.5v1021l-150 -550h-150zM1010 429q0 -31 22 -53t53 -22t53 22t22 53v1362q0 31 -22 53t-53 22t-53 -22t-22 -53v-1362z" glyph-name="M_Q.liga" horiz-adv-x="1540" unicode="MQ"/><glyph d="M340 900l-150 550v-1450h-150v2000h150l225 -825l225 825h150v-1826q0 -16 12 -28t28 -12t28 12t12 28v1826h225q93 0 159 -66t66 -159v-475q0 -85 -57 -150q57 -65 57 -150v-1000h-150v1000q0 31 -22 53t-53 22h-75v-901q0 -79 -55.5 -134.5t-134.5 -55.5t-134.5 55.5 t-55.5 134.5v1276l-150 -550h-150zM1020 1225h75q31 0 53 22t22 53v475q0 31 -22 53t-53 22h-75v-625z" glyph-name="M_R.liga" horiz-adv-x="1350" unicode="MR"/><glyph d="M340 900l-150 550v-1450h-150v2000h150l225 -825l225 825h150v-1571q0 -122 86.5 -208.5t208.5 -86.5t208.5 86.5t86.5 208.5v280h150v-280q0 -121 -59.5 -223.5t-162 -162t-223.5 -59.5t-223.5 59.5t-162 162t-59.5 223.5v1021l-150 -550h-150zM860 429v390h150v-390 q0 -31 22 -53t53 -22t53 22t22 53v531q0 31 -22 53t-53 22q-93 0 -159 66t-66 159v531q0 93 66 159t159 66t159 -66t66 -159v-390h-150v390q0 31 -22 53t-53 22t-53 -22t-22 -53v-531q0 -31 22 -53t53 -22q93 0 159 -66t66 -159v-531q0 -93 -66 -159t-159 -66t-159 66 t-66 159z" glyph-name="M_S.liga" horiz-adv-x="1560" unicode="MS"/><glyph d="M340 900l-150 550v-1450h-150v2000h150l233 -856l217 636h150v-1780h-150v1340l-150 -440h-150zM300 1850v150h860v-150h-150v-1850h-150v1850h-560z" glyph-name="M_T.liga" horiz-adv-x="1170" unicode="MT"/><glyph d="M340 900l-150 550v-1450h-150v2000h150l225 -825l225 825h150v-1571q0 -122 86.5 -208.5t208.5 -86.5t208.5 86.5t86.5 208.5v280h150v-280q0 -121 -59.5 -223.5t-162 -162t-223.5 -59.5t-223.5 59.5t-162 162t-59.5 223.5v1021l-150 -550h-150zM860 429v1571h150v-1571 q0 -31 22 -53t53 -22t53 22t22 53v1571h150v-1571q0 -93 -66 -159t-159 -66t-159 66t-66 159z" glyph-name="M_U.liga" horiz-adv-x="1540" unicode="MU"/><glyph d="M340 900l-150 550v-1450h-150v2000h150l225 -825l225 825h150v-1230h-150v680l-150 -550h-150zM640 209v491h150v-491q0 -31 22 -53t53 -22t53 22t22 53v1791h150v-1791q0 -31 22 -53t53 -22t53 22t22 53v1791h150v-1791q0 -93 -66 -159t-159 -66q-85 0 -150 57 q-65 -57 -150 -57q-93 0 -159 66t-66 159z" glyph-name="M_W.liga" horiz-adv-x="1420" unicode="MW"/><glyph d="M340 900l-150 550v-1450h-150v2000h150l225 -825l225 825h150v-1831q0 -14 10.5 -24.5t24.5 -10.5t24.5 10.5t10.5 24.5v661q0 57 26 105.5t71 79.5q-45 31 -71 79.5t-26 105.5v800h150v-800q0 -31 22 -53t53 -22t53 22t22 53v800h150v-800q0 -57 -26 -105.5t-71 -79.5 q45 -31 71 -79.5t26 -105.5v-830h-150v830q0 31 -22 53t-53 22t-53 -22t-22 -53v-661q0 -77 -54 -131t-131 -54t-131 54t-54 131v1281l-150 -550h-150z" glyph-name="M_X.liga" horiz-adv-x="1340" unicode="MX"/><glyph d="M340 900l-150 550v-1450h-150v2000h150l225 -825l225 825h150v-1766q0 -41 29.5 -70.5t70.5 -29.5t70.5 29.5t29.5 70.5v754q-66 24 -108 82t-42 130v800h150v-800q0 -31 22 -53t53 -22t53 22t22 53v800h150v-800q0 -72 -42 -130t-108 -82v-754q0 -104 -73 -177t-177 -73 t-177 73t-73 177v1216l-150 -550h-150z" glyph-name="M_Y.liga" horiz-adv-x="1300" unicode="MY"/><glyph d="M850 220l275 1630h-275v150h450l-275 -1630h275v-150h-450zM40 0v2000h150l225 -825l225 825h150v-1775q0 -31 22 -53t53 -22h435v-150h-435q-93 0 -159 66t-66 159v1225l-150 -550h-150l-150 550v-1450h-150z" glyph-name="M_Z.liga" horiz-adv-x="1320" unicode="MZ"/><glyph d="M40 0v2000h150l150 -250v250h150v-1831q0 -14 10.5 -24.5t24.5 -10.5t24.5 10.5t10.5 24.5v1622q0 93 66 159t159 66t159 -66t66 -159v-1791h-150v1075h-150v-906q0 -77 -54 -131t-131 -54t-131 54t-54 131v1331l-150 250v-1750h-150zM710 1225h150v566q0 31 -22 53 t-53 22t-53 -22t-22 -53v-566z" glyph-name="N_A.liga" horiz-adv-x="1040" unicode="NA"/><glyph d="M785 -16q-121 0 -223.5 59.5t-162 162t-59.5 223.5v1071l-150 250v-1750h-150v2000h150l150 -250v250h150v-1571q0 -122 86.5 -208.5t208.5 -86.5t208.5 86.5t86.5 208.5v280h150v-280q0 -121 -59.5 -223.5t-162 -162t-223.5 -59.5zM560 429v1362q0 93 66 159t159 66 t159 -66t66 -159v-400h-150v400q0 31 -22 53t-53 22t-53 -22t-22 -53v-1362q0 -31 22 -53t53 -22t53 22t22 53v400h150v-400q0 -93 -66 -159t-159 -66t-159 66t-66 159z" glyph-name="N_C.liga" horiz-adv-x="1240" unicode="NC"/><glyph d="M785 -16q-121 0 -223.5 59.5t-162 162t-59.5 223.5v1071l-150 250v-1750h-150v2000h150l150 -250v250h150v-1571q0 -122 86.5 -208.5t208.5 -86.5t208.5 86.5t86.5 208.5v1571h410v-150h-260v-625h220v-150h-220v-925h260v-150h-410v96q-125 -112 -295 -112zM560 429 v1362q0 93 66 159t159 66t159 -66t66 -159v-400h-150v400q0 31 -22 53t-53 22t-53 -22t-22 -53v-1362q0 -31 22 -53t53 -22t53 22t22 53v400h150v-400q0 -93 -66 -159t-159 -66t-159 66t-66 159z" glyph-name="N_C_E.liga" horiz-adv-x="1510" unicode="NCE"/><glyph d="M40 0v2000h150l150 -250v250h150v-1775q0 -31 22 -53t53 -22h405v-150h-405q-93 0 -159 66t-66 159v1275l-150 250v-1750h-150zM560 220v1780h410v-150h-260v-625h220v-150h-220v-705h260v-150h-410z" glyph-name="N_E.liga" horiz-adv-x="990" unicode="NE"/><glyph d="M40 0v2000h150l150 -250v250h150v-1775q0 -31 22 -53t53 -22h145v-150h-145q-93 0 -159 66t-66 159v1275l-150 250v-1750h-150zM560 220v1780h410v-150h-260v-625h220v-150h-220v-855h-150z" glyph-name="N_F.liga" horiz-adv-x="980" unicode="NF"/><glyph d="M785 -16q-121 0 -223.5 59.5t-162 162t-59.5 223.5v1071l-150 250v-1750h-150v2000h150l150 -250v250h150v-1571q0 -122 86.5 -208.5t208.5 -86.5t208.5 86.5t86.5 208.5v280h150v-280q0 -121 -59.5 -223.5t-162 -162t-223.5 -59.5zM560 439v1352q0 93 66 159t159 66 t159 -66t66 -159v-400h-150v400q0 31 -22 53t-53 22t-53 -22t-22 -53v-1352q0 -31 22 -53t53 -22t53 22t22 53v250h-75v150h225v-400q0 -93 -66 -159t-159 -66t-159 66t-66 159z" glyph-name="N_G.liga" horiz-adv-x="1240" unicode="NG"/><glyph d="M870 0v1075h-150v-901q0 -79 -55.5 -134.5t-134.5 -55.5t-134.5 55.5t-55.5 134.5v1326l-150 250v-1750h-150v2000h150l150 -250v250h150v-1826q0 -16 12 -28t28 -12t28 12t12 28v1826h150v-775h150v775h150v-2000h-150z" glyph-name="N_H.liga" horiz-adv-x="1060" unicode="NH"/><glyph d="M40 0v2000h150l150 -250v250h150v-1826q0 -16 12 -28t28 -12t28 12t12 28v1826h150v-1826q0 -79 -55.5 -134.5t-134.5 -55.5t-134.5 55.5t-55.5 134.5v1326l-150 250v-1750h-150z" glyph-name="N_I.liga" horiz-adv-x="760" unicode="NI"/><glyph d="M560 -70v2070h150v-2070q0 -93 -66 -159t-159 -66t-159 66t-66 159h150q0 -31 22 -53t53 -22t53 22t22 53zM40 0v2000h150l150 -250v250h150v-2000h-150v1500l-150 250v-1750h-150z" glyph-name="N_J.liga" horiz-adv-x="750" unicode="NJ"/><glyph d="M40 0v2000h150l150 -250v250h150v-1775q0 -31 22 -53t53 -22h405v-150h-405q-93 0 -159 66t-66 159v1275l-150 250v-1750h-150zM560 220v1780h150v-1630h260v-150h-410z" glyph-name="N_L.liga" horiz-adv-x="980" unicode="NL"/><glyph d="M860 900l-150 550v-1230h-150v1780h150l225 -825l225 825h150v-2000h-150v1450l-150 -550h-150zM40 0v2000h150l150 -250v250h150v-1681q0 -77 54 -131t131 -54t131 54t54 131v270h150v-270q0 -139 -98 -237t-237 -98t-237 98t-98 237v1181l-150 250v-1750h-150z" glyph-name="N_M.liga" horiz-adv-x="1350" unicode="NM"/><glyph d="M870 0v1500l-150 250v-1576q0 -79 -55.5 -134.5t-134.5 -55.5t-134.5 55.5t-55.5 134.5v1326l-150 250v-1750h-150v2000h150l150 -250v250h150v-1826q0 -16 12 -28t28 -12t28 12t12 28v1826h150l150 -250v250h150v-2000h-150z" glyph-name="N_N.liga" horiz-adv-x="1060" unicode="NN"/><glyph d="M785 -16q-121 0 -223.5 59.5t-162 162t-59.5 223.5v1071l-150 250v-1750h-150v2000h150l150 -250v250h150v-1571q0 -122 86.5 -208.5t208.5 -86.5t208.5 86.5t86.5 208.5v280h150v-280q0 -121 -59.5 -223.5t-162 -162t-223.5 -59.5zM560 439v1352q0 93 66 159t159 66 t159 -66t66 -159v-1352q0 -93 -66 -159t-159 -66t-159 66t-66 159zM710 439q0 -31 22 -53t53 -22t53 22t22 53v1352q0 31 -22 53t-53 22t-53 -22t-22 -53v-1352z" glyph-name="N_O.liga" horiz-adv-x="1240" unicode="NO"/><glyph d="M1080 0v1850h-1040v150h1340v-150h-150v-1850h-150zM40 0v1780h150l150 -255v255h150v-1780h-150v1270l-150 255v-1525h-150zM560 209v1352q0 93 66 159t159 66t159 -66t66 -159v-1352q0 -93 -66 -159t-159 -66t-159 66t-66 159zM710 209q0 -31 22 -53t53 -22t53 22 t22 53v1352q0 31 -22 53t-53 22t-53 -22t-22 -53v-1352z" glyph-name="N_O_T.liga" horiz-adv-x="1390" unicode="NOT"/><glyph d="M40 0v2000h150l150 -250v250h150v-1721q0 -60 42.5 -102.5t102.5 -42.5t102.5 42.5t42.5 102.5v430h150v-430q0 -122 -86.5 -208.5t-208.5 -86.5t-208.5 86.5t-86.5 208.5v1221l-150 250v-1750h-150zM560 220v1780h225q93 0 159 -66t66 -159v-475q0 -93 -66 -159 t-159 -66h-75v-855h-150zM710 1225h75q31 0 53 22t22 53v475q0 31 -22 53t-53 22h-75v-625z" glyph-name="N_P.liga" horiz-adv-x="1020" unicode="NP"/><glyph d="M785 -16q-121 0 -223.5 59.5t-162 162t-59.5 223.5v1071l-150 250v-1750h-150v2000h150l150 -250v250h150v-1571q0 -102 62 -181t158 -104v83q-66 24 -108 82t-42 130v1352q0 93 66 159t159 66t159 -66t66 -159v-1352q0 -72 -42 -130t-108 -82v-83q96 25 158 104t62 181 v280h150v-280q0 -121 -59.5 -223.5t-162 -162t-223.5 -59.5zM710 439q0 -31 22 -53t53 -22t53 22t22 53v1352q0 31 -22 53t-53 22t-53 -22t-22 -53v-1352z" glyph-name="N_Q.liga" horiz-adv-x="1240" unicode="NQ"/><glyph d="M40 0v2000h150l150 -250v250h150v-1775q0 -31 22 -53t53 -22h145v-150h-145q-93 0 -159 66t-66 159v1275l-150 250v-1750h-150zM560 220v1780h225q93 0 159 -66t66 -159v-475q0 -85 -57 -150q57 -65 57 -150v-1000h-150v1000q0 31 -22 53t-53 22h-75v-855h-150zM710 1225 h75q31 0 53 22t22 53v475q0 31 -22 53t-53 22h-75v-625z" glyph-name="N_R.liga" horiz-adv-x="1040" unicode="NR"/><glyph d="M785 -16q-121 0 -223.5 59.5t-162 162t-59.5 223.5v1071l-150 250v-1750h-150v2000h150l150 -250v250h150v-1571q0 -122 86.5 -208.5t208.5 -86.5t208.5 86.5t86.5 208.5v280h150v-280q0 -121 -59.5 -223.5t-162 -162t-223.5 -59.5zM560 439v390h150v-390q0 -31 22 -53 t53 -22t53 22t22 53v531q0 31 -22 53t-53 22q-93 0 -159 66t-66 159v521q0 93 66 159t159 66t159 -66t66 -159v-380h-150v380q0 31 -22 53t-53 22t-53 -22t-22 -53v-521q0 -31 22 -53t53 -22q93 0 159 -66t66 -159v-531q0 -93 -66 -159t-159 -66t-159 66t-66 159z" glyph-name="N_S.liga" horiz-adv-x="1240" unicode="NS"/><glyph d="M40 0v2000h150l150 -250v250h150v-1766q0 -41 29.5 -70.5t70.5 -29.5t70.5 29.5t29.5 70.5v1616h-150v150h450v-150h-150v-1616q0 -104 -73 -177t-177 -73t-177 73t-73 177v1266l-150 250v-1750h-150z" glyph-name="N_T.liga" horiz-adv-x="1000" unicode="NT"/><glyph d="M785 -16q-121 0 -223.5 59.5t-162 162t-59.5 223.5v1071l-150 250v-1750h-150v2000h150l150 -250v250h150v-1571q0 -122 86.5 -208.5t208.5 -86.5t208.5 86.5t86.5 208.5v280h150v-280q0 -121 -59.5 -223.5t-162 -162t-223.5 -59.5zM560 439v1561h150v-1561q0 -31 22 -53 t53 -22t53 22t22 53v1561h150v-1561q0 -93 -66 -159t-159 -66t-159 66t-66 159z" glyph-name="N_U.liga" horiz-adv-x="1240" unicode="NU"/><glyph d="M40 0v2000h150l150 -250v250h150v-1775q0 -31 22 -53t53 -22h745v-150h-745q-93 0 -159 66t-66 159v1275l-150 250v-1750h-150zM560 439v1561h150v-1561q0 -31 22 -53t53 -22t53 22t22 53v1561h150v-1561q0 -31 22 -53t53 -22t53 22t22 53v1561h150v-1561q0 -93 -66 -159 t-159 -66q-85 0 -150 57q-65 -57 -150 -57q-93 0 -159 66t-66 159z" glyph-name="N_W.liga" horiz-adv-x="1340" unicode="NW"/><glyph d="M40 0v2000h150l150 -250v250h150v-1831q0 -14 10.5 -24.5t24.5 -10.5t24.5 10.5t10.5 24.5v661q0 57 26 105.5t71 79.5q-45 31 -71 79.5t-26 105.5v800h150v-800q0 -31 22 -53t53 -22t53 22t22 53v800h150v-800q0 -57 -26 -105.5t-71 -79.5q45 -31 71 -79.5t26 -105.5 v-830h-150v830q0 31 -22 53t-53 22t-53 -22t-22 -53v-661q0 -77 -54 -131t-131 -54t-131 54t-54 131v1331l-150 250v-1750h-150z" glyph-name="N_X.liga" horiz-adv-x="1040" unicode="NX"/><glyph d="M40 0v2000h150l150 -250v250h150v-1766q0 -41 29.5 -70.5t70.5 -29.5t70.5 29.5t29.5 70.5v754q-66 24 -108 82t-42 130v800h150v-800q0 -31 22 -53t53 -22t53 22t22 53v800h150v-800q0 -72 -42 -130t-108 -82v-754q0 -104 -73 -177t-177 -73t-177 73t-73 177v1266 l-150 250v-1750h-150z" glyph-name="N_Y.liga" horiz-adv-x="1000" unicode="NY"/><glyph d="M550 230l275 1620h-275v150h450l-275 -1620h275v-150h-450zM40 0v2000h150l150 -250v250h150v-1775q0 -31 22 -53t53 -22h435v-150h-435q-93 0 -159 66t-66 159v1275l-150 250v-1750h-150z" glyph-name="N_Z.liga" horiz-adv-x="1020" unicode="NZ"/><glyph d="M330 0v425h-150v-425h-150v741q0 93 66 159t159 66t159 -66t66 -159v-741h-150zM30 1259v532q0 93 66 159t159 66t159 -66t66 -159v-532q0 -93 -66 -159t-159 -66t-159 66t-66 159zM180 575h150v166q0 31 -22 53t-53 22t-53 -22t-22 -53v-166zM180 1259q0 -31 22 -53 t53 -22t53 22t22 53v532q0 31 -22 53t-53 22t-53 -22t-22 -53v-532z" glyph-name="O_A.liga" unicode="OA"/><glyph d="M30 1791q0 93 66 159t159 66t159 -66t66 -159v-532q0 -93 -66 -159t-159 -66t-159 66t-66 159v532zM30 209v532q0 93 66 159t159 66t159 -66t66 -159v-150h-150v150q0 31 -22 53t-53 22t-53 -22t-22 -53v-532q0 -31 22 -53t53 -22t53 22t22 53v150h150v-150 q0 -93 -66 -159t-159 -66t-159 66t-66 159zM180 1259q0 -31 22 -53t53 -22t53 22t22 53v532q0 31 -22 53t-53 22t-53 -22t-22 -53v-532z" glyph-name="O_C.liga" horiz-adv-x="500" unicode="OC"/><glyph d="M30 0v965h225q93 0 159 -66t66 -159v-515q0 -93 -66 -159t-159 -66h-225zM30 1259v532q0 93 66 159t159 66t159 -66t66 -159v-532q0 -93 -66 -159t-159 -66t-159 66t-66 159zM180 150h75q31 0 53 22t22 53v515q0 31 -22 53t-53 22h-75v-665zM180 1259q0 -31 22 -53 t53 -22t53 22t22 53v532q0 31 -22 53t-53 22t-53 -22t-22 -53v-532z" glyph-name="O_D.liga" unicode="OD"/><glyph d="M30 1791q0 93 66 159t159 66t159 -66t66 -159v-532q0 -93 -66 -159t-159 -66t-159 66t-66 159v532zM30 209v532q0 93 66 159t159 66t159 -66t66 -159v-150h-150v150q0 31 -22 53t-53 22t-53 -22t-22 -53v-532q0 -31 22 -53t53 -22t53 22t22 53v100h-75v150h225v-250 q0 -93 -66 -159t-159 -66t-159 66t-66 159zM180 1259q0 -31 22 -53t53 -22t53 22t22 53v532q0 31 -22 53t-53 22t-53 -22t-22 -53v-532z" glyph-name="O_G.liga" horiz-adv-x="500" unicode="OG"/><glyph d="M550 209v1791h150v-1791q0 -93 -66 -159t-159 -66t-159 66t-66 159h150q0 -31 22 -53t53 -22t53 22t22 53zM30 499v1292q0 93 66 159t159 66t159 -66t66 -159v-1292q0 -93 -66 -159t-159 -66t-159 66t-66 159zM180 499q0 -31 22 -53t53 -22t53 22t22 53v1292q0 31 -22 53 t-53 22t-53 -22t-22 -53v-1292z" glyph-name="O_J.liga" horiz-adv-x="730" unicode="OJ"/><glyph d="M30 1791q0 93 66 159t159 66t159 -66t66 -159v-532q0 -93 -66 -159t-159 -66t-159 66t-66 159v532zM30 209v532q0 93 66 159t159 66t159 -66t66 -159v-532q0 -93 -66 -159t-159 -66t-159 66t-66 159zM180 209q0 -31 22 -53t53 -22t53 22t22 53v532q0 31 -22 53t-53 22 t-53 -22t-22 -53v-532zM180 1259q0 -31 22 -53t53 -22t53 22t22 53v532q0 31 -22 53t-53 22t-53 -22t-22 -53v-532z" glyph-name="O_O.liga" unicode="OO"/><glyph d="M30 1791q0 93 66 159t159 66t159 -66t66 -159v-532q0 -93 -66 -159t-159 -66t-159 66t-66 159v532zM30 209v532q0 93 66 159t159 66t159 -66t66 -159v-532q0 -72 -42 -130t-108 -82v-197h-150v197q-66 24 -108 82t-42 130zM180 209q0 -31 22 -53t53 -22t53 22t22 53v532 q0 31 -22 53t-53 22t-53 -22t-22 -53v-532zM180 1259q0 -31 22 -53t53 -22t53 22t22 53v532q0 31 -22 53t-53 22t-53 -22t-22 -53v-532z" glyph-name="O_Q.liga" unicode="OQ"/><glyph d="M550 0v1850h-520v150h820v-150h-150v-1850h-150zM30 209v1352q0 93 66 159t159 66t159 -66t66 -159v-1352q0 -93 -66 -159t-159 -66t-159 66t-66 159zM180 209q0 -31 22 -53t53 -22t53 22t22 53v1352q0 31 -22 53t-53 22t-53 -22t-22 -53v-1352z" glyph-name="O_T.liga" horiz-adv-x="860" unicode="OT"/><glyph d="M1070 0v1075h-150v-1075h-150v1770h150v-545h150v775h150v-2000h-150zM30 209v1352q0 93 66 159t159 66t159 -66t66 -159v-1352q0 -93 -66 -159t-159 -66t-159 66t-66 159zM30 1850v150h890v-150h-220v-1850h-150v1850h-520zM180 209q0 -31 22 -53t53 -22t53 22t22 53 v1352q0 31 -22 53t-53 22t-53 -22t-22 -53v-1352z" glyph-name="O_T_H.liga" horiz-adv-x="1260" unicode="OTH"/><glyph d="M330 209v757h150v-757q0 -93 -66 -159t-159 -66t-159 66t-66 159v757h150v-757q0 -31 22 -53t53 -22t53 22t22 53zM30 1259v532q0 93 66 159t159 66t159 -66t66 -159v-532q0 -93 -66 -159t-159 -66t-159 66t-66 159zM180 1259q0 -31 22 -53t53 -22t53 22t22 53v532 q0 31 -22 53t-53 22t-53 -22t-22 -53v-532z" glyph-name="O_U.liga" unicode="OU"/><glyph d="M525 -16q-77 0 -131 54t-54 131v831q0 31 -22 53t-53 22h-75v-1075h-150v2000h225q93 0 159 -66t66 -159v-475q0 -85 -57 -150q57 -65 57 -150v-831q0 -14 10.5 -24.5t24.5 -10.5t24.5 10.5t10.5 24.5v1622q0 93 66 159t159 66t159 -66t66 -159v-1791h-150v1075h-150 v-906q0 -77 -54 -131t-131 -54zM190 1225h75q31 0 53 22t22 53v475q0 31 -22 53t-53 22h-75v-625zM710 1225h150v566q0 31 -22 53t-53 22t-53 -22t-22 -53v-566z" glyph-name="R_A.liga" horiz-adv-x="1040" unicode="RA"/><glyph d="M565 0q-93 0 -159 66t-66 159v775q0 31 -22 53t-53 22h-75v-1075h-150v2000h225q93 0 159 -66t66 -159v-475q0 -85 -57 -150q57 -65 57 -150v-775q0 -31 22 -53t53 -22h2v1850h225q93 0 159 -66t66 -159v-475q0 -85 -57 -150q57 -65 57 -150v-775q0 -93 -66 -159 t-159 -66h-227zM190 1225h75q31 0 53 22t22 53v475q0 31 -22 53t-53 22h-75v-625zM717 150h75q31 0 53 22t22 53v775q0 31 -22 53t-53 22h-75v-925zM717 1225h75q31 0 53 22t22 53v475q0 31 -22 53t-53 22h-75v-625z" glyph-name="R_B.liga" horiz-adv-x="1047" unicode="RB"/><glyph d="M785 -16q-121 0 -223.5 59.5t-162 162t-59.5 223.5v571q0 31 -22 53t-53 22h-75v-1075h-150v2000h225q93 0 159 -66t66 -159v-475q0 -85 -57 -150q57 -65 57 -150v-571q0 -122 86.5 -208.5t208.5 -86.5t208.5 86.5t86.5 208.5v280h150v-280q0 -121 -59.5 -223.5 t-162 -162t-223.5 -59.5zM190 1225h75q31 0 53 22t22 53v475q0 31 -22 53t-53 22h-75v-625zM560 429v1362q0 93 66 159t159 66t159 -66t66 -159v-400h-150v400q0 31 -22 53t-53 22t-53 -22t-22 -53v-1362q0 -31 22 -53t53 -22t53 22t22 53v400h150v-400q0 -93 -66 -159 t-159 -66t-159 66t-66 159z" glyph-name="R_C.liga" horiz-adv-x="1250" unicode="RC"/><glyph d="M40 0v2000h225q93 0 159 -66t66 -159v-475q0 -85 -57 -150q57 -65 57 -150v-775q0 -31 22 -53t53 -22h2v1850h225q93 0 159 -66t66 -159v-1550q0 -93 -66 -159t-159 -66h-227q-93 0 -159 66t-66 159v775q0 31 -22 53t-53 22h-75v-1075h-150zM190 1225h75q31 0 53 22 t22 53v475q0 31 -22 53t-53 22h-75v-625zM717 150h75q31 0 53 22t22 53v1550q0 31 -22 53t-53 22h-75v-1700z" glyph-name="R_D.liga" horiz-adv-x="1047" unicode="RD"/><glyph d="M40 0v2000h225q93 0 159 -66t66 -159v-475q0 -85 -57 -150q57 -65 57 -150v-775q0 -31 22 -53t53 -22h412v-150h-412q-93 0 -159 66t-66 159v775q0 31 -22 53t-53 22h-75v-1075h-150zM190 1225h75q31 0 53 22t22 53v475q0 31 -22 53t-53 22h-75v-625zM567 220v1780h410 v-150h-260v-625h220v-150h-220v-705h260v-150h-410z" glyph-name="R_E.liga" horiz-adv-x="997" unicode="RE"/><glyph d="M40 0v2000h225q93 0 159 -66t66 -159v-475q0 -85 -57 -150q57 -65 57 -150v-721q0 -60 42.5 -102.5t102.5 -42.5t102.5 42.5t42.5 102.5v430h150v-430q0 -122 -86.5 -208.5t-208.5 -86.5t-208.5 86.5t-86.5 208.5v721q0 31 -22 53t-53 22h-75v-1075h-150zM190 1225h75 q31 0 53 22t22 53v475q0 31 -22 53t-53 22h-75v-625zM560 220v1780h410v-150h-260v-625h220v-150h-220v-855h-150z" glyph-name="R_F.liga" horiz-adv-x="980" unicode="RF"/><glyph d="M785 -16q-121 0 -223.5 59.5t-162 162t-59.5 223.5v571q0 31 -22 53t-53 22h-75v-1075h-150v2000h225q93 0 159 -66t66 -159v-475q0 -85 -57 -150q57 -65 57 -150v-571q0 -122 86.5 -208.5t208.5 -86.5t208.5 86.5t86.5 208.5v280h150v-280q0 -121 -59.5 -223.5 t-162 -162t-223.5 -59.5zM190 1225h75q31 0 53 22t22 53v475q0 31 -22 53t-53 22h-75v-625zM560 429v1362q0 93 66 159t159 66t159 -66t66 -159v-400h-150v400q0 31 -22 53t-53 22t-53 -22t-22 -53v-1362q0 -31 22 -53t53 -22t53 22t22 53v250h-75v150h225v-400 q0 -93 -66 -159t-159 -66t-159 66t-66 159z" glyph-name="R_G.liga" horiz-adv-x="1240" unicode="RG"/><glyph d="M860 0v1075h-150v-906q0 -77 -54 -131t-131 -54t-131 54t-54 131v831q0 31 -22 53t-53 22h-75v-1075h-150v2000h225q93 0 159 -66t66 -159v-475q0 -85 -57 -150q57 -65 57 -150v-831q0 -14 10.5 -24.5t24.5 -10.5t24.5 10.5t10.5 24.5v1831h150v-775h150v775h150v-2000 h-150zM190 1225h75q31 0 53 22t22 53v475q0 31 -22 53t-53 22h-75v-625z" glyph-name="R_H.liga" horiz-adv-x="1050" unicode="RH"/><glyph d="M40 0v2000h225q93 0 159 -66t66 -159v-475q0 -85 -57 -150q57 -65 57 -150v-831q0 -14 10.5 -24.5t24.5 -10.5t24.5 10.5t10.5 24.5v1831h150v-1831q0 -77 -54 -131t-131 -54t-131 54t-54 131v831q0 31 -22 53t-53 22h-75v-1075h-150zM190 1225h75q31 0 53 22t22 53v475 q0 31 -22 53t-53 22h-75v-625z" glyph-name="R_I.liga" horiz-adv-x="750" unicode="RI"/><glyph d="M560 -70v2070h150v-2070q0 -93 -66 -159t-159 -66t-159 66t-66 159h150q0 -31 22 -53t53 -22t53 22t22 53zM40 0v2000h225q93 0 159 -66t66 -159v-475q0 -85 -57 -150q57 -65 57 -150v-1000h-150v1000q0 31 -22 53t-53 22h-75v-1075h-150zM190 1225h75q31 0 53 22t22 53 v475q0 31 -22 53t-53 22h-75v-625z" glyph-name="R_J.liga" horiz-adv-x="740" unicode="RJ"/><glyph d="M40 0v2000h225q93 0 159 -66t66 -159v-475q0 -85 -57 -150q57 -65 57 -150v-775q0 -31 22 -53t53 -22h405v-150h-405q-93 0 -159 66t-66 159v775q0 31 -22 53t-53 22h-75v-1075h-150zM190 1225h75q31 0 53 22t22 53v475q0 31 -22 53t-53 22h-75v-625zM560 220v1780h150 v-1630h260v-150h-410z" glyph-name="R_L.liga" horiz-adv-x="980" unicode="RL"/><glyph d="M860 900l-150 550v-1230h-150v1780h150l225 -825l225 825h150v-2000h-150v1450l-150 -550h-150zM40 0v2000h225q93 0 159 -66t66 -159v-475q0 -85 -57 -150q57 -65 57 -150v-681q0 -77 54 -131t131 -54t131 54t54 131v270h150v-270q0 -139 -98 -237t-237 -98t-237 98 t-98 237v681q0 31 -22 53t-53 22h-75v-1075h-150zM190 1225h75q31 0 53 22t22 53v475q0 31 -22 53t-53 22h-75v-625z" glyph-name="R_M.liga" horiz-adv-x="1350" unicode="RM"/><glyph d="M860 0v1500l-150 250v-1530h-150v1780h150l150 -250v250h150v-2000h-150zM40 0v2000h225q93 0 159 -66t66 -159v-475q0 -85 -57 -150q57 -65 57 -150v-775q0 -31 22 -53t53 -22h145v-150h-145q-93 0 -159 66t-66 159v775q0 31 -22 53t-53 22h-75v-1075h-150zM190 1225h75 q31 0 53 22t22 53v475q0 31 -22 53t-53 22h-75v-625z" glyph-name="R_N.liga" horiz-adv-x="1050" unicode="RN"/><glyph d="M785 -16q-121 0 -223.5 59.5t-162 162t-59.5 223.5v571q0 31 -22 53t-53 22h-75v-1075h-150v2000h225q93 0 159 -66t66 -159v-475q0 -85 -57 -150q57 -65 57 -150v-571q0 -122 86.5 -208.5t208.5 -86.5t208.5 86.5t86.5 208.5v280h150v-280q0 -121 -59.5 -223.5 t-162 -162t-223.5 -59.5zM190 1225h75q31 0 53 22t22 53v475q0 31 -22 53t-53 22h-75v-625zM560 429v1362q0 93 66 159t159 66t159 -66t66 -159v-1362q0 -93 -66 -159t-159 -66t-159 66t-66 159zM710 429q0 -31 22 -53t53 -22t53 22t22 53v1362q0 31 -22 53t-53 22t-53 -22 t-22 -53v-1362z" glyph-name="R_O.liga" horiz-adv-x="1240" unicode="RO"/><glyph d="M785 -16q-121 0 -223.5 59.5t-162 162t-59.5 223.5v571q0 31 -22 53t-53 22h-75v-1075h-150v2000h225q93 0 159 -66t66 -159v-475q0 -85 -57 -150q57 -65 57 -150v-571q0 -122 86.5 -208.5t208.5 -86.5t208.5 86.5t86.5 208.5v280h150v-280q0 -121 -59.5 -223.5 t-162 -162t-223.5 -59.5zM190 1225h75q31 0 53 22t22 53v475q0 31 -22 53t-53 22h-75v-625zM560 429v1362q0 93 66 159t159 66t159 -66t66 -159v-1362q0 -93 -66 -159t-159 -66t-159 66t-66 159zM710 429q0 -31 22 -53t53 -22t53 22t22 53v1362q0 31 -22 53t-53 22t-53 -22 t-22 -53v-1362zM1080 779v971h150v-971h-150zM1080 1850v150h150v-150h-150z" glyph-name="R_O_I.liga" horiz-adv-x="1270" unicode="ROI"/><glyph d="M40 0v2000h225q93 0 159 -66t66 -159v-475q0 -85 -57 -150q57 -65 57 -150v-721q0 -60 42.5 -102.5t102.5 -42.5t102.5 42.5t42.5 102.5v430h150v-430q0 -122 -86.5 -208.5t-208.5 -86.5t-208.5 86.5t-86.5 208.5v721q0 31 -22 53t-53 22h-75v-1075h-150zM190 1225h75 q31 0 53 22t22 53v475q0 31 -22 53t-53 22h-75v-625zM560 220v1780h225q93 0 159 -66t66 -159v-475q0 -93 -66 -159t-159 -66h-75v-855h-150zM710 1225h75q31 0 53 22t22 53v475q0 31 -22 53t-53 22h-75v-625z" glyph-name="R_P.liga" horiz-adv-x="1020" unicode="RP"/><glyph d="M785 -16q-121 0 -223.5 59.5t-162 162t-59.5 223.5v571q0 31 -22 53t-53 22h-75v-1075h-150v2000h225q93 0 159 -66t66 -159v-475q0 -85 -57 -150q57 -65 57 -150v-571q0 -102 62 -181t158 -104v73q-66 24 -108 82t-42 130v1362q0 93 66 159t159 66t159 -66t66 -159 v-1362q0 -72 -42 -130t-108 -82v-73q96 25 158 104t62 181v280h150v-280q0 -121 -59.5 -223.5t-162 -162t-223.5 -59.5zM190 1225h75q31 0 53 22t22 53v475q0 31 -22 53t-53 22h-75v-625zM710 429q0 -31 22 -53t53 -22t53 22t22 53v1362q0 31 -22 53t-53 22t-53 -22t-22 -53 v-1362z" glyph-name="R_Q.liga" horiz-adv-x="1240" unicode="RQ"/><glyph d="M40 0v2000h225q93 0 159 -66t66 -159v-475q0 -85 -57 -150q57 -65 57 -150v-775q0 -31 22 -53t53 -22h149v-150h-149q-93 0 -159 66t-66 159v775q0 31 -22 53t-53 22h-75v-1075h-150zM190 1225h75q31 0 53 22t22 53v475q0 31 -22 53t-53 22h-75v-625zM564 220v1780h225 q93 0 159 -66t66 -159v-475q0 -85 -57 -150q57 -65 57 -150v-1000h-150v1000q0 31 -22 53t-53 22h-75v-855h-150zM714 1225h75q31 0 53 22t22 53v475q0 31 -22 53t-53 22h-75v-625z" glyph-name="R_R.liga" horiz-adv-x="1044" unicode="RR"/><glyph d="M785 -16q-121 0 -223.5 59.5t-162 162t-59.5 223.5v571q0 31 -22 53t-53 22h-75v-1075h-150v2000h225q93 0 159 -66t66 -159v-475q0 -85 -57 -150q57 -65 57 -150v-571q0 -122 86.5 -208.5t208.5 -86.5t208.5 86.5t86.5 208.5v280h150v-280q0 -121 -59.5 -223.5 t-162 -162t-223.5 -59.5zM190 1225h75q31 0 53 22t22 53v475q0 31 -22 53t-53 22h-75v-625zM560 429v390h150v-390q0 -31 22 -53t53 -22t53 22t22 53v531q0 31 -22 53t-53 22q-93 0 -159 66t-66 159v531q0 93 66 159t159 66t159 -66t66 -159v-390h-150v390q0 31 -22 53 t-53 22t-53 -22t-22 -53v-531q0 -31 22 -53t53 -22q93 0 159 -66t66 -159v-531q0 -93 -66 -159t-159 -66t-159 66t-66 159z" glyph-name="R_S.liga" horiz-adv-x="1240" unicode="RS"/><glyph d="M785 -16q-121 0 -223.5 59.5t-162 162t-59.5 223.5v571q0 31 -22 53t-53 22h-75v-1075h-150v2000h225q93 0 159 -66t66 -159v-475q0 -85 -57 -150q57 -65 57 -150v-571q0 -122 86.5 -208.5t208.5 -86.5t208.5 86.5t86.5 208.5v1421h-520v150h820v-150h-150v-1421 q0 -121 -59.5 -223.5t-162 -162t-223.5 -59.5zM190 1225h75q31 0 53 22t22 53v475q0 31 -22 53t-53 22h-75v-625zM560 429v290h150v-290q0 -31 22 -53t53 -22t53 22t22 53v431q0 31 -22 53t-53 22q-93 0 -159 66t-66 159v401q0 93 66 159t159 66t159 -66t66 -159v-260h-150 v260q0 31 -22 53t-53 22t-53 -22t-22 -53v-401q0 -31 22 -53t53 -22q93 0 159 -66t66 -159v-431q0 -93 -66 -159t-159 -66t-159 66t-66 159z" glyph-name="R_S_T.liga" horiz-adv-x="1390" unicode="RST"/><glyph d="M785 -16q-121 0 -223.5 59.5t-162 162t-59.5 223.5v571q0 31 -22 53t-53 22h-75v-1075h-150v2000h225q93 0 159 -66t66 -159v-475q0 -85 -57 -150q57 -65 57 -150v-571q0 -122 86.5 -208.5t208.5 -86.5t208.5 86.5t86.5 208.5v280h150v-280q0 -121 -59.5 -223.5 t-162 -162t-223.5 -59.5zM190 1225h75q31 0 53 22t22 53v475q0 31 -22 53t-53 22h-75v-625zM560 429v1571h150v-1571q0 -31 22 -53t53 -22t53 22t22 53v1571h150v-1571q0 -93 -66 -159t-159 -66t-159 66t-66 159z" glyph-name="R_U.liga" horiz-adv-x="1260" unicode="RU"/><glyph d="M40 0v2000h225q93 0 159 -66t66 -159v-475q0 -85 -57 -150q57 -65 57 -150v-775q0 -31 22 -53t53 -22h745v-150h-745q-93 0 -159 66t-66 159v775q0 31 -22 53t-53 22h-75v-1075h-150zM190 1225h75q31 0 53 22t22 53v475q0 31 -22 53t-53 22h-75v-625zM560 439v1561h150 v-1561q0 -31 22 -53t53 -22t53 22t22 53v1561h150v-1561q0 -31 22 -53t53 -22t53 22t22 53v1561h150v-1561q0 -93 -66 -159t-159 -66q-85 0 -150 57q-65 -57 -150 -57q-93 0 -159 66t-66 159z" glyph-name="R_W.liga" horiz-adv-x="1340" unicode="RW"/><glyph d="M40 0v2000h225q93 0 159 -66t66 -159v-475q0 -85 -57 -150q57 -65 57 -150v-831q0 -14 10.5 -24.5t24.5 -10.5t24.5 10.5t10.5 24.5v661q0 57 26 105.5t71 79.5q-45 31 -71 79.5t-26 105.5v800h150v-800q0 -31 22 -53t53 -22t53 22t22 53v800h150v-800q0 -57 -26 -105.5 t-71 -79.5q45 -31 71 -79.5t26 -105.5v-830h-150v830q0 31 -22 53t-53 22t-53 -22t-22 -53v-661q0 -77 -54 -131t-131 -54t-131 54t-54 131v831q0 31 -22 53t-53 22h-75v-1075h-150zM190 1225h75q31 0 53 22t22 53v475q0 31 -22 53t-53 22h-75v-625z" glyph-name="R_X.liga" horiz-adv-x="1040" unicode="RX"/><glyph d="M40 0v2000h225q93 0 159 -66t66 -159v-475q0 -85 -57 -150q57 -65 57 -150v-766q0 -41 29.5 -70.5t70.5 -29.5t70.5 29.5t29.5 70.5v754q-66 24 -108 82t-42 130v800h150v-800q0 -31 22 -53t53 -22t53 22t22 53v800h150v-800q0 -72 -42 -130t-108 -82v-754 q0 -104 -73 -177t-177 -73t-177 73t-73 177v766q0 31 -22 53t-53 22h-75v-1075h-150zM190 1225h75q31 0 53 22t22 53v475q0 31 -22 53t-53 22h-75v-625z" glyph-name="R_Y.liga" horiz-adv-x="1000" unicode="RY"/><glyph d="M565 0q-93 0 -158.5 65.5t-66.5 158.5v776q0 31 -22 53t-53 22h-75v-1075h-150v2000h225q93 0 159 -66t66 -159v-475q0 -85 -57 -150q57 -65 57 -150v-775q0 -31 22 -53t53 -22h8l255 1700h-263v150h435l-277 -1850h277v-150h-435zM190 1225h75q31 0 53 22t22 53v475 q0 31 -22 53t-53 22h-75v-625z" glyph-name="R_Z.liga" horiz-adv-x="1020" unicode="RZ"/><glyph d="M160 0v1850h-150v150h820v-150h-520v-1850h-150zM380 0v1561q0 93 66 159t159 66t159 -66t66 -159v-1561h-150v1075h-150v-1075h-150zM530 1225h150v336q0 31 -22 53t-53 22t-53 -22t-22 -53v-336z" glyph-name="T_A.liga" horiz-adv-x="860" unicode="TA"/><glyph d="M160 0v1850h-150v150h820v-150h-520v-1850h-150zM380 0v1780h225q93 0 159 -66t66 -159v-255q0 -85 -57 -150q57 -65 57 -150v-775q0 -93 -66 -159t-159 -66h-225zM530 150h75q31 0 53 22t22 53v775q0 31 -22 53t-53 22h-75v-925zM530 1225h75q31 0 53 22t22 53v255 q0 31 -22 53t-53 22h-75v-405z" glyph-name="T_B.liga" horiz-adv-x="860" unicode="TB"/><glyph d="M160 0v1850h-150v150h820v-150h-520v-1850h-150zM380 209v1352q0 93 66 159t159 66t159 -66t66 -159v-500h-150v500q0 31 -22 53t-53 22t-53 -22t-22 -53v-1352q0 -31 22 -53t53 -22t53 22t22 53v500h150v-500q0 -93 -66 -159t-159 -66t-159 66t-66 159z" glyph-name="T_C.liga" horiz-adv-x="850" unicode="TC"/><glyph d="M160 0v1850h-150v150h820v-150h-520v-1850h-150zM380 0v1780h225q93 0 159 -66t66 -159v-1330q0 -93 -66 -159t-159 -66h-225zM530 150h75q31 0 53 22t22 53v1330q0 31 -22 53t-53 22h-75v-1480z" glyph-name="T_D.liga" horiz-adv-x="860" unicode="TD"/><glyph d="M160 0v1850h-150v150h780v-150h-480v-1850h-150zM380 0v1780h410v-150h-260v-405h220v-150h-220v-925h260v-150h-410z" glyph-name="T_E.liga" horiz-adv-x="810" unicode="TE"/><glyph d="M160 0v1850h-150v150h780v-150h-480v-1850h-150zM380 0v1780h410v-150h-260v-405h220v-150h-220v-1075h-150z" glyph-name="T_F.liga" horiz-adv-x="800" unicode="TF"/><glyph d="M160 0v1850h-150v150h820v-150h-520v-1850h-150zM380 209v1352q0 93 66 159t159 66t159 -66t66 -159v-500h-150v500q0 31 -22 53t-53 22t-53 -22t-22 -53v-1352q0 -31 22 -53t53 -22t53 22t22 53v350h-75v150h225v-500q0 -93 -66 -159t-159 -66t-159 66t-66 159z" glyph-name="T_G.liga" horiz-adv-x="850" unicode="TG"/><glyph d="M680 0v1075h-150v-1075h-150v1780h150v-555h150v775h150v-2000h-150zM10 1850v150h520v-150h-220v-1850h-150v1850h-150z" glyph-name="T_H.liga" horiz-adv-x="870" unicode="TH"/><glyph d="M160 0v1850h-150v150h520v-150h-220v-1850h-150zM380 0v1780h150v-555h150v775h150v-1775q0 -31 22 -53t53 -22h405v-150h-405q-93 0 -159 66t-66 159v850h-150v-1075h-150zM900 220v1780h410v-150h-260v-625h220v-150h-220v-705h260v-150h-410z" glyph-name="T_H_E.liga" horiz-adv-x="1330" unicode="THE"/><glyph d="M160 0v1850h-150v150h520v-150h-220v-1850h-150zM380 0v1780h150v-1780h-150z" glyph-name="T_I.liga" horiz-adv-x="570" unicode="TI"/><glyph d="M160 0v1850h-150v150h520v-150h-220v-1850h-150zM80 -70h150q0 -31 22 -53t53 -22t53 22t22 53v1850h150v-1850q0 -93 -66 -159t-159 -66t-159 66t-66 159z" glyph-name="T_J.liga" horiz-adv-x="560" unicode="TJ"/><glyph d="M160 0v1850h-150v150h520v-150h-220v-1850h-150zM380 0v1780h150v-555h75q31 0 53 22t22 53v700h150v-700q0 -85 -57 -150q57 -65 57 -150v-1000h-150v1000q0 31 -22 53t-53 22h-75v-1075h-150z" glyph-name="T_K.liga" horiz-adv-x="870" unicode="TK"/><glyph d="M160 0v1850h-150v150h520v-150h-220v-1850h-150zM380 0v1780h150v-1630h260v-150h-410z" glyph-name="T_L.liga" horiz-adv-x="800" unicode="TL"/><glyph d="M680 900l-150 440v-1340h-150v1780h150l217 -636l233 856h150v-2000h-150v1450l-150 -550h-150zM10 1850v150h871v-150h-571v-1850h-150v1850h-150z" glyph-name="T_M.liga" horiz-adv-x="1170" unicode="TM"/><glyph d="M160 0v1850h-150v150h820v-150h-520v-1850h-150zM380 0v1780h150l150 -250v250h150v-1780h-150v1280l-150 250v-1530h-150z" glyph-name="T_N.liga" horiz-adv-x="870" unicode="TN"/><glyph d="M160 0v1850h-150v150h820v-150h-520v-1850h-150zM380 209v1352q0 93 66 159t159 66t159 -66t66 -159v-1352q0 -93 -66 -159t-159 -66t-159 66t-66 159zM530 209q0 -31 22 -53t53 -22t53 22t22 53v1352q0 31 -22 53t-53 22t-53 -22t-22 -53v-1352z" glyph-name="T_O.liga" horiz-adv-x="860" unicode="TO"/><glyph d="M160 0v1850h-150v150h820v-150h-520v-1850h-150zM380 0v1780h225q93 0 159 -66t66 -159v-475q0 -93 -66 -159t-159 -66h-75v-855h-150zM530 1005h75q31 0 53 22t22 53v475q0 31 -22 53t-53 22h-75v-625z" glyph-name="T_P.liga" horiz-adv-x="840" unicode="TP"/><glyph d="M160 0v1850h-150v150h820v-150h-520v-1850h-150zM380 209v1352q0 93 66 159t159 66t159 -66t66 -159v-1352q0 -72 -42 -130t-108 -82v-197h-150v197q-66 24 -108 82t-42 130zM530 209q0 -31 22 -53t53 -22t53 22t22 53v1352q0 31 -22 53t-53 22t-53 -22t-22 -53v-1352z " glyph-name="T_Q.liga" horiz-adv-x="860" unicode="TQ"/><glyph d="M160 0v1850h-150v150h820v-150h-520v-1850h-150zM380 0v1780h225q93 0 159 -66t66 -159v-255q0 -85 -57 -150q57 -65 57 -150v-1000h-150v1000q0 31 -22 53t-53 22h-75v-1075h-150zM530 1225h75q31 0 53 22t22 53v255q0 31 -22 53t-53 22h-75v-405z" glyph-name="T_R.liga" horiz-adv-x="860" unicode="TR"/><glyph d="M160 0v1850h-150v150h820v-150h-520v-1850h-150zM380 209v400h150v-400q0 -31 22 -53t53 -22t53 22t22 53v531q0 31 -22 53t-53 22q-93 0 -159 66t-66 159v521q0 93 66 159t159 66t159 -66t66 -159v-400h-150v400q0 31 -22 53t-53 22t-53 -22t-22 -53v-521q0 -31 22 -53 t53 -22q93 0 159 -66t66 -159v-531q0 -93 -66 -159t-159 -66t-159 66t-66 159z" glyph-name="T_S.liga" horiz-adv-x="860" unicode="TS"/><glyph d="M160 0v1850h-150v150h820v-150h-520v-1850h-150zM380 1630v150h450v-150h-150v-1630h-150v1630h-150z" glyph-name="T_T.liga" horiz-adv-x="840" unicode="TT"/><glyph d="M160 0v1850h-150v150h520v-150h-220v-1850h-150zM380 209v1571h150v-1571q0 -31 22 -53t53 -22t53 22t22 53v1791h150v-1791q0 -93 -66 -159t-159 -66t-159 66t-66 159z" glyph-name="T_U.liga" horiz-adv-x="860" unicode="TU"/><glyph d="M470 0l-100 1780h150l64 -1129l5 -436h12l2 436l67 1349h150l-100 -2000h-250zM10 1850v150h510v-150h-210v-1850h-150v1850h-150z" glyph-name="T_V.liga" horiz-adv-x="830" unicode="TV"/><glyph d="M160 0v1850h-150v150h520v-150h-220v-1850h-150zM380 209v1571h150v-1571q0 -31 22 -53t53 -22t53 22t22 53v1791h150v-1791q0 -31 22 -53t53 -22t53 22t22 53v1791h150v-1791q0 -93 -66 -159t-159 -66q-85 0 -150 57q-65 -57 -150 -57q-93 0 -159 66t-66 159z" glyph-name="T_W.liga" horiz-adv-x="1160" unicode="TW"/><glyph d="M160 0v1850h-150v150h520v-150h-220v-1850h-150zM380 0v830q0 57 26 105.5t71 79.5q-45 31 -71 79.5t-26 105.5v580h150v-580q0 -31 22 -53t53 -22t53 22t22 53v800h150v-800q0 -57 -26 -105.5t-71 -79.5q45 -31 71 -79.5t26 -105.5v-830h-150v830q0 31 -22 53t-53 22 t-53 -22t-22 -53v-830h-150z" glyph-name="T_X.liga" horiz-adv-x="860" unicode="TX"/><glyph d="M160 0v1850h-150v150h520v-150h-220v-1850h-150zM380 1200v580h150v-580q0 -31 22 -53t53 -22t53 22t22 53v800h150v-800q0 -72 -42 -130t-108 -82v-988h-150v988q-66 24 -108 82t-42 130z" glyph-name="T_Y.liga" horiz-adv-x="840" unicode="TY"/><glyph d="M380 0l275 1630h-275v150h450l-275 -1630h275v-150h-450zM10 1850v150h820v-150h-520v-1850h-150v1850h-150z" glyph-name="T_Z.liga" horiz-adv-x="850" unicode="TZ"/><glyph d="M850 225v1566q0 93 66 159t159 66t159 -66t66 -159v-1012h-150v296h-150v-850q0 -93 -66 -159t-159 -66h-745v150h745q31 0 53 22t22 53zM30 439v1561h150v-1561q0 -31 22 -53t53 -22t53 22t22 53v1561h150v-1561q0 -31 22 -53t53 -22t53 22t22 53v1561h150v-1561 q0 -93 -66 -159t-159 -66q-85 0 -150 57q-65 -57 -150 -57q-93 0 -159 66t-66 159zM1000 1225h150v566q0 31 -22 53t-53 22t-53 -22t-22 -53v-566zM1150 314v395h150v-395q0 -74 53 -127t127 -53t127 53t53 127v536q0 31 -22 53t-53 22q-93 0 -159 66t-66 159v641 q0 93 66 159t159 66t159 -66t66 -159v-500h-150v500q0 31 -22 53t-53 22t-53 -22t-22 -53v-641q0 -31 22 -53t53 -22q93 0 159 -66t66 -159v-536q0 -136 -97 -233t-233 -97t-233 97t-97 233z" glyph-name="W_A_S.liga" horiz-adv-x="1840" unicode="WAS"/><glyph d="M30 0v1791q0 93 66 159t159 66t159 -66t66 -159v-1472q0 -81 60 -136v1608q0 93 66 159t159 66t159 -66t66 -159v-500h-150v500q0 31 -22 53t-53 22t-53 -22t-22 -53v-1651q64 11 107 61t43 118v390h150v-390q0 -139 -96.5 -237t-233.5 -98t-233.5 98t-96.5 237v1156 h-150v-1475h-150zM180 1625h150v166q0 31 -22 53t-53 22t-53 -22t-22 -53v-166z" glyph-name="a_C.liga" horiz-adv-x="1010" unicode="aC"/><glyph d="M30 0v1791q0 93 66 159t159 66t159 -66t66 -159v-1566q0 -31 22 -53t53 -22h220q31 0 53 22t22 53v1550q0 31 -22 53t-53 22h-75v-1625h-150v1775h225q93 0 159 -66t66 -159v-1550q0 -93 -66 -159t-159 -66h-220q-93 0 -159 66t-66 159v1250h-150v-1475h-150zM180 1625 h150v166q0 31 -22 53t-53 22t-53 -22t-22 -53v-166z" glyph-name="a_D.liga" horiz-adv-x="1030" unicode="aD"/><glyph d="M550 169v1831h150v-1831q0 -77 -54 -131t-131 -54t-131 54t-54 131v1306h-150v-1475h-150v1791q0 93 66 159t159 66t159 -66t66 -159v-1622q0 -15 10 -25t25 -10t25 10t10 25zM180 1625h150v166q0 31 -22 53t-53 22t-53 -22t-22 -53v-166z" glyph-name="a_I.liga" horiz-adv-x="740" unicode="aI"/><glyph d="M630 209v1791h150v-1791q0 -93 -66 -159t-159 -66t-159 66t-66 159h150q0 -31 22 -53t53 -22t53 22t22 53zM30 0v1791q0 93 66 159t159 66t159 -66t66 -159v-1512h-150v1196h-150v-1475h-150zM180 1625h150v166q0 31 -22 53t-53 22t-53 -22t-22 -53v-166z" glyph-name="a_J.liga" horiz-adv-x="810" unicode="aJ"/><glyph d="M550 0q-92 2 -156 68t-64 157v1250h-150v-1475h-150v1791q0 93 66 159t159 66t159 -66t66 -159v-1566q0 -29 20.5 -51t49.5 -24v1850h150v-1850h260v-150h-405h-5zM180 1625h150v166q0 31 -22 53t-53 22t-53 -22t-22 -53v-166z" glyph-name="a_L.liga" horiz-adv-x="970" unicode="aL"/><glyph d="M850 900l-150 550v-1225h-150v1775h150l225 -825l225 825h150v-2000h-150v1450l-150 -550h-150zM30 0v1791q0 93 66 159t159 66t159 -66t66 -159v-1566q0 -31 22 -53t53 -22h525v-150h-525q-93 0 -159 66t-66 159v1250h-150v-1475h-150zM180 1625h150v166q0 31 -22 53 t-53 22t-53 -22t-22 -53v-166z" glyph-name="a_M.liga" horiz-adv-x="1340" unicode="aM"/><glyph d="M850 0v1500l-150 250v-1525h-150v1775h150l150 -250v250h150v-2000h-150zM30 0v1791q0 93 66 159t159 66t159 -66t66 -159v-1566q0 -31 22 -53t53 -22h226v-150h-226q-93 0 -159 66t-66 159v1250h-150v-1475h-150zM180 1625h150v166q0 31 -22 53t-53 22t-53 -22t-22 -53 v-166z" glyph-name="a_N.liga" horiz-adv-x="1040" unicode="aN"/><glyph d="M30 0v1791q0 93 66 159t159 66t159 -66t66 -159v-1477q0 -80 60 -134v1611q0 93 66 159t159 66t159 -66t66 -159v-1477q0 -136 -97 -233t-233 -97t-233 97t-97 233v1161h-150v-1475h-150zM180 1625h150v166q0 31 -22 53t-53 22t-53 -22t-22 -53v-166zM690 137 q64 11 107 61t43 116v1477q0 31 -22 53t-53 22t-53 -22t-22 -53v-1654z" glyph-name="a_O.liga" horiz-adv-x="1020" unicode="aO"/><glyph d="M30 0v1791q0 93 66 159t159 66t159 -66t66 -159v-1477q0 -80 60 -134v1611q0 93 66 159t159 66t159 -66t66 -159v-1477q0 -86 -40.5 -159t-109.5 -117v-238h-150v185q-10 -1 -30 -1q-136 0 -233 97t-97 233v1161h-150v-1475h-150zM180 1625h150v166q0 31 -22 53t-53 22 t-53 -22t-22 -53v-166zM690 137q64 11 107 61t43 116v1477q0 31 -22 53t-53 22t-53 -22t-22 -53v-1654z" glyph-name="a_Q.liga" horiz-adv-x="1020" unicode="aQ"/><glyph d="M30 0v1791q0 93 66 159t159 66t159 -66t66 -159v-1012h-150v696h-150v-1475h-150zM180 1625h150v166q0 31 -22 53t-53 22t-53 -22t-22 -53v-166zM330 314v395h150v-395q0 -74 53 -127t127 -53t127 53t53 127v536q0 31 -22 53t-53 22q-93 0 -159 66t-66 159v641 q0 93 66 159t159 66t159 -66t66 -159v-500h-150v500q0 31 -22 53t-53 22t-53 -22t-22 -53v-641q0 -31 22 -53t53 -22q93 0 159 -66t66 -159v-536q0 -136 -97 -233t-233 -97t-233 97t-97 233z" glyph-name="a_S.liga" horiz-adv-x="1020" unicode="aS"/><glyph d="M30 0v1791q0 93 66 159t159 66t159 -66t66 -159v-1562q0 -39 28 -67t67 -28t67 28t28 67v1621h-150v150h450v-150h-150v-1621q0 -101 -72 -173t-173 -72t-173 72t-72 173v1246h-150v-1475h-150zM180 1625h150v166q0 31 -22 53t-53 22t-53 -22t-22 -53v-166z" glyph-name="a_T.liga" horiz-adv-x="980" unicode="aT"/><glyph d="M30 0v1791q0 93 66 159t159 66t159 -66t66 -159v-1566q0 -31 22 -53t53 -22h445v-150h-445q-93 0 -159 66t-66 159v1250h-150v-1475h-150zM180 1625h150v166q0 31 -22 53t-53 22t-53 -22t-22 -53v-166zM550 439v1561h150v-1561q0 -31 22 -53t53 -22t53 22t22 53v1561h150 v-1561q0 -93 -66 -159t-159 -66t-159 66t-66 159z" glyph-name="a_U.liga" horiz-adv-x="1030" unicode="aU"/><glyph d="M620 225l-100 1775h150l65 -1151l4 -436h12l4 436l65 1151h150l-100 -1775h-250zM30 1791q0 93 66 159t159 66t159 -66t66 -159v-1566q0 -31 22 -53t53 -22h415v-150h-415q-93 0 -159 66t-66 159v1250h-150v-1475h-150v1791zM180 1625h150v166q0 31 -22 53t-53 22 t-53 -22t-22 -53v-166z" glyph-name="a_V.liga" horiz-adv-x="980" unicode="aV"/><glyph d="M930 209v1791h150v-1791q0 -93 -66 -159t-159 -66q-85 0 -150 57q-65 -57 -150 -57q-93 0 -159 66t-66 159v491h150v-491q0 -31 22 -53t53 -22t53 22t22 53v1791h150v-1791q0 -31 22 -53t53 -22t53 22t22 53zM30 0v1791q0 93 66 159t159 66t159 -66t66 -159v-991h-150 v675h-150v-1475h-150zM180 1625h150v166q0 31 -22 53t-53 22t-53 -22t-22 -53v-166z" glyph-name="a_W.liga" horiz-adv-x="1110" unicode="aW"/><glyph d="M30 0v1791q0 93 66 159t159 66t159 -66t66 -159v-1627q0 -12 9 -21t21 -9t21 9t9 21v666q0 57 26 105.5t71 79.5q-45 31 -71 79.5t-26 105.5v800h150v-800q0 -31 22 -53t53 -22t53 22t22 53v800h150v-800q0 -57 -26 -105.5t-71 -79.5q45 -31 71 -79.5t26 -105.5v-830 h-150v830q0 31 -22 53t-53 22t-53 -22t-22 -53v-666q0 -74 -53 -127t-127 -53t-127 53t-53 127v1311h-150v-1475h-150zM180 1625h150v166q0 31 -22 53t-53 22t-53 -22t-22 -53v-166z" glyph-name="a_X.liga" horiz-adv-x="1020" unicode="aX"/><glyph d="M30 0v1791q0 93 66 159t159 66t159 -66t66 -159v-1477q0 -74 53 -127t127 -53t127 53t53 127v516q0 31 -22 53t-53 22t-53 -22t-22 -53v-516h-150v516q0 57 26 105.5t71 79.5q-45 31 -71 79.5t-26 105.5v800h150v-800q0 -31 22 -53t53 -22t53 22t22 53v800h150v-800 q0 -57 -26 -105.5t-71 -79.5q45 -31 71 -79.5t26 -105.5v-516q0 -136 -97 -233t-233 -97t-233 97t-97 233v1161h-150v-1475h-150zM180 1625h150v166q0 31 -22 53t-53 22t-53 -22t-22 -53v-166z" glyph-name="a_X_one.liga" horiz-adv-x="1020" unicode="aX1"/><glyph d="M30 0v1791q0 93 66 159t159 66t159 -66t66 -159v-1562q0 -39 28 -67t67 -28t67 28t28 67v759q-66 24 -108 82t-42 130v800h150v-800q0 -31 22 -53t53 -22t53 22t22 53v800h150v-800q0 -72 -42 -130t-108 -82v-759q0 -101 -72 -173t-173 -72t-173 72t-72 173v1246h-150 v-1475h-150zM180 1625h150v166q0 31 -22 53t-53 22t-53 -22t-22 -53v-166z" glyph-name="a_Y.liga" horiz-adv-x="980" unicode="aY"/><glyph d="M555 0q-93 0 -159 66t-66 159v1250h-150v-1475h-150v1791q0 93 66 159t159 66t159 -66t66 -159v-1566q0 -30 21.5 -52t50.5 -23l255 1700h-277v150h450l-277 -1850h277v-150h-425zM180 1625h150v166q0 31 -22 53t-53 22t-53 -22t-22 -53v-166z" glyph-name="a_Z.liga" horiz-adv-x="1000" unicode="aZ"/><glyph d="M665 -16q-139 0 -237 98t-98 237v1156h-150v-1475h-150v1791q0 93 66 159t159 66t159 -66t66 -159v-1472q0 -90 70 -145v1826h225q93 0 159 -66t66 -159v-75q0 -85 -57 -150q57 -65 57 -150v-1081q0 -139 -98 -237t-237 -98zM180 1625h150v166q0 31 -22 53t-53 22 t-53 -22t-22 -53v-166zM700 137q64 13 107 64t43 118v1081q0 31 -22 53t-53 22h-75v-1338zM700 1625h75q31 0 53 22t22 53v75q0 31 -22 53t-53 22h-75v-225z" glyph-name="a_b.liga" horiz-adv-x="1030" unicode="ab"/><glyph d="M30 0v1791q0 93 66 159t159 66t159 -66t66 -159v-166h70v375h410v-150h-260v-225h220v-150h-220v-1250h-150v1250h-70v-1250q0 -31 22 -53t53 -22h405v-150h-405q-93 0 -159 66t-66 159v1250h-150v-1475h-150zM180 1625h150v166q0 31 -22 53t-53 22t-53 -22t-22 -53v-166 z" glyph-name="a_e.liga" horiz-adv-x="980" unicode="ae"/><glyph d="M550 0q-92 2 -156 68t-64 157v1250h-150v-1475h-150v1791q0 93 66 159t159 66t159 -66t66 -159v-166h70v375h410v-150h-260v-225h220v-150h-220v-1475h-145h-5zM180 1625h150v166q0 31 -22 53t-53 22t-53 -22t-22 -53v-166zM480 225q0 -29 20.5 -51t49.5 -24v1325h-70 v-1250z" glyph-name="a_f.liga" horiz-adv-x="970" unicode="af"/><glyph d="M30 0v1791q0 93 66 159t159 66t159 -66t66 -159v-166h70v375h150v-375h150v375h150v-1681q0 -139 -98 -237t-237 -98t-237 98t-98 237v1156h-150v-1475h-150zM180 1625h150v166q0 31 -22 53t-53 22t-53 -22t-22 -53v-166zM480 319q0 -77 54 -131t131 -54t131 54t54 131 v1156h-150v-1156h-150v1156h-70v-1156z" glyph-name="a_h.liga" horiz-adv-x="1040" unicode="ah"/><glyph d="M550 169v1306h-70v-1306q0 -15 10 -25t25 -10t25 10t10 25zM30 0v1791q0 93 66 159t159 66t159 -66t66 -159v-166h70v375h150v-375h75q31 0 53 22t22 53v300h150v-300q0 -85 -57 -150q57 -65 57 -150v-1400h-150v1400q0 31 -22 53t-53 22h-75v-1306q0 -77 -54 -131 t-131 -54t-131 54t-54 131v1306h-150v-1475h-150zM180 1625h150v166q0 31 -22 53t-53 22t-53 -22t-22 -53v-166z" glyph-name="a_k.liga" horiz-adv-x="1040" unicode="ak"/><glyph d="M550 169v1831h225q93 0 159 -66t66 -159v-75q0 -93 -66 -159t-159 -66h-75v-1306q0 -77 -54 -131t-131 -54t-131 54t-54 131v1306h-150v-1475h-150v1791q0 93 66 159t159 66t159 -66t66 -159v-1622q0 -15 10 -25t25 -10t25 10t10 25zM180 1625h150v166q0 31 -22 53 t-53 22t-53 -22t-22 -53v-166zM700 1625h75q31 0 53 22t22 53v75q0 31 -22 53t-53 22h-75v-225z" glyph-name="a_p.liga" horiz-adv-x="1010" unicode="ap"/><glyph d="M30 0v1791q0 93 66 159t159 66t159 -66t66 -159v-1472q0 -77 54 -131t131 -54t131 54t54 131v1081q0 31 -22 53t-53 22h-75v-1156h-150v1681h225q93 0 159 -66t66 -159v-75q0 -85 -57 -150q57 -65 57 -150v-1081q0 -139 -98 -237t-237 -98t-237 98t-98 237v1156h-150 v-1475h-150zM180 1625h150v166q0 31 -22 53t-53 22t-53 -22t-22 -53v-166zM700 1625h75q31 0 53 22t22 53v75q0 31 -22 53t-53 22h-75v-225z" glyph-name="a_r.liga" horiz-adv-x="1030" unicode="ar"/><glyph d="M40 0v2000h225q93 0 159 -66t66 -159v-75q0 -85 -57 -150q57 -65 57 -150v-1175v-1q0 -38 22 -64t53 -26t53 22t22 53v1791h150v-1791q0 -93 -66 -159t-159 -66t-157 67q-62 -51 -143 -51h-225zM190 150h75q31 0 53 22t22 53v1175q0 31 -22 53t-53 22h-75v-1325z M190 1625h75q31 0 53 22t22 53v75q0 31 -22 53t-53 22h-75v-225z" glyph-name="b_J.liga" horiz-adv-x="820" unicode="bJ"/><glyph d="M560 0v1850h-520v150h820v-150h-150v-1850h-150zM40 0v1780h225q93 0 159 -66t66 -159v-75q0 -85 -57 -150q57 -65 57 -150v-955q0 -93 -66 -159t-159 -66h-225zM190 150h75q31 0 53 22t22 53v955q0 31 -22 53t-53 22h-75v-1105zM190 1405h75q31 0 53 22t22 53v75 q0 31 -22 53t-53 22h-75v-225z" glyph-name="b_T.liga" horiz-adv-x="870" unicode="bT"/><glyph d="M40 0v2000h150v-375h75q31 0 53 22t22 53v300h150v-300q0 -85 -57 -150q57 -65 57 -150v-1231q0 -14 10.5 -24.5t24.5 -10.5t24.5 10.5t10.5 24.5v1622q0 93 66 159t159 66t159 -66t66 -159v-1791h-150v1075h-150v-906q0 -77 -54 -131t-131 -54t-131 54t-54 131v1231 q0 31 -22 53t-53 22h-75v-1475h-150zM710 1225h150v566q0 31 -22 53t-53 22t-53 -22t-22 -53v-566z" glyph-name="k_A.liga" horiz-adv-x="1040" unicode="kA"/><glyph d="M565 0q-93 0 -159 66t-66 159v1175q0 31 -22 53t-53 22h-75v-1475h-150v2000h150v-375h75q31 0 53 22t22 53v300h150v-300q0 -85 -57 -150q57 -65 57 -150v-1175q0 -31 22 -53t53 -22h2v1850h225q93 0 159 -66t66 -159v-475q0 -85 -57 -150q57 -65 57 -150v-775 q0 -93 -66 -159t-159 -66h-227zM717 150h75q31 0 53 22t22 53v775q0 31 -22 53t-53 22h-75v-925zM717 1225h75q31 0 53 22t22 53v475q0 31 -22 53t-53 22h-75v-625z" glyph-name="k_B.liga" horiz-adv-x="1047" unicode="kB"/><glyph d="M785 -16q-121 0 -223.5 59.5t-162 162t-59.5 223.5v971q0 31 -22 53t-53 22h-75v-1475h-150v2000h150v-375h75q31 0 53 22t22 53v300h150v-300q0 -85 -57 -150q57 -65 57 -150v-971q0 -122 86.5 -208.5t208.5 -86.5t208.5 86.5t86.5 208.5v280h150v-280 q0 -121 -59.5 -223.5t-162 -162t-223.5 -59.5zM560 429v1362q0 93 66 159t159 66t159 -66t66 -159v-400h-150v400q0 31 -22 53t-53 22t-53 -22t-22 -53v-1362q0 -31 22 -53t53 -22t53 22t22 53v400h150v-400q0 -93 -66 -159t-159 -66t-159 66t-66 159z" glyph-name="k_C.liga" horiz-adv-x="1250" unicode="kC"/><glyph d="M40 0v2000h150v-375h75q31 0 53 22t22 53v300h150v-300q0 -85 -57 -150q57 -65 57 -150v-1175q0 -31 22 -53t53 -22h2v1850h225q93 0 159 -66t66 -159v-1550q0 -93 -66 -159t-159 -66h-227q-93 0 -159 66t-66 159v1175q0 31 -22 53t-53 22h-75v-1475h-150zM717 150h75 q31 0 53 22t22 53v1550q0 31 -22 53t-53 22h-75v-1700z" glyph-name="k_D.liga" horiz-adv-x="1047" unicode="kD"/><glyph d="M40 0v2000h150v-375h75q31 0 53 22t22 53v300h150v-300q0 -85 -57 -150q57 -65 57 -150v-1175q0 -31 22 -53t53 -22h412v-150h-412q-93 0 -159 66t-66 159v1175q0 31 -22 53t-53 22h-75v-1475h-150zM567 220v1780h410v-150h-260v-625h220v-150h-220v-705h260v-150h-410z " glyph-name="k_E.liga" horiz-adv-x="997" unicode="kE"/><glyph d="M40 0v2000h150v-375h75q31 0 53 22t22 53v300h150v-300q0 -85 -57 -150q57 -65 57 -150v-1121q0 -60 42.5 -102.5t102.5 -42.5t102.5 42.5t42.5 102.5v430h150v-430q0 -122 -86.5 -208.5t-208.5 -86.5t-208.5 86.5t-86.5 208.5v1121q0 31 -22 53t-53 22h-75v-1475h-150z M560 220v1780h410v-150h-260v-625h220v-150h-220v-855h-150z" glyph-name="k_F.liga" horiz-adv-x="980" unicode="kF"/><glyph d="M785 -16q-121 0 -223.5 59.5t-162 162t-59.5 223.5v971q0 31 -22 53t-53 22h-75v-1475h-150v2000h150v-375h75q31 0 53 22t22 53v300h150v-300q0 -85 -57 -150q57 -65 57 -150v-971q0 -122 86.5 -208.5t208.5 -86.5t208.5 86.5t86.5 208.5v280h150v-280 q0 -121 -59.5 -223.5t-162 -162t-223.5 -59.5zM560 429v1362q0 93 66 159t159 66t159 -66t66 -159v-400h-150v400q0 31 -22 53t-53 22t-53 -22t-22 -53v-1362q0 -31 22 -53t53 -22t53 22t22 53v250h-75v150h225v-400q0 -93 -66 -159t-159 -66t-159 66t-66 159z" glyph-name="k_G.liga" horiz-adv-x="1240" unicode="kG"/><glyph d="M860 0v1075h-150v-906q0 -77 -54 -131t-131 -54t-131 54t-54 131v1231q0 31 -22 53t-53 22h-75v-1475h-150v2000h150v-375h75q31 0 53 22t22 53v300h150v-300q0 -85 -57 -150q57 -65 57 -150v-1231q0 -14 10.5 -24.5t24.5 -10.5t24.5 10.5t10.5 24.5v1831h150v-775h150 v775h150v-2000h-150z" glyph-name="k_H.liga" horiz-adv-x="1050" unicode="kH"/><glyph d="M40 0v2000h150v-375h75q31 0 53 22t22 53v300h150v-300q0 -85 -57 -150q57 -65 57 -150v-1231q0 -14 10.5 -24.5t24.5 -10.5t24.5 10.5t10.5 24.5v1831h150v-1831q0 -77 -54 -131t-131 -54t-131 54t-54 131v1231q0 31 -22 53t-53 22h-75v-1475h-150z" glyph-name="k_I.liga" horiz-adv-x="750" unicode="kI"/><glyph d="M560 -70v2070h150v-2070q0 -93 -66 -159t-159 -66t-159 66t-66 159h150q0 -31 22 -53t53 -22t53 22t22 53zM40 0v2000h150v-375h75q31 0 53 22t22 53v300h150v-300q0 -85 -57 -150q57 -65 57 -150v-1400h-150v1400q0 31 -22 53t-53 22h-75v-1475h-150z" glyph-name="k_J.liga" horiz-adv-x="740" unicode="kJ"/><glyph d="M40 0v2000h150v-375h75q31 0 53 22t22 53v300h150v-300q0 -85 -57 -150q57 -65 57 -150v-1175q0 -31 22 -53t53 -22h405v-150h-405q-93 0 -159 66t-66 159v1175q0 31 -22 53t-53 22h-75v-1475h-150zM560 220v1780h150v-1630h260v-150h-410z" glyph-name="k_L.liga" horiz-adv-x="980" unicode="kL"/><glyph d="M860 900l-150 550v-1230h-150v1780h150l225 -825l225 825h150v-2000h-150v1450l-150 -550h-150zM40 0v2000h150v-375h75q31 0 53 22t22 53v300h150v-300q0 -85 -57 -150q57 -65 57 -150v-1081q0 -77 54 -131t131 -54t131 54t54 131v270h150v-270q0 -139 -98 -237 t-237 -98t-237 98t-98 237v1081q0 31 -22 53t-53 22h-75v-1475h-150z" glyph-name="k_M.liga" horiz-adv-x="1350" unicode="kM"/><glyph d="M860 0v1500l-150 250v-1530h-150v1780h150l150 -250v250h150v-2000h-150zM40 0v2000h150v-375h75q31 0 53 22t22 53v300h150v-300q0 -85 -57 -150q57 -65 57 -150v-1175q0 -31 22 -53t53 -22h145v-150h-145q-93 0 -159 66t-66 159v1175q0 31 -22 53t-53 22h-75v-1475 h-150z" glyph-name="k_N.liga" horiz-adv-x="1050" unicode="kN"/><glyph d="M785 -16q-121 0 -223.5 59.5t-162 162t-59.5 223.5v971q0 31 -22 53t-53 22h-75v-1475h-150v2000h150v-375h75q31 0 53 22t22 53v300h150v-300q0 -85 -57 -150q57 -65 57 -150v-971q0 -122 86.5 -208.5t208.5 -86.5t208.5 86.5t86.5 208.5v280h150v-280 q0 -121 -59.5 -223.5t-162 -162t-223.5 -59.5zM560 429v1362q0 93 66 159t159 66t159 -66t66 -159v-1362q0 -93 -66 -159t-159 -66t-159 66t-66 159zM710 429q0 -31 22 -53t53 -22t53 22t22 53v1362q0 31 -22 53t-53 22t-53 -22t-22 -53v-1362z" glyph-name="k_O.liga" horiz-adv-x="1240" unicode="kO"/><glyph d="M40 0v2000h150v-375h75q31 0 53 22t22 53v300h150v-300q0 -85 -57 -150q57 -65 57 -150v-1121q0 -60 42.5 -102.5t102.5 -42.5t102.5 42.5t42.5 102.5v430h150v-430q0 -122 -86.5 -208.5t-208.5 -86.5t-208.5 86.5t-86.5 208.5v1121q0 31 -22 53t-53 22h-75v-1475h-150z M560 220v1780h225q93 0 159 -66t66 -159v-475q0 -93 -66 -159t-159 -66h-75v-855h-150zM710 1225h75q31 0 53 22t22 53v475q0 31 -22 53t-53 22h-75v-625z" glyph-name="k_P.liga" horiz-adv-x="1020" unicode="kP"/><glyph d="M785 -16q-121 0 -223.5 59.5t-162 162t-59.5 223.5v971q0 31 -22 53t-53 22h-75v-1475h-150v2000h150v-375h75q31 0 53 22t22 53v300h150v-300q0 -85 -57 -150q57 -65 57 -150v-971q0 -102 62 -181t158 -104v73q-66 24 -108 82t-42 130v1362q0 93 66 159t159 66t159 -66 t66 -159v-1362q0 -72 -42 -130t-108 -82v-73q96 25 158 104t62 181v280h150v-280q0 -121 -59.5 -223.5t-162 -162t-223.5 -59.5zM710 429q0 -31 22 -53t53 -22t53 22t22 53v1362q0 31 -22 53t-53 22t-53 -22t-22 -53v-1362z" glyph-name="k_Q.liga" horiz-adv-x="1240" unicode="kQ"/><glyph d="M40 0v2000h150v-375h75q31 0 53 22t22 53v300h150v-300q0 -85 -57 -150q57 -65 57 -150v-1175q0 -31 22 -53t53 -22h149v-150h-149q-93 0 -159 66t-66 159v1175q0 31 -22 53t-53 22h-75v-1475h-150zM564 220v1780h225q93 0 159 -66t66 -159v-475q0 -85 -57 -150 q57 -65 57 -150v-1000h-150v1000q0 31 -22 53t-53 22h-75v-855h-150zM714 1225h75q31 0 53 22t22 53v475q0 31 -22 53t-53 22h-75v-625z" glyph-name="k_R.liga" horiz-adv-x="1044" unicode="kR"/><glyph d="M785 -16q-121 0 -223.5 59.5t-162 162t-59.5 223.5v971q0 31 -22 53t-53 22h-75v-1475h-150v2000h150v-375h75q31 0 53 22t22 53v300h150v-300q0 -85 -57 -150q57 -65 57 -150v-971q0 -122 86.5 -208.5t208.5 -86.5t208.5 86.5t86.5 208.5v280h150v-280 q0 -121 -59.5 -223.5t-162 -162t-223.5 -59.5zM560 429v390h150v-390q0 -31 22 -53t53 -22t53 22t22 53v531q0 31 -22 53t-53 22q-93 0 -159 66t-66 159v531q0 93 66 159t159 66t159 -66t66 -159v-390h-150v390q0 31 -22 53t-53 22t-53 -22t-22 -53v-531q0 -31 22 -53 t53 -22q93 0 159 -66t66 -159v-531q0 -93 -66 -159t-159 -66t-159 66t-66 159z" glyph-name="k_S.liga" horiz-adv-x="1240" unicode="kS"/><glyph d="M560 0v1850h-220v150h520v-150h-150v-1850h-150zM40 0v2000h150v-375h75q31 0 53 22t22 53v80h150v-80q0 -85 -57 -150q57 -65 57 -150v-1400h-150v1400q0 31 -22 53t-53 22h-75v-1475h-150z" glyph-name="k_T.liga" horiz-adv-x="870" unicode="kT"/><glyph d="M785 -16q-121 0 -223.5 59.5t-162 162t-59.5 223.5v971q0 31 -22 53t-53 22h-75v-1475h-150v2000h150v-375h75q31 0 53 22t22 53v300h150v-300q0 -85 -57 -150q57 -65 57 -150v-971q0 -122 86.5 -208.5t208.5 -86.5t208.5 86.5t86.5 208.5v280h150v-280 q0 -121 -59.5 -223.5t-162 -162t-223.5 -59.5zM560 429v1571h150v-1571q0 -31 22 -53t53 -22t53 22t22 53v1571h150v-1571q0 -93 -66 -159t-159 -66t-159 66t-66 159z" glyph-name="k_U.liga" horiz-adv-x="1260" unicode="kU"/><glyph d="M40 0v2000h150v-375h75q31 0 53 22t22 53v131q0 77 54 131t131 54t131 -54t54 -131v-1622q0 -31 22 -53t53 -22t53 22t22 53v1791h150v-1791q0 -31 22 -53t53 -22t53 22t22 53v1791h150v-1791q0 -93 -66 -159t-159 -66q-85 0 -150 57q-65 -57 -150 -57q-93 0 -159 66 t-66 159v1622q0 14 -10.5 24.5t-24.5 10.5t-24.5 -10.5t-10.5 -24.5v-131q0 -85 -57 -150q57 -65 57 -150v-1400h-150v1400q0 31 -22 53t-53 22h-75v-1475h-150z" glyph-name="k_W.liga" horiz-adv-x="1340" unicode="kW"/><glyph d="M40 0v2000h150v-375h75q31 0 53 22t22 53v131q0 77 54 131t131 54t131 -54t54 -131v-631q0 -31 22 -53t53 -22t53 22t22 53v800h150v-800q0 -57 -26 -105.5t-71 -79.5q45 -31 71 -79.5t26 -105.5v-830h-150v830q0 31 -22 53t-53 22t-53 -22t-22 -53v-830h-150v830 q0 57 26 105.5t71 79.5q-45 31 -71 79.5t-26 105.5v631q0 14 -10.5 24.5t-24.5 10.5t-24.5 -10.5t-10.5 -24.5v-131q0 -85 -57 -150q57 -65 57 -150v-1400h-150v1400q0 31 -22 53t-53 22h-75v-1475h-150z" glyph-name="k_X.liga" horiz-adv-x="1040" unicode="kX"/><glyph d="M40 0v2000h150v-375h75q31 0 53 22t22 53v300h150v-300q0 -85 -57 -150q57 -65 57 -150v-1166q0 -41 29.5 -70.5t70.5 -29.5t70.5 29.5t29.5 70.5v754q-66 24 -108 82t-42 130v800h150v-800q0 -31 22 -53t53 -22t53 22t22 53v800h150v-800q0 -72 -42 -130t-108 -82v-754 q0 -104 -73 -177t-177 -73t-177 73t-73 177v1166q0 31 -22 53t-53 22h-75v-1475h-150z" glyph-name="k_Y.liga" horiz-adv-x="1000" unicode="kY"/><glyph d="M550 0l278 1850h-263q-31 0 -53 -22t-22 -53v-75q0 -85 -57 -150q57 -65 57 -150v-1400h-150v1400q0 31 -22 53t-53 22h-75v-1475h-150v2000h150v-375h75q31 0 53 22t22 53v75q0 93 66 159t159 66h435l-277 -1850h277v-150h-450z" glyph-name="k_Z.liga" horiz-adv-x="1020" unicode="kZ"/><glyph d="M40 0v2000h150v-375h75q31 0 53 22t22 53v300h150v-300q0 -85 -57 -150q57 -65 57 -150v-1231q0 -14 10.5 -24.5t24.5 -10.5t24.5 10.5t10.5 24.5v1622q0 93 66 159t159 66t159 -66t66 -159v-1791h-150v1475h-150v-1306q0 -77 -54 -131t-131 -54t-131 54t-54 131v1231 q0 31 -22 53t-53 22h-75v-1475h-150zM710 1625h150v166q0 31 -22 53t-53 22t-53 -22t-22 -53v-166z" glyph-name="k_a.liga" horiz-adv-x="1040" unicode="ka"/><glyph d="M565 0q-93 0 -159 66t-66 159v1175q0 31 -22 53t-53 22h-75v-1475h-150v2000h150v-375h75q31 0 53 22t22 53v300h150v-300q0 -85 -57 -150q57 -65 57 -150v-1175q0 -31 22 -53t53 -22h2v1850h225q93 0 159 -66t66 -159v-75q0 -85 -57 -150q57 -65 57 -150v-1175 q0 -93 -66 -159t-159 -66h-227zM717 150h75q31 0 53 22t22 53v1175q0 31 -22 53t-53 22h-75v-1325zM717 1625h75q31 0 53 22t22 53v75q0 31 -22 53t-53 22h-75v-225z" glyph-name="k_b.liga" horiz-adv-x="1047" unicode="kb"/><glyph d="M40 0v2000h150v-375h75q31 0 53 22t22 53v300h150v-300q0 -85 -57 -150q57 -65 57 -150v-1175q0 -31 22 -53t53 -22h412v-150h-412q-93 0 -159 66t-66 159v1175q0 31 -22 53t-53 22h-75v-1475h-150zM567 220v1780h410v-150h-260v-225h220v-150h-220v-1105h260v-150h-410z " glyph-name="k_e.liga" horiz-adv-x="997" unicode="ke"/><glyph d="M40 0v2000h150v-375h75q31 0 53 22t22 53v300h150v-300q0 -85 -57 -150q57 -65 57 -150v-1121q0 -60 42.5 -102.5t102.5 -42.5t102.5 42.5t42.5 102.5v430h150v-430q0 -122 -86.5 -208.5t-208.5 -86.5t-208.5 86.5t-86.5 208.5v1121q0 31 -22 53t-53 22h-75v-1475h-150z M560 220v1780h410v-150h-260v-225h220v-150h-220v-1255h-150z" glyph-name="k_f.liga" horiz-adv-x="980" unicode="kf"/><glyph d="M860 0v1475h-150v-1306q0 -77 -54 -131t-131 -54t-131 54t-54 131v1231q0 31 -22 53t-53 22h-75v-1475h-150v2000h150v-375h75q31 0 53 22t22 53v300h150v-300q0 -85 -57 -150q57 -65 57 -150v-1231q0 -14 10.5 -24.5t24.5 -10.5t24.5 10.5t10.5 24.5v1831h150v-375h150 v375h150v-2000h-150z" glyph-name="k_h.liga" horiz-adv-x="1050" unicode="kh"/><glyph d="M40 0v2000h150v-375h75q31 0 53 22t22 53v300h150v-300q0 -85 -57 -150q57 -65 57 -150v-1231q0 -14 10.5 -24.5t24.5 -10.5t24.5 10.5t10.5 24.5v1581h150v-1581q0 -77 -54 -131t-131 -54t-131 54t-54 131v1231q0 31 -22 53t-53 22h-75v-1475h-150zM560 1850v150h150 v-150h-150z" glyph-name="k_i.liga" horiz-adv-x="750" unicode="ki"/><glyph d="M40 0v2000h150v-375h75q31 0 53 22t22 53v300h150v-300q0 -85 -57 -150q57 -65 57 -150v-1400h-150v1400q0 31 -22 53t-53 22h-75v-1475h-150zM260 -70h150q0 -31 22 -53t53 -22t53 22t22 53v1810h150v-1810q0 -93 -66 -159t-159 -66t-159 66t-66 159zM560 1850v150h150 v-150h-150z" glyph-name="k_j.liga" horiz-adv-x="740" unicode="kj"/><glyph d="M40 0v2000h150v-375h75q31 0 53 22t22 53v300h150v-300q0 -85 -57 -150q57 -65 57 -150v-1081q0 -77 54 -131t131 -54t131 54t54 131v1472q0 31 -22 53t-53 22t-53 -22t-22 -53v-1471h-150v1471q0 93 66 159t159 66q85 0 150 -57q65 57 150 57q93 0 159 -66t66 -159 v-1791h-150v1791q0 31 -22 53t-53 22t-53 -22t-22 -53v-1473q-1 -139 -98.5 -236.5t-236.5 -97.5t-237 98t-98 237v1081q0 31 -22 53t-53 22h-75v-1475h-150z" glyph-name="k_m.liga" horiz-adv-x="1350" unicode="km"/><glyph d="M40 0v2000h150v-375h75q31 0 53 22t22 53v300h150v-300q0 -85 -57 -150q57 -65 57 -150v-1175q0 -31 22 -53t53 -22h145v-150h-145q-93 0 -159 66t-66 159v1175q0 31 -22 53t-53 22h-75v-1475h-150zM560 220v1571q0 93 66 159t159 66t159 -66t66 -159v-1791h-150v1791 q0 31 -22 53t-53 22t-53 -22t-22 -53v-1571h-150z" glyph-name="k_n.liga" horiz-adv-x="1050" unicode="kn"/><glyph d="M40 0v2000h150v-375h75q31 0 53 22t22 53v300h150v-300q0 -85 -57 -150q57 -65 57 -150v-1121q0 -60 42.5 -102.5t102.5 -42.5t102.5 42.5t42.5 102.5v430h150v-430q0 -122 -86.5 -208.5t-208.5 -86.5t-208.5 86.5t-86.5 208.5v1121q0 31 -22 53t-53 22h-75v-1475h-150z M560 220v1780h225q93 0 159 -66t66 -159v-75q0 -93 -66 -159t-159 -66h-75v-1255h-150zM710 1625h75q31 0 53 22t22 53v75q0 31 -22 53t-53 22h-75v-225z" glyph-name="k_p.liga" horiz-adv-x="1020" unicode="kp"/><glyph d="M40 0v2000h150v-375h75q31 0 53 22t22 53v300h150v-300q0 -85 -57 -150q57 -65 57 -150v-1175q0 -31 22 -53t53 -22h149v-150h-149q-93 0 -159 66t-66 159v1175q0 31 -22 53t-53 22h-75v-1475h-150zM564 220v1780h225q93 0 159 -66t66 -159v-75q0 -85 -57 -150 q57 -65 57 -150v-1400h-150v1400q0 31 -22 53t-53 22h-75v-1255h-150zM714 1625h75q31 0 53 22t22 53v75q0 31 -22 53t-53 22h-75v-225z" glyph-name="k_r.liga" horiz-adv-x="1044" unicode="kr"/><glyph d="M40 0v2000h150v-375h75q31 0 53 22t22 53v131q0 77 54 131t131 54t131 -54t54 -131v-131q0 -31 22 -53t53 -22t53 22t22 53v300h150v-300q0 -57 -26 -105.5t-71 -79.5q45 -31 71 -79.5t26 -105.5v-1330h-150v1330q0 31 -22 53t-53 22t-53 -22t-22 -53v-1330h-150v1330 q0 57 26 105.5t71 79.5q-45 31 -71 79.5t-26 105.5v131q0 14 -10.5 24.5t-24.5 10.5t-24.5 -10.5t-10.5 -24.5v-131q0 -85 -57 -150q57 -65 57 -150v-1400h-150v1400q0 31 -22 53t-53 22h-75v-1475h-150z" glyph-name="k_x.liga" horiz-adv-x="1040" unicode="kx"/><glyph d="M40 0v2000h150v-375h75q31 0 53 22t22 53v300h150v-300q0 -85 -57 -150q57 -65 57 -150v-1166q0 -41 29.5 -70.5t70.5 -29.5t70.5 29.5t29.5 70.5v1254q-66 24 -108 82t-42 130v300h150v-300q0 -31 22 -53t53 -22t53 22t22 53v300h150v-300q0 -72 -42 -130t-108 -82 v-1254q0 -104 -73 -177t-177 -73t-177 73t-73 177v1166q0 31 -22 53t-53 22h-75v-1475h-150z" glyph-name="k_y.liga" horiz-adv-x="1000" unicode="ky"/><glyph d="M1160 0v1075h-150v-906q0 -77 -54 -131t-131 -54t-131 54t-54 131v1622q0 31 -22 53t-53 22t-53 -22t-22 -53v-1791h-150v1791q0 31 -22 53t-53 22t-53 -22t-22 -53v-1791h-150v1791q0 93 66 159t159 66q85 0 150 -57q65 57 150 57q93 0 159 -66t66 -159v-1622 q0 -14 10.5 -24.5t24.5 -10.5t24.5 10.5t10.5 24.5v1622q0 93 66 159t159 66t159 -66t66 -159v-1791h-150zM1010 1225h150v566q0 31 -22 53t-53 22t-53 -22t-22 -53v-566z" glyph-name="m_A.liga" horiz-adv-x="1340" unicode="mA"/><glyph d="M1085 -16q-121 0 -223.5 59.5t-162 162t-59.5 223.5v1362q0 31 -22 53t-53 22t-53 -22t-22 -53v-1791h-150v1791q0 31 -22 53t-53 22t-53 -22t-22 -53v-1791h-150v1791q0 93 66 159t159 66q85 0 150 -57q65 57 150 57q93 0 159 -66t66 -159v-1362q0 -122 86.5 -208.5 t208.5 -86.5t208.5 86.5t86.5 208.5v280h150v-280q0 -121 -59.5 -223.5t-162 -162t-223.5 -59.5zM860 439v1352q0 93 66 159t159 66t159 -66t66 -159v-400h-150v400q0 31 -22 53t-53 22t-53 -22t-22 -53v-1352q0 -31 22 -53t53 -22t53 22t22 53v400h150v-400q0 -93 -66 -159 t-159 -66t-159 66t-66 159z" glyph-name="m_C.liga" horiz-adv-x="1550" unicode="mC"/><glyph d="M340 0v1791q0 31 -22 53t-53 22t-53 -22t-22 -53v-1791h-150v1791q0 93 66 159t159 66q85 0 150 -57q65 57 150 57q93 0 159 -66t66 -159v-1566q0 -31 22 -53t53 -22h405v-150h-405q-93 0 -159 66t-66 159v1566q0 31 -22 53t-53 22t-53 -22t-22 -53v-1791h-150zM860 220 v1780h410v-150h-260v-625h220v-150h-220v-705h260v-150h-410z" glyph-name="m_E.liga" horiz-adv-x="1290" unicode="mE"/><glyph d="M340 0v1791q0 31 -22 53t-53 22t-53 -22t-22 -53v-1791h-150v1791q0 93 66 159t159 66q85 0 150 -57q65 57 150 57q93 0 159 -66t66 -159v-1512q0 -60 42.5 -102.5t102.5 -42.5t102.5 42.5t42.5 102.5v430h150v-430q0 -122 -86.5 -208.5t-208.5 -86.5t-208.5 86.5 t-86.5 208.5v1512q0 31 -22 53t-53 22t-53 -22t-22 -53v-1791h-150zM860 220v1780h410v-150h-260v-625h220v-150h-220v-855h-150z" glyph-name="m_F.liga" horiz-adv-x="1290" unicode="mF"/><glyph d="M1085 -16q-121 0 -223.5 59.5t-162 162t-59.5 223.5v1362q0 31 -22 53t-53 22t-53 -22t-22 -53v-1791h-150v1791q0 31 -22 53t-53 22t-53 -22t-22 -53v-1791h-150v1791q0 93 66 159t159 66q85 0 150 -57q65 57 150 57q93 0 159 -66t66 -159v-1362q0 -122 86.5 -208.5 t208.5 -86.5t208.5 86.5t86.5 208.5v280h150v-280q0 -121 -59.5 -223.5t-162 -162t-223.5 -59.5zM860 439v1352q0 93 66 159t159 66t159 -66t66 -159v-400h-150v400q0 31 -22 53t-53 22t-53 -22t-22 -53v-1352q0 -31 22 -53t53 -22t53 22t22 53v320h-75v150h225v-470 q0 -93 -66 -159t-159 -66t-159 66t-66 159z" glyph-name="m_G.liga" horiz-adv-x="1540" unicode="mG"/><glyph d="M1170 0v1075h-150v-901q0 -79 -55.5 -134.5t-134.5 -55.5t-134.5 55.5t-55.5 134.5v1617q0 31 -22 53t-53 22t-53 -22t-22 -53v-1791h-150v1791q0 31 -22 53t-53 22t-53 -22t-22 -53v-1791h-150v1791q0 93 66 159t159 66q85 0 150 -57q65 57 150 57q93 0 159 -66t66 -159 v-1617q0 -16 12 -28t28 -12t28 12t12 28v1826h150v-775h150v775h150v-2000h-150z" glyph-name="m_H.liga" horiz-adv-x="1360" unicode="mH"/><glyph d="M870 174v1826h150v-1826q0 -79 -55.5 -134.5t-134.5 -55.5t-134.5 55.5t-55.5 134.5v1617q0 31 -22 53t-53 22t-53 -22t-22 -53v-1791h-150v1791q0 31 -22 53t-53 22t-53 -22t-22 -53v-1791h-150v1791q0 93 66 159t159 66q85 0 150 -57q65 57 150 57q93 0 159 -66 t66 -159v-1617q0 -16 12 -28t28 -12t28 12t12 28z" glyph-name="m_I.liga" horiz-adv-x="1060" unicode="mI"/><glyph d="M860 -71v2071h150v-2071q0 -93 -66 -159t-159 -66t-159 66t-66 159h150q0 -31 22 -53t53 -22t53 22t22 53zM40 0v1791q0 93 66 159t159 66q85 0 150 -57q65 57 150 57q93 0 159 -66t66 -159v-1791h-150v1791q0 31 -22 53t-53 22t-53 -22t-22 -53v-1791h-150v1791 q0 31 -22 53t-53 22t-53 -22t-22 -53v-1791h-150z" glyph-name="m_J.liga" horiz-adv-x="1050" unicode="mJ"/><glyph d="M340 0v1791q0 31 -22 53t-53 22t-53 -22t-22 -53v-1791h-150v1791q0 93 66 159t159 66q85 0 150 -57q65 57 150 57q93 0 159 -66t66 -159v-1566q0 -31 22 -53t53 -22h405v-150h-405q-93 0 -159 66t-66 159v1566q0 31 -22 53t-53 22t-53 -22t-22 -53v-1791h-150zM860 220 v1780h150v-1630h260v-150h-410z" glyph-name="m_L.liga" horiz-adv-x="1280" unicode="mL"/><glyph d="M1085 -16q-121 0 -223.5 59.5t-162 162t-59.5 223.5v1362q0 31 -22 53t-53 22t-53 -22t-22 -53v-1791h-150v1791q0 31 -22 53t-53 22t-53 -22t-22 -53v-1791h-150v1791q0 93 66 159t159 66q85 0 150 -57q65 57 150 57q93 0 159 -66t66 -159v-1362q0 -122 86.5 -208.5 t208.5 -86.5t208.5 86.5t86.5 208.5v280h150v-280q0 -121 -59.5 -223.5t-162 -162t-223.5 -59.5zM860 429v1362q0 93 66 159t159 66t159 -66t66 -159v-1362q0 -93 -66 -159t-159 -66t-159 66t-66 159zM1010 429q0 -31 22 -53t53 -22t53 22t22 53v1362q0 31 -22 53t-53 22 t-53 -22t-22 -53v-1362z" glyph-name="m_O.liga" horiz-adv-x="1540" unicode="mO"/><glyph d="M870 174v1826h225q93 0 159 -66t66 -159v-475q0 -93 -66 -159t-159 -66h-75v-901q0 -79 -55.5 -134.5t-134.5 -55.5t-134.5 55.5t-55.5 134.5v1617q0 31 -22 53t-53 22t-53 -22t-22 -53v-1791h-150v1791q0 31 -22 53t-53 22t-53 -22t-22 -53v-1791h-150v1791q0 93 66 159 t159 66q85 0 150 -57q65 57 150 57q93 0 159 -66t66 -159v-1617q0 -16 12 -28t28 -12t28 12t12 28zM1020 1225h75q31 0 53 22t22 53v475q0 31 -22 53t-53 22h-75v-625z" glyph-name="m_P.liga" horiz-adv-x="1330" unicode="mP"/><glyph d="M1085 -16q-121 0 -223.5 59.5t-162 162t-59.5 223.5v1362q0 31 -22 53t-53 22t-53 -22t-22 -53v-1791h-150v1791q0 31 -22 53t-53 22t-53 -22t-22 -53v-1791h-150v1791q0 93 66 159t159 66q85 0 150 -57q65 57 150 57q93 0 159 -66t66 -159v-1362q0 -102 62 -181 t158 -104v73q-66 24 -108 82t-42 130v1362q0 93 66 159t159 66t159 -66t66 -159v-1362q0 -72 -42 -130t-108 -82v-73q96 25 158 104t62 181v280h150v-280q0 -121 -59.5 -223.5t-162 -162t-223.5 -59.5zM1010 429q0 -31 22 -53t53 -22t53 22t22 53v1362q0 31 -22 53t-53 22 t-53 -22t-22 -53v-1362z" glyph-name="m_Q.liga" horiz-adv-x="1540" unicode="mQ"/><glyph d="M870 174v1826h225q93 0 159 -66t66 -159v-475q0 -85 -57 -150q57 -65 57 -150v-1000h-150v1000q0 31 -22 53t-53 22h-75v-901q0 -79 -55.5 -134.5t-134.5 -55.5t-134.5 55.5t-55.5 134.5v1617q0 31 -22 53t-53 22t-53 -22t-22 -53v-1791h-150v1791q0 31 -22 53t-53 22 t-53 -22t-22 -53v-1791h-150v1791q0 93 66 159t159 66q85 0 150 -57q65 57 150 57q93 0 159 -66t66 -159v-1617q0 -16 12 -28t28 -12t28 12t12 28zM1020 1225h75q31 0 53 22t22 53v475q0 31 -22 53t-53 22h-75v-625z" glyph-name="m_R.liga" horiz-adv-x="1350" unicode="mR"/><glyph d="M1085 -16q-121 0 -223.5 59.5t-162 162t-59.5 223.5v1362q0 31 -22 53t-53 22t-53 -22t-22 -53v-1791h-150v1791q0 31 -22 53t-53 22t-53 -22t-22 -53v-1791h-150v1791q0 93 66 159t159 66q85 0 150 -57q65 57 150 57q93 0 159 -66t66 -159v-1362q0 -122 86.5 -208.5 t208.5 -86.5t208.5 86.5t86.5 208.5v280h150v-280q0 -121 -59.5 -223.5t-162 -162t-223.5 -59.5zM860 429v390h150v-390q0 -31 22 -53t53 -22t53 22t22 53v531q0 31 -22 53t-53 22q-93 0 -159 66t-66 159v531q0 93 66 159t159 66t159 -66t66 -159v-390h-150v390q0 31 -22 53 t-53 22t-53 -22t-22 -53v-531q0 -31 22 -53t53 -22q93 0 159 -66t66 -159v-531q0 -93 -66 -159t-159 -66t-159 66t-66 159z" glyph-name="m_S.liga" horiz-adv-x="1560" unicode="mS"/><glyph d="M860 0v1850h-820v150h1120v-150h-150v-1850h-150zM40 0v1561q0 93 66 159t159 66q85 0 150 -57q65 57 150 57q93 0 159 -66t66 -159v-1561h-150v1561q0 31 -22 53t-53 22t-53 -22t-22 -53v-1561h-150v1561q0 31 -22 53t-53 22t-53 -22t-22 -53v-1561h-150z" glyph-name="m_T.liga" horiz-adv-x="1170" unicode="mT"/><glyph d="M1085 -16q-121 0 -223.5 59.5t-162 162t-59.5 223.5v1362q0 31 -22 53t-53 22t-53 -22t-22 -53v-1791h-150v1791q0 31 -22 53t-53 22t-53 -22t-22 -53v-1791h-150v1791q0 93 66 159t159 66q85 0 150 -57q65 57 150 57q93 0 159 -66t66 -159v-1362q0 -122 86.5 -208.5 t208.5 -86.5t208.5 86.5t86.5 208.5v280h150v-280q0 -121 -59.5 -223.5t-162 -162t-223.5 -59.5zM860 429v1571h150v-1571q0 -31 22 -53t53 -22t53 22t22 53v1571h150v-1571q0 -93 -66 -159t-159 -66t-159 66t-66 159z" glyph-name="m_U.liga" horiz-adv-x="1540" unicode="mU"/><glyph d="M1240 209v1791h150v-1791q0 -93 -66 -159t-159 -66q-85 0 -150 57q-65 -57 -150 -57q-93 0 -159 66t-66 159v491h150v-491q0 -31 22 -53t53 -22t53 22t22 53v1791h150v-1791q0 -31 22 -53t53 -22t53 22t22 53zM40 0v1791q0 93 66 159t159 66q85 0 150 -57q65 57 150 57 q93 0 159 -66t66 -159v-1021h-150v1021q0 31 -22 53t-53 22t-53 -22t-22 -53v-1791h-150v1791q0 31 -22 53t-53 22t-53 -22t-22 -53v-1791h-150z" glyph-name="m_W.liga" horiz-adv-x="1420" unicode="mW"/><glyph d="M340 0v1791q0 31 -22 53t-53 22t-53 -22t-22 -53v-1791h-150v1791q0 93 66 159t159 66q85 0 150 -57q65 57 150 57q93 0 159 -66t66 -159v-1622q0 -14 10.5 -24.5t24.5 -10.5t24.5 10.5t10.5 24.5v661q0 57 26 105.5t71 79.5q-45 31 -71 79.5t-26 105.5v800h150v-800 q0 -31 22 -53t53 -22t53 22t22 53v800h150v-800q0 -57 -26 -105.5t-71 -79.5q45 -31 71 -79.5t26 -105.5v-830h-150v830q0 31 -22 53t-53 22t-53 -22t-22 -53v-661q0 -77 -54 -131t-131 -54t-131 54t-54 131v1622q0 31 -22 53t-53 22t-53 -22t-22 -53v-1791h-150z" glyph-name="m_X.liga" horiz-adv-x="1340" unicode="mX"/><glyph d="M340 0v1791q0 31 -22 53t-53 22t-53 -22t-22 -53v-1791h-150v1791q0 93 66 159t159 66q85 0 150 -57q65 57 150 57q93 0 159 -66t66 -159v-1557q0 -41 29.5 -70.5t70.5 -29.5t70.5 29.5t29.5 70.5v754q-66 24 -108 82t-42 130v800h150v-800q0 -31 22 -53t53 -22t53 22 t22 53v800h150v-800q0 -72 -42 -130t-108 -82v-754q0 -104 -73 -177t-177 -73t-177 73t-73 177v1557q0 31 -22 53t-53 22t-53 -22t-22 -53v-1791h-150z" glyph-name="m_Y.liga" horiz-adv-x="1300" unicode="mY"/><glyph d="M850 220l275 1630h-275v150h450l-275 -1630h275v-150h-450zM40 0v1791q0 93 66 159t159 66q85 0 150 -57q65 57 150 57q93 0 159 -66t66 -159v-1566q0 -31 22 -53t53 -22h435v-150h-435q-93 0 -159 66t-66 159v1566q0 31 -22 53t-53 22t-53 -22t-22 -53v-1791h-150v1791 q0 31 -22 53t-53 22t-53 -22t-22 -53v-1791h-150z" glyph-name="m_Z.liga" horiz-adv-x="1320" unicode="mZ"/><glyph d="M1160 0v1475h-150v-1306q0 -77 -54 -131t-131 -54t-131 54t-54 131v1622q0 31 -22 53t-53 22t-53 -22t-22 -53v-1791h-150v1791q0 31 -22 53t-53 22t-53 -22t-22 -53v-1791h-150v1791q0 93 66 159t159 66q85 0 150 -57q65 57 150 57q93 0 159 -66t66 -159v-1622 q0 -14 10.5 -24.5t24.5 -10.5t24.5 10.5t10.5 24.5v1622q0 93 66 159t159 66t159 -66t66 -159v-1791h-150zM1010 1625h150v166q0 31 -22 53t-53 22t-53 -22t-22 -53v-166z" glyph-name="m_a.liga" horiz-adv-x="1340" unicode="ma"/><glyph d="M340 0v1791q0 31 -22 53t-53 22t-53 -22t-22 -53v-1791h-150v1791q0 93 66 159t159 66q85 0 150 -57q65 57 150 57q93 0 159 -66t66 -159v-1566q0 -31 22 -53t53 -22h405v-150h-405q-93 0 -159 66t-66 159v1566q0 31 -22 53t-53 22t-53 -22t-22 -53v-1791h-150zM860 220 v1780h410v-150h-260v-225h220v-150h-220v-1105h260v-150h-410z" glyph-name="m_e.liga" horiz-adv-x="1290" unicode="me"/><glyph d="M340 0v1791q0 31 -22 53t-53 22t-53 -22t-22 -53v-1791h-150v1791q0 93 66 159t159 66q85 0 150 -57q65 57 150 57q93 0 159 -66t66 -159v-1512q0 -60 42.5 -102.5t102.5 -42.5t102.5 42.5t42.5 102.5v430h150v-430q0 -122 -86.5 -208.5t-208.5 -86.5t-208.5 86.5 t-86.5 208.5v1512q0 31 -22 53t-53 22t-53 -22t-22 -53v-1791h-150zM860 220v1780h410v-150h-260v-225h220v-150h-220v-1255h-150z" glyph-name="m_f.liga" horiz-adv-x="1290" unicode="mf"/><glyph d="M1170 0v1475h-150v-1301q0 -79 -55.5 -134.5t-134.5 -55.5t-134.5 55.5t-55.5 134.5v1617q0 31 -22 53t-53 22t-53 -22t-22 -53v-1791h-150v1791q0 31 -22 53t-53 22t-53 -22t-22 -53v-1791h-150v1791q0 93 66 159t159 66q85 0 150 -57q65 57 150 57q93 0 159 -66 t66 -159v-1617q0 -16 12 -28t28 -12t28 12t12 28v1826h150v-375h150v375h150v-2000h-150z" glyph-name="m_h.liga" horiz-adv-x="1360" unicode="mh"/><glyph d="M340 0v1791q0 31 -22 53t-53 22t-53 -22t-22 -53v-1791h-150v1791q0 93 66 159t159 66q85 0 150 -57q65 57 150 57q93 0 159 -66t66 -159v-1617q0 -16 12 -28t28 -12t28 12t12 28v1576h150v-1576q0 -79 -55.5 -134.5t-134.5 -55.5t-134.5 55.5t-55.5 134.5v1617 q0 31 -22 53t-53 22t-53 -22t-22 -53v-1791h-150zM870 1850v150h150v-150h-150z" glyph-name="m_i.liga" horiz-adv-x="1060" unicode="mi"/><glyph d="M860 -71v1821h150v-1821q0 -93 -66 -159t-159 -66t-159 66t-66 159h150q0 -31 22 -53t53 -22t53 22t22 53zM40 0v1791q0 93 66 159t159 66q85 0 150 -57q65 57 150 57q93 0 159 -66t66 -159v-1791h-150v1791q0 31 -22 53t-53 22t-53 -22t-22 -53v-1791h-150v1791 q0 31 -22 53t-53 22t-53 -22t-22 -53v-1791h-150zM860 1850v150h150v-150h-150z" glyph-name="m_j.liga" horiz-adv-x="1050" unicode="mj"/><glyph d="M1460 0v1791q0 31 -22 53t-53 22t-53 -22t-22 -53v-1133h-150v1133q0 31 -22 53t-53 22t-53 -22t-22 -53v-1472h-150v1472q0 93 66 159t159 66q85 0 150 -57q65 57 150 57q93 0 159 -66t66 -159v-1791h-150zM40 0v1791q0 93 66 159t159 66q85 0 150 -57q65 57 150 57 q93 0 159 -66t66 -159v-1472q0 -77 54 -131t131 -54t131 54t54 131v270h150v-270q0 -139 -98 -237t-237 -98t-237 98t-98 237v1472q0 31 -22 53t-53 22t-53 -22t-22 -53v-1791h-150v1791q0 31 -22 53t-53 22t-53 -22t-22 -53v-1791h-150z" glyph-name="m_m.liga" horiz-adv-x="1650" unicode="mm"/><glyph d="M1160 0v1791q0 31 -22 53t-53 22t-53 -22t-22 -53v-1571h-150v1571q0 93 66 159t159 66t159 -66t66 -159v-1791h-150zM40 0v1791q0 93 66 159t159 66q85 0 150 -57q65 57 150 57q93 0 159 -66t66 -159v-1566q0 -31 22 -53t53 -22h145v-150h-145q-93 0 -159 66t-66 159 v1566q0 31 -22 53t-53 22t-53 -22t-22 -53v-1791h-150v1791q0 31 -22 53t-53 22t-53 -22t-22 -53v-1791h-150z" glyph-name="m_n.liga" horiz-adv-x="1350" unicode="mn"/><glyph d="M870 174v1826h225q93 0 159 -66t66 -159v-75q0 -93 -66 -159t-159 -66h-75v-1301q0 -79 -55.5 -134.5t-134.5 -55.5t-134.5 55.5t-55.5 134.5v1617q0 31 -22 53t-53 22t-53 -22t-22 -53v-1791h-150v1791q0 31 -22 53t-53 22t-53 -22t-22 -53v-1791h-150v1791q0 93 66 159 t159 66q85 0 150 -57q65 57 150 57q93 0 159 -66t66 -159v-1617q0 -16 12 -28t28 -12t28 12t12 28zM1020 1625h75q31 0 53 22t22 53v75q0 31 -22 53t-53 22h-75v-225z" glyph-name="m_p.liga" horiz-adv-x="1330" unicode="mp"/><glyph d="M870 174v1826h225q93 0 159 -66t66 -159v-75q0 -85 -57 -150q57 -65 57 -150v-1400h-150v1400q0 31 -22 53t-53 22h-75v-1301q0 -79 -55.5 -134.5t-134.5 -55.5t-134.5 55.5t-55.5 134.5v1617q0 31 -22 53t-53 22t-53 -22t-22 -53v-1791h-150v1791q0 31 -22 53t-53 22 t-53 -22t-22 -53v-1791h-150v1791q0 93 66 159t159 66q85 0 150 -57q65 57 150 57q93 0 159 -66t66 -159v-1617q0 -16 12 -28t28 -12t28 12t12 28zM1020 1625h75q31 0 53 22t22 53v75q0 31 -22 53t-53 22h-75v-225z" glyph-name="m_r.liga" horiz-adv-x="1350" unicode="mr"/><glyph d="M340 0v1791q0 31 -22 53t-53 22t-53 -22t-22 -53v-1791h-150v1791q0 93 66 159t159 66q85 0 150 -57q65 57 150 57q93 0 159 -66t66 -159v-1622q0 -14 10.5 -24.5t24.5 -10.5t24.5 10.5t10.5 24.5v1061q0 57 26 105.5t71 79.5q-45 31 -71 79.5t-26 105.5v400h150v-400 q0 -31 22 -53t53 -22t53 22t22 53v400h150v-400q0 -57 -26 -105.5t-71 -79.5q45 -31 71 -79.5t26 -105.5v-1230h-150v1230q0 31 -22 53t-53 22t-53 -22t-22 -53v-1061q0 -77 -54 -131t-131 -54t-131 54t-54 131v1622q0 31 -22 53t-53 22t-53 -22t-22 -53v-1791h-150z" glyph-name="m_x.liga" horiz-adv-x="1340" unicode="mx"/><glyph d="M340 0v1791q0 31 -22 53t-53 22t-53 -22t-22 -53v-1791h-150v1791q0 93 66 159t159 66q85 0 150 -57q65 57 150 57q93 0 159 -66t66 -159v-1557q0 -41 29.5 -70.5t70.5 -29.5t70.5 29.5t29.5 70.5v1154q-66 24 -108 82t-42 130v400h150v-400q0 -31 22 -53t53 -22t53 22 t22 53v400h150v-400q0 -72 -42 -130t-108 -82v-1154q0 -104 -73 -177t-177 -73t-177 73t-73 177v1557q0 31 -22 53t-53 22t-53 -22t-22 -53v-1791h-150z" glyph-name="m_y.liga" horiz-adv-x="1300" unicode="my"/><glyph d="M40 0v2000h445q93 0 159 -66t66 -159v-75q0 -93 -66 -159t-159 -66h-295v-1475h-150zM190 1625h295q31 0 53 22t22 53v75q0 31 -22 53t-53 22h-295v-225zM260 0v1197q0 93 66 159t159 66t159 -66t66 -159v-1197h-150v781h-150v-781h-150zM410 931h150v266q0 31 -22 53 t-53 22t-53 -22t-22 -53v-266z" glyph-name="p_A.liga" horiz-adv-x="740" unicode="pA"/><glyph d="M40 0v2000h445q93 0 159 -66t66 -159v-75q0 -93 -66 -159t-159 -66h-295v-1475h-150zM190 1625h295q31 0 53 22t22 53v75q0 31 -22 53t-53 22h-295v-225zM260 0v1405h225q93 0 159 -66t66 -159v-175q0 -85 -57 -150q57 -65 57 -150v-480q0 -93 -66 -159t-159 -66h-225z M410 150h75q31 0 53 22t22 53v480q0 31 -22 53t-53 22h-75v-630zM410 930h75q31 0 53 22t22 53v175q0 31 -22 53t-53 22h-75v-325z" glyph-name="p_B.liga" horiz-adv-x="740" unicode="pB"/><glyph d="M40 0v2000h445q93 0 159 -66t66 -159v-75q0 -93 -66 -159t-159 -66h-295v-1475h-150zM190 1625h295q31 0 53 22t22 53v75q0 31 -22 53t-53 22h-295v-225zM260 209v982q0 93 66 159t159 66t159 -66t66 -159v-300h-150v300q0 31 -22 53t-53 22t-53 -22t-22 -53v-982 q0 -31 22 -53t53 -22t53 22t22 53v300h150v-300q0 -93 -66 -159t-159 -66t-159 66t-66 159z" glyph-name="p_C.liga" horiz-adv-x="730" unicode="pC"/><glyph d="M40 0v2000h445q93 0 159 -66t66 -159v-75q0 -93 -66 -159t-159 -66h-295v-1475h-150zM190 1625h295q31 0 53 22t22 53v75q0 31 -22 53t-53 22h-295v-225zM260 0v1405h225q93 0 159 -66t66 -159v-955q0 -93 -66 -159t-159 -66h-225zM410 150h75q31 0 53 22t22 53v955 q0 31 -22 53t-53 22h-75v-1105z" glyph-name="p_D.liga" horiz-adv-x="740" unicode="pD"/><glyph d="M40 0v2000h405q93 0 159 -66t66 -159v-75q0 -93 -66 -159t-159 -66h-255v-1475h-150zM190 1625h255q31 0 53 22t22 53v75q0 31 -22 53t-53 22h-255v-225zM260 0v1405h410v-150h-260v-325h220v-150h-220v-630h260v-150h-410z" glyph-name="p_E.liga" horiz-adv-x="690" unicode="pE"/><glyph d="M40 0v2000h405q93 0 159 -66t66 -159v-75q0 -93 -66 -159t-159 -66h-255v-1475h-150zM190 1625h255q31 0 53 22t22 53v75q0 31 -22 53t-53 22h-255v-225zM260 0v1405h410v-150h-260v-325h220v-150h-220v-780h-150z" glyph-name="p_F.liga" horiz-adv-x="680" unicode="pF"/><glyph d="M40 0v2000h445q93 0 159 -66t66 -159v-75q0 -93 -66 -159t-159 -66h-295v-1475h-150zM190 1625h295q31 0 53 22t22 53v75q0 31 -22 53t-53 22h-295v-225zM260 209v982q0 93 66 159t159 66t159 -66t66 -159v-300h-150v300q0 31 -22 53t-53 22t-53 -22t-22 -53v-982 q0 -31 22 -53t53 -22t53 22t22 53v250h-75v150h225v-400q0 -93 -66 -159t-159 -66t-159 66t-66 159z" glyph-name="p_G.liga" horiz-adv-x="730" unicode="pG"/><glyph d="M40 0v2000h445q93 0 159 -66t66 -159v-75q0 -93 -66 -159t-159 -66h-295v-1475h-150zM190 1625h295q31 0 53 22t22 53v75q0 31 -22 53t-53 22h-295v-225zM260 0v1405h150v-480h150v480h150v-1405h-150v775h-150v-775h-150z" glyph-name="p_H.liga" horiz-adv-x="750" unicode="pH"/><glyph d="M40 0v2000h225q93 0 159 -66t66 -159v-75q0 -93 -66 -159t-159 -66h-75v-1475h-150zM190 1625h75q31 0 53 22t22 53v75q0 31 -22 53t-53 22h-75v-225zM260 0v1405h150v-1405h-150z" glyph-name="p_I.liga" horiz-adv-x="530" unicode="pI"/><glyph d="M90 0v2000h225q93 0 159 -66t66 -159v-75q0 -93 -66 -159t-159 -66h-75v-1475h-150zM10 -70h150q0 -31 22 -53t53 -22t53 22t22 53v1475h150v-1475q0 -93 -66 -159t-159 -66t-159 66t-66 159zM240 1625h75q31 0 53 22t22 53v75q0 31 -22 53t-53 22h-75v-225z" glyph-name="p_J.liga" horiz-adv-x="570" unicode="pJ"/><glyph d="M40 0v2000h445q93 0 159 -66t66 -159v-75q0 -93 -66 -159t-159 -66h-295v-1475h-150zM190 1625h295q31 0 53 22t22 53v75q0 31 -22 53t-53 22h-295v-225zM260 0v1405h150v-475h75q31 0 53 22t22 53v400h150v-400q0 -85 -57 -150q57 -65 57 -150v-705h-150v705 q0 31 -22 53t-53 22h-75v-780h-150z" glyph-name="p_K.liga" horiz-adv-x="750" unicode="pK"/><glyph d="M40 0v2000h225q93 0 159 -66t66 -159v-75q0 -93 -66 -159t-159 -66h-75v-1475h-150zM190 1625h75q31 0 53 22t22 53v75q0 31 -22 53t-53 22h-75v-225zM260 0v1405h150v-1255h260v-150h-410z" glyph-name="p_L.liga" horiz-adv-x="680" unicode="pL"/><glyph d="M560 600l-150 403v-1003h-150v1405h150l225 -604l225 604h150v-1405h-150v1003l-150 -403h-150zM40 0v2000h745q93 0 159 -66t66 -159v-75q0 -93 -66 -159t-159 -66h-595v-1475h-150zM190 1625h595q31 0 53 22t22 53v75q0 31 -22 53t-53 22h-595v-225z" glyph-name="p_M.liga" horiz-adv-x="1050" unicode="pM"/><glyph d="M40 0v2000h445q93 0 159 -66t66 -159v-75q0 -93 -66 -159t-159 -66h-295v-1475h-150zM190 1625h295q31 0 53 22t22 53v75q0 31 -22 53t-53 22h-295v-225zM260 0v1405h150l150 -250v250h150v-1405h-150v905l-150 250v-1155h-150z" glyph-name="p_N.liga" horiz-adv-x="750" unicode="pN"/><glyph d="M40 0v2000h445q93 0 159 -66t66 -159v-75q0 -93 -66 -159t-159 -66h-295v-1475h-150zM190 1625h295q31 0 53 22t22 53v75q0 31 -22 53t-53 22h-295v-225zM260 209v982q0 93 66 159t159 66t159 -66t66 -159v-982q0 -93 -66 -159t-159 -66t-159 66t-66 159zM410 209 q0 -31 22 -53t53 -22t53 22t22 53v982q0 31 -22 53t-53 22t-53 -22t-22 -53v-982z" glyph-name="p_O.liga" horiz-adv-x="740" unicode="pO"/><glyph d="M40 0v2000h445q93 0 159 -66t66 -159v-75q0 -93 -66 -159t-159 -66h-295v-1475h-150zM190 1625h295q31 0 53 22t22 53v75q0 31 -22 53t-53 22h-295v-225zM260 0v1405h225q93 0 159 -66t66 -159v-175q0 -93 -66 -159t-159 -66h-75v-780h-150zM410 930h75q31 0 53 22t22 53 v175q0 31 -22 53t-53 22h-75v-325z" glyph-name="p_P.liga" horiz-adv-x="720" unicode="pP"/><glyph d="M40 0v2000h445q93 0 159 -66t66 -159v-75q0 -93 -66 -159t-159 -66h-295v-1475h-150zM190 1625h295q31 0 53 22t22 53v75q0 31 -22 53t-53 22h-295v-225zM260 209v982q0 93 66 159t159 66t159 -66t66 -159v-982q0 -72 -42 -130t-108 -82v-197h-150v197q-66 24 -108 82 t-42 130zM410 209q0 -31 22 -53t53 -22t53 22t22 53v982q0 31 -22 53t-53 22t-53 -22t-22 -53v-982z" glyph-name="p_Q.liga" horiz-adv-x="740" unicode="pQ"/><glyph d="M40 0v2000h445q93 0 159 -66t66 -159v-75q0 -93 -66 -159t-159 -66h-295v-1475h-150zM190 1625h295q31 0 53 22t22 53v75q0 31 -22 53t-53 22h-295v-225zM260 0v1405h225q93 0 159 -66t66 -159v-175q0 -85 -57 -150q57 -65 57 -150v-705h-150v705q0 31 -22 53t-53 22h-75 v-780h-150zM410 930h75q31 0 53 22t22 53v175q0 31 -22 53t-53 22h-75v-325z" glyph-name="p_R.liga" horiz-adv-x="740" unicode="pR"/><glyph d="M40 0v2000h445q93 0 159 -66t66 -159v-75q0 -93 -66 -159t-159 -66h-295v-1475h-150zM190 1625h295q31 0 53 22t22 53v75q0 31 -22 53t-53 22h-295v-225zM260 209v200h150v-200q0 -31 22 -53t53 -22t53 22t22 53v341q0 31 -22 53t-53 22q-93 0 -159 66t-66 159v341 q0 93 66 159t159 66t159 -66t66 -159v-200h-150v200q0 31 -22 53t-53 22t-53 -22t-22 -53v-341q0 -31 22 -53t53 -22q93 0 159 -66t66 -159v-341q0 -93 -66 -159t-159 -66t-159 66t-66 159z" glyph-name="p_S.liga" horiz-adv-x="740" unicode="pS"/><glyph d="M560 0v1850h-520v150h820v-150h-150v-1850h-150zM40 0v1780h225q93 0 159 -66t66 -159v-75q0 -93 -66 -159t-159 -66h-75v-1255h-150zM190 1405h75q31 0 53 22t22 53v75q0 31 -22 53t-53 22h-75v-225z" glyph-name="p_T.liga" horiz-adv-x="870" unicode="pT"/><glyph d="M40 0v2000h445q93 0 159 -66t66 -159v-75q0 -93 -66 -159t-159 -66h-295v-1475h-150zM190 1625h295q31 0 53 22t22 53v75q0 31 -22 53t-53 22h-295v-225zM260 209v1196h150v-1196q0 -31 22 -53t53 -22t53 22t22 53v1196h150v-1196q0 -93 -66 -159t-159 -66t-159 66 t-66 159z" glyph-name="p_U.liga" horiz-adv-x="740" unicode="pU"/><glyph d="M350 0l-100 1405h150l62 -874l7 -436h12l7 436l62 874h150l-100 -1405h-250zM40 0v2000h435q93 0 159 -66t66 -159v-75q0 -93 -66 -159t-159 -66h-285v-1475h-150zM475 1625q31 0 53 22t22 53v75q0 31 -22 53t-53 22h-285v-225h285z" glyph-name="p_V.liga" horiz-adv-x="710" unicode="pV"/><glyph d="M40 0v2000h745q93 0 159 -66t66 -159v-75q0 -93 -66 -159t-159 -66h-595v-1475h-150zM190 1625h595q31 0 53 22t22 53v75q0 31 -22 53t-53 22h-595v-225zM260 209v1196h150v-1196q0 -31 22 -53t53 -22t53 22t22 53v1196h150v-1196q0 -31 22 -53t53 -22t53 22t22 53v1196 h150v-1196q0 -93 -66 -159t-159 -66q-85 0 -150 57q-65 -57 -150 -57q-93 0 -159 66t-66 159z" glyph-name="p_W.liga" horiz-adv-x="1040" unicode="pW"/><glyph d="M40 0v2000h445q93 0 159 -66t66 -159v-75q0 -93 -66 -159t-159 -66h-295v-1475h-150zM190 1625h295q31 0 53 22t22 53v75q0 31 -22 53t-53 22h-295v-225zM260 0v535q0 57 26 105.5t71 79.5q-45 31 -71 79.5t-26 105.5v500h150v-500q0 -31 22 -53t53 -22t53 22t22 53v500 h150v-500q0 -57 -26 -105.5t-71 -79.5q45 -31 71 -79.5t26 -105.5v-535h-150v535q0 31 -22 53t-53 22t-53 -22t-22 -53v-535h-150z" glyph-name="p_X.liga" horiz-adv-x="740" unicode="pX"/><glyph d="M40 0v2000h445q93 0 159 -66t66 -159v-75q0 -93 -66 -159t-159 -66h-295v-1475h-150zM190 1625h295q31 0 53 22t22 53v75q0 31 -22 53t-53 22h-295v-225zM260 900v505h150v-505q0 -31 22 -53t53 -22t53 22t22 53v505h150v-505q0 -72 -42 -130t-108 -82v-688h-150v688 q-66 24 -108 82t-42 130z" glyph-name="p_Y.liga" horiz-adv-x="720" unicode="pY"/><glyph d="M260 0l268 1255h-268v150h450l-268 -1255h268v-150h-450zM40 0v2000h445q93 0 159 -66t66 -159v-75q0 -93 -66 -159t-159 -66h-295v-1475h-150zM190 1625h295q31 0 53 22t22 53v75q0 31 -22 53t-53 22h-295v-225z" glyph-name="p_Z.liga" horiz-adv-x="730" unicode="pZ"/><glyph d="M40 0v2000h225q93 0 159 -66t66 -159v-75q0 -93 -66 -159t-159 -66h-75v-1475h-150zM190 1625h75q31 0 53 22t22 53v75q0 31 -22 53t-53 22h-75v-225zM260 0v1155h150v-1155h-150zM260 1255v150h150v-150h-150z" glyph-name="p_i.liga" horiz-adv-x="530" unicode="pi"/><glyph d="M90 0v2000h225q93 0 159 -66t66 -159v-75q0 -93 -66 -159t-159 -66h-75v-1475h-150zM10 -70h150q0 -31 22 -53t53 -22t53 22t22 53v1225h150v-1225q0 -93 -66 -159t-159 -66t-159 66t-66 159zM240 1625h75q31 0 53 22t22 53v75q0 31 -22 53t-53 22h-75v-225zM310 1255 v150h150v-150h-150z" glyph-name="p_j.liga" horiz-adv-x="570" unicode="pj"/><glyph d="M40 0v2000h745q93 0 159 -66t66 -159v-75q0 -93 -66 -159t-159 -66h-595v-1475h-150zM190 1625h595q31 0 53 22t22 53v75q0 31 -22 53t-53 22h-595v-225zM260 0v1191q0 93 66 159t159 66q85 0 150 -57q65 57 150 57q93 0 159 -66t66 -159v-1191h-150v1191q0 31 -22 53 t-53 22t-53 -22t-22 -53v-1191h-150v1191q0 31 -22 53t-53 22t-53 -22t-22 -53v-1191h-150z" glyph-name="p_m.liga" horiz-adv-x="1040" unicode="pm"/><glyph d="M40 0v2000h445q93 0 159 -66t66 -159v-75q0 -93 -66 -159t-159 -66h-295v-1475h-150zM190 1625h295q31 0 53 22t22 53v75q0 31 -22 53t-53 22h-295v-225zM260 0v1191q0 93 66 159t159 66t159 -66t66 -159v-1191h-150v1191q0 31 -22 53t-53 22t-53 -22t-22 -53v-1191h-150 z" glyph-name="p_n.liga" horiz-adv-x="740" unicode="pn"/><glyph d="M1025 2200v-2500h-792v2500h792zM418 -127h415v82h-255l175 118h80v82h-415v-82h175l-175 -118v-82zM418 213h415v282h-415v-282zM418 645h415v283h-250v-140h85v57h82v-117h-250v200h-82v-283zM418 983h415v250h-83v-165h-332v-85zM418 1125h250v175h165v83h-415v-83 h165v-92h-165v-83zM418 1450h415v85h-165v175h-250v-260zM418 1775h415v83h-165v92h165v83h-413v-83h163v-92h-165v-83zM500 295v118h250v-118h-250zM500 1535v90h83v-90h-83z" glyph-name=".notdef" horiz-adv-x="1250"/><glyph glyph-name="glyph1" horiz-adv-x="0"/><glyph glyph-name="glyph2" horiz-adv-x="333"/><glyph glyph-name="space" horiz-adv-x="250" unicode=" "/><glyph glyph-name="space" horiz-adv-x="250" unicode=""/><glyph d="M40 300v1700h150v-1700h-150zM40 0v150h150v-150h-150z" glyph-name="exclam" horiz-adv-x="230" unicode="!"/><glyph d="M81 1850l20 150h-61v150h151l-40 -300h-70zM240 2000v150h151l-40 -300h-70l20 150h-61z" glyph-name="quotedbl" horiz-adv-x="431" unicode="&quot;"/><glyph d="M470 0l190 725h-280l-190 -725h-150l190 725h-189v150h229l65 250h-172v150h212l190 725h150l-190 -725h280l190 725h150l-190 -725h186v-150h-226l-65 -250h169v-150h-209l-190 -725h-150zM420 875h280l65 250h-280z" glyph-name="numbersign" horiz-adv-x="1185" unicode="#"/><glyph d="M330 850q0 44 -40 66v-773q40 22 40 66v641zM30 209v500h150v-500q0 -27 17 -47.5t43 -25.5v789q-88 6 -149 71t-61 154v641q0 89 61 154t149 71v184h50v-187q81 -13 135.5 -76t54.5 -146v-500h-150v500q0 44 -40 66v-785q81 -13 135.5 -76t54.5 -146v-641 q0 -83 -54.5 -146t-135.5 -76v-187h-50v184q-88 6 -149 71t-61 154zM180 1150q0 -27 17 -47.5t43 -25.5v787q-26 -5 -43 -25.5t-17 -47.5v-641z" glyph-name="dollar" unicode="$"/><glyph d="M40 1791q0 93 66 159t159 66t159 -66t66 -159v-98q0 -93 -66 -159t-159 -66t-159 66t-66 159v98zM92 0l700 2000h150l-700 -2000h-150zM190 1693q0 -31 22 -53t53 -22t53 22t22 53v98q0 31 -22 53t-53 22t-53 -22t-22 -53v-98zM540 209v98q0 93 66 159t159 66t159 -66 t66 -159v-98q0 -93 -66 -159t-159 -66t-159 66t-66 159zM690 209q0 -31 22 -53t53 -22t53 22t22 53v98q0 31 -22 53t-53 22t-53 -22t-22 -53v-98z" glyph-name="percent" horiz-adv-x="1030" unicode="%"/><glyph d="M440 445v630h-175q-31 0 -53 -22t-22 -53v-775q0 -31 22 -53t53 -22h400v-150h-400q-93 0 -159 66t-66 159v775q0 85 57 150q-57 65 -57 150v475q0 93 66 159t159 66h100q93 0 159 -66t66 -159h-150q0 31 -22 53t-53 22h-100q-31 0 -53 -22t-22 -53v-475q0 -31 22 -53 t53 -22h175v200h150v-200h150v-150h-150v-630q0 -31 22 -53t53 -22v-150q-93 0 -159 66t-66 159z" glyph-name="ampersand" horiz-adv-x="780" unicode="&amp;"/><glyph d="M81 1850l20 150h-61v150h151l-40 -300h-70z" glyph-name="quotesingle" horiz-adv-x="231" unicode="'"/><glyph d="M240 0l-200 1000l200 1000h150l-200 -1000l200 -1000h-150z" glyph-name="parenleft" horiz-adv-x="430" unicode="("/><glyph d="M190 0h-150l200 1000l-200 1000h150l200 -1000z" glyph-name="parenright" horiz-adv-x="430" unicode=")"/><glyph d="M219 1500l37 183l-141 -123l-75 130l177 60l-177 60l75 130l141 -123l-37 183h150l-37 -184l141 124l75 -130l-176 -60l176 -60l-75 -130l-141 124l37 -184h-150z" glyph-name="asterisk" horiz-adv-x="588" unicode="*"/><glyph d="M40 450v150h150v150h150v-150h150v-150h-150v-150h-150v150h-150z" glyph-name="plus" horiz-adv-x="530" unicode="+"/><glyph d="M81 -150l20 150h-61v150h151l-40 -300h-70z" glyph-name="comma" horiz-adv-x="231" unicode=","/><glyph d="M40 450v150h400v-150h-400z" glyph-name="hyphen" horiz-adv-x="480" unicode="-"/><glyph d="M40 0v150h150v-150h-150z" glyph-name="period" horiz-adv-x="230" unicode="."/><glyph d="M40 0l525 2000h150l-525 -2000h-150z" glyph-name="slash" horiz-adv-x="755" unicode="/"/><glyph d="M340 209v1582q0 31 -22 53t-53 22t-53 -22t-22 -53v-1582q0 -31 22 -53t53 -22t53 22t22 53zM40 209v1582q0 93 66 159t159 66t159 -66t66 -159v-1582q0 -93 -66 -159t-159 -66t-159 66t-66 159z" glyph-name="zero" horiz-adv-x="530" unicode="0"/><glyph d="M190 0v1850h-150v150h300v-2000h-150z" glyph-name="one" horiz-adv-x="380" unicode="1"/><glyph d="M40 850q0 93 66 159t159 66q31 0 53 22t22 53v641q0 31 -22 53t-53 22t-53 -22t-22 -53v-500h-150v500q0 93 66 159t159 66t159 -66t66 -159v-641q0 -93 -66 -159t-159 -66q-31 0 -53 -22t-22 -53v-700h300v-150h-450v850z" glyph-name="two" horiz-adv-x="530" unicode="2"/><glyph d="M340 209v791q0 31 -22 53t-53 22h-75v150h75q31 0 53 22t22 53v491q0 31 -22 53t-53 22t-53 -22t-22 -53v-500h-150v500q0 93 66 159t159 66t159 -66t66 -159v-491q0 -85 -57 -150q57 -65 57 -150v-791q0 -93 -66 -159t-159 -66t-159 66t-66 159v500h150v-500 q0 -31 22 -53t53 -22t53 22t22 53z" glyph-name="three" horiz-adv-x="530" unicode="3"/><glyph d="M40 600l300 1400h150v-2000h-150v600h-300zM222 750h118v550z" glyph-name="four" horiz-adv-x="530" unicode="4"/><glyph d="M340 209v791q0 31 -22 53t-53 22q-93 0 -159 66t-66 159v700h450v-150h-300v-550q0 -31 22 -53t53 -22q93 0 159 -66t66 -159v-791q0 -93 -66 -159t-159 -66t-159 66t-66 159v500h150v-500q0 -31 22 -53t53 -22t53 22t22 53z" glyph-name="five" horiz-adv-x="530" unicode="5"/><glyph d="M40 1791q0 93 66 159t159 66t159 -66t66 -159v-250h-150v250q0 31 -22 53t-53 22t-53 -22t-22 -53v-579q37 13 75 13q93 0 159 -66t66 -159v-791q0 -93 -66 -159t-159 -66t-159 66t-66 159v1582zM190 209q0 -31 22 -53t53 -22t53 22t22 53v791q0 31 -22 53t-53 22 t-53 -22t-22 -53v-791z" glyph-name="six" horiz-adv-x="530" unicode="6"/><glyph d="M110 0l213 1850h-283v150h450l-230 -2000h-150z" glyph-name="seven" horiz-adv-x="530" unicode="7"/><glyph d="M340 209v791q0 31 -22 53t-53 22t-53 -22t-22 -53v-791q0 -31 22 -53t53 -22t53 22t22 53zM40 209v791q0 85 57 150q-57 65 -57 150v491q0 93 66 159t159 66t159 -66t66 -159v-491q0 -85 -57 -150q57 -65 57 -150v-791q0 -93 -66 -159t-159 -66t-159 66t-66 159z M190 1300q0 -31 22 -53t53 -22t53 22t22 53v491q0 31 -22 53t-53 22t-53 -22t-22 -53v-491z" glyph-name="eight" horiz-adv-x="530" unicode="8"/><glyph d="M340 1000v791q0 31 -22 53t-53 22t-53 -22t-22 -53v-791q0 -31 22 -53t53 -22t53 22t22 53zM40 209v250h150v-250q0 -31 22 -53t53 -22t53 22t22 53v579q-37 -13 -75 -13q-93 0 -159 66t-66 159v791q0 93 66 159t159 66t159 -66t66 -159v-1582q0 -93 -66 -159t-159 -66 t-159 66t-66 159z" glyph-name="nine" horiz-adv-x="530" unicode="9"/><glyph d="M40 0v150h150v-150h-150zM40 900v150h150v-150h-150z" glyph-name="colon" horiz-adv-x="230" unicode=":"/><glyph d="M40 900v150h150v-150h-150zM40 0v150h151l-40 -300h-70l20 150h-61z" glyph-name="semicolon" horiz-adv-x="231" unicode=";"/><glyph d="M40 450v150l450 200v-150l-281 -125l281 -125v-150z" glyph-name="less" horiz-adv-x="530" unicode="&lt;"/><glyph d="M40 575v150h450v-150h-450zM40 325v150h450v-150h-450z" glyph-name="equal" horiz-adv-x="530" unicode="="/><glyph d="M490 450l-450 -200v150l281 125l-281 125v150l450 -200v-150z" glyph-name="greater" horiz-adv-x="530" unicode=">"/><glyph d="M190 300l150 1491q0 31 -22 53t-53 22t-53 -22t-22 -53v-500h-150v500q0 93 66 159t159 66t159 -66t66 -159l-150 -1491h-150zM190 0v150h150v-150h-150z" glyph-name="question" horiz-adv-x="530" unicode="?"/><glyph d="M40 1561q0 188 133.5 321.5t321.5 133.5t321.5 -133.5t133.5 -321.5v-1091q0 -79 -55.5 -134.5t-134.5 -55.5t-134.5 55.5t-55.5 134.5v575h-150v-675h-150v1191q0 93 66 159t159 66t159 -66t66 -159v-1091q0 -16 12 -28t28 -12t28 12t12 28v1091q0 124 -90 213.5 t-215 89.5t-215 -89.5t-90 -213.5v-1122q0 -124 90 -213.5t215 -89.5t216 91l119 -96q-64 -69 -151 -108t-184 -39q-188 0 -321.5 133.5t-133.5 321.5v1122zM420 1195h150v366q0 31 -22 53t-53 22t-53 -22t-22 -53v-366z" glyph-name="at" horiz-adv-x="990" unicode="@"/><glyph d="M330 0v1075h-150v-1075h-150v1791q0 93 66 159t159 66t159 -66t66 -159v-1791h-150zM180 1225h150v566q0 31 -22 53t-53 22t-53 -22t-22 -53v-566z" glyph-name="A" unicode="A"/><glyph d="M40 0v2000h225q93 0 159 -66t66 -159v-475q0 -85 -57 -150q57 -65 57 -150v-775q0 -93 -66 -159t-159 -66h-225zM190 150h75q31 0 53 22t22 53v775q0 31 -22 53t-53 22h-75v-925zM190 1225h75q31 0 53 22t22 53v475q0 31 -22 53t-53 22h-75v-625z" glyph-name="B" horiz-adv-x="520" unicode="B"/><glyph d="M30 209v1582q0 93 66 159t159 66t159 -66t66 -159v-500h-150v500q0 31 -22 53t-53 22t-53 -22t-22 -53v-1582q0 -31 22 -53t53 -22t53 22t22 53v500h150v-500q0 -93 -66 -159t-159 -66t-159 66t-66 159z" glyph-name="C" horiz-adv-x="500" unicode="C"/><glyph d="M40 0v2000h225q93 0 159 -66t66 -159v-1550q0 -93 -66 -159t-159 -66h-225zM190 150h75q31 0 53 22t22 53v1550q0 31 -22 53t-53 22h-75v-1700z" glyph-name="D" horiz-adv-x="520" unicode="D"/><glyph d="M40 0v2000h410v-150h-260v-625h220v-150h-220v-925h260v-150h-410z" glyph-name="E" horiz-adv-x="470" unicode="E"/><glyph d="M40 0v2000h410v-150h-260v-625h220v-150h-220v-1075h-150z" glyph-name="F" horiz-adv-x="460" unicode="F"/><glyph d="M40 209v1582q0 93 66 159t159 66t159 -66t66 -159v-500h-150v500q0 31 -22 53t-53 22t-53 -22t-22 -53v-1582q0 -31 22 -53t53 -22t53 22t22 53v350h-75v150h225v-500q0 -93 -66 -159t-159 -66t-159 66t-66 159z" glyph-name="G" unicode="G"/><glyph d="M340 0v1075h-150v-1075h-150v2000h150v-775h150v775h150v-2000h-150z" glyph-name="H" horiz-adv-x="530" unicode="H"/><glyph d="M40 0v2000h150v-2000h-150z" glyph-name="I" horiz-adv-x="230" unicode="I"/><glyph d="M310 209v1791h150v-1791q0 -93 -66 -159t-159 -66t-159 66t-66 159h150q0 -31 22 -53t53 -22t53 22t22 53z" glyph-name="J" horiz-adv-x="490" unicode="J"/><glyph d="M40 0v2000h150v-775h75q31 0 53 22t22 53v700h150v-700q0 -85 -57 -150q57 -65 57 -150v-1000h-150v1000q0 31 -22 53t-53 22h-75v-1075h-150z" glyph-name="K" horiz-adv-x="530" unicode="K"/></font>
</defs>
</svg>
